<svg width="80" height="80" viewBox="0 0 80 80" fill="none" xmlns="http://www.w3.org/2000/svg">
<rect width="80" height="80" rx="30" fill="#ECFCCB"/>
<path fill-rule="evenodd" clip-rule="evenodd" d="M39.3572 29H40.6428C41.7266 29 42.6007 29 43.3086 29.0578C44.0375 29.1174 44.6777 29.2432 45.27 29.545C46.2108 30.0243 46.9757 30.7892 47.455 31.73C47.7568 32.3223 47.8826 32.9625 47.9422 33.6914C48 34.3993 48 35.2734 48 36.3572V36.6428C48 37.7266 48 38.6007 47.9422 39.3086C47.8826 40.0375 47.7568 40.6777 47.455 41.27C46.9757 42.2108 46.2108 42.9757 45.27 43.455C44.6777 43.7568 44.0375 43.8826 43.3086 43.9422C42.6007 44 41.7266 44 40.6428 44H39.3572C38.2734 44 37.3993 44 36.6914 43.9422C35.9625 43.8826 35.3223 43.7568 34.73 43.455C33.7892 42.9757 33.0243 42.2108 32.545 41.27C32.2432 40.6777 32.1174 40.0375 32.0578 39.3086C32 38.6007 32 37.7266 32 36.6428V36.3572C32 35.2734 32 34.3993 32.0578 33.6914C32.1174 32.9625 32.2432 32.3223 32.545 31.73C33.0243 30.7892 33.7892 30.0243 34.73 29.545C35.3223 29.2432 35.9625 29.1174 36.6914 29.0578C37.3993 29 38.2734 29 39.3572 29ZM41 36C41 35.4477 40.5523 35 40 35C39.4477 35 39 35.4477 39 36L39 42C39 42.5523 39.4477 43 40 43C40.5523 43 41 42.5523 41 42V36Z" fill="#84CC16"/>
<path d="M37 45C36.4477 45 36 45.4477 36 46C36 46.5523 36.4477 47 37 47H43C43.5523 47 44 46.5523 44 46C44 45.4477 43.5523 45 43 45H37Z" fill="#84CC16"/>
<path d="M38 49C38 48.4477 38.4477 48 39 48H41C41.5523 48 42 48.4477 42 49C42 49.5523 41.5523 50 41 50H39C38.4477 50 38 49.5523 38 49Z" fill="#84CC16"/>
</svg>
