<svg width="81" height="80" viewBox="0 0 81 80" fill="none" xmlns="http://www.w3.org/2000/svg">
<rect x="0.666504" width="80" height="80" rx="30" fill="#FFE4E7"/>
<path fill-rule="evenodd" clip-rule="evenodd" d="M35.8949 33.852C36.0827 33.3985 36.3769 33.0026 36.7472 32.6943C37.0605 34.0164 38.2486 35 39.6665 35H41.6665C43.0844 35 44.2725 34.0164 44.5858 32.6942C45.175 33.185 45.5724 33.8976 45.6521 34.706C45.7062 35.2556 46.1956 35.6573 46.7453 35.6031C47.2949 35.549 47.6966 35.0595 47.6424 34.5099C47.4086 32.136 45.5305 30.2579 43.1566 30.0241C42.9112 29.9999 42.633 30 42.2244 30L40.631 30C39.7292 30 39.0018 30 38.4098 30.0404C37.8011 30.0819 37.2628 30.1695 36.7531 30.3806C35.5279 30.8881 34.5546 31.8615 34.0471 33.0866C33.836 33.5963 33.7484 34.1346 33.7069 34.7433C33.6665 35.3353 33.6665 36.0627 33.6665 36.9645V43.0355C33.6665 43.9373 33.6665 44.6647 33.7069 45.2567C33.7484 45.8654 33.836 46.4037 34.0471 46.9134C34.5546 48.1386 35.5279 49.1119 36.7531 49.6194C37.2628 49.8305 37.8011 49.9181 38.4098 49.9596C39.0018 50 39.7292 50 40.631 50L41.3402 50.0001C42.5675 50.0005 43.4055 50.0008 44.1179 49.7847C45.7159 49.3 46.9665 48.0494 47.4512 46.4514C47.6673 45.739 47.667 44.901 47.6665 43.6737L47.6665 43.5C47.6665 42.9477 47.2188 42.5 46.6665 42.5C46.1142 42.5 45.6665 42.9477 45.6665 43.5C45.6665 44.9683 45.6557 45.4808 45.5373 45.8709C45.2465 46.8297 44.4962 47.58 43.5374 47.8708C43.1473 47.9892 42.6348 48 41.1665 48H40.6665C39.7209 48 39.0618 47.9995 38.546 47.9643C38.039 47.9297 37.7438 47.865 37.5185 47.7716C36.7834 47.4672 36.1993 46.8831 35.8949 46.1481C35.8015 45.9227 35.7368 45.6275 35.7022 45.1206C35.667 44.6047 35.6665 43.9456 35.6665 43V37C35.6665 36.0544 35.667 35.3954 35.7022 34.8795C35.7368 34.3725 35.8015 34.0773 35.8949 33.852Z" fill="#F43F5E"/>
<path d="M50.3736 36.7071C50.7641 36.3166 50.7641 35.6834 50.3736 35.2929C49.9831 34.9024 49.3499 34.9024 48.9594 35.2929L43.9594 40.2929C43.0844 41.1679 42.8116 41.422 42.5545 41.5494C41.995 41.8267 41.338 41.8267 40.7785 41.5494C40.5214 41.422 40.2486 41.1679 39.3736 40.2929C38.9831 39.9024 38.3499 39.9024 37.9594 40.2929C37.5689 40.6834 37.5689 41.3166 37.9594 41.7071L38.0803 41.8281C38.779 42.5278 39.2988 43.0483 39.8904 43.3414C41.0095 43.896 42.3235 43.896 43.4426 43.3414C44.0342 43.0483 44.554 42.5278 45.2527 41.8281L50.3736 36.7071Z" fill="#F43F5E"/>
</svg>
