<svg width="81" height="80" viewBox="0 0 81 80" fill="none" xmlns="http://www.w3.org/2000/svg">
<rect x="0.333496" width="80" height="80" rx="30" fill="#EFF6FF"/>
<path d="M40.3015 30C39.8629 30 39.4844 30 39.1711 30.0214C38.8413 30.0439 38.5114 30.0934 38.1854 30.2284C37.4504 30.5328 36.8663 31.1169 36.5619 31.852C36.4269 32.1779 36.3774 32.5078 36.3548 32.8376C36.3335 33.1509 36.3335 33.5294 36.3335 33.968L36.3335 34C36.3335 34.4796 36.333 34.7893 36.3168 35.0262C36.3012 35.2542 36.2746 35.3411 36.2574 35.3827C36.1559 35.6277 35.9612 35.8224 35.7162 35.9239C35.6746 35.9411 35.5877 35.9677 35.3597 35.9833C35.1228 35.9995 34.8131 36 34.3335 36L34.3015 36C33.8629 36 33.4844 36 33.1711 36.0214C32.8413 36.0439 32.5114 36.0934 32.1854 36.2284C31.4504 36.5328 30.8663 37.1169 30.5619 37.852C30.4269 38.1779 30.3774 38.5078 30.3548 38.8376C30.3335 39.1509 30.3335 39.5293 30.3335 39.968V40.032C30.3335 40.4706 30.3335 40.8491 30.3548 41.1624C30.3774 41.4922 30.4269 41.8221 30.5619 42.1481C30.8663 42.8831 31.4504 43.4672 32.1854 43.7716C32.5114 43.9066 32.8413 43.9561 33.1711 43.9787C33.4844 44 33.8628 44 34.3015 44H34.3335C34.8131 44 35.1228 44.0005 35.3597 44.0167C35.5877 44.0323 35.6746 44.0589 35.7162 44.0761C35.9612 44.1776 36.1559 44.3723 36.2574 44.6173C36.2746 44.6589 36.3012 44.7458 36.3168 44.9738C36.333 45.2107 36.3335 45.5204 36.3335 46L36.3335 46.032C36.3335 46.4706 36.3335 46.8491 36.3548 47.1624C36.3774 47.4922 36.4269 47.8221 36.5619 48.1481C36.8663 48.8831 37.4504 49.4672 38.1854 49.7716C38.5114 49.9066 38.8413 49.9561 39.1711 49.9787C39.4844 50 39.8629 50 40.3015 50H40.3655C40.8041 50 41.1826 50 41.4959 49.9787C41.8257 49.9561 42.1556 49.9066 42.4815 49.7716C43.2166 49.4672 43.8007 48.8831 44.1051 48.1481C44.2401 47.8221 44.2896 47.4922 44.3121 47.1624C44.3335 46.8491 44.3335 46.4707 44.3335 46.032V46C44.3335 45.5204 44.334 45.2107 44.3502 44.9738C44.3658 44.7458 44.3924 44.6589 44.4096 44.6173C44.5111 44.3723 44.7058 44.1776 44.9508 44.0761C44.9924 44.0589 45.0793 44.0323 45.3073 44.0167C45.5442 44.0005 45.8539 44 46.3335 44H46.3655C46.8041 44 47.1826 44 47.4959 43.9787C47.8257 43.9561 48.1556 43.9066 48.4815 43.7716C49.2166 43.4672 49.8007 42.8831 50.1051 42.1481C50.2401 41.8221 50.2896 41.4922 50.3121 41.1624C50.3335 40.8491 50.3335 40.4706 50.3335 40.032V39.968C50.3335 39.5294 50.3335 39.1509 50.3121 38.8376C50.2896 38.5078 50.2401 38.1779 50.1051 37.852C49.8007 37.1169 49.2166 36.5328 48.4815 36.2284C48.1556 36.0934 47.8257 36.0439 47.4959 36.0214C47.1826 36 46.8041 36 46.3655 36L46.3335 36C45.8539 36 45.5442 35.9995 45.3073 35.9833C45.0793 35.9677 44.9924 35.9411 44.9508 35.9239C44.7058 35.8224 44.5111 35.6277 44.4096 35.3827C44.3924 35.3411 44.3658 35.2542 44.3502 35.0262C44.334 34.7893 44.3335 34.4796 44.3335 34V33.968C44.3335 33.5294 44.3335 33.1509 44.3121 32.8376C44.2896 32.5078 44.2401 32.1779 44.1051 31.852C43.8007 31.1169 43.2166 30.5328 42.4815 30.2284C42.1556 30.0934 41.8257 30.0439 41.4959 30.0214C41.1826 30 40.8042 30 40.3655 30H40.3015Z" fill="#60A5FA"/>
</svg>
