<svg width="80" height="80" viewBox="0 0 80 80" fill="none" xmlns="http://www.w3.org/2000/svg">
<rect width="80" height="80" rx="30" fill="#EDE9FE"/>
<path d="M36 31C36.5523 31 37 31.4477 37 32V33.0043C37.2602 33 37.5583 33 37.9126 33H42.0875C42.4417 33 42.7398 33 43 33.0043V32C43 31.4477 43.4477 31 44 31C44.5523 31 45 31.4477 45 32V33.2913C46.9152 33.8614 48.482 35.2226 49.3253 37H30.6748C31.518 35.2227 33.0848 33.8614 35 33.2914V32C35 31.4477 35.4477 31 36 31Z" fill="#8B5CF6"/>
<path fill-rule="evenodd" clip-rule="evenodd" d="M30.0718 39H49.9282C49.9324 39.0287 49.9363 39.0575 49.9401 39.0863C50.0001 39.5421 50.0001 40.0671 50 40.9125V41.0875C50.0001 41.9329 50.0001 42.4579 49.9401 42.9137C49.5266 46.0548 47.0548 48.5266 43.9137 48.9401C43.4579 49.0001 42.9329 49.0001 42.0874 49H37.9126C37.0671 49.0001 36.5421 49.0001 36.0863 48.9401C32.9452 48.5266 30.4734 46.0548 30.0599 42.9137C29.9999 42.4579 29.9999 41.9329 30 41.0875V40.9126C29.9999 40.0671 29.9999 39.5421 30.0599 39.0863C30.0637 39.0575 30.0677 39.0287 30.0718 39ZM40 42C39.4477 42 39 42.4477 39 43C39 43.5523 39.4477 44 40 44C40.5523 44 41 43.5523 41 43C41 42.4477 40.5523 42 40 42ZM43 43C43 42.4477 43.4477 42 44 42C44.5523 42 45 42.4477 45 43C45 43.5523 44.5523 44 44 44C43.4477 44 43 43.5523 43 43ZM36 42C35.4477 42 35 42.4477 35 43C35 43.5523 35.4477 44 36 44C36.5523 44 37 43.5523 37 43C37 42.4477 36.5523 42 36 42Z" fill="#8B5CF6"/>
</svg>
