<svg width="81" height="80" viewBox="0 0 81 80" fill="none" xmlns="http://www.w3.org/2000/svg">
<rect x="0.666504" width="80" height="80" rx="30" fill="#F5F5F5"/>
<path fill-rule="evenodd" clip-rule="evenodd" d="M41.6974 50.2856C41.0177 50.4288 40.3155 50.4288 39.6357 50.2856C38.8649 50.1232 38.1567 49.7181 37.1321 49.1321L36.256 48.6315C35.216 48.0377 34.4971 47.6273 33.9613 47.0359C33.4888 46.5145 33.1317 45.8991 32.9134 45.2301C32.6658 44.4715 32.6661 43.6438 32.6665 42.4461L32.6666 37.3572C32.6666 36.2734 32.6666 35.3993 32.7244 34.6914C32.784 33.9625 32.9098 33.3223 33.2116 32.73C33.6909 31.7892 34.4558 31.0243 35.3966 30.545C35.9889 30.2432 36.6291 30.1174 37.358 30.0578C38.0658 30 38.9399 30 40.0236 30H41.3094C42.3931 30 43.2674 30 43.9752 30.0578C44.7041 30.1174 45.3442 30.2432 45.9365 30.545C46.8773 31.0243 47.6423 31.7892 48.1216 32.73C48.4234 33.3223 48.5492 33.9625 48.6088 34.6914C48.6666 35.3993 48.6666 36.2734 48.6666 37.3572L48.6666 42.4461C48.6671 43.6438 48.6674 44.4715 48.4198 45.2301C48.2015 45.8991 47.8444 46.5145 47.3719 47.0359C46.836 47.6273 46.1172 48.0377 45.0771 48.6315L44.2011 49.1321C43.1765 49.7181 42.4682 50.1232 41.6974 50.2856ZM36.6666 40C36.6666 39.4477 37.1143 39 37.6666 39H39.6666V37C39.6666 36.4477 40.1143 36 40.6666 36C41.2189 36 41.6666 36.4477 41.6666 37V39H43.6666C44.2189 39 44.6666 39.4477 44.6666 40C44.6666 40.5523 44.2189 41 43.6666 41H41.6666V43C41.6666 43.5523 41.2189 44 40.6666 44C40.1143 44 39.6666 43.5523 39.6666 43V41H37.6666C37.1143 41 36.6666 40.5523 36.6666 40Z" fill="#849087"/>
</svg>
