<svg width="81" height="80" viewBox="0 0 81 80" fill="none" xmlns="http://www.w3.org/2000/svg">
<rect x="0.333496" width="80" height="80" rx="30" fill="#ECFCCB"/>
<path fill-rule="evenodd" clip-rule="evenodd" d="M40.196 30H40.4712C41.2666 29.9996 41.8572 29.9993 42.3689 30.1364C43.7492 30.5063 44.8274 31.5845 45.1973 32.9648C45.3344 33.4765 45.3341 34.0671 45.3336 34.8625L45.3336 35.0001L45.4712 35C46.2666 34.9996 46.8572 34.9993 47.3689 35.1364C48.7492 35.5063 49.8274 36.5845 50.1973 37.9648C50.3344 38.4765 50.3341 39.0671 50.3336 39.8625V40.1377C50.3341 40.9331 50.3344 41.5237 50.1973 42.0354C49.8274 43.4157 48.7492 44.4939 47.3689 44.8638C46.8572 45.0009 46.2666 45.0006 45.4712 45.0001L45.3435 45.0001C45.3527 45.2577 45.3699 45.399 45.4018 45.5178C45.5867 46.2079 46.1258 46.747 46.816 46.932C47.0383 46.9915 47.3393 47.0001 48.3336 47.0001C48.8859 47.0001 49.3336 47.4478 49.3336 48.0001C49.3336 48.5524 48.8859 49.0001 48.3336 49.0001L48.196 49.0002C47.4007 49.0006 46.81 49.0009 46.2983 48.8638C44.918 48.494 43.8398 47.4158 43.4699 46.0354C43.3875 45.7279 43.3548 45.3919 43.3418 45.0001H41.3336V49.0001C41.3336 49.5524 40.8859 50.0001 40.3336 50.0001C39.7813 50.0001 39.3336 49.5524 39.3336 49.0001V45.0001H37.3254C37.3125 45.3919 37.2797 45.7279 37.1973 46.0354C36.8275 47.4158 35.7493 48.494 34.3689 48.8638C33.8572 49.0009 33.2666 49.0006 32.4712 49.0002L32.3336 49.0001C31.7813 49.0001 31.3336 48.5524 31.3336 48.0001C31.3336 47.4478 31.7813 47.0001 32.3336 47.0001C33.328 47.0001 33.629 46.9915 33.8513 46.932C34.5414 46.747 35.0805 46.2079 35.2655 45.5178C35.2973 45.399 35.3146 45.2577 35.3238 45.0001L35.196 45.0001C34.4006 45.0006 33.81 45.0009 33.2983 44.8638C31.9179 44.4939 30.8398 43.4157 30.4699 42.0354C30.3328 41.5237 30.3331 40.9331 30.3335 40.1377V39.8625C30.3331 39.0671 30.3328 38.4765 30.4699 37.9648C30.8398 36.5845 31.9179 35.5063 33.2983 35.1364C33.81 34.9993 34.4006 34.9996 35.196 35L35.3336 35.0001L35.3335 34.8625C35.3331 34.0671 35.3328 33.4765 35.4699 32.9648C35.8398 31.5845 36.9179 30.5063 38.2983 30.1364C38.81 29.9993 39.4006 29.9996 40.196 30ZM37.3336 39.0001C37.3336 38.4478 37.7813 38.0001 38.3336 38.0001H39.3336V37.0001C39.3336 36.4478 39.7813 36.0001 40.3336 36.0001C40.8859 36.0001 41.3336 36.4478 41.3336 37.0001V38.0001H42.3336C42.8859 38.0001 43.3336 38.4478 43.3336 39.0001C43.3336 39.5524 42.8859 40.0001 42.3336 40.0001H41.3336V41.0001C41.3336 41.5524 40.8859 42.0001 40.3336 42.0001C39.7813 42.0001 39.3336 41.5524 39.3336 41.0001V40.0001H38.3336C37.7813 40.0001 37.3336 39.5524 37.3336 39.0001Z" fill="#84CC16"/>
</svg>
