<svg width="340" height="550" viewBox="0 0 340 550" fill="none" xmlns="http://www.w3.org/2000/svg">
<rect width="340" height="550" rx="48" fill="#F5F5F5"/>
<rect x="16.5" y="16.5" width="303" height="327" rx="39.5" fill="white"/>
<rect x="162" y="170" width="20" height="28" rx="9" transform="rotate(90 162 170)" fill="#E3E4E3"/>
<rect x="202" y="170" width="20" height="28" rx="9" transform="rotate(90 202 170)" fill="#E3E4E3"/>
<rect x="158" y="186" width="20" height="28" rx="9" fill="#E3E4E3"/>
<rect x="158" y="146" width="20" height="28" rx="9" fill="#E3E4E3"/>
<rect x="16.5" y="16.5" width="303" height="327" rx="39.5" stroke="#C5C8C6"/>
<path d="M66.316 388.096C65.996 388.112 65.748 388.032 65.572 387.856C65.404 387.672 65.32 387.44 65.32 387.16C65.32 386.944 65.38 386.756 65.5 386.596C65.62 386.436 65.8 386.348 66.04 386.332L66.376 386.308C66.664 386.292 66.876 386.224 67.012 386.104C67.148 385.976 67.216 385.768 67.216 385.48V380.548C67.216 380.18 67.312 379.904 67.504 379.72C67.696 379.528 67.968 379.432 68.32 379.432C68.672 379.432 68.944 379.528 69.136 379.72C69.328 379.904 69.424 380.18 69.424 380.548V385.444C69.424 385.996 69.324 386.464 69.124 386.848C68.924 387.224 68.624 387.516 68.224 387.724C67.832 387.924 67.34 388.04 66.748 388.072L66.316 388.096ZM75.8878 388.132C75.2718 388.132 74.7278 388.056 74.2558 387.904C73.7838 387.744 73.3838 387.508 73.0558 387.196C72.7358 386.884 72.4918 386.496 72.3238 386.032C72.1638 385.56 72.0838 385.016 72.0838 384.4V380.548C72.0838 380.18 72.1798 379.904 72.3718 379.72C72.5638 379.528 72.8358 379.432 73.1878 379.432C73.5478 379.432 73.8198 379.528 74.0038 379.72C74.1958 379.904 74.2918 380.18 74.2918 380.548V384.424C74.2918 385.04 74.4278 385.504 74.6998 385.816C74.9718 386.128 75.3678 386.284 75.8878 386.284C76.3998 386.284 76.7918 386.128 77.0638 385.816C77.3358 385.504 77.4718 385.04 77.4718 384.424V380.548C77.4718 380.18 77.5638 379.904 77.7478 379.72C77.9398 379.528 78.2118 379.432 78.5638 379.432C78.9158 379.432 79.1838 379.528 79.3678 379.72C79.5518 379.904 79.6438 380.18 79.6438 380.548V384.4C79.6438 385.224 79.4998 385.916 79.2118 386.476C78.9318 387.028 78.5118 387.444 77.9518 387.724C77.3918 387.996 76.7038 388.132 75.8878 388.132ZM83.3523 388.108C83.0163 388.108 82.7603 388.02 82.5843 387.844C82.4083 387.668 82.3203 387.408 82.3203 387.064V380.524C82.3203 380.172 82.4083 379.904 82.5843 379.72C82.7603 379.528 82.9923 379.432 83.2803 379.432C83.5363 379.432 83.7363 379.48 83.8803 379.576C84.0243 379.672 84.1843 379.832 84.3603 380.056L88.1643 384.808H87.8283V380.464C87.8283 380.128 87.9123 379.872 88.0803 379.696C88.2563 379.52 88.5123 379.432 88.8483 379.432C89.1843 379.432 89.4363 379.52 89.6043 379.696C89.7803 379.872 89.8683 380.128 89.8683 380.464V387.112C89.8683 387.416 89.7883 387.66 89.6283 387.844C89.4683 388.02 89.2523 388.108 88.9803 388.108C88.7083 388.108 88.4923 388.06 88.3323 387.964C88.1803 387.86 88.0163 387.7 87.8403 387.484L84.0363 382.72H84.3723V387.064C84.3723 387.408 84.2843 387.668 84.1083 387.844C83.9403 388.02 83.6883 388.108 83.3523 388.108ZM98.2077 388C97.8557 388 97.5997 387.92 97.4397 387.76C97.2877 387.592 97.2117 387.348 97.2117 387.028C97.2117 386.804 97.2597 386.604 97.3557 386.428C97.4597 386.252 97.5917 386.08 97.7517 385.912L99.8517 383.716C100.164 383.38 100.384 383.092 100.512 382.852C100.648 382.612 100.716 382.372 100.716 382.132C100.716 381.828 100.616 381.6 100.416 381.448C100.216 381.296 99.9277 381.22 99.5517 381.22C99.3597 381.22 99.1557 381.248 98.9397 381.304C98.7237 381.352 98.4917 381.44 98.2437 381.568C98.0277 381.664 97.8317 381.692 97.6557 381.652C97.4877 381.612 97.3437 381.524 97.2237 381.388C97.1117 381.252 97.0397 381.096 97.0077 380.92C96.9837 380.744 97.0117 380.572 97.0917 380.404C97.1717 380.228 97.3157 380.084 97.5237 379.972C97.8917 379.772 98.2717 379.628 98.6637 379.54C99.0637 379.452 99.4637 379.408 99.8637 379.408C100.52 379.408 101.068 379.504 101.508 379.696C101.956 379.888 102.296 380.168 102.528 380.536C102.76 380.896 102.876 381.344 102.876 381.88C102.876 382.216 102.824 382.544 102.72 382.864C102.624 383.184 102.464 383.504 102.24 383.824C102.024 384.144 101.732 384.484 101.364 384.844L99.4197 386.764V386.212H102.384C102.68 386.212 102.904 386.288 103.056 386.44C103.216 386.592 103.296 386.812 103.296 387.1C103.296 387.388 103.216 387.612 103.056 387.772C102.904 387.924 102.68 388 102.384 388H98.2077ZM108.415 388.132C108.031 388.132 107.627 388.088 107.203 388C106.779 387.912 106.387 387.776 106.027 387.592C105.811 387.48 105.659 387.336 105.571 387.16C105.491 386.976 105.463 386.792 105.487 386.608C105.519 386.424 105.591 386.26 105.703 386.116C105.823 385.972 105.971 385.88 106.147 385.84C106.331 385.792 106.531 385.824 106.747 385.936C107.011 386.064 107.283 386.16 107.563 386.224C107.851 386.288 108.119 386.32 108.367 386.32C108.639 386.32 108.871 386.28 109.063 386.2C109.255 386.12 109.399 386.004 109.495 385.852C109.599 385.7 109.651 385.52 109.651 385.312C109.651 384.992 109.543 384.74 109.327 384.556C109.111 384.372 108.823 384.28 108.463 384.28C108.303 384.28 108.127 384.304 107.935 384.352C107.751 384.4 107.559 384.492 107.359 384.628C107.271 384.676 107.151 384.732 106.999 384.796C106.847 384.852 106.691 384.88 106.531 384.88C106.243 384.88 106.031 384.812 105.895 384.676C105.759 384.54 105.691 384.348 105.691 384.1V380.476C105.691 380.172 105.771 379.94 105.931 379.78C106.099 379.62 106.331 379.54 106.627 379.54H110.395C110.691 379.54 110.919 379.616 111.079 379.768C111.239 379.92 111.319 380.144 111.319 380.44C111.319 380.728 111.239 380.948 111.079 381.1C110.919 381.252 110.691 381.328 110.395 381.328H107.767V383.212H107.263C107.455 382.988 107.707 382.82 108.019 382.708C108.331 382.588 108.671 382.528 109.039 382.528C109.575 382.528 110.047 382.644 110.455 382.876C110.863 383.1 111.179 383.416 111.403 383.824C111.635 384.232 111.751 384.708 111.751 385.252C111.751 385.828 111.615 386.336 111.343 386.776C111.079 387.208 110.695 387.544 110.191 387.784C109.695 388.016 109.103 388.132 108.415 388.132ZM115.202 389.44C115.074 389.616 114.93 389.712 114.77 389.728C114.618 389.752 114.486 389.72 114.374 389.632C114.262 389.552 114.198 389.436 114.182 389.284C114.174 389.14 114.242 388.98 114.386 388.804C114.586 388.572 114.718 388.34 114.782 388.108C114.846 387.876 114.878 387.668 114.878 387.484L114.95 388.072C114.582 388.072 114.286 387.968 114.062 387.76C113.838 387.544 113.726 387.256 113.726 386.896C113.726 386.552 113.83 386.276 114.038 386.068C114.254 385.852 114.542 385.744 114.902 385.744C115.278 385.744 115.57 385.872 115.778 386.128C115.986 386.376 116.09 386.724 116.09 387.172C116.09 387.396 116.066 387.624 116.018 387.856C115.978 388.088 115.894 388.332 115.766 388.588C115.646 388.852 115.458 389.136 115.202 389.44ZM124.101 388C123.749 388 123.493 387.92 123.333 387.76C123.181 387.592 123.105 387.348 123.105 387.028C123.105 386.804 123.153 386.604 123.249 386.428C123.353 386.252 123.485 386.08 123.645 385.912L125.745 383.716C126.057 383.38 126.277 383.092 126.405 382.852C126.541 382.612 126.609 382.372 126.609 382.132C126.609 381.828 126.509 381.6 126.309 381.448C126.109 381.296 125.821 381.22 125.445 381.22C125.253 381.22 125.049 381.248 124.833 381.304C124.617 381.352 124.385 381.44 124.137 381.568C123.921 381.664 123.725 381.692 123.549 381.652C123.381 381.612 123.237 381.524 123.117 381.388C123.005 381.252 122.933 381.096 122.901 380.92C122.877 380.744 122.905 380.572 122.985 380.404C123.065 380.228 123.209 380.084 123.417 379.972C123.785 379.772 124.165 379.628 124.557 379.54C124.957 379.452 125.357 379.408 125.757 379.408C126.413 379.408 126.961 379.504 127.401 379.696C127.849 379.888 128.189 380.168 128.421 380.536C128.653 380.896 128.769 381.344 128.769 381.88C128.769 382.216 128.717 382.544 128.613 382.864C128.517 383.184 128.357 383.504 128.133 383.824C127.917 384.144 127.625 384.484 127.257 384.844L125.313 386.764V386.212H128.277C128.573 386.212 128.797 386.288 128.949 386.44C129.109 386.592 129.189 386.812 129.189 387.1C129.189 387.388 129.109 387.612 128.949 387.772C128.797 387.924 128.573 388 128.277 388H124.101ZM134.369 388.132C133.329 388.132 132.529 387.752 131.969 386.992C131.417 386.224 131.141 385.14 131.141 383.74C131.141 382.796 131.265 382.004 131.513 381.364C131.761 380.716 132.125 380.228 132.605 379.9C133.085 379.572 133.673 379.408 134.369 379.408C135.417 379.408 136.217 379.776 136.769 380.512C137.321 381.248 137.597 382.32 137.597 383.728C137.597 384.664 137.473 385.46 137.225 386.116C136.977 386.772 136.613 387.272 136.133 387.616C135.653 387.96 135.065 388.132 134.369 388.132ZM134.369 386.38C134.753 386.38 135.037 386.172 135.221 385.756C135.413 385.332 135.509 384.656 135.509 383.728C135.509 382.808 135.413 382.152 135.221 381.76C135.037 381.36 134.753 381.16 134.369 381.16C133.985 381.16 133.697 381.36 133.505 381.76C133.321 382.152 133.229 382.808 133.229 383.728C133.229 384.656 133.321 385.332 133.505 385.756C133.697 386.172 133.985 386.38 134.369 386.38ZM140.892 388C140.54 388 140.284 387.92 140.124 387.76C139.972 387.592 139.896 387.348 139.896 387.028C139.896 386.804 139.944 386.604 140.04 386.428C140.144 386.252 140.276 386.08 140.436 385.912L142.536 383.716C142.848 383.38 143.068 383.092 143.196 382.852C143.332 382.612 143.4 382.372 143.4 382.132C143.4 381.828 143.3 381.6 143.1 381.448C142.9 381.296 142.612 381.22 142.236 381.22C142.044 381.22 141.84 381.248 141.624 381.304C141.408 381.352 141.176 381.44 140.928 381.568C140.712 381.664 140.516 381.692 140.34 381.652C140.172 381.612 140.028 381.524 139.908 381.388C139.796 381.252 139.724 381.096 139.692 380.92C139.668 380.744 139.696 380.572 139.776 380.404C139.856 380.228 140 380.084 140.208 379.972C140.576 379.772 140.956 379.628 141.348 379.54C141.748 379.452 142.148 379.408 142.548 379.408C143.204 379.408 143.752 379.504 144.192 379.696C144.64 379.888 144.98 380.168 145.212 380.536C145.444 380.896 145.56 381.344 145.56 381.88C145.56 382.216 145.508 382.544 145.404 382.864C145.308 383.184 145.148 383.504 144.924 383.824C144.708 384.144 144.416 384.484 144.048 384.844L142.104 386.764V386.212H145.068C145.364 386.212 145.588 386.288 145.74 386.44C145.9 386.592 145.98 386.812 145.98 387.1C145.98 387.388 145.9 387.612 145.74 387.772C145.588 387.924 145.364 388 145.068 388H140.892ZM151.099 388.132C150.715 388.132 150.311 388.088 149.887 388C149.463 387.912 149.071 387.776 148.711 387.592C148.495 387.48 148.343 387.336 148.255 387.16C148.175 386.976 148.147 386.792 148.171 386.608C148.203 386.424 148.275 386.26 148.387 386.116C148.507 385.972 148.655 385.88 148.831 385.84C149.015 385.792 149.215 385.824 149.431 385.936C149.695 386.064 149.967 386.16 150.247 386.224C150.535 386.288 150.803 386.32 151.051 386.32C151.323 386.32 151.555 386.28 151.747 386.2C151.939 386.12 152.083 386.004 152.179 385.852C152.283 385.7 152.335 385.52 152.335 385.312C152.335 384.992 152.227 384.74 152.011 384.556C151.795 384.372 151.507 384.28 151.147 384.28C150.987 384.28 150.811 384.304 150.619 384.352C150.435 384.4 150.243 384.492 150.043 384.628C149.955 384.676 149.835 384.732 149.683 384.796C149.531 384.852 149.375 384.88 149.215 384.88C148.927 384.88 148.715 384.812 148.579 384.676C148.443 384.54 148.375 384.348 148.375 384.1V380.476C148.375 380.172 148.455 379.94 148.615 379.78C148.783 379.62 149.015 379.54 149.311 379.54H153.079C153.375 379.54 153.603 379.616 153.763 379.768C153.923 379.92 154.003 380.144 154.003 380.44C154.003 380.728 153.923 380.948 153.763 381.1C153.603 381.252 153.375 381.328 153.079 381.328H150.451V383.212H149.947C150.139 382.988 150.391 382.82 150.703 382.708C151.015 382.588 151.355 382.528 151.723 382.528C152.259 382.528 152.731 382.644 153.139 382.876C153.547 383.1 153.863 383.416 154.087 383.824C154.319 384.232 154.435 384.708 154.435 385.252C154.435 385.828 154.299 386.336 154.027 386.776C153.763 387.208 153.379 387.544 152.875 387.784C152.379 388.016 151.787 388.132 151.099 388.132Z" fill="#647067"/>
<rect x="167.5" y="382" width="4" height="4" rx="1.5" fill="#C5C8C6"/>
<path d="M184.316 388.096C183.996 388.112 183.748 388.032 183.572 387.856C183.404 387.672 183.32 387.44 183.32 387.16C183.32 386.944 183.38 386.756 183.5 386.596C183.62 386.436 183.8 386.348 184.04 386.332L184.376 386.308C184.664 386.292 184.876 386.224 185.012 386.104C185.148 385.976 185.216 385.768 185.216 385.48V380.548C185.216 380.18 185.312 379.904 185.504 379.72C185.696 379.528 185.968 379.432 186.32 379.432C186.672 379.432 186.944 379.528 187.136 379.72C187.328 379.904 187.424 380.18 187.424 380.548V385.444C187.424 385.996 187.324 386.464 187.124 386.848C186.924 387.224 186.624 387.516 186.224 387.724C185.832 387.924 185.34 388.04 184.748 388.072L184.316 388.096ZM194.224 388.132C193.368 388.132 192.616 387.952 191.968 387.592C191.32 387.224 190.816 386.712 190.456 386.056C190.104 385.4 189.928 384.636 189.928 383.764C189.928 383.108 190.028 382.512 190.228 381.976C190.436 381.44 190.728 380.98 191.104 380.596C191.488 380.212 191.944 379.92 192.472 379.72C193 379.512 193.584 379.408 194.224 379.408C195.08 379.408 195.828 379.588 196.468 379.948C197.116 380.308 197.62 380.816 197.98 381.472C198.34 382.12 198.52 382.884 198.52 383.764C198.52 384.42 198.416 385.016 198.208 385.552C198.008 386.088 197.716 386.552 197.332 386.944C196.956 387.328 196.504 387.624 195.976 387.832C195.448 388.032 194.864 388.132 194.224 388.132ZM194.224 386.284C194.648 386.284 195.008 386.184 195.304 385.984C195.6 385.784 195.828 385.496 195.988 385.12C196.148 384.744 196.228 384.292 196.228 383.764C196.228 382.972 196.052 382.356 195.7 381.916C195.348 381.476 194.856 381.256 194.224 381.256C193.808 381.256 193.448 381.356 193.144 381.556C192.848 381.748 192.62 382.032 192.46 382.408C192.3 382.776 192.22 383.228 192.22 383.764C192.22 384.556 192.396 385.176 192.748 385.624C193.1 386.064 193.592 386.284 194.224 386.284ZM202.127 388.108C201.775 388.108 201.503 388.012 201.311 387.82C201.119 387.62 201.023 387.34 201.023 386.98V380.56C201.023 380.192 201.119 379.912 201.311 379.72C201.503 379.528 201.775 379.432 202.127 379.432C202.487 379.432 202.759 379.528 202.943 379.72C203.135 379.912 203.231 380.192 203.231 380.56V382.804H206.723V380.56C206.723 380.192 206.815 379.912 206.999 379.72C207.191 379.528 207.467 379.432 207.827 379.432C208.179 379.432 208.447 379.528 208.631 379.72C208.823 379.912 208.919 380.192 208.919 380.56V386.98C208.919 387.34 208.823 387.62 208.631 387.82C208.447 388.012 208.179 388.108 207.827 388.108C207.467 388.108 207.191 388.012 206.999 387.82C206.815 387.62 206.723 387.34 206.723 386.98V384.616H203.231V386.98C203.231 387.34 203.139 387.62 202.955 387.82C202.771 388.012 202.495 388.108 202.127 388.108ZM212.689 388.108C212.353 388.108 212.097 388.02 211.921 387.844C211.745 387.668 211.657 387.408 211.657 387.064V380.524C211.657 380.172 211.745 379.904 211.921 379.72C212.097 379.528 212.329 379.432 212.617 379.432C212.873 379.432 213.073 379.48 213.217 379.576C213.361 379.672 213.521 379.832 213.697 380.056L217.501 384.808H217.165V380.464C217.165 380.128 217.249 379.872 217.417 379.696C217.593 379.52 217.849 379.432 218.185 379.432C218.521 379.432 218.773 379.52 218.941 379.696C219.117 379.872 219.205 380.128 219.205 380.464V387.112C219.205 387.416 219.125 387.66 218.965 387.844C218.805 388.02 218.589 388.108 218.317 388.108C218.045 388.108 217.829 388.06 217.669 387.964C217.517 387.86 217.353 387.7 217.177 387.484L213.373 382.72H213.709V387.064C213.709 387.408 213.621 387.668 213.445 387.844C213.277 388.02 213.025 388.108 212.689 388.108ZM229.728 388.132C229.408 388.132 229.072 388.108 228.72 388.06C228.376 388.02 228.048 387.956 227.736 387.868C227.424 387.78 227.144 387.676 226.896 387.556C226.68 387.452 226.528 387.316 226.44 387.148C226.352 386.972 226.32 386.788 226.344 386.596C226.368 386.404 226.436 386.236 226.548 386.092C226.66 385.94 226.808 385.84 226.992 385.792C227.176 385.736 227.384 385.76 227.616 385.864C227.92 386.008 228.264 386.12 228.648 386.2C229.032 386.28 229.392 386.32 229.728 386.32C230.256 386.32 230.624 386.252 230.832 386.116C231.048 385.972 231.156 385.796 231.156 385.588C231.156 385.404 231.08 385.256 230.928 385.144C230.784 385.032 230.524 384.936 230.148 384.856L228.744 384.556C227.976 384.396 227.404 384.116 227.028 383.716C226.652 383.316 226.464 382.8 226.464 382.168C226.464 381.752 226.548 381.376 226.716 381.04C226.892 380.696 227.136 380.404 227.448 380.164C227.768 379.924 228.144 379.74 228.576 379.612C229.016 379.476 229.504 379.408 230.04 379.408C230.456 379.408 230.876 379.456 231.3 379.552C231.732 379.64 232.104 379.776 232.416 379.96C232.6 380.056 232.732 380.188 232.812 380.356C232.892 380.524 232.924 380.7 232.908 380.884C232.892 381.06 232.828 381.216 232.716 381.352C232.612 381.488 232.468 381.58 232.284 381.628C232.108 381.668 231.896 381.636 231.648 381.532C231.416 381.428 231.152 381.352 230.856 381.304C230.568 381.248 230.288 381.22 230.016 381.22C229.72 381.22 229.468 381.256 229.26 381.328C229.052 381.392 228.892 381.488 228.78 381.616C228.676 381.744 228.624 381.892 228.624 382.06C228.624 382.228 228.692 382.372 228.828 382.492C228.972 382.604 229.232 382.7 229.608 382.78L231 383.08C231.776 383.248 232.356 383.524 232.74 383.908C233.124 384.292 233.316 384.792 233.316 385.408C233.316 385.824 233.232 386.2 233.064 386.536C232.896 386.872 232.656 387.16 232.344 387.4C232.032 387.632 231.656 387.812 231.216 387.94C230.776 388.068 230.28 388.132 229.728 388.132ZM236.621 388.108C236.301 388.108 236.053 388.02 235.877 387.844C235.709 387.668 235.625 387.42 235.625 387.1V380.44C235.625 380.112 235.717 379.864 235.901 379.696C236.085 379.52 236.345 379.432 236.681 379.432C236.961 379.432 237.181 379.488 237.341 379.6C237.509 379.704 237.661 379.88 237.797 380.128L240.377 384.76H239.957L242.525 380.128C242.669 379.88 242.821 379.704 242.981 379.6C243.149 379.488 243.373 379.432 243.653 379.432C243.973 379.432 244.217 379.52 244.385 379.696C244.561 379.864 244.649 380.112 244.649 380.44V387.1C244.649 387.42 244.565 387.668 244.397 387.844C244.229 388.02 243.981 388.108 243.653 388.108C243.333 388.108 243.085 388.02 242.909 387.844C242.741 387.668 242.657 387.42 242.657 387.1V382.972H242.909L240.977 386.332C240.865 386.508 240.745 386.64 240.617 386.728C240.497 386.816 240.333 386.86 240.125 386.86C239.925 386.86 239.761 386.816 239.633 386.728C239.505 386.64 239.389 386.508 239.285 386.332L237.341 382.96H237.617V387.1C237.617 387.42 237.533 387.668 237.365 387.844C237.197 388.02 236.949 388.108 236.621 388.108ZM248.51 388.108C248.158 388.108 247.886 388.012 247.694 387.82C247.502 387.62 247.406 387.34 247.406 386.98V380.56C247.406 380.192 247.502 379.912 247.694 379.72C247.886 379.528 248.158 379.432 248.51 379.432C248.87 379.432 249.142 379.528 249.326 379.72C249.518 379.912 249.614 380.192 249.614 380.56V386.98C249.614 387.34 249.522 387.62 249.338 387.82C249.154 388.012 248.878 388.108 248.51 388.108ZM255.441 388.108C255.089 388.108 254.817 388.012 254.625 387.82C254.433 387.62 254.337 387.344 254.337 386.992V381.34H252.453C252.157 381.34 251.929 381.264 251.769 381.112C251.617 380.952 251.541 380.728 251.541 380.44C251.541 380.144 251.617 379.92 251.769 379.768C251.929 379.616 252.157 379.54 252.453 379.54H258.429C258.725 379.54 258.949 379.616 259.101 379.768C259.261 379.92 259.341 380.144 259.341 380.44C259.341 380.728 259.261 380.952 259.101 381.112C258.949 381.264 258.725 381.34 258.429 381.34H256.545V386.992C256.545 387.344 256.453 387.62 256.269 387.82C256.085 388.012 255.809 388.108 255.441 388.108ZM262.371 388.108C262.019 388.108 261.747 388.012 261.555 387.82C261.363 387.62 261.267 387.34 261.267 386.98V380.56C261.267 380.192 261.363 379.912 261.555 379.72C261.747 379.528 262.019 379.432 262.371 379.432C262.731 379.432 263.003 379.528 263.187 379.72C263.379 379.912 263.475 380.192 263.475 380.56V382.804H266.967V380.56C266.967 380.192 267.059 379.912 267.243 379.72C267.435 379.528 267.711 379.432 268.071 379.432C268.423 379.432 268.691 379.528 268.875 379.72C269.067 379.912 269.163 380.192 269.163 380.56V386.98C269.163 387.34 269.067 387.62 268.875 387.82C268.691 388.012 268.423 388.108 268.071 388.108C267.711 388.108 267.435 388.012 267.243 387.82C267.059 387.62 266.967 387.34 266.967 386.98V384.616H263.475V386.98C263.475 387.34 263.383 387.62 263.199 387.82C263.015 388.012 262.739 388.108 262.371 388.108Z" fill="#647067"/>
<path d="M48.0603 428.18C47.5536 428.18 47.167 428.04 46.9003 427.76C46.6336 427.48 46.5003 427.087 46.5003 426.58V416.46H42.9603C42.547 416.46 42.227 416.347 42.0003 416.12C41.7736 415.893 41.6603 415.58 41.6603 415.18C41.6603 414.767 41.7736 414.453 42.0003 414.24C42.227 414.013 42.547 413.9 42.9603 413.9H53.1403C53.5536 413.9 53.8736 414.013 54.1003 414.24C54.327 414.453 54.4403 414.767 54.4403 415.18C54.4403 415.58 54.327 415.893 54.1003 416.12C53.8736 416.347 53.5536 416.46 53.1403 416.46H49.6003V426.58C49.6003 427.087 49.467 427.48 49.2003 427.76C48.947 428.04 48.567 428.18 48.0603 428.18ZM57.7113 428.18C57.2179 428.18 56.8379 428.047 56.5713 427.78C56.3179 427.513 56.1913 427.133 56.1913 426.64V415.26C56.1913 414.753 56.3179 414.373 56.5713 414.12C56.8379 413.853 57.2179 413.72 57.7113 413.72C58.1913 413.72 58.5579 413.853 58.8113 414.12C59.0779 414.373 59.2113 414.753 59.2113 415.26V420.02H58.9313C59.2379 419.367 59.6913 418.867 60.2913 418.52C60.9046 418.16 61.5979 417.98 62.3713 417.98C63.1579 417.98 63.8046 418.133 64.3113 418.44C64.8179 418.733 65.1979 419.187 65.4513 419.8C65.7046 420.4 65.8313 421.167 65.8313 422.1V426.64C65.8313 427.133 65.6979 427.513 65.4313 427.78C65.1779 428.047 64.8046 428.18 64.3113 428.18C63.8313 428.18 63.4579 428.047 63.1913 427.78C62.9379 427.513 62.8113 427.133 62.8113 426.64V422.24C62.8113 421.56 62.6846 421.073 62.4313 420.78C62.1913 420.473 61.8179 420.32 61.3113 420.32C60.6713 420.32 60.1579 420.52 59.7713 420.92C59.3979 421.32 59.2113 421.853 59.2113 422.52V426.64C59.2113 427.667 58.7113 428.18 57.7113 428.18ZM72.7858 428.22C71.6258 428.22 70.6258 428.013 69.7858 427.6C68.9591 427.173 68.3191 426.58 67.8658 425.82C67.4258 425.047 67.2058 424.14 67.2058 423.1C67.2058 422.087 67.4191 421.2 67.8458 420.44C68.2725 419.667 68.8658 419.067 69.6258 418.64C70.3991 418.2 71.2725 417.98 72.2458 417.98C72.9525 417.98 73.5925 418.1 74.1658 418.34C74.7391 418.567 75.2325 418.9 75.6458 419.34C76.0591 419.767 76.3725 420.293 76.5858 420.92C76.7991 421.533 76.9058 422.22 76.9058 422.98C76.9058 423.233 76.8258 423.427 76.6658 423.56C76.5058 423.68 76.2725 423.74 75.9658 423.74H69.6858V422.18H74.7258L74.4058 422.46C74.4058 421.913 74.3258 421.46 74.1658 421.1C74.0058 420.727 73.7725 420.447 73.4658 420.26C73.1725 420.073 72.8058 419.98 72.3658 419.98C71.8725 419.98 71.4525 420.093 71.1058 420.32C70.7591 420.547 70.4925 420.873 70.3058 421.3C70.1191 421.727 70.0258 422.24 70.0258 422.84V423C70.0258 424.013 70.2591 424.76 70.7258 425.24C71.2058 425.72 71.9125 425.96 72.8458 425.96C73.1658 425.96 73.5325 425.92 73.9458 425.84C74.3591 425.76 74.7458 425.633 75.1058 425.46C75.4125 425.313 75.6858 425.267 75.9258 425.32C76.1658 425.36 76.3525 425.467 76.4858 425.64C76.6191 425.813 76.6925 426.013 76.7058 426.24C76.7325 426.467 76.6858 426.693 76.5658 426.92C76.4458 427.133 76.2458 427.313 75.9658 427.46C75.5125 427.713 74.9991 427.9 74.4258 428.02C73.8658 428.153 73.3191 428.22 72.7858 428.22ZM85.2883 428.18C84.7816 428.18 84.3883 428.04 84.1083 427.76C83.8416 427.48 83.7083 427.073 83.7083 426.54V415.52C83.7083 415 83.8483 414.6 84.1283 414.32C84.4083 414.04 84.8083 413.9 85.3283 413.9H92.1683C92.5683 413.9 92.8683 414.007 93.0683 414.22C93.2816 414.42 93.3883 414.713 93.3883 415.1C93.3883 415.5 93.2816 415.807 93.0683 416.02C92.8683 416.22 92.5683 416.32 92.1683 416.32H86.8083V419.76H91.7283C92.1283 419.76 92.435 419.867 92.6483 420.08C92.8616 420.28 92.9683 420.573 92.9683 420.96C92.9683 421.347 92.8616 421.647 92.6483 421.86C92.435 422.073 92.1283 422.18 91.7283 422.18H86.8083V426.54C86.8083 427.633 86.3016 428.18 85.2883 428.18ZM97.8011 428.22C96.9744 428.22 96.2878 428.067 95.7411 427.76C95.1944 427.453 94.7878 426.993 94.5211 426.38C94.2678 425.753 94.1411 424.98 94.1411 424.06V419.54C94.1411 419.033 94.2678 418.653 94.5211 418.4C94.7878 418.147 95.1611 418.02 95.6411 418.02C96.1211 418.02 96.4944 418.147 96.7611 418.4C97.0278 418.653 97.1611 419.033 97.1611 419.54V424.14C97.1611 424.727 97.2811 425.167 97.5211 425.46C97.7611 425.74 98.1411 425.88 98.6611 425.88C99.2344 425.88 99.7011 425.68 100.061 425.28C100.434 424.867 100.621 424.327 100.621 423.66V419.54C100.621 419.033 100.748 418.653 101.001 418.4C101.268 418.147 101.641 418.02 102.121 418.02C102.614 418.02 102.988 418.147 103.241 418.4C103.508 418.653 103.641 419.033 103.641 419.54V426.64C103.641 427.667 103.154 428.18 102.181 428.18C101.701 428.18 101.334 428.047 101.081 427.78C100.828 427.513 100.701 427.133 100.701 426.64V425.3L101.001 426.08C100.708 426.76 100.288 427.287 99.7411 427.66C99.1944 428.033 98.5478 428.22 97.8011 428.22ZM110.398 428.22C109.478 428.22 108.705 428.067 108.078 427.76C107.465 427.453 107.005 427.007 106.698 426.42C106.405 425.833 106.258 425.093 106.258 424.2V420.44H105.418C105.045 420.44 104.751 420.34 104.538 420.14C104.338 419.94 104.238 419.667 104.238 419.32C104.238 418.947 104.338 418.667 104.538 418.48C104.751 418.28 105.045 418.18 105.418 418.18H106.258V416.66C106.258 416.153 106.391 415.773 106.658 415.52C106.925 415.253 107.298 415.12 107.778 415.12C108.271 415.12 108.645 415.253 108.898 415.52C109.151 415.773 109.278 416.153 109.278 416.66V418.18H111.178C111.551 418.18 111.838 418.28 112.038 418.48C112.238 418.667 112.338 418.947 112.338 419.32C112.338 419.667 112.238 419.94 112.038 420.14C111.838 420.34 111.551 420.44 111.178 420.44H109.278V424.08C109.278 424.64 109.405 425.06 109.658 425.34C109.925 425.62 110.345 425.76 110.918 425.76C111.118 425.76 111.305 425.74 111.478 425.7C111.651 425.66 111.811 425.633 111.958 425.62C112.145 425.607 112.298 425.667 112.418 425.8C112.538 425.92 112.598 426.193 112.598 426.62C112.598 426.94 112.545 427.22 112.438 427.46C112.331 427.7 112.145 427.873 111.878 427.98C111.705 428.047 111.465 428.1 111.158 428.14C110.865 428.193 110.611 428.22 110.398 428.22ZM116.884 428.22C116.057 428.22 115.371 428.067 114.824 427.76C114.277 427.453 113.871 426.993 113.604 426.38C113.351 425.753 113.224 424.98 113.224 424.06V419.54C113.224 419.033 113.351 418.653 113.604 418.4C113.871 418.147 114.244 418.02 114.724 418.02C115.204 418.02 115.577 418.147 115.844 418.4C116.111 418.653 116.244 419.033 116.244 419.54V424.14C116.244 424.727 116.364 425.167 116.604 425.46C116.844 425.74 117.224 425.88 117.744 425.88C118.317 425.88 118.784 425.68 119.144 425.28C119.517 424.867 119.704 424.327 119.704 423.66V419.54C119.704 419.033 119.831 418.653 120.084 418.4C120.351 418.147 120.724 418.02 121.204 418.02C121.697 418.02 122.071 418.147 122.324 418.4C122.591 418.653 122.724 419.033 122.724 419.54V426.64C122.724 427.667 122.237 428.18 121.264 428.18C120.784 428.18 120.417 428.047 120.164 427.78C119.911 427.513 119.784 427.133 119.784 426.64V425.3L120.084 426.08C119.791 426.76 119.371 427.287 118.824 427.66C118.277 428.033 117.631 428.22 116.884 428.22ZM126.221 428.18C125.714 428.18 125.327 428.047 125.061 427.78C124.794 427.513 124.661 427.133 124.661 426.64V419.54C124.661 419.047 124.787 418.673 125.041 418.42C125.307 418.153 125.674 418.02 126.141 418.02C126.621 418.02 126.987 418.153 127.241 418.42C127.494 418.673 127.621 419.047 127.621 419.54V420.58H127.421C127.581 419.78 127.934 419.16 128.481 418.72C129.027 418.28 129.734 418.033 130.601 417.98C130.934 417.953 131.187 418.04 131.361 418.24C131.547 418.427 131.647 418.74 131.661 419.18C131.687 419.593 131.601 419.92 131.401 420.16C131.214 420.4 130.894 420.547 130.441 420.6L129.981 420.64C129.221 420.707 128.654 420.927 128.281 421.3C127.921 421.673 127.741 422.213 127.741 422.92V426.64C127.741 427.133 127.607 427.513 127.341 427.78C127.087 428.047 126.714 428.18 126.221 428.18ZM137.427 428.22C136.267 428.22 135.267 428.013 134.427 427.6C133.601 427.173 132.961 426.58 132.507 425.82C132.067 425.047 131.847 424.14 131.847 423.1C131.847 422.087 132.061 421.2 132.487 420.44C132.914 419.667 133.507 419.067 134.267 418.64C135.041 418.2 135.914 417.98 136.887 417.98C137.594 417.98 138.234 418.1 138.807 418.34C139.381 418.567 139.874 418.9 140.287 419.34C140.701 419.767 141.014 420.293 141.227 420.92C141.441 421.533 141.547 422.22 141.547 422.98C141.547 423.233 141.467 423.427 141.307 423.56C141.147 423.68 140.914 423.74 140.607 423.74H134.327V422.18H139.367L139.047 422.46C139.047 421.913 138.967 421.46 138.807 421.1C138.647 420.727 138.414 420.447 138.107 420.26C137.814 420.073 137.447 419.98 137.007 419.98C136.514 419.98 136.094 420.093 135.747 420.32C135.401 420.547 135.134 420.873 134.947 421.3C134.761 421.727 134.667 422.24 134.667 422.84V423C134.667 424.013 134.901 424.76 135.367 425.24C135.847 425.72 136.554 425.96 137.487 425.96C137.807 425.96 138.174 425.92 138.587 425.84C139.001 425.76 139.387 425.633 139.747 425.46C140.054 425.313 140.327 425.267 140.567 425.32C140.807 425.36 140.994 425.467 141.127 425.64C141.261 425.813 141.334 426.013 141.347 426.24C141.374 426.467 141.327 426.693 141.207 426.92C141.087 427.133 140.887 427.313 140.607 427.46C140.154 427.713 139.641 427.9 139.067 428.02C138.507 428.153 137.961 428.22 137.427 428.22ZM152.81 428.22C151.756 428.22 150.836 428.013 150.05 427.6C149.276 427.187 148.676 426.593 148.25 425.82C147.823 425.047 147.61 424.133 147.61 423.08C147.61 422.293 147.73 421.587 147.97 420.96C148.21 420.333 148.556 419.8 149.01 419.36C149.476 418.907 150.03 418.567 150.67 418.34C151.31 418.1 152.023 417.98 152.81 417.98C153.863 417.98 154.776 418.187 155.55 418.6C156.336 419.013 156.943 419.6 157.37 420.36C157.81 421.12 158.03 422.027 158.03 423.08C158.03 423.88 157.903 424.593 157.65 425.22C157.41 425.847 157.063 426.387 156.61 426.84C156.156 427.293 155.603 427.64 154.95 427.88C154.31 428.107 153.596 428.22 152.81 428.22ZM152.81 425.96C153.25 425.96 153.63 425.853 153.95 425.64C154.27 425.427 154.523 425.113 154.71 424.7C154.896 424.273 154.99 423.733 154.99 423.08C154.99 422.107 154.79 421.393 154.39 420.94C153.99 420.473 153.463 420.24 152.81 420.24C152.383 420.24 152.003 420.34 151.67 420.54C151.35 420.74 151.096 421.053 150.91 421.48C150.736 421.893 150.65 422.427 150.65 423.08C150.65 424.053 150.85 424.78 151.25 425.26C151.65 425.727 152.17 425.96 152.81 425.96ZM161.649 428.18C161.156 428.18 160.776 428.047 160.509 427.78C160.256 427.513 160.129 427.133 160.129 426.64V420.44H159.409C159.036 420.44 158.743 420.34 158.529 420.14C158.329 419.94 158.229 419.667 158.229 419.32C158.229 418.947 158.329 418.667 158.529 418.48C158.743 418.28 159.036 418.18 159.409 418.18H161.009L160.129 418.98V418.36C160.129 416.933 160.483 415.867 161.189 415.16C161.909 414.453 162.963 414.027 164.349 413.88L164.989 413.82C165.336 413.793 165.609 413.847 165.809 413.98C166.023 414.113 166.163 414.287 166.229 414.5C166.296 414.713 166.309 414.933 166.269 415.16C166.229 415.373 166.136 415.567 165.989 415.74C165.856 415.9 165.669 415.987 165.429 416L165.149 416.02C164.429 416.073 163.916 416.247 163.609 416.54C163.303 416.82 163.149 417.253 163.149 417.84V418.52L162.769 418.18H164.569C164.956 418.18 165.249 418.28 165.449 418.48C165.649 418.667 165.749 418.947 165.749 419.32C165.749 419.667 165.649 419.94 165.449 420.14C165.249 420.34 164.956 420.44 164.569 420.44H163.149V426.64C163.149 427.667 162.649 428.18 161.649 428.18ZM176.972 428.18C176.465 428.18 176.079 428.04 175.812 427.76C175.545 427.48 175.412 427.087 175.412 426.58V416.46H171.872C171.459 416.46 171.139 416.347 170.912 416.12C170.685 415.893 170.572 415.58 170.572 415.18C170.572 414.767 170.685 414.453 170.912 414.24C171.139 414.013 171.459 413.9 171.872 413.9H182.052C182.465 413.9 182.785 414.013 183.012 414.24C183.239 414.453 183.352 414.767 183.352 415.18C183.352 415.58 183.239 415.893 183.012 416.12C182.785 416.347 182.465 416.46 182.052 416.46H178.512V426.58C178.512 427.087 178.379 427.48 178.112 427.76C177.859 428.04 177.479 428.18 176.972 428.18ZM187.547 428.22C186.387 428.22 185.387 428.013 184.547 427.6C183.72 427.173 183.08 426.58 182.627 425.82C182.187 425.047 181.967 424.14 181.967 423.1C181.967 422.087 182.18 421.2 182.607 420.44C183.033 419.667 183.627 419.067 184.387 418.64C185.16 418.2 186.033 417.98 187.007 417.98C187.713 417.98 188.353 418.1 188.927 418.34C189.5 418.567 189.993 418.9 190.407 419.34C190.82 419.767 191.133 420.293 191.347 420.92C191.56 421.533 191.667 422.22 191.667 422.98C191.667 423.233 191.587 423.427 191.427 423.56C191.267 423.68 191.033 423.74 190.727 423.74H184.447V422.18H189.487L189.167 422.46C189.167 421.913 189.087 421.46 188.927 421.1C188.767 420.727 188.533 420.447 188.227 420.26C187.933 420.073 187.567 419.98 187.127 419.98C186.633 419.98 186.213 420.093 185.867 420.32C185.52 420.547 185.253 420.873 185.067 421.3C184.88 421.727 184.787 422.24 184.787 422.84V423C184.787 424.013 185.02 424.76 185.487 425.24C185.967 425.72 186.673 425.96 187.607 425.96C187.927 425.96 188.293 425.92 188.707 425.84C189.12 425.76 189.507 425.633 189.867 425.46C190.173 425.313 190.447 425.267 190.687 425.32C190.927 425.36 191.113 425.467 191.247 425.64C191.38 425.813 191.453 426.013 191.467 426.24C191.493 426.467 191.447 426.693 191.327 426.92C191.207 427.133 191.007 427.313 190.727 427.46C190.273 427.713 189.76 427.9 189.187 428.02C188.627 428.153 188.08 428.22 187.547 428.22ZM196.563 428.22C195.377 428.22 194.49 427.893 193.903 427.24C193.317 426.573 193.023 425.587 193.023 424.28V415.26C193.023 414.753 193.15 414.373 193.403 414.12C193.67 413.853 194.05 413.72 194.543 413.72C195.023 413.72 195.39 413.853 195.643 414.12C195.91 414.373 196.043 414.753 196.043 415.26V424.16C196.043 424.707 196.157 425.113 196.383 425.38C196.623 425.633 196.937 425.76 197.323 425.76C197.43 425.76 197.53 425.753 197.623 425.74C197.717 425.727 197.817 425.72 197.923 425.72C198.137 425.693 198.283 425.76 198.363 425.92C198.457 426.067 198.503 426.367 198.503 426.82C198.503 427.22 198.423 427.527 198.263 427.74C198.103 427.94 197.857 428.073 197.523 428.14C197.39 428.153 197.237 428.167 197.063 428.18C196.89 428.207 196.723 428.22 196.563 428.22ZM204.286 428.22C203.126 428.22 202.126 428.013 201.286 427.6C200.459 427.173 199.819 426.58 199.366 425.82C198.926 425.047 198.706 424.14 198.706 423.1C198.706 422.087 198.919 421.2 199.346 420.44C199.772 419.667 200.366 419.067 201.126 418.64C201.899 418.2 202.772 417.98 203.746 417.98C204.452 417.98 205.092 418.1 205.666 418.34C206.239 418.567 206.732 418.9 207.146 419.34C207.559 419.767 207.872 420.293 208.086 420.92C208.299 421.533 208.406 422.22 208.406 422.98C208.406 423.233 208.326 423.427 208.166 423.56C208.006 423.68 207.772 423.74 207.466 423.74H201.186V422.18H206.226L205.906 422.46C205.906 421.913 205.826 421.46 205.666 421.1C205.506 420.727 205.272 420.447 204.966 420.26C204.672 420.073 204.306 419.98 203.866 419.98C203.372 419.98 202.952 420.093 202.606 420.32C202.259 420.547 201.992 420.873 201.806 421.3C201.619 421.727 201.526 422.24 201.526 422.84V423C201.526 424.013 201.759 424.76 202.226 425.24C202.706 425.72 203.412 425.96 204.346 425.96C204.666 425.96 205.032 425.92 205.446 425.84C205.859 425.76 206.246 425.633 206.606 425.46C206.912 425.313 207.186 425.267 207.426 425.32C207.666 425.36 207.852 425.467 207.986 425.64C208.119 425.813 208.192 426.013 208.206 426.24C208.232 426.467 208.186 426.693 208.066 426.92C207.946 427.133 207.746 427.313 207.466 427.46C207.012 427.713 206.499 427.9 205.926 428.02C205.366 428.153 204.819 428.22 204.286 428.22ZM211.322 428.18C210.829 428.18 210.449 428.047 210.182 427.78C209.929 427.513 209.802 427.133 209.802 426.64V419.54C209.802 419.047 209.929 418.673 210.182 418.42C210.449 418.153 210.816 418.02 211.282 418.02C211.762 418.02 212.129 418.153 212.382 418.42C212.636 418.673 212.762 419.047 212.762 419.54V420.82L212.542 420.02C212.809 419.407 213.222 418.913 213.782 418.54C214.342 418.167 215.002 417.98 215.762 417.98C216.522 417.98 217.156 418.16 217.662 418.52C218.169 418.88 218.529 419.433 218.742 420.18H218.462C218.756 419.5 219.202 418.967 219.802 418.58C220.416 418.18 221.116 417.98 221.902 417.98C222.662 417.98 223.282 418.133 223.762 418.44C224.256 418.733 224.622 419.187 224.862 419.8C225.102 420.4 225.222 421.167 225.222 422.1V426.64C225.222 427.133 225.089 427.513 224.822 427.78C224.569 428.047 224.202 428.18 223.722 428.18C223.229 428.18 222.849 428.047 222.582 427.78C222.329 427.513 222.202 427.133 222.202 426.64V422.2C222.202 421.547 222.096 421.073 221.882 420.78C221.682 420.473 221.336 420.32 220.842 420.32C220.269 420.32 219.822 420.52 219.502 420.92C219.182 421.32 219.022 421.887 219.022 422.62V426.64C219.022 427.133 218.889 427.513 218.622 427.78C218.369 428.047 218.002 428.18 217.522 428.18C217.042 428.18 216.669 428.047 216.402 427.78C216.136 427.513 216.002 427.133 216.002 426.64V422.2C216.002 421.547 215.896 421.073 215.682 420.78C215.482 420.473 215.136 420.32 214.642 420.32C214.069 420.32 213.622 420.52 213.302 420.92C212.982 421.32 212.822 421.887 212.822 422.62V426.64C212.822 427.667 212.322 428.18 211.322 428.18ZM232.236 428.22C231.076 428.22 230.076 428.013 229.236 427.6C228.409 427.173 227.769 426.58 227.316 425.82C226.876 425.047 226.656 424.14 226.656 423.1C226.656 422.087 226.869 421.2 227.296 420.44C227.722 419.667 228.316 419.067 229.076 418.64C229.849 418.2 230.722 417.98 231.696 417.98C232.402 417.98 233.042 418.1 233.616 418.34C234.189 418.567 234.682 418.9 235.096 419.34C235.509 419.767 235.822 420.293 236.036 420.92C236.249 421.533 236.356 422.22 236.356 422.98C236.356 423.233 236.276 423.427 236.116 423.56C235.956 423.68 235.722 423.74 235.416 423.74H229.136V422.18H234.176L233.856 422.46C233.856 421.913 233.776 421.46 233.616 421.1C233.456 420.727 233.222 420.447 232.916 420.26C232.622 420.073 232.256 419.98 231.816 419.98C231.322 419.98 230.902 420.093 230.556 420.32C230.209 420.547 229.942 420.873 229.756 421.3C229.569 421.727 229.476 422.24 229.476 422.84V423C229.476 424.013 229.709 424.76 230.176 425.24C230.656 425.72 231.362 425.96 232.296 425.96C232.616 425.96 232.982 425.92 233.396 425.84C233.809 425.76 234.196 425.633 234.556 425.46C234.862 425.313 235.136 425.267 235.376 425.32C235.616 425.36 235.802 425.467 235.936 425.64C236.069 425.813 236.142 426.013 236.156 426.24C236.182 426.467 236.136 426.693 236.016 426.92C235.896 427.133 235.696 427.313 235.416 427.46C234.962 427.713 234.449 427.9 233.876 428.02C233.316 428.153 232.769 428.22 232.236 428.22ZM241.532 428.22C240.679 428.22 239.926 428.013 239.272 427.6C238.632 427.187 238.132 426.593 237.772 425.82C237.412 425.047 237.232 424.133 237.232 423.08C237.232 422.027 237.412 421.12 237.772 420.36C238.132 419.6 238.632 419.013 239.272 418.6C239.926 418.187 240.679 417.98 241.532 417.98C242.306 417.98 242.986 418.167 243.572 418.54C244.172 418.913 244.579 419.4 244.792 420H244.572V415.26C244.572 414.753 244.699 414.373 244.952 414.12C245.206 413.853 245.579 413.72 246.072 413.72C246.552 413.72 246.926 413.853 247.192 414.12C247.459 414.373 247.592 414.753 247.592 415.26V426.64C247.592 427.133 247.459 427.513 247.192 427.78C246.939 428.047 246.572 428.18 246.092 428.18C245.612 428.18 245.239 428.047 244.972 427.78C244.719 427.513 244.592 427.133 244.592 426.64V425.28L244.812 426.06C244.626 426.713 244.226 427.24 243.612 427.64C243.012 428.027 242.319 428.22 241.532 428.22ZM242.432 425.96C242.872 425.96 243.252 425.853 243.572 425.64C243.892 425.427 244.146 425.113 244.332 424.7C244.519 424.273 244.612 423.733 244.612 423.08C244.612 422.107 244.412 421.393 244.012 420.94C243.612 420.473 243.086 420.24 242.432 420.24C242.006 420.24 241.626 420.34 241.292 420.54C240.972 420.74 240.719 421.053 240.532 421.48C240.359 421.893 240.272 422.427 240.272 423.08C240.272 424.053 240.472 424.78 240.872 425.26C241.272 425.727 241.792 425.96 242.432 425.96ZM251.039 428.16C250.546 428.16 250.166 428.02 249.899 427.74C249.646 427.447 249.519 427.04 249.519 426.52V419.68C249.519 419.147 249.646 418.74 249.899 418.46C250.166 418.167 250.546 418.02 251.039 418.02C251.519 418.02 251.886 418.167 252.139 418.46C252.406 418.74 252.539 419.147 252.539 419.68V426.52C252.539 427.04 252.413 427.447 252.159 427.74C251.906 428.02 251.533 428.16 251.039 428.16ZM251.039 416.38C250.479 416.38 250.046 416.253 249.739 416C249.446 415.733 249.299 415.36 249.299 414.88C249.299 414.387 249.446 414.013 249.739 413.76C250.046 413.493 250.479 413.36 251.039 413.36C251.599 413.36 252.026 413.493 252.319 413.76C252.613 414.013 252.759 414.387 252.759 414.88C252.759 415.36 252.613 415.733 252.319 416C252.026 416.253 251.599 416.38 251.039 416.38ZM259.251 428.22C258.184 428.22 257.251 428.013 256.451 427.6C255.664 427.173 255.058 426.573 254.631 425.8C254.204 425.027 253.991 424.113 253.991 423.06C253.991 422.273 254.111 421.567 254.351 420.94C254.591 420.313 254.938 419.78 255.391 419.34C255.858 418.9 256.418 418.567 257.071 418.34C257.724 418.1 258.451 417.98 259.251 417.98C259.664 417.98 260.104 418.033 260.571 418.14C261.038 418.233 261.498 418.4 261.951 418.64C262.218 418.76 262.398 418.933 262.491 419.16C262.598 419.373 262.638 419.6 262.611 419.84C262.584 420.067 262.498 420.273 262.351 420.46C262.218 420.633 262.044 420.753 261.831 420.82C261.618 420.873 261.378 420.833 261.111 420.7C260.858 420.553 260.591 420.447 260.311 420.38C260.044 420.313 259.791 420.28 259.551 420.28C259.151 420.28 258.798 420.347 258.491 420.48C258.184 420.6 257.924 420.78 257.711 421.02C257.511 421.247 257.351 421.533 257.231 421.88C257.124 422.227 257.071 422.627 257.071 423.08C257.071 423.96 257.284 424.653 257.711 425.16C258.151 425.653 258.764 425.9 259.551 425.9C259.791 425.9 260.044 425.873 260.311 425.82C260.578 425.753 260.844 425.647 261.111 425.5C261.378 425.367 261.618 425.333 261.831 425.4C262.044 425.467 262.211 425.593 262.331 425.78C262.464 425.953 262.538 426.16 262.551 426.4C262.578 426.627 262.538 426.853 262.431 427.08C262.338 427.293 262.164 427.46 261.911 427.58C261.458 427.807 261.004 427.967 260.551 428.06C260.098 428.167 259.664 428.22 259.251 428.22ZM265.142 428.16C264.648 428.16 264.268 428.02 264.002 427.74C263.748 427.447 263.622 427.04 263.622 426.52V419.68C263.622 419.147 263.748 418.74 264.002 418.46C264.268 418.167 264.648 418.02 265.142 418.02C265.622 418.02 265.988 418.167 266.242 418.46C266.508 418.74 266.642 419.147 266.642 419.68V426.52C266.642 427.04 266.515 427.447 266.262 427.74C266.008 428.02 265.635 428.16 265.142 428.16ZM265.142 416.38C264.582 416.38 264.148 416.253 263.842 416C263.548 415.733 263.402 415.36 263.402 414.88C263.402 414.387 263.548 414.013 263.842 413.76C264.148 413.493 264.582 413.36 265.142 413.36C265.702 413.36 266.128 413.493 266.422 413.76C266.715 414.013 266.862 414.387 266.862 414.88C266.862 415.36 266.715 415.733 266.422 416C266.128 416.253 265.702 416.38 265.142 416.38ZM270.093 428.18C269.6 428.18 269.22 428.047 268.953 427.78C268.7 427.513 268.573 427.133 268.573 426.64V419.54C268.573 419.047 268.7 418.673 268.953 418.42C269.22 418.153 269.587 418.02 270.053 418.02C270.533 418.02 270.9 418.153 271.153 418.42C271.407 418.673 271.533 419.047 271.533 419.54V420.68L271.313 420.02C271.62 419.367 272.073 418.867 272.673 418.52C273.287 418.16 273.98 417.98 274.753 417.98C275.54 417.98 276.187 418.133 276.693 418.44C277.2 418.733 277.58 419.187 277.833 419.8C278.087 420.4 278.213 421.167 278.213 422.1V426.64C278.213 427.133 278.08 427.513 277.813 427.78C277.56 428.047 277.187 428.18 276.693 428.18C276.213 428.18 275.84 428.047 275.573 427.78C275.32 427.513 275.193 427.133 275.193 426.64V422.24C275.193 421.56 275.067 421.073 274.813 420.78C274.573 420.473 274.2 420.32 273.693 420.32C273.053 420.32 272.54 420.52 272.153 420.92C271.78 421.32 271.593 421.853 271.593 422.52V426.64C271.593 427.667 271.093 428.18 270.093 428.18ZM285.168 428.22C284.008 428.22 283.008 428.013 282.168 427.6C281.341 427.173 280.701 426.58 280.248 425.82C279.808 425.047 279.588 424.14 279.588 423.1C279.588 422.087 279.801 421.2 280.228 420.44C280.654 419.667 281.248 419.067 282.008 418.64C282.781 418.2 283.654 417.98 284.628 417.98C285.334 417.98 285.974 418.1 286.548 418.34C287.121 418.567 287.614 418.9 288.028 419.34C288.441 419.767 288.754 420.293 288.968 420.92C289.181 421.533 289.288 422.22 289.288 422.98C289.288 423.233 289.208 423.427 289.048 423.56C288.888 423.68 288.654 423.74 288.348 423.74H282.068V422.18H287.108L286.788 422.46C286.788 421.913 286.708 421.46 286.548 421.1C286.388 420.727 286.154 420.447 285.848 420.26C285.554 420.073 285.188 419.98 284.748 419.98C284.254 419.98 283.834 420.093 283.488 420.32C283.141 420.547 282.874 420.873 282.688 421.3C282.501 421.727 282.408 422.24 282.408 422.84V423C282.408 424.013 282.641 424.76 283.108 425.24C283.588 425.72 284.294 425.96 285.228 425.96C285.548 425.96 285.914 425.92 286.328 425.84C286.741 425.76 287.128 425.633 287.488 425.46C287.794 425.313 288.068 425.267 288.308 425.32C288.548 425.36 288.734 425.467 288.868 425.64C289.001 425.813 289.074 426.013 289.088 426.24C289.114 426.467 289.068 426.693 288.948 426.92C288.828 427.133 288.628 427.313 288.348 427.46C287.894 427.713 287.381 427.9 286.808 428.02C286.248 428.153 285.701 428.22 285.168 428.22ZM292.104 428.1C291.571 428.1 291.144 427.94 290.824 427.62C290.518 427.3 290.364 426.887 290.364 426.38C290.364 425.887 290.518 425.487 290.824 425.18C291.144 424.86 291.571 424.7 292.104 424.7C292.638 424.7 293.051 424.86 293.344 425.18C293.651 425.487 293.804 425.887 293.804 426.38C293.804 426.887 293.651 427.3 293.344 427.62C293.051 427.94 292.638 428.1 292.104 428.1ZM292.104 421.48C291.571 421.48 291.144 421.32 290.824 421C290.518 420.68 290.364 420.273 290.364 419.78C290.364 419.273 290.518 418.867 290.824 418.56C291.144 418.24 291.571 418.08 292.104 418.08C292.638 418.08 293.051 418.24 293.344 418.56C293.651 418.867 293.804 419.273 293.804 419.78C293.804 420.273 293.651 420.68 293.344 421C293.051 421.32 292.638 421.48 292.104 421.48ZM38.1327 455.18C37.6261 455.18 37.2394 455.04 36.9727 454.76C36.7061 454.48 36.5727 454.087 36.5727 453.58V442.32C36.5727 441.813 36.7061 441.42 36.9727 441.14C37.2394 440.86 37.6261 440.72 38.1327 440.72C38.6261 440.72 39.0061 440.86 39.2727 441.14C39.5394 441.42 39.6727 441.813 39.6727 442.32V453.58C39.6727 454.087 39.5394 454.48 39.2727 454.76C39.0194 455.04 38.6394 455.18 38.1327 455.18ZM43.3702 455.18C42.8769 455.18 42.4969 455.047 42.2302 454.78C41.9769 454.513 41.8502 454.133 41.8502 453.64V446.54C41.8502 446.047 41.9769 445.673 42.2302 445.42C42.4969 445.153 42.8636 445.02 43.3302 445.02C43.8102 445.02 44.1769 445.153 44.4302 445.42C44.6836 445.673 44.8102 446.047 44.8102 446.54V447.68L44.5902 447.02C44.8969 446.367 45.3502 445.867 45.9502 445.52C46.5636 445.16 47.2569 444.98 48.0302 444.98C48.8169 444.98 49.4636 445.133 49.9702 445.44C50.4769 445.733 50.8569 446.187 51.1102 446.8C51.3636 447.4 51.4902 448.167 51.4902 449.1V453.64C51.4902 454.133 51.3569 454.513 51.0902 454.78C50.8369 455.047 50.4636 455.18 49.9702 455.18C49.4902 455.18 49.1169 455.047 48.8502 454.78C48.5969 454.513 48.4702 454.133 48.4702 453.64V449.24C48.4702 448.56 48.3436 448.073 48.0902 447.78C47.8502 447.473 47.4769 447.32 46.9702 447.32C46.3302 447.32 45.8169 447.52 45.4302 447.92C45.0569 448.32 44.8702 448.853 44.8702 449.52V453.64C44.8702 454.667 44.3702 455.18 43.3702 455.18ZM57.1048 455.22C56.5181 455.22 55.9114 455.167 55.2848 455.06C54.6714 454.953 54.1114 454.773 53.6048 454.52C53.3381 454.387 53.1448 454.22 53.0248 454.02C52.9181 453.807 52.8714 453.593 52.8848 453.38C52.8981 453.167 52.9648 452.973 53.0848 452.8C53.2181 452.627 53.3848 452.513 53.5848 452.46C53.7981 452.393 54.0314 452.413 54.2848 452.52C54.8314 452.747 55.3314 452.907 55.7848 453C56.2381 453.093 56.6848 453.14 57.1248 453.14C57.6981 453.14 58.1114 453.053 58.3648 452.88C58.6314 452.693 58.7648 452.453 58.7648 452.16C58.7648 451.893 58.6781 451.693 58.5048 451.56C58.3314 451.427 58.0781 451.333 57.7448 451.28L55.6448 450.9C54.8181 450.753 54.1781 450.453 53.7248 450C53.2848 449.533 53.0648 448.94 53.0648 448.22C53.0648 447.553 53.2514 446.98 53.6248 446.5C53.9981 446.007 54.5114 445.633 55.1648 445.38C55.8314 445.113 56.5848 444.98 57.4248 444.98C58.0248 444.98 58.5781 445.033 59.0848 445.14C59.5914 445.247 60.0781 445.42 60.5448 445.66C60.7848 445.78 60.9514 445.94 61.0448 446.14C61.1514 446.34 61.1848 446.547 61.1448 446.76C61.1181 446.973 61.0381 447.167 60.9048 447.34C60.7714 447.513 60.5981 447.627 60.3848 447.68C60.1848 447.733 59.9514 447.707 59.6848 447.6C59.2581 447.4 58.8648 447.26 58.5048 447.18C58.1448 447.087 57.7981 447.04 57.4648 447.04C56.8648 447.04 56.4314 447.14 56.1648 447.34C55.8981 447.527 55.7648 447.767 55.7648 448.06C55.7648 448.287 55.8381 448.48 55.9848 448.64C56.1448 448.787 56.3848 448.887 56.7048 448.94L58.8048 449.32C59.6714 449.467 60.3314 449.76 60.7848 450.2C61.2381 450.627 61.4648 451.213 61.4648 451.96C61.4648 452.973 61.0648 453.773 60.2648 454.36C59.4781 454.933 58.4248 455.22 57.1048 455.22ZM64.3085 455.16C63.8152 455.16 63.4352 455.02 63.1685 454.74C62.9152 454.447 62.7885 454.04 62.7885 453.52V446.68C62.7885 446.147 62.9152 445.74 63.1685 445.46C63.4352 445.167 63.8152 445.02 64.3085 445.02C64.7885 445.02 65.1552 445.167 65.4085 445.46C65.6752 445.74 65.8085 446.147 65.8085 446.68V453.52C65.8085 454.04 65.6819 454.447 65.4285 454.74C65.1752 455.02 64.8019 455.16 64.3085 455.16ZM64.3085 443.38C63.7485 443.38 63.3152 443.253 63.0085 443C62.7152 442.733 62.5685 442.36 62.5685 441.88C62.5685 441.387 62.7152 441.013 63.0085 440.76C63.3152 440.493 63.7485 440.36 64.3085 440.36C64.8685 440.36 65.2952 440.493 65.5885 440.76C65.8819 441.013 66.0285 441.387 66.0285 441.88C66.0285 442.36 65.8819 442.733 65.5885 443C65.2952 443.253 64.8685 443.38 64.3085 443.38ZM72.4601 458.82C71.7401 458.82 71.0468 458.76 70.3801 458.64C69.7268 458.52 69.1468 458.34 68.6401 458.1C68.3334 457.967 68.1134 457.793 67.9801 457.58C67.8601 457.367 67.8068 457.14 67.8201 456.9C67.8468 456.66 67.9268 456.447 68.0601 456.26C68.2068 456.073 68.3868 455.94 68.6001 455.86C68.8134 455.793 69.0401 455.813 69.2801 455.92C69.8668 456.187 70.4068 456.36 70.9001 456.44C71.4068 456.52 71.8401 456.56 72.2001 456.56C73.0534 456.56 73.6934 456.367 74.1201 455.98C74.5468 455.593 74.7601 455 74.7601 454.2V452.68H74.9401C74.7401 453.293 74.3268 453.793 73.7001 454.18C73.0734 454.567 72.3801 454.76 71.6201 454.76C70.7401 454.76 69.9734 454.56 69.3201 454.16C68.6668 453.747 68.1601 453.173 67.8001 452.44C67.4401 451.693 67.2601 450.833 67.2601 449.86C67.2601 449.127 67.3601 448.46 67.5601 447.86C67.7734 447.26 68.0668 446.747 68.4401 446.32C68.8268 445.893 69.2868 445.567 69.8201 445.34C70.3668 445.1 70.9668 444.98 71.6201 444.98C72.4068 444.98 73.1001 445.173 73.7001 445.56C74.3134 445.933 74.7201 446.427 74.9201 447.04L74.7201 447.68V446.54C74.7201 446.047 74.8468 445.673 75.1001 445.42C75.3668 445.153 75.7401 445.02 76.2201 445.02C76.7001 445.02 77.0668 445.153 77.3201 445.42C77.5734 445.673 77.7001 446.047 77.7001 446.54V453.86C77.7001 455.5 77.2468 456.733 76.3401 457.56C75.4468 458.4 74.1534 458.82 72.4601 458.82ZM72.5201 452.5C72.9734 452.5 73.3601 452.393 73.6801 452.18C74.0134 451.967 74.2734 451.667 74.4601 451.28C74.6468 450.88 74.7401 450.407 74.7401 449.86C74.7401 449.033 74.5334 448.393 74.1201 447.94C73.7201 447.473 73.1868 447.24 72.5201 447.24C72.0668 447.24 71.6734 447.347 71.3401 447.56C71.0068 447.76 70.7468 448.06 70.5601 448.46C70.3868 448.847 70.3001 449.313 70.3001 449.86C70.3001 450.687 70.5001 451.333 70.9001 451.8C71.3001 452.267 71.8401 452.5 72.5201 452.5ZM81.1648 455.18C80.6714 455.18 80.2914 455.047 80.0248 454.78C79.7714 454.513 79.6448 454.133 79.6448 453.64V442.26C79.6448 441.753 79.7714 441.373 80.0248 441.12C80.2914 440.853 80.6714 440.72 81.1648 440.72C81.6448 440.72 82.0114 440.853 82.2648 441.12C82.5314 441.373 82.6648 441.753 82.6648 442.26V447.02H82.3848C82.6914 446.367 83.1448 445.867 83.7448 445.52C84.3581 445.16 85.0514 444.98 85.8248 444.98C86.6114 444.98 87.2581 445.133 87.7648 445.44C88.2714 445.733 88.6514 446.187 88.9048 446.8C89.1581 447.4 89.2848 448.167 89.2848 449.1V453.64C89.2848 454.133 89.1514 454.513 88.8848 454.78C88.6314 455.047 88.2581 455.18 87.7648 455.18C87.2848 455.18 86.9114 455.047 86.6448 454.78C86.3914 454.513 86.2648 454.133 86.2648 453.64V449.24C86.2648 448.56 86.1381 448.073 85.8848 447.78C85.6448 447.473 85.2714 447.32 84.7648 447.32C84.1248 447.32 83.6114 447.52 83.2248 447.92C82.8514 448.32 82.6648 448.853 82.6648 449.52V453.64C82.6648 454.667 82.1648 455.18 81.1648 455.18ZM95.9593 455.22C95.0393 455.22 94.266 455.067 93.6393 454.76C93.026 454.453 92.566 454.007 92.2593 453.42C91.966 452.833 91.8193 452.093 91.8193 451.2V447.44H90.9793C90.606 447.44 90.3126 447.34 90.0993 447.14C89.8993 446.94 89.7993 446.667 89.7993 446.32C89.7993 445.947 89.8993 445.667 90.0993 445.48C90.3126 445.28 90.606 445.18 90.9793 445.18H91.8193V443.66C91.8193 443.153 91.9526 442.773 92.2193 442.52C92.486 442.253 92.8593 442.12 93.3393 442.12C93.8326 442.12 94.206 442.253 94.4593 442.52C94.7126 442.773 94.8393 443.153 94.8393 443.66V445.18H96.7393C97.1126 445.18 97.3993 445.28 97.5993 445.48C97.7993 445.667 97.8993 445.947 97.8993 446.32C97.8993 446.667 97.7993 446.94 97.5993 447.14C97.3993 447.34 97.1126 447.44 96.7393 447.44H94.8393V451.08C94.8393 451.64 94.966 452.06 95.2193 452.34C95.486 452.62 95.906 452.76 96.4793 452.76C96.6793 452.76 96.866 452.74 97.0393 452.7C97.2126 452.66 97.3726 452.633 97.5193 452.62C97.706 452.607 97.8593 452.667 97.9793 452.8C98.0993 452.92 98.1593 453.193 98.1593 453.62C98.1593 453.94 98.106 454.22 97.9993 454.46C97.8926 454.7 97.706 454.873 97.4393 454.98C97.266 455.047 97.026 455.1 96.7193 455.14C96.426 455.193 96.1726 455.22 95.9593 455.22ZM102.585 455.22C101.999 455.22 101.392 455.167 100.765 455.06C100.152 454.953 99.5919 454.773 99.0852 454.52C98.8186 454.387 98.6252 454.22 98.5052 454.02C98.3986 453.807 98.3519 453.593 98.3652 453.38C98.3786 453.167 98.4452 452.973 98.5652 452.8C98.6986 452.627 98.8652 452.513 99.0652 452.46C99.2786 452.393 99.5119 452.413 99.7652 452.52C100.312 452.747 100.812 452.907 101.265 453C101.719 453.093 102.165 453.14 102.605 453.14C103.179 453.14 103.592 453.053 103.845 452.88C104.112 452.693 104.245 452.453 104.245 452.16C104.245 451.893 104.159 451.693 103.985 451.56C103.812 451.427 103.559 451.333 103.225 451.28L101.125 450.9C100.299 450.753 99.6586 450.453 99.2052 450C98.7652 449.533 98.5452 448.94 98.5452 448.22C98.5452 447.553 98.7319 446.98 99.1052 446.5C99.4786 446.007 99.9919 445.633 100.645 445.38C101.312 445.113 102.065 444.98 102.905 444.98C103.505 444.98 104.059 445.033 104.565 445.14C105.072 445.247 105.559 445.42 106.025 445.66C106.265 445.78 106.432 445.94 106.525 446.14C106.632 446.34 106.665 446.547 106.625 446.76C106.599 446.973 106.519 447.167 106.385 447.34C106.252 447.513 106.079 447.627 105.865 447.68C105.665 447.733 105.432 447.707 105.165 447.6C104.739 447.4 104.345 447.26 103.985 447.18C103.625 447.087 103.279 447.04 102.945 447.04C102.345 447.04 101.912 447.14 101.645 447.34C101.379 447.527 101.245 447.767 101.245 448.06C101.245 448.287 101.319 448.48 101.465 448.64C101.625 448.787 101.865 448.887 102.185 448.94L104.285 449.32C105.152 449.467 105.812 449.76 106.265 450.2C106.719 450.627 106.945 451.213 106.945 451.96C106.945 452.973 106.545 453.773 105.745 454.36C104.959 454.933 103.905 455.22 102.585 455.22ZM115.735 455.18C115.242 455.18 114.862 455.047 114.595 454.78C114.342 454.513 114.215 454.133 114.215 453.64V447.44H113.495C113.122 447.44 112.828 447.34 112.615 447.14C112.415 446.94 112.315 446.667 112.315 446.32C112.315 445.947 112.415 445.667 112.615 445.48C112.828 445.28 113.122 445.18 113.495 445.18H115.095L114.215 445.98V445.36C114.215 443.933 114.568 442.867 115.275 442.16C115.995 441.453 117.048 441.027 118.435 440.88L119.075 440.82C119.422 440.793 119.695 440.847 119.895 440.98C120.108 441.113 120.248 441.287 120.315 441.5C120.382 441.713 120.395 441.933 120.355 442.16C120.315 442.373 120.222 442.567 120.075 442.74C119.942 442.9 119.755 442.987 119.515 443L119.235 443.02C118.515 443.073 118.002 443.247 117.695 443.54C117.388 443.82 117.235 444.253 117.235 444.84V445.52L116.855 445.18H118.655C119.042 445.18 119.335 445.28 119.535 445.48C119.735 445.667 119.835 445.947 119.835 446.32C119.835 446.667 119.735 446.94 119.535 447.14C119.335 447.34 119.042 447.44 118.655 447.44H117.235V453.64C117.235 454.667 116.735 455.18 115.735 455.18ZM122.252 455.18C121.745 455.18 121.358 455.047 121.092 454.78C120.825 454.513 120.692 454.133 120.692 453.64V446.54C120.692 446.047 120.818 445.673 121.072 445.42C121.338 445.153 121.705 445.02 122.172 445.02C122.652 445.02 123.018 445.153 123.272 445.42C123.525 445.673 123.652 446.047 123.652 446.54V447.58H123.452C123.612 446.78 123.965 446.16 124.512 445.72C125.058 445.28 125.765 445.033 126.632 444.98C126.965 444.953 127.218 445.04 127.392 445.24C127.578 445.427 127.678 445.74 127.692 446.18C127.718 446.593 127.632 446.92 127.432 447.16C127.245 447.4 126.925 447.547 126.472 447.6L126.012 447.64C125.252 447.707 124.685 447.927 124.312 448.3C123.952 448.673 123.772 449.213 123.772 449.92V453.64C123.772 454.133 123.638 454.513 123.372 454.78C123.118 455.047 122.745 455.18 122.252 455.18ZM133.078 455.22C132.025 455.22 131.105 455.013 130.318 454.6C129.545 454.187 128.945 453.593 128.518 452.82C128.091 452.047 127.878 451.133 127.878 450.08C127.878 449.293 127.998 448.587 128.238 447.96C128.478 447.333 128.825 446.8 129.278 446.36C129.745 445.907 130.298 445.567 130.938 445.34C131.578 445.1 132.291 444.98 133.078 444.98C134.131 444.98 135.045 445.187 135.818 445.6C136.605 446.013 137.211 446.6 137.638 447.36C138.078 448.12 138.298 449.027 138.298 450.08C138.298 450.88 138.171 451.593 137.918 452.22C137.678 452.847 137.331 453.387 136.878 453.84C136.425 454.293 135.871 454.64 135.218 454.88C134.578 455.107 133.865 455.22 133.078 455.22ZM133.078 452.96C133.518 452.96 133.898 452.853 134.218 452.64C134.538 452.427 134.791 452.113 134.978 451.7C135.165 451.273 135.258 450.733 135.258 450.08C135.258 449.107 135.058 448.393 134.658 447.94C134.258 447.473 133.731 447.24 133.078 447.24C132.651 447.24 132.271 447.34 131.938 447.54C131.618 447.74 131.365 448.053 131.178 448.48C131.005 448.893 130.918 449.427 130.918 450.08C130.918 451.053 131.118 451.78 131.518 452.26C131.918 452.727 132.438 452.96 133.078 452.96ZM141.295 455.18C140.802 455.18 140.422 455.047 140.155 454.78C139.902 454.513 139.775 454.133 139.775 453.64V446.54C139.775 446.047 139.902 445.673 140.155 445.42C140.422 445.153 140.789 445.02 141.255 445.02C141.735 445.02 142.102 445.153 142.355 445.42C142.609 445.673 142.735 446.047 142.735 446.54V447.82L142.515 447.02C142.782 446.407 143.195 445.913 143.755 445.54C144.315 445.167 144.975 444.98 145.735 444.98C146.495 444.98 147.129 445.16 147.635 445.52C148.142 445.88 148.502 446.433 148.715 447.18H148.435C148.729 446.5 149.175 445.967 149.775 445.58C150.389 445.18 151.089 444.98 151.875 444.98C152.635 444.98 153.255 445.133 153.735 445.44C154.229 445.733 154.595 446.187 154.835 446.8C155.075 447.4 155.195 448.167 155.195 449.1V453.64C155.195 454.133 155.062 454.513 154.795 454.78C154.542 455.047 154.175 455.18 153.695 455.18C153.202 455.18 152.822 455.047 152.555 454.78C152.302 454.513 152.175 454.133 152.175 453.64V449.2C152.175 448.547 152.069 448.073 151.855 447.78C151.655 447.473 151.309 447.32 150.815 447.32C150.242 447.32 149.795 447.52 149.475 447.92C149.155 448.32 148.995 448.887 148.995 449.62V453.64C148.995 454.133 148.862 454.513 148.595 454.78C148.342 455.047 147.975 455.18 147.495 455.18C147.015 455.18 146.642 455.047 146.375 454.78C146.109 454.513 145.975 454.133 145.975 453.64V449.2C145.975 448.547 145.869 448.073 145.655 447.78C145.455 447.473 145.109 447.32 144.615 447.32C144.042 447.32 143.595 447.52 143.275 447.92C142.955 448.32 142.795 448.887 142.795 449.62V453.64C142.795 454.667 142.295 455.18 141.295 455.18ZM169.095 455.22C167.708 455.22 166.488 454.92 165.435 454.32C164.395 453.707 163.581 452.853 162.995 451.76C162.421 450.667 162.135 449.393 162.135 447.94C162.135 446.833 162.295 445.84 162.615 444.96C162.948 444.067 163.421 443.307 164.035 442.68C164.648 442.04 165.381 441.547 166.235 441.2C167.101 440.853 168.055 440.68 169.095 440.68C170.508 440.68 171.735 440.98 172.775 441.58C173.815 442.18 174.621 443.027 175.195 444.12C175.781 445.2 176.075 446.467 176.075 447.92C176.075 449.027 175.908 450.027 175.575 450.92C175.241 451.813 174.768 452.58 174.155 453.22C173.541 453.86 172.808 454.353 171.955 454.7C171.101 455.047 170.148 455.22 169.095 455.22ZM169.095 452.58C169.881 452.58 170.548 452.4 171.095 452.04C171.655 451.667 172.081 451.133 172.375 450.44C172.681 449.733 172.835 448.9 172.835 447.94C172.835 446.473 172.508 445.34 171.855 444.54C171.201 443.727 170.281 443.32 169.095 443.32C168.321 443.32 167.655 443.5 167.095 443.86C166.535 444.22 166.108 444.747 165.815 445.44C165.521 446.133 165.375 446.967 165.375 447.94C165.375 449.393 165.701 450.533 166.355 451.36C167.008 452.173 167.921 452.58 169.095 452.58ZM181.573 455.22C180.986 455.22 180.379 455.167 179.753 455.06C179.139 454.953 178.579 454.773 178.073 454.52C177.806 454.387 177.613 454.22 177.493 454.02C177.386 453.807 177.339 453.593 177.353 453.38C177.366 453.167 177.433 452.973 177.553 452.8C177.686 452.627 177.853 452.513 178.053 452.46C178.266 452.393 178.499 452.413 178.753 452.52C179.299 452.747 179.799 452.907 180.253 453C180.706 453.093 181.153 453.14 181.593 453.14C182.166 453.14 182.579 453.053 182.833 452.88C183.099 452.693 183.233 452.453 183.233 452.16C183.233 451.893 183.146 451.693 182.973 451.56C182.799 451.427 182.546 451.333 182.213 451.28L180.113 450.9C179.286 450.753 178.646 450.453 178.193 450C177.753 449.533 177.533 448.94 177.533 448.22C177.533 447.553 177.719 446.98 178.093 446.5C178.466 446.007 178.979 445.633 179.633 445.38C180.299 445.113 181.053 444.98 181.893 444.98C182.493 444.98 183.046 445.033 183.553 445.14C184.059 445.247 184.546 445.42 185.013 445.66C185.253 445.78 185.419 445.94 185.513 446.14C185.619 446.34 185.653 446.547 185.613 446.76C185.586 446.973 185.506 447.167 185.373 447.34C185.239 447.513 185.066 447.627 184.853 447.68C184.653 447.733 184.419 447.707 184.153 447.6C183.726 447.4 183.333 447.26 182.973 447.18C182.613 447.087 182.266 447.04 181.933 447.04C181.333 447.04 180.899 447.14 180.633 447.34C180.366 447.527 180.233 447.767 180.233 448.06C180.233 448.287 180.306 448.48 180.453 448.64C180.613 448.787 180.853 448.887 181.173 448.94L183.273 449.32C184.139 449.467 184.799 449.76 185.253 450.2C185.706 450.627 185.933 451.213 185.933 451.96C185.933 452.973 185.533 453.773 184.733 454.36C183.946 454.933 182.893 455.22 181.573 455.22ZM190.796 455.22C189.61 455.22 188.723 454.893 188.136 454.24C187.55 453.573 187.256 452.587 187.256 451.28V442.26C187.256 441.753 187.383 441.373 187.636 441.12C187.903 440.853 188.283 440.72 188.776 440.72C189.256 440.72 189.623 440.853 189.876 441.12C190.143 441.373 190.276 441.753 190.276 442.26V451.16C190.276 451.707 190.39 452.113 190.616 452.38C190.856 452.633 191.17 452.76 191.556 452.76C191.663 452.76 191.763 452.753 191.856 452.74C191.95 452.727 192.05 452.72 192.156 452.72C192.37 452.693 192.516 452.76 192.596 452.92C192.69 453.067 192.736 453.367 192.736 453.82C192.736 454.22 192.656 454.527 192.496 454.74C192.336 454.94 192.09 455.073 191.756 455.14C191.623 455.153 191.47 455.167 191.296 455.18C191.123 455.207 190.956 455.22 190.796 455.22ZM198.519 455.22C197.359 455.22 196.359 455.013 195.519 454.6C194.692 454.173 194.052 453.58 193.599 452.82C193.159 452.047 192.939 451.14 192.939 450.1C192.939 449.087 193.152 448.2 193.579 447.44C194.006 446.667 194.599 446.067 195.359 445.64C196.132 445.2 197.006 444.98 197.979 444.98C198.686 444.98 199.326 445.1 199.899 445.34C200.472 445.567 200.966 445.9 201.379 446.34C201.792 446.767 202.106 447.293 202.319 447.92C202.532 448.533 202.639 449.22 202.639 449.98C202.639 450.233 202.559 450.427 202.399 450.56C202.239 450.68 202.006 450.74 201.699 450.74H195.419V449.18H200.459L200.139 449.46C200.139 448.913 200.059 448.46 199.899 448.1C199.739 447.727 199.506 447.447 199.199 447.26C198.906 447.073 198.539 446.98 198.099 446.98C197.606 446.98 197.186 447.093 196.839 447.32C196.492 447.547 196.226 447.873 196.039 448.3C195.852 448.727 195.759 449.24 195.759 449.84V450C195.759 451.013 195.992 451.76 196.459 452.24C196.939 452.72 197.646 452.96 198.579 452.96C198.899 452.96 199.266 452.92 199.679 452.84C200.092 452.76 200.479 452.633 200.839 452.46C201.146 452.313 201.419 452.267 201.659 452.32C201.899 452.36 202.086 452.467 202.219 452.64C202.352 452.813 202.426 453.013 202.439 453.24C202.466 453.467 202.419 453.693 202.299 453.92C202.179 454.133 201.979 454.313 201.699 454.46C201.246 454.713 200.732 454.9 200.159 455.02C199.599 455.153 199.052 455.22 198.519 455.22ZM205.556 455.18C205.049 455.18 204.662 455.047 204.396 454.78C204.129 454.513 203.996 454.133 203.996 453.64V446.54C203.996 446.047 204.122 445.673 204.376 445.42C204.642 445.153 205.009 445.02 205.476 445.02C205.956 445.02 206.322 445.153 206.576 445.42C206.829 445.673 206.956 446.047 206.956 446.54V447.58H206.756C206.916 446.78 207.269 446.16 207.816 445.72C208.362 445.28 209.069 445.033 209.936 444.98C210.269 444.953 210.522 445.04 210.696 445.24C210.882 445.427 210.982 445.74 210.996 446.18C211.022 446.593 210.936 446.92 210.736 447.16C210.549 447.4 210.229 447.547 209.776 447.6L209.316 447.64C208.556 447.707 207.989 447.927 207.616 448.3C207.256 448.673 207.076 449.213 207.076 449.92V453.64C207.076 454.133 206.942 454.513 206.676 454.78C206.422 455.047 206.049 455.18 205.556 455.18ZM213.238 447.04C212.944 447.04 212.691 446.933 212.478 446.72C212.264 446.507 212.138 446.227 212.098 445.88L211.698 442.48C211.644 441.987 211.764 441.573 212.058 441.24C212.364 440.893 212.758 440.72 213.238 440.72C213.558 440.72 213.838 440.8 214.078 440.96C214.331 441.107 214.518 441.313 214.638 441.58C214.758 441.847 214.804 442.147 214.778 442.48L214.378 445.88C214.338 446.227 214.211 446.507 213.998 446.72C213.798 446.933 213.544 447.04 213.238 447.04ZM220.315 455.22C219.728 455.22 219.122 455.167 218.495 455.06C217.882 454.953 217.322 454.773 216.815 454.52C216.548 454.387 216.355 454.22 216.235 454.02C216.128 453.807 216.082 453.593 216.095 453.38C216.108 453.167 216.175 452.973 216.295 452.8C216.428 452.627 216.595 452.513 216.795 452.46C217.008 452.393 217.242 452.413 217.495 452.52C218.042 452.747 218.542 452.907 218.995 453C219.448 453.093 219.895 453.14 220.335 453.14C220.908 453.14 221.322 453.053 221.575 452.88C221.842 452.693 221.975 452.453 221.975 452.16C221.975 451.893 221.888 451.693 221.715 451.56C221.542 451.427 221.288 451.333 220.955 451.28L218.855 450.9C218.028 450.753 217.388 450.453 216.935 450C216.495 449.533 216.275 448.94 216.275 448.22C216.275 447.553 216.462 446.98 216.835 446.5C217.208 446.007 217.722 445.633 218.375 445.38C219.042 445.113 219.795 444.98 220.635 444.98C221.235 444.98 221.788 445.033 222.295 445.14C222.802 445.247 223.288 445.42 223.755 445.66C223.995 445.78 224.162 445.94 224.255 446.14C224.362 446.34 224.395 446.547 224.355 446.76C224.328 446.973 224.248 447.167 224.115 447.34C223.982 447.513 223.808 447.627 223.595 447.68C223.395 447.733 223.162 447.707 222.895 447.6C222.468 447.4 222.075 447.26 221.715 447.18C221.355 447.087 221.008 447.04 220.675 447.04C220.075 447.04 219.642 447.14 219.375 447.34C219.108 447.527 218.975 447.767 218.975 448.06C218.975 448.287 219.048 448.48 219.195 448.64C219.355 448.787 219.595 448.887 219.915 448.94L222.015 449.32C222.882 449.467 223.542 449.76 223.995 450.2C224.448 450.627 224.675 451.213 224.675 451.96C224.675 452.973 224.275 453.773 223.475 454.36C222.688 454.933 221.635 455.22 220.315 455.22ZM233.065 455C232.545 455 232.145 454.86 231.865 454.58C231.585 454.3 231.445 453.9 231.445 453.38V442.52C231.445 442 231.585 441.6 231.865 441.32C232.145 441.04 232.545 440.9 233.065 440.9H240.045C240.445 440.9 240.745 441.007 240.945 441.22C241.158 441.42 241.265 441.713 241.265 442.1C241.265 442.5 241.158 442.807 240.945 443.02C240.745 443.22 240.445 443.32 240.045 443.32H234.405V446.62H239.585C239.998 446.62 240.305 446.727 240.505 446.94C240.718 447.14 240.825 447.44 240.825 447.84C240.825 448.24 240.718 448.547 240.505 448.76C240.305 448.96 239.998 449.06 239.585 449.06H234.405V452.58H240.045C240.445 452.58 240.745 452.687 240.945 452.9C241.158 453.1 241.265 453.393 241.265 453.78C241.265 454.18 241.158 454.487 240.945 454.7C240.745 454.9 240.445 455 240.045 455H233.065ZM243.934 455.14C243.561 455.14 243.261 455.04 243.034 454.84C242.807 454.627 242.687 454.36 242.674 454.04C242.674 453.72 242.807 453.393 243.074 453.06L246.174 449.26V450.62L243.294 447.1C243.014 446.753 242.881 446.42 242.894 446.1C242.907 445.78 243.027 445.52 243.254 445.32C243.481 445.12 243.781 445.02 244.154 445.02C244.514 445.02 244.814 445.08 245.054 445.2C245.294 445.32 245.521 445.52 245.734 445.8L247.874 448.54H246.814L248.954 445.8C249.181 445.52 249.414 445.32 249.654 445.2C249.894 445.08 250.187 445.02 250.534 445.02C250.907 445.02 251.207 445.127 251.434 445.34C251.661 445.54 251.774 445.8 251.774 446.12C251.787 446.44 251.654 446.767 251.374 447.1L248.494 450.62V449.26L251.614 453.06C251.894 453.38 252.027 453.7 252.014 454.02C252.001 454.34 251.874 454.607 251.634 454.82C251.407 455.033 251.107 455.14 250.734 455.14C250.374 455.14 250.074 455.08 249.834 454.96C249.607 454.827 249.381 454.627 249.154 454.36L246.814 451.38H247.834L245.494 454.36C245.281 454.613 245.054 454.807 244.814 454.94C244.587 455.073 244.294 455.14 243.934 455.14ZM255.186 458.78C254.693 458.78 254.313 458.647 254.046 458.38C253.793 458.127 253.666 457.747 253.666 457.24V446.54C253.666 446.047 253.793 445.673 254.046 445.42C254.313 445.153 254.679 445.02 255.146 445.02C255.639 445.02 256.013 445.153 256.266 445.42C256.519 445.673 256.646 446.047 256.646 446.54V447.9L256.426 447.12C256.626 446.48 257.026 445.967 257.626 445.58C258.239 445.18 258.939 444.98 259.726 444.98C260.579 444.98 261.326 445.187 261.966 445.6C262.619 446.013 263.126 446.6 263.486 447.36C263.846 448.12 264.026 449.027 264.026 450.08C264.026 451.133 263.846 452.047 263.486 452.82C263.126 453.593 262.626 454.187 261.986 454.6C261.346 455.013 260.593 455.22 259.726 455.22C258.953 455.22 258.266 455.033 257.666 454.66C257.066 454.273 256.659 453.773 256.446 453.16H256.686V457.24C256.686 457.747 256.553 458.127 256.286 458.38C256.033 458.647 255.666 458.78 255.186 458.78ZM258.826 452.96C259.253 452.96 259.626 452.853 259.946 452.64C260.279 452.427 260.533 452.113 260.706 451.7C260.893 451.273 260.986 450.733 260.986 450.08C260.986 449.107 260.786 448.393 260.386 447.94C259.986 447.473 259.466 447.24 258.826 447.24C258.399 447.24 258.019 447.34 257.686 447.54C257.366 447.74 257.113 448.053 256.926 448.48C256.739 448.893 256.646 449.427 256.646 450.08C256.646 451.053 256.846 451.78 257.246 452.26C257.646 452.727 258.173 452.96 258.826 452.96ZM270.573 455.22C269.413 455.22 268.413 455.013 267.573 454.6C266.746 454.173 266.106 453.58 265.653 452.82C265.213 452.047 264.993 451.14 264.993 450.1C264.993 449.087 265.206 448.2 265.633 447.44C266.06 446.667 266.653 446.067 267.413 445.64C268.186 445.2 269.06 444.98 270.033 444.98C270.74 444.98 271.38 445.1 271.953 445.34C272.526 445.567 273.02 445.9 273.433 446.34C273.846 446.767 274.16 447.293 274.373 447.92C274.586 448.533 274.693 449.22 274.693 449.98C274.693 450.233 274.613 450.427 274.453 450.56C274.293 450.68 274.06 450.74 273.753 450.74H267.473V449.18H272.513L272.193 449.46C272.193 448.913 272.113 448.46 271.953 448.1C271.793 447.727 271.56 447.447 271.253 447.26C270.96 447.073 270.593 446.98 270.153 446.98C269.66 446.98 269.24 447.093 268.893 447.32C268.546 447.547 268.28 447.873 268.093 448.3C267.906 448.727 267.813 449.24 267.813 449.84V450C267.813 451.013 268.046 451.76 268.513 452.24C268.993 452.72 269.7 452.96 270.633 452.96C270.953 452.96 271.32 452.92 271.733 452.84C272.146 452.76 272.533 452.633 272.893 452.46C273.2 452.313 273.473 452.267 273.713 452.32C273.953 452.36 274.14 452.467 274.273 452.64C274.406 452.813 274.48 453.013 274.493 453.24C274.52 453.467 274.473 453.693 274.353 453.92C274.233 454.133 274.033 454.313 273.753 454.46C273.3 454.713 272.786 454.9 272.213 455.02C271.653 455.153 271.106 455.22 270.573 455.22ZM277.609 455.18C277.103 455.18 276.716 455.047 276.449 454.78C276.183 454.513 276.049 454.133 276.049 453.64V446.54C276.049 446.047 276.176 445.673 276.429 445.42C276.696 445.153 277.063 445.02 277.529 445.02C278.009 445.02 278.376 445.153 278.629 445.42C278.883 445.673 279.009 446.047 279.009 446.54V447.58H278.809C278.969 446.78 279.323 446.16 279.869 445.72C280.416 445.28 281.123 445.033 281.989 444.98C282.323 444.953 282.576 445.04 282.749 445.24C282.936 445.427 283.036 445.74 283.049 446.18C283.076 446.593 282.989 446.92 282.789 447.16C282.603 447.4 282.283 447.547 281.829 447.6L281.369 447.64C280.609 447.707 280.043 447.927 279.669 448.3C279.309 448.673 279.129 449.213 279.129 449.92V453.64C279.129 454.133 278.996 454.513 278.729 454.78C278.476 455.047 278.103 455.18 277.609 455.18ZM289.298 455.22C288.378 455.22 287.604 455.067 286.978 454.76C286.364 454.453 285.904 454.007 285.598 453.42C285.304 452.833 285.158 452.093 285.158 451.2V447.44H284.318C283.944 447.44 283.651 447.34 283.438 447.14C283.238 446.94 283.138 446.667 283.138 446.32C283.138 445.947 283.238 445.667 283.438 445.48C283.651 445.28 283.944 445.18 284.318 445.18H285.158V443.66C285.158 443.153 285.291 442.773 285.558 442.52C285.824 442.253 286.198 442.12 286.678 442.12C287.171 442.12 287.544 442.253 287.798 442.52C288.051 442.773 288.178 443.153 288.178 443.66V445.18H290.078C290.451 445.18 290.738 445.28 290.938 445.48C291.138 445.667 291.238 445.947 291.238 446.32C291.238 446.667 291.138 446.94 290.938 447.14C290.738 447.34 290.451 447.44 290.078 447.44H288.178V451.08C288.178 451.64 288.304 452.06 288.558 452.34C288.824 452.62 289.244 452.76 289.818 452.76C290.018 452.76 290.204 452.74 290.378 452.7C290.551 452.66 290.711 452.633 290.858 452.62C291.044 452.607 291.198 452.667 291.318 452.8C291.438 452.92 291.498 453.193 291.498 453.62C291.498 453.94 291.444 454.22 291.338 454.46C291.231 454.7 291.044 454.873 290.778 454.98C290.604 455.047 290.364 455.1 290.058 455.14C289.764 455.193 289.511 455.22 289.298 455.22ZM295.924 455.22C295.337 455.22 294.73 455.167 294.104 455.06C293.49 454.953 292.93 454.773 292.424 454.52C292.157 454.387 291.964 454.22 291.844 454.02C291.737 453.807 291.69 453.593 291.704 453.38C291.717 453.167 291.784 452.973 291.904 452.8C292.037 452.627 292.204 452.513 292.404 452.46C292.617 452.393 292.85 452.413 293.104 452.52C293.65 452.747 294.15 452.907 294.604 453C295.057 453.093 295.504 453.14 295.944 453.14C296.517 453.14 296.93 453.053 297.184 452.88C297.45 452.693 297.584 452.453 297.584 452.16C297.584 451.893 297.497 451.693 297.324 451.56C297.15 451.427 296.897 451.333 296.564 451.28L294.464 450.9C293.637 450.753 292.997 450.453 292.544 450C292.104 449.533 291.884 448.94 291.884 448.22C291.884 447.553 292.07 446.98 292.444 446.5C292.817 446.007 293.33 445.633 293.984 445.38C294.65 445.113 295.404 444.98 296.244 444.98C296.844 444.98 297.397 445.033 297.904 445.14C298.41 445.247 298.897 445.42 299.364 445.66C299.604 445.78 299.77 445.94 299.864 446.14C299.97 446.34 300.004 446.547 299.964 446.76C299.937 446.973 299.857 447.167 299.724 447.34C299.59 447.513 299.417 447.627 299.204 447.68C299.004 447.733 298.77 447.707 298.504 447.6C298.077 447.4 297.684 447.26 297.324 447.18C296.964 447.087 296.617 447.04 296.284 447.04C295.684 447.04 295.25 447.14 294.984 447.34C294.717 447.527 294.584 447.767 294.584 448.06C294.584 448.287 294.657 448.48 294.804 448.64C294.964 448.787 295.204 448.887 295.524 448.94L297.624 449.32C298.49 449.467 299.15 449.76 299.604 450.2C300.057 450.627 300.284 451.213 300.284 451.96C300.284 452.973 299.884 453.773 299.084 454.36C298.297 454.933 297.244 455.22 295.924 455.22Z" fill="#2F3C33"/>
<path d="M77.7931 503.128C77.5371 503.128 77.3291 503.069 77.1691 502.952C77.0197 502.835 76.9291 502.68 76.8971 502.488C76.8651 502.285 76.9024 502.061 77.0091 501.816L81.2331 492.456C81.3717 492.147 81.5371 491.928 81.7291 491.8C81.9317 491.661 82.1611 491.592 82.4171 491.592C82.6624 491.592 82.8811 491.661 83.0731 491.8C83.2757 491.928 83.4464 492.147 83.5851 492.456L87.8251 501.816C87.9424 502.061 87.9851 502.285 87.9531 502.488C87.9211 502.691 87.8304 502.851 87.6811 502.968C87.5317 503.075 87.3344 503.128 87.0891 503.128C86.7904 503.128 86.5557 503.059 86.3851 502.92C86.2251 502.771 86.0811 502.547 85.9531 502.248L84.9131 499.832L85.7771 500.392H79.0251L79.8891 499.832L78.8651 502.248C78.7264 502.557 78.5824 502.781 78.4331 502.92C78.2837 503.059 78.0704 503.128 77.7931 503.128ZM82.3851 493.944L80.1451 499.272L79.7291 498.76H85.0731L84.6731 499.272L82.4171 493.944H82.3851ZM90.2913 503.128C89.9606 503.128 89.7046 503.037 89.5233 502.856C89.3526 502.664 89.2673 502.403 89.2673 502.072V492.648C89.2673 492.307 89.3526 492.045 89.5233 491.864C89.7046 491.683 89.9606 491.592 90.2913 491.592C90.622 491.592 90.8726 491.683 91.0433 491.864C91.2246 492.045 91.3153 492.307 91.3153 492.648V502.072C91.3153 502.403 91.23 502.664 91.0593 502.856C90.8886 503.037 90.6326 503.128 90.2913 503.128Z" fill="#2F3C33"/>
<rect x="60.5" y="478.5" width="48" height="39" rx="14.5" stroke="#647067"/>
<path d="M135.569 503.128C135.27 503.128 135.041 503.043 134.881 502.872C134.721 502.701 134.641 502.467 134.641 502.168V492.552C134.641 492.243 134.726 492.008 134.897 491.848C135.067 491.677 135.302 491.592 135.601 491.592C135.867 491.592 136.075 491.645 136.225 491.752C136.385 491.848 136.529 492.019 136.657 492.264L140.609 499.576H140.097L144.049 492.264C144.177 492.019 144.315 491.848 144.465 491.752C144.614 491.645 144.822 491.592 145.089 491.592C145.387 491.592 145.617 491.677 145.777 491.848C145.937 492.008 146.017 492.243 146.017 492.552V502.168C146.017 502.467 145.937 502.701 145.777 502.872C145.627 503.043 145.398 503.128 145.089 503.128C144.79 503.128 144.561 503.043 144.401 502.872C144.241 502.701 144.161 502.467 144.161 502.168V494.76H144.513L141.153 500.888C141.046 501.069 140.934 501.203 140.817 501.288C140.699 501.373 140.539 501.416 140.337 501.416C140.134 501.416 139.969 501.373 139.841 501.288C139.713 501.192 139.601 501.059 139.505 500.888L136.113 494.744H136.497V502.168C136.497 502.467 136.417 502.701 136.257 502.872C136.107 503.043 135.878 503.128 135.569 503.128ZM150.563 503.16C149.998 503.16 149.491 503.053 149.043 502.84C148.606 502.616 148.259 502.317 148.003 501.944C147.758 501.571 147.635 501.149 147.635 500.68C147.635 500.104 147.785 499.651 148.083 499.32C148.382 498.979 148.867 498.733 149.539 498.584C150.211 498.435 151.113 498.36 152.243 498.36H153.043V499.512H152.259C151.598 499.512 151.07 499.544 150.675 499.608C150.281 499.672 149.998 499.784 149.827 499.944C149.667 500.093 149.587 500.307 149.587 500.584C149.587 500.936 149.71 501.224 149.955 501.448C150.201 501.672 150.542 501.784 150.979 501.784C151.331 501.784 151.641 501.704 151.907 501.544C152.185 501.373 152.403 501.144 152.563 500.856C152.723 500.568 152.803 500.237 152.803 499.864V498.024C152.803 497.491 152.686 497.107 152.451 496.872C152.217 496.637 151.822 496.52 151.267 496.52C150.958 496.52 150.622 496.557 150.259 496.632C149.907 496.707 149.534 496.835 149.139 497.016C148.937 497.112 148.755 497.139 148.595 497.096C148.446 497.053 148.329 496.968 148.243 496.84C148.158 496.701 148.115 496.552 148.115 496.392C148.115 496.232 148.158 496.077 148.243 495.928C148.329 495.768 148.473 495.651 148.675 495.576C149.166 495.373 149.635 495.229 150.083 495.144C150.542 495.059 150.958 495.016 151.331 495.016C152.099 495.016 152.729 495.133 153.219 495.368C153.721 495.603 154.094 495.96 154.339 496.44C154.585 496.909 154.707 497.517 154.707 498.264V502.104C154.707 502.435 154.627 502.691 154.467 502.872C154.307 503.043 154.078 503.128 153.779 503.128C153.481 503.128 153.246 503.043 153.075 502.872C152.915 502.691 152.835 502.435 152.835 502.104V501.336H152.963C152.889 501.709 152.739 502.035 152.515 502.312C152.302 502.579 152.03 502.787 151.699 502.936C151.369 503.085 150.99 503.16 150.563 503.16ZM160.033 503.16C159.212 503.16 158.497 502.995 157.889 502.664C157.281 502.323 156.812 501.843 156.481 501.224C156.151 500.605 155.985 499.88 155.985 499.048C155.985 498.419 156.076 497.859 156.257 497.368C156.449 496.867 156.721 496.445 157.073 496.104C157.425 495.752 157.852 495.485 158.353 495.304C158.855 495.112 159.415 495.016 160.033 495.016C160.385 495.016 160.764 495.064 161.169 495.16C161.585 495.256 161.975 495.416 162.337 495.64C162.508 495.747 162.62 495.875 162.673 496.024C162.727 496.173 162.737 496.328 162.705 496.488C162.673 496.637 162.604 496.771 162.497 496.888C162.401 496.995 162.279 497.064 162.129 497.096C161.98 497.117 161.815 497.08 161.633 496.984C161.399 496.845 161.159 496.744 160.913 496.68C160.668 496.605 160.433 496.568 160.209 496.568C159.857 496.568 159.548 496.627 159.281 496.744C159.015 496.851 158.785 497.011 158.593 497.224C158.412 497.427 158.273 497.683 158.177 497.992C158.081 498.301 158.033 498.659 158.033 499.064C158.033 499.853 158.22 500.477 158.593 500.936C158.977 501.384 159.516 501.608 160.209 501.608C160.433 501.608 160.663 501.576 160.897 501.512C161.143 501.448 161.388 501.347 161.633 501.208C161.815 501.112 161.975 501.08 162.113 501.112C162.263 501.144 162.385 501.219 162.481 501.336C162.577 501.443 162.636 501.576 162.657 501.736C162.679 501.885 162.657 502.035 162.593 502.184C162.54 502.333 162.433 502.456 162.273 502.552C161.921 502.765 161.548 502.92 161.153 503.016C160.759 503.112 160.385 503.16 160.033 503.16ZM164.636 503.128C164.316 503.128 164.071 503.043 163.9 502.872C163.729 502.691 163.644 502.435 163.644 502.104V492.6C163.644 492.269 163.729 492.019 163.9 491.848C164.071 491.677 164.316 491.592 164.636 491.592C164.956 491.592 165.201 491.677 165.372 491.848C165.553 492.019 165.644 492.269 165.644 492.6V496.744H165.42C165.655 496.179 166.017 495.752 166.508 495.464C167.009 495.165 167.575 495.016 168.204 495.016C168.833 495.016 169.351 495.133 169.756 495.368C170.161 495.603 170.465 495.96 170.668 496.44C170.871 496.909 170.972 497.507 170.972 498.232V502.104C170.972 502.435 170.887 502.691 170.716 502.872C170.545 503.043 170.3 503.128 169.98 503.128C169.66 503.128 169.409 503.043 169.228 502.872C169.057 502.691 168.972 502.435 168.972 502.104V498.328C168.972 497.72 168.855 497.277 168.62 497C168.396 496.723 168.044 496.584 167.564 496.584C166.977 496.584 166.508 496.771 166.156 497.144C165.815 497.507 165.644 497.992 165.644 498.6V502.104C165.644 502.787 165.308 503.128 164.636 503.128ZM173.675 503.112C173.355 503.112 173.11 503.016 172.939 502.824C172.769 502.632 172.683 502.365 172.683 502.024V496.152C172.683 495.8 172.769 495.533 172.939 495.352C173.11 495.16 173.355 495.064 173.675 495.064C173.995 495.064 174.241 495.16 174.411 495.352C174.593 495.533 174.683 495.8 174.683 496.152V502.024C174.683 502.365 174.598 502.632 174.427 502.824C174.257 503.016 174.006 503.112 173.675 503.112ZM173.675 493.576C173.302 493.576 173.009 493.485 172.795 493.304C172.593 493.112 172.491 492.851 172.491 492.52C172.491 492.179 172.593 491.917 172.795 491.736C173.009 491.555 173.302 491.464 173.675 491.464C174.059 491.464 174.353 491.555 174.555 491.736C174.758 491.917 174.859 492.179 174.859 492.52C174.859 492.851 174.758 493.112 174.555 493.304C174.353 493.485 174.059 493.576 173.675 493.576ZM177.434 503.128C177.114 503.128 176.868 503.043 176.698 502.872C176.527 502.691 176.442 502.435 176.442 502.104V496.056C176.442 495.725 176.527 495.475 176.698 495.304C176.868 495.133 177.108 495.048 177.418 495.048C177.727 495.048 177.967 495.133 178.138 495.304C178.308 495.475 178.394 495.725 178.394 496.056V497.144L178.218 496.744C178.452 496.179 178.815 495.752 179.306 495.464C179.807 495.165 180.372 495.016 181.002 495.016C181.631 495.016 182.148 495.133 182.554 495.368C182.959 495.603 183.263 495.96 183.466 496.44C183.668 496.909 183.77 497.507 183.77 498.232V502.104C183.77 502.435 183.684 502.691 183.514 502.872C183.343 503.043 183.098 503.128 182.778 503.128C182.458 503.128 182.207 503.043 182.026 502.872C181.855 502.691 181.77 502.435 181.77 502.104V498.328C181.77 497.72 181.652 497.277 181.418 497C181.194 496.723 180.842 496.584 180.362 496.584C179.775 496.584 179.306 496.771 178.954 497.144C178.612 497.507 178.442 497.992 178.442 498.6V502.104C178.442 502.787 178.106 503.128 177.434 503.128ZM189.337 503.16C188.452 503.16 187.689 502.995 187.049 502.664C186.409 502.333 185.913 501.864 185.561 501.256C185.22 500.648 185.049 499.928 185.049 499.096C185.049 498.285 185.214 497.576 185.545 496.968C185.886 496.36 186.35 495.885 186.937 495.544C187.534 495.192 188.212 495.016 188.969 495.016C189.524 495.016 190.02 495.107 190.457 495.288C190.905 495.469 191.284 495.731 191.593 496.072C191.913 496.413 192.153 496.829 192.313 497.32C192.484 497.8 192.569 498.344 192.569 498.952C192.569 499.144 192.5 499.293 192.361 499.4C192.233 499.496 192.046 499.544 191.801 499.544H186.665V498.392H191.161L190.905 498.632C190.905 498.141 190.83 497.731 190.681 497.4C190.542 497.069 190.334 496.819 190.057 496.648C189.79 496.467 189.454 496.376 189.049 496.376C188.601 496.376 188.217 496.483 187.897 496.696C187.588 496.899 187.348 497.192 187.177 497.576C187.017 497.949 186.937 498.397 186.937 498.92V499.032C186.937 499.907 187.14 500.563 187.545 501C187.961 501.427 188.569 501.64 189.369 501.64C189.646 501.64 189.956 501.608 190.297 501.544C190.649 501.469 190.98 501.347 191.289 501.176C191.513 501.048 191.71 500.995 191.881 501.016C192.052 501.027 192.185 501.085 192.281 501.192C192.388 501.299 192.452 501.432 192.473 501.592C192.494 501.741 192.462 501.896 192.377 502.056C192.302 502.216 192.169 502.355 191.977 502.472C191.604 502.707 191.172 502.883 190.681 503C190.201 503.107 189.753 503.16 189.337 503.16ZM199.089 503C198.758 503 198.502 502.909 198.321 502.728C198.139 502.536 198.049 502.275 198.049 501.944V492.712C198.049 492.371 198.134 492.115 198.305 491.944C198.486 491.763 198.742 491.672 199.073 491.672C199.403 491.672 199.654 491.763 199.825 491.944C200.006 492.115 200.097 492.371 200.097 492.712V501.256H204.737C205.025 501.256 205.243 501.331 205.393 501.48C205.553 501.629 205.633 501.843 205.633 502.12C205.633 502.397 205.553 502.616 205.393 502.776C205.243 502.925 205.025 503 204.737 503H199.089ZM210.299 503.16C209.413 503.16 208.651 502.995 208.011 502.664C207.371 502.333 206.875 501.864 206.523 501.256C206.181 500.648 206.011 499.928 206.011 499.096C206.011 498.285 206.176 497.576 206.507 496.968C206.848 496.36 207.312 495.885 207.899 495.544C208.496 495.192 209.173 495.016 209.931 495.016C210.485 495.016 210.981 495.107 211.419 495.288C211.867 495.469 212.245 495.731 212.555 496.072C212.875 496.413 213.115 496.829 213.275 497.32C213.445 497.8 213.531 498.344 213.531 498.952C213.531 499.144 213.461 499.293 213.323 499.4C213.195 499.496 213.008 499.544 212.763 499.544H207.627V498.392H212.123L211.867 498.632C211.867 498.141 211.792 497.731 211.643 497.4C211.504 497.069 211.296 496.819 211.019 496.648C210.752 496.467 210.416 496.376 210.011 496.376C209.563 496.376 209.179 496.483 208.859 496.696C208.549 496.899 208.309 497.192 208.139 497.576C207.979 497.949 207.899 498.397 207.899 498.92V499.032C207.899 499.907 208.101 500.563 208.507 501C208.923 501.427 209.531 501.64 210.331 501.64C210.608 501.64 210.917 501.608 211.259 501.544C211.611 501.469 211.941 501.347 212.251 501.176C212.475 501.048 212.672 500.995 212.843 501.016C213.013 501.027 213.147 501.085 213.243 501.192C213.349 501.299 213.413 501.432 213.435 501.592C213.456 501.741 213.424 501.896 213.339 502.056C213.264 502.216 213.131 502.355 212.939 502.472C212.565 502.707 212.133 502.883 211.643 503C211.163 503.107 210.715 503.16 210.299 503.16ZM217.371 503.16C216.805 503.16 216.299 503.053 215.851 502.84C215.413 502.616 215.067 502.317 214.811 501.944C214.565 501.571 214.443 501.149 214.443 500.68C214.443 500.104 214.592 499.651 214.891 499.32C215.189 498.979 215.675 498.733 216.347 498.584C217.019 498.435 217.92 498.36 219.051 498.36H219.851V499.512H219.067C218.405 499.512 217.877 499.544 217.483 499.608C217.088 499.672 216.805 499.784 216.635 499.944C216.475 500.093 216.395 500.307 216.395 500.584C216.395 500.936 216.517 501.224 216.763 501.448C217.008 501.672 217.349 501.784 217.787 501.784C218.139 501.784 218.448 501.704 218.715 501.544C218.992 501.373 219.211 501.144 219.371 500.856C219.531 500.568 219.611 500.237 219.611 499.864V498.024C219.611 497.491 219.493 497.107 219.259 496.872C219.024 496.637 218.629 496.52 218.075 496.52C217.765 496.52 217.429 496.557 217.067 496.632C216.715 496.707 216.341 496.835 215.947 497.016C215.744 497.112 215.563 497.139 215.403 497.096C215.253 497.053 215.136 496.968 215.051 496.84C214.965 496.701 214.923 496.552 214.923 496.392C214.923 496.232 214.965 496.077 215.051 495.928C215.136 495.768 215.28 495.651 215.483 495.576C215.973 495.373 216.443 495.229 216.891 495.144C217.349 495.059 217.765 495.016 218.139 495.016C218.907 495.016 219.536 495.133 220.027 495.368C220.528 495.603 220.901 495.96 221.147 496.44C221.392 496.909 221.515 497.517 221.515 498.264V502.104C221.515 502.435 221.435 502.691 221.275 502.872C221.115 503.043 220.885 503.128 220.587 503.128C220.288 503.128 220.053 503.043 219.883 502.872C219.723 502.691 219.643 502.435 219.643 502.104V501.336H219.771C219.696 501.709 219.547 502.035 219.323 502.312C219.109 502.579 218.837 502.787 218.507 502.936C218.176 503.085 217.797 503.16 217.371 503.16ZM224.249 503.128C223.918 503.128 223.662 503.043 223.481 502.872C223.31 502.691 223.225 502.435 223.225 502.104V496.056C223.225 495.725 223.31 495.475 223.481 495.304C223.651 495.133 223.891 495.048 224.201 495.048C224.51 495.048 224.75 495.133 224.921 495.304C225.091 495.475 225.177 495.725 225.177 496.056V497.064H225.017C225.166 496.424 225.459 495.939 225.897 495.608C226.334 495.277 226.915 495.08 227.641 495.016C227.865 494.995 228.041 495.053 228.169 495.192C228.307 495.32 228.387 495.523 228.409 495.8C228.43 496.067 228.366 496.285 228.217 496.456C228.078 496.616 227.865 496.712 227.577 496.744L227.225 496.776C226.574 496.84 226.083 497.043 225.753 497.384C225.422 497.715 225.257 498.184 225.257 498.792V502.104C225.257 502.435 225.171 502.691 225.001 502.872C224.83 503.043 224.579 503.128 224.249 503.128ZM230.162 503.128C229.842 503.128 229.597 503.043 229.426 502.872C229.256 502.691 229.17 502.435 229.17 502.104V496.056C229.17 495.725 229.256 495.475 229.426 495.304C229.597 495.133 229.837 495.048 230.146 495.048C230.456 495.048 230.696 495.133 230.866 495.304C231.037 495.475 231.122 495.725 231.122 496.056V497.144L230.946 496.744C231.181 496.179 231.544 495.752 232.034 495.464C232.536 495.165 233.101 495.016 233.73 495.016C234.36 495.016 234.877 495.133 235.282 495.368C235.688 495.603 235.992 495.96 236.194 496.44C236.397 496.909 236.498 497.507 236.498 498.232V502.104C236.498 502.435 236.413 502.691 236.242 502.872C236.072 503.043 235.826 503.128 235.506 503.128C235.186 503.128 234.936 503.043 234.754 502.872C234.584 502.691 234.498 502.435 234.498 502.104V498.328C234.498 497.72 234.381 497.277 234.146 497C233.922 496.723 233.57 496.584 233.09 496.584C232.504 496.584 232.034 496.771 231.682 497.144C231.341 497.507 231.17 497.992 231.17 498.6V502.104C231.17 502.787 230.834 503.128 230.162 503.128ZM239.202 503.112C238.882 503.112 238.636 503.016 238.466 502.824C238.295 502.632 238.21 502.365 238.21 502.024V496.152C238.21 495.8 238.295 495.533 238.466 495.352C238.636 495.16 238.882 495.064 239.202 495.064C239.522 495.064 239.767 495.16 239.938 495.352C240.119 495.533 240.21 495.8 240.21 496.152V502.024C240.21 502.365 240.124 502.632 239.954 502.824C239.783 503.016 239.532 503.112 239.202 503.112ZM239.202 493.576C238.828 493.576 238.535 493.485 238.322 493.304C238.119 493.112 238.018 492.851 238.018 492.52C238.018 492.179 238.119 491.917 238.322 491.736C238.535 491.555 238.828 491.464 239.202 491.464C239.586 491.464 239.879 491.555 240.082 491.736C240.284 491.917 240.386 492.179 240.386 492.52C240.386 492.851 240.284 493.112 240.082 493.304C239.879 493.485 239.586 493.576 239.202 493.576ZM242.96 503.128C242.64 503.128 242.394 503.043 242.224 502.872C242.053 502.691 241.968 502.435 241.968 502.104V496.056C241.968 495.725 242.053 495.475 242.224 495.304C242.394 495.133 242.634 495.048 242.944 495.048C243.253 495.048 243.493 495.133 243.664 495.304C243.834 495.475 243.92 495.725 243.92 496.056V497.144L243.744 496.744C243.978 496.179 244.341 495.752 244.832 495.464C245.333 495.165 245.898 495.016 246.528 495.016C247.157 495.016 247.674 495.133 248.08 495.368C248.485 495.603 248.789 495.96 248.992 496.44C249.194 496.909 249.296 497.507 249.296 498.232V502.104C249.296 502.435 249.21 502.691 249.04 502.872C248.869 503.043 248.624 503.128 248.304 503.128C247.984 503.128 247.733 503.043 247.552 502.872C247.381 502.691 247.296 502.435 247.296 502.104V498.328C247.296 497.72 247.178 497.277 246.944 497C246.72 496.723 246.368 496.584 245.888 496.584C245.301 496.584 244.832 496.771 244.48 497.144C244.138 497.507 243.968 497.992 243.968 498.6V502.104C243.968 502.787 243.632 503.128 242.96 503.128ZM254.655 506.04C254.079 506.04 253.519 505.987 252.975 505.88C252.442 505.773 251.957 505.608 251.519 505.384C251.317 505.277 251.178 505.149 251.103 505C251.039 504.851 251.018 504.696 251.039 504.536C251.071 504.387 251.135 504.253 251.231 504.136C251.338 504.019 251.466 503.939 251.615 503.896C251.765 503.853 251.919 503.875 252.079 503.96C252.549 504.195 252.991 504.344 253.407 504.408C253.834 504.483 254.197 504.52 254.495 504.52C255.21 504.52 255.743 504.344 256.095 503.992C256.458 503.651 256.639 503.139 256.639 502.456V501.016H256.783C256.623 501.56 256.287 501.997 255.775 502.328C255.274 502.648 254.703 502.808 254.063 502.808C253.359 502.808 252.746 502.648 252.223 502.328C251.701 501.997 251.295 501.539 251.007 500.952C250.719 500.365 250.575 499.683 250.575 498.904C250.575 498.317 250.655 497.789 250.815 497.32C250.986 496.84 251.221 496.429 251.519 496.088C251.829 495.747 252.197 495.485 252.623 495.304C253.061 495.112 253.541 495.016 254.063 495.016C254.725 495.016 255.301 495.181 255.791 495.512C256.293 495.832 256.618 496.259 256.767 496.792L256.607 497.192V496.056C256.607 495.725 256.693 495.475 256.863 495.304C257.045 495.133 257.29 495.048 257.599 495.048C257.919 495.048 258.165 495.133 258.335 495.304C258.506 495.475 258.591 495.725 258.591 496.056V502.216C258.591 503.485 258.255 504.44 257.583 505.08C256.911 505.72 255.935 506.04 254.655 506.04ZM254.607 501.288C255.023 501.288 255.381 501.192 255.679 501C255.978 500.808 256.207 500.536 256.367 500.184C256.538 499.821 256.623 499.395 256.623 498.904C256.623 498.168 256.442 497.592 256.079 497.176C255.717 496.749 255.226 496.536 254.607 496.536C254.191 496.536 253.834 496.632 253.535 496.824C253.237 497.016 253.002 497.288 252.831 497.64C252.671 497.992 252.591 498.413 252.591 498.904C252.591 499.64 252.773 500.221 253.135 500.648C253.498 501.075 253.989 501.288 254.607 501.288Z" fill="#2F3C33"/>
<rect x="117.5" y="478.5" width="158" height="39" rx="14.5" stroke="#647067"/>
</svg>
