<svg width="408" height="248" viewBox="0 0 408 248" fill="none" xmlns="http://www.w3.org/2000/svg">
<g filter="url(#filter0_d_1760_7238)">
<rect x="16.8335" y="8" width="374.333" height="216" rx="64" fill="white" shape-rendering="crispEdges"/>
<path d="M134.304 120C132.768 120 131.592 119.592 130.776 118.776C129.96 117.96 129.552 116.832 129.552 115.392C129.552 113.904 129.96 112.776 130.776 112.008C131.592 111.24 132.768 110.856 134.304 110.856H141.576V78.384H146.832L136.32 84.792C135.216 85.464 134.184 85.728 133.224 85.584C132.312 85.44 131.52 85.032 130.848 84.36C130.176 83.688 129.72 82.896 129.48 81.984C129.288 81.024 129.384 80.088 129.768 79.176C130.152 78.216 130.872 77.4 131.928 76.728L141.936 70.68C142.944 70.056 143.952 69.552 144.96 69.168C146.016 68.784 147.048 68.592 148.056 68.592C149.496 68.592 150.624 68.976 151.44 69.744C152.304 70.464 152.736 71.592 152.736 73.128V110.856H159.288C160.776 110.856 161.928 111.24 162.744 112.008C163.56 112.776 163.968 113.904 163.968 115.392C163.968 116.88 163.56 118.032 162.744 118.848C161.928 119.616 160.776 120 159.288 120H134.304ZM173.444 120.36C171.524 120.36 169.988 119.784 168.836 118.632C167.732 117.48 167.18 115.992 167.18 114.168C167.18 112.392 167.732 110.952 168.836 109.848C169.988 108.696 171.524 108.12 173.444 108.12C175.364 108.12 176.852 108.696 177.908 109.848C179.012 110.952 179.564 112.392 179.564 114.168C179.564 115.992 179.012 117.48 177.908 118.632C176.852 119.784 175.364 120.36 173.444 120.36ZM210.075 120.648C208.347 120.648 206.979 120.168 205.971 119.208C205.011 118.248 204.531 116.856 204.531 115.032V110.928H188.403C186.627 110.928 185.211 110.544 184.155 109.776C183.099 108.96 182.571 107.736 182.571 106.104C182.571 105.144 182.787 104.16 183.219 103.152C183.651 102.144 184.419 100.896 185.523 99.408L204.171 72.264C204.987 71.064 205.899 70.152 206.907 69.528C207.915 68.904 209.067 68.592 210.363 68.592C211.899 68.592 213.123 69.072 214.035 70.032C214.995 70.944 215.475 72.336 215.475 74.208V102.144H218.139C219.723 102.144 220.923 102.528 221.739 103.296C222.555 104.016 222.963 105.096 222.963 106.536C222.963 107.928 222.555 109.008 221.739 109.776C220.971 110.544 219.771 110.928 218.139 110.928H215.475V115.032C215.475 116.856 214.995 118.248 214.035 119.208C213.123 120.168 211.803 120.648 210.075 120.648ZM204.531 102.144V82.344H206.619L191.283 104.88V102.144H204.531Z" fill="#2F3C33"/>
<path d="M231.863 120.648C230.231 120.648 228.983 120.192 228.119 119.28C227.255 118.368 226.823 117.096 226.823 115.464V73.776C226.823 72.144 227.279 70.872 228.191 69.96C229.151 69.048 230.447 68.592 232.079 68.592C233.519 68.592 234.647 68.88 235.463 69.456C236.327 69.984 237.119 70.92 237.839 72.264L254.471 102.648H252.023L268.655 72.264C269.375 70.92 270.143 69.984 270.959 69.456C271.823 68.88 272.951 68.592 274.343 68.592C275.975 68.592 277.223 69.048 278.087 69.96C278.999 70.872 279.455 72.144 279.455 73.776V115.464C279.455 117.096 279.023 118.368 278.159 119.28C277.295 120.192 276.047 120.648 274.415 120.648C272.783 120.648 271.511 120.192 270.599 119.28C269.735 118.368 269.303 117.096 269.303 115.464V86.304H270.887L257.495 110.28C256.919 111.192 256.295 111.888 255.623 112.368C254.999 112.8 254.159 113.016 253.103 113.016C252.047 113.016 251.183 112.776 250.511 112.296C249.839 111.816 249.239 111.144 248.711 110.28L235.175 86.232H236.903V115.464C236.903 117.096 236.471 118.368 235.607 119.28C234.791 120.192 233.543 120.648 231.863 120.648Z" fill="#84CC16"/>
<path d="M103 151C102.448 151 102 151.448 102 152C102 152.552 102.448 153 103 153H111C111.552 153 112 152.552 112 152C112 151.448 111.552 151 111 151H103Z" fill="#647067"/>
<path fill-rule="evenodd" clip-rule="evenodd" d="M106.964 154H107.036C107.937 154 108.665 154 109.257 154.04C109.865 154.082 110.404 154.169 110.913 154.381C112.139 154.888 113.112 155.861 113.619 157.087C113.831 157.596 113.918 158.135 113.96 158.743C114 159.335 114 160.063 114 160.964V163.036C114 163.937 114 164.665 113.96 165.257C113.918 165.865 113.831 166.404 113.619 166.913C113.112 168.139 112.139 169.112 110.913 169.619C110.404 169.831 109.865 169.918 109.257 169.96C108.665 170 107.937 170 107.036 170H106.964C106.063 170 105.335 170 104.743 169.96C104.135 169.918 103.596 169.831 103.087 169.619C101.861 169.112 100.888 168.139 100.381 166.913C100.169 166.404 100.082 165.865 100.04 165.257C100 164.665 100 163.937 100 163.036V160.964C100 160.063 100 159.335 100.04 158.743C100.082 158.135 100.169 157.596 100.381 157.087C100.888 155.861 101.861 154.888 103.087 154.381C103.596 154.169 104.135 154.082 104.743 154.04C105.335 154 106.063 154 106.964 154ZM105 161C104.448 161 104 161.448 104 162C104 162.552 104.448 163 105 163H106V164C106 164.552 106.448 165 107 165C107.552 165 108 164.552 108 164V163H109C109.552 163 110 162.552 110 162C110 161.448 109.552 161 109 161H108V160C108 159.448 107.552 159 107 159C106.448 159 106 159.448 106 160V161H105Z" fill="#647067"/>
<path d="M130.216 168.168C129.816 168.168 129.504 168.056 129.28 167.832C129.072 167.608 128.968 167.296 128.968 166.896V152.352C128.968 151.936 129.08 151.624 129.304 151.416C129.528 151.192 129.84 151.08 130.24 151.08H135.976C137.8 151.08 139.208 151.536 140.2 152.448C141.192 153.344 141.688 154.608 141.688 156.24C141.688 157.888 141.192 159.168 140.2 160.08C139.208 160.976 137.8 161.424 135.976 161.424H131.464V166.896C131.464 167.296 131.36 167.608 131.152 167.832C130.944 168.056 130.632 168.168 130.216 168.168ZM131.464 159.432H135.616C136.816 159.432 137.72 159.168 138.328 158.64C138.952 158.096 139.264 157.296 139.264 156.24C139.264 155.2 138.952 154.416 138.328 153.888C137.72 153.344 136.816 153.072 135.616 153.072H131.464V159.432ZM144.372 168.168C143.972 168.168 143.668 168.064 143.46 167.856C143.252 167.632 143.148 167.328 143.148 166.944V157.344C143.148 156.944 143.252 156.64 143.46 156.432C143.668 156.224 143.956 156.12 144.324 156.12C144.708 156.12 144.996 156.224 145.188 156.432C145.396 156.64 145.5 156.944 145.5 157.344V159.096H145.26C145.516 158.136 145.988 157.408 146.676 156.912C147.364 156.416 148.244 156.128 149.316 156.048C149.604 156.032 149.828 156.104 149.988 156.264C150.164 156.424 150.26 156.672 150.276 157.008C150.308 157.344 150.236 157.616 150.06 157.824C149.884 158.016 149.612 158.128 149.244 158.16L148.788 158.208C147.748 158.304 146.956 158.632 146.412 159.192C145.868 159.752 145.596 160.52 145.596 161.496V166.944C145.596 167.328 145.492 167.632 145.284 167.856C145.092 168.064 144.788 168.168 144.372 168.168ZM156.713 168.216C155.433 168.216 154.329 167.976 153.401 167.496C152.489 167 151.777 166.304 151.265 165.408C150.769 164.496 150.521 163.416 150.521 162.168C150.521 160.952 150.769 159.888 151.265 158.976C151.761 158.064 152.441 157.352 153.305 156.84C154.169 156.328 155.153 156.072 156.257 156.072C157.073 156.072 157.801 156.208 158.441 156.48C159.081 156.736 159.625 157.12 160.073 157.632C160.537 158.128 160.881 158.736 161.105 159.456C161.345 160.176 161.465 160.984 161.465 161.88C161.465 162.152 161.385 162.36 161.225 162.504C161.065 162.632 160.825 162.696 160.505 162.696H152.441V161.208H159.833L159.425 161.544C159.425 160.744 159.305 160.064 159.065 159.504C158.841 158.944 158.497 158.52 158.033 158.232C157.585 157.928 157.025 157.776 156.353 157.776C155.601 157.776 154.961 157.952 154.433 158.304C153.921 158.656 153.529 159.144 153.257 159.768C152.985 160.392 152.849 161.12 152.849 161.952V162.096C152.849 163.504 153.177 164.568 153.833 165.288C154.505 165.992 155.473 166.344 156.737 166.344C157.217 166.344 157.721 166.28 158.249 166.152C158.793 166.024 159.305 165.808 159.785 165.504C160.057 165.344 160.297 165.272 160.505 165.288C160.729 165.304 160.905 165.376 161.033 165.504C161.177 165.632 161.265 165.792 161.297 165.984C161.329 166.176 161.297 166.376 161.201 166.584C161.105 166.776 160.937 166.952 160.697 167.112C160.153 167.48 159.521 167.76 158.801 167.952C158.081 168.128 157.385 168.216 156.713 168.216ZM167.492 168.216C166.788 168.216 166.06 168.136 165.308 167.976C164.572 167.816 163.892 167.544 163.268 167.16C163.06 167.016 162.916 166.856 162.836 166.68C162.756 166.504 162.724 166.328 162.74 166.152C162.772 165.96 162.844 165.8 162.956 165.672C163.084 165.528 163.236 165.44 163.412 165.408C163.604 165.376 163.804 165.416 164.012 165.528C164.636 165.88 165.236 166.128 165.812 166.272C166.388 166.4 166.956 166.464 167.516 166.464C168.364 166.464 169.004 166.312 169.436 166.008C169.868 165.704 170.084 165.296 170.084 164.784C170.084 164.368 169.94 164.048 169.652 163.824C169.364 163.584 168.932 163.4 168.356 163.272L166.076 162.816C165.084 162.608 164.332 162.24 163.82 161.712C163.308 161.184 163.052 160.512 163.052 159.696C163.052 158.96 163.252 158.32 163.652 157.776C164.052 157.232 164.612 156.816 165.332 156.528C166.052 156.224 166.884 156.072 167.828 156.072C168.532 156.072 169.196 156.16 169.82 156.336C170.444 156.512 171.02 156.776 171.548 157.128C171.756 157.24 171.892 157.392 171.956 157.584C172.02 157.76 172.028 157.936 171.98 158.112C171.948 158.288 171.868 158.448 171.74 158.592C171.612 158.72 171.452 158.8 171.26 158.832C171.084 158.848 170.884 158.8 170.66 158.688C170.18 158.384 169.7 158.168 169.22 158.04C168.756 157.912 168.292 157.848 167.828 157.848C166.98 157.848 166.34 158.008 165.908 158.328C165.492 158.632 165.284 159.048 165.284 159.576C165.284 159.976 165.412 160.304 165.668 160.56C165.924 160.816 166.324 161 166.868 161.112L169.148 161.568C170.188 161.776 170.972 162.128 171.5 162.624C172.044 163.12 172.316 163.792 172.316 164.64C172.316 165.744 171.876 166.616 170.996 167.256C170.116 167.896 168.948 168.216 167.492 168.216ZM179.453 168.216C178.253 168.216 177.213 167.968 176.333 167.472C175.469 166.96 174.797 166.248 174.317 165.336C173.837 164.408 173.597 163.32 173.597 162.072C173.597 161.144 173.733 160.312 174.005 159.576C174.277 158.824 174.661 158.192 175.157 157.68C175.669 157.168 176.285 156.776 177.005 156.504C177.741 156.216 178.557 156.072 179.453 156.072C180.013 156.072 180.597 156.16 181.205 156.336C181.829 156.496 182.405 156.768 182.933 157.152C183.141 157.28 183.269 157.44 183.317 157.632C183.381 157.808 183.389 157.992 183.341 158.184C183.309 158.376 183.221 158.544 183.077 158.688C182.949 158.816 182.789 158.896 182.597 158.928C182.405 158.944 182.197 158.888 181.973 158.76C181.589 158.488 181.197 158.296 180.797 158.184C180.397 158.056 180.013 157.992 179.645 157.992C179.069 157.992 178.557 158.088 178.109 158.28C177.677 158.456 177.309 158.72 177.005 159.072C176.701 159.408 176.469 159.832 176.309 160.344C176.165 160.856 176.093 161.44 176.093 162.096C176.093 163.408 176.397 164.44 177.005 165.192C177.629 165.928 178.509 166.296 179.645 166.296C180.013 166.296 180.397 166.24 180.797 166.128C181.197 166.016 181.589 165.824 181.973 165.552C182.197 165.424 182.405 165.376 182.597 165.408C182.789 165.44 182.941 165.528 183.053 165.672C183.181 165.8 183.261 165.96 183.293 166.152C183.341 166.328 183.333 166.512 183.269 166.704C183.205 166.896 183.069 167.056 182.861 167.184C182.349 167.552 181.789 167.816 181.181 167.976C180.589 168.136 180.013 168.216 179.453 168.216ZM186 168.168C185.6 168.168 185.296 168.064 185.088 167.856C184.88 167.632 184.776 167.328 184.776 166.944V157.344C184.776 156.944 184.88 156.64 185.088 156.432C185.296 156.224 185.584 156.12 185.952 156.12C186.336 156.12 186.624 156.224 186.816 156.432C187.024 156.64 187.128 156.944 187.128 157.344V159.096H186.888C187.144 158.136 187.616 157.408 188.304 156.912C188.992 156.416 189.872 156.128 190.944 156.048C191.232 156.032 191.456 156.104 191.616 156.264C191.792 156.424 191.888 156.672 191.904 157.008C191.936 157.344 191.864 157.616 191.688 157.824C191.512 158.016 191.24 158.128 190.872 158.16L190.416 158.208C189.376 158.304 188.584 158.632 188.04 159.192C187.496 159.752 187.224 160.52 187.224 161.496V166.944C187.224 167.328 187.12 167.632 186.912 167.856C186.72 168.064 186.416 168.168 186 168.168ZM194.209 168.144C193.825 168.144 193.529 168.032 193.321 167.808C193.113 167.568 193.009 167.24 193.009 166.824V157.464C193.009 157.048 193.113 156.728 193.321 156.504C193.529 156.28 193.825 156.168 194.209 156.168C194.593 156.168 194.889 156.28 195.097 156.504C195.321 156.728 195.433 157.048 195.433 157.464V166.824C195.433 167.24 195.329 167.568 195.121 167.808C194.913 168.032 194.609 168.144 194.209 168.144ZM194.209 153.672C193.729 153.672 193.353 153.552 193.081 153.312C192.825 153.072 192.697 152.736 192.697 152.304C192.697 151.856 192.825 151.52 193.081 151.296C193.353 151.056 193.729 150.936 194.209 150.936C194.689 150.936 195.057 151.056 195.313 151.296C195.585 151.52 195.721 151.856 195.721 152.304C195.721 152.736 195.585 153.072 195.313 153.312C195.057 153.552 194.689 153.672 194.209 153.672ZM199.325 172.488C198.941 172.488 198.645 172.384 198.437 172.176C198.229 171.968 198.125 171.664 198.125 171.264V157.344C198.125 156.944 198.229 156.64 198.437 156.432C198.645 156.224 198.933 156.12 199.301 156.12C199.685 156.12 199.981 156.224 200.189 156.432C200.397 156.64 200.501 156.944 200.501 157.344V159.432L200.237 158.928C200.493 158.064 200.997 157.376 201.749 156.864C202.501 156.336 203.389 156.072 204.413 156.072C205.453 156.072 206.357 156.32 207.125 156.816C207.909 157.312 208.509 158.008 208.925 158.904C209.357 159.8 209.573 160.88 209.573 162.144C209.573 163.376 209.357 164.456 208.925 165.384C208.509 166.296 207.917 167 207.149 167.496C206.381 167.976 205.469 168.216 204.413 168.216C203.405 168.216 202.525 167.96 201.773 167.448C201.021 166.936 200.517 166.256 200.261 165.408H200.549V171.264C200.549 171.664 200.437 171.968 200.213 172.176C200.005 172.384 199.709 172.488 199.325 172.488ZM203.813 166.344C204.485 166.344 205.069 166.184 205.565 165.864C206.061 165.544 206.445 165.072 206.717 164.448C206.989 163.824 207.125 163.056 207.125 162.144C207.125 160.768 206.821 159.728 206.213 159.024C205.621 158.32 204.821 157.968 203.813 157.968C203.157 157.968 202.573 158.128 202.061 158.448C201.565 158.752 201.181 159.216 200.909 159.84C200.637 160.464 200.501 161.232 200.501 162.144C200.501 163.504 200.805 164.544 201.413 165.264C202.021 165.984 202.821 166.344 203.813 166.344ZM216.459 168.216C215.499 168.216 214.691 168.048 214.035 167.712C213.379 167.376 212.891 166.88 212.571 166.224C212.251 165.568 212.091 164.768 212.091 163.824V158.16H210.651C210.331 158.16 210.083 158.08 209.907 157.92C209.731 157.744 209.643 157.512 209.643 157.224C209.643 156.92 209.731 156.688 209.907 156.528C210.083 156.368 210.331 156.288 210.651 156.288H212.091V153.816C212.091 153.416 212.195 153.112 212.403 152.904C212.627 152.696 212.931 152.592 213.315 152.592C213.699 152.592 213.995 152.696 214.203 152.904C214.411 153.112 214.515 153.416 214.515 153.816V156.288H217.323C217.643 156.288 217.891 156.368 218.067 156.528C218.243 156.688 218.331 156.92 218.331 157.224C218.331 157.512 218.243 157.744 218.067 157.92C217.891 158.08 217.643 158.16 217.323 158.16H214.515V163.632C214.515 164.48 214.691 165.12 215.043 165.552C215.411 165.984 216.003 166.2 216.819 166.2C217.107 166.2 217.355 166.176 217.563 166.128C217.787 166.064 217.971 166.024 218.115 166.008C218.291 166.008 218.435 166.072 218.547 166.2C218.659 166.312 218.715 166.536 218.715 166.872C218.715 167.112 218.667 167.336 218.571 167.544C218.491 167.752 218.339 167.888 218.115 167.952C217.923 168.016 217.659 168.072 217.323 168.12C217.003 168.184 216.715 168.216 216.459 168.216ZM220.924 168.144C220.54 168.144 220.244 168.032 220.036 167.808C219.828 167.568 219.724 167.24 219.724 166.824V157.464C219.724 157.048 219.828 156.728 220.036 156.504C220.244 156.28 220.54 156.168 220.924 156.168C221.308 156.168 221.604 156.28 221.812 156.504C222.036 156.728 222.148 157.048 222.148 157.464V166.824C222.148 167.24 222.044 167.568 221.836 167.808C221.628 168.032 221.324 168.144 220.924 168.144ZM220.924 153.672C220.444 153.672 220.068 153.552 219.796 153.312C219.54 153.072 219.412 152.736 219.412 152.304C219.412 151.856 219.54 151.52 219.796 151.296C220.068 151.056 220.444 150.936 220.924 150.936C221.404 150.936 221.772 151.056 222.028 151.296C222.3 151.52 222.436 151.856 222.436 152.304C222.436 152.736 222.3 153.072 222.028 153.312C221.772 153.552 221.404 153.672 220.924 153.672ZM229.928 168.216C228.744 168.216 227.72 167.968 226.856 167.472C226.008 166.976 225.344 166.272 224.864 165.36C224.384 164.448 224.144 163.376 224.144 162.144C224.144 161.2 224.28 160.36 224.552 159.624C224.824 158.888 225.208 158.256 225.704 157.728C226.216 157.184 226.824 156.776 227.528 156.504C228.248 156.216 229.048 156.072 229.928 156.072C231.096 156.072 232.104 156.32 232.952 156.816C233.816 157.312 234.488 158.016 234.968 158.928C235.448 159.824 235.688 160.896 235.688 162.144C235.688 163.072 235.552 163.912 235.28 164.664C235.008 165.416 234.616 166.056 234.104 166.584C233.608 167.112 233 167.52 232.28 167.808C231.576 168.08 230.792 168.216 229.928 168.216ZM229.928 166.344C230.584 166.344 231.16 166.184 231.656 165.864C232.152 165.544 232.536 165.072 232.808 164.448C233.096 163.824 233.24 163.056 233.24 162.144C233.24 160.768 232.936 159.728 232.328 159.024C231.72 158.32 230.92 157.968 229.928 157.968C229.256 157.968 228.672 158.128 228.176 158.448C227.68 158.752 227.288 159.216 227 159.84C226.728 160.464 226.592 161.232 226.592 162.144C226.592 163.504 226.896 164.544 227.504 165.264C228.112 165.984 228.92 166.344 229.928 166.344ZM238.89 168.168C238.506 168.168 238.21 168.064 238.002 167.856C237.794 167.632 237.69 167.328 237.69 166.944V157.344C237.69 156.944 237.794 156.64 238.002 156.432C238.21 156.224 238.498 156.12 238.866 156.12C239.25 156.12 239.538 156.224 239.73 156.432C239.938 156.64 240.042 156.944 240.042 157.344V159.216L239.778 158.784C240.13 157.888 240.682 157.216 241.434 156.768C242.186 156.304 243.05 156.072 244.026 156.072C244.954 156.072 245.722 156.248 246.33 156.6C246.954 156.936 247.418 157.456 247.722 158.16C248.026 158.848 248.178 159.72 248.178 160.776V166.944C248.178 167.328 248.074 167.632 247.866 167.856C247.658 168.064 247.362 168.168 246.978 168.168C246.578 168.168 246.274 168.064 246.066 167.856C245.858 167.632 245.754 167.328 245.754 166.944V160.92C245.754 159.912 245.554 159.176 245.154 158.712C244.77 158.248 244.162 158.016 243.33 158.016C242.354 158.016 241.57 158.32 240.978 158.928C240.402 159.536 240.114 160.352 240.114 161.376V166.944C240.114 167.76 239.706 168.168 238.89 168.168ZM257.99 168.168C257.574 168.168 257.246 168.056 257.006 167.832C256.782 167.608 256.67 167.28 256.67 166.848V152.424C256.67 151.992 256.782 151.664 257.006 151.44C257.246 151.2 257.582 151.08 258.014 151.08H266.558C266.911 151.08 267.167 151.168 267.326 151.344C267.502 151.504 267.59 151.744 267.59 152.064C267.59 152.4 267.502 152.656 267.326 152.832C267.167 153.008 266.911 153.096 266.558 153.096H259.166V158.496H266.079C266.398 158.496 266.646 158.584 266.822 158.76C267.014 158.92 267.11 159.16 267.11 159.48C267.11 159.816 267.014 160.072 266.822 160.248C266.646 160.424 266.398 160.512 266.079 160.512H259.166V166.848C259.166 167.728 258.774 168.168 257.99 168.168ZM270.855 168.144C270.471 168.144 270.175 168.032 269.967 167.808C269.759 167.568 269.655 167.24 269.655 166.824V157.464C269.655 157.048 269.759 156.728 269.967 156.504C270.175 156.28 270.471 156.168 270.855 156.168C271.239 156.168 271.535 156.28 271.743 156.504C271.967 156.728 272.079 157.048 272.079 157.464V166.824C272.079 167.24 271.975 167.568 271.767 167.808C271.559 168.032 271.255 168.144 270.855 168.144ZM270.855 153.672C270.375 153.672 269.999 153.552 269.727 153.312C269.471 153.072 269.343 152.736 269.343 152.304C269.343 151.856 269.471 151.52 269.727 151.296C269.999 151.056 270.375 150.936 270.855 150.936C271.335 150.936 271.703 151.056 271.959 151.296C272.231 151.52 272.367 151.856 272.367 152.304C272.367 152.736 272.231 153.072 271.959 153.312C271.703 153.552 271.335 153.672 270.855 153.672ZM278.539 168.216C277.291 168.216 276.347 167.856 275.707 167.136C275.083 166.4 274.771 165.344 274.771 163.968V152.136C274.771 151.736 274.875 151.432 275.083 151.224C275.291 151.016 275.587 150.912 275.971 150.912C276.355 150.912 276.651 151.016 276.859 151.224C277.083 151.432 277.195 151.736 277.195 152.136V163.824C277.195 164.624 277.355 165.224 277.675 165.624C278.011 166.008 278.491 166.2 279.115 166.2C279.259 166.2 279.387 166.2 279.499 166.2C279.611 166.184 279.723 166.168 279.835 166.152C280.027 166.136 280.163 166.192 280.243 166.32C280.323 166.432 280.363 166.672 280.363 167.04C280.363 167.376 280.291 167.64 280.147 167.832C280.003 168.008 279.771 168.12 279.451 168.168C279.307 168.184 279.155 168.192 278.995 168.192C278.835 168.208 278.683 168.216 278.539 168.216ZM285.155 168.216C283.907 168.216 282.963 167.856 282.323 167.136C281.699 166.4 281.387 165.344 281.387 163.968V152.136C281.387 151.736 281.491 151.432 281.699 151.224C281.907 151.016 282.203 150.912 282.587 150.912C282.971 150.912 283.267 151.016 283.475 151.224C283.699 151.432 283.811 151.736 283.811 152.136V163.824C283.811 164.624 283.971 165.224 284.291 165.624C284.627 166.008 285.107 166.2 285.731 166.2C285.875 166.2 286.003 166.2 286.115 166.2C286.227 166.184 286.339 166.168 286.451 166.152C286.643 166.136 286.779 166.192 286.859 166.32C286.939 166.432 286.979 166.672 286.979 167.04C286.979 167.376 286.907 167.64 286.763 167.832C286.619 168.008 286.387 168.12 286.067 168.168C285.923 168.184 285.771 168.192 285.611 168.192C285.451 168.208 285.299 168.216 285.155 168.216ZM293.382 168.216C292.102 168.216 290.998 167.976 290.07 167.496C289.158 167 288.446 166.304 287.934 165.408C287.438 164.496 287.19 163.416 287.19 162.168C287.19 160.952 287.438 159.888 287.934 158.976C288.43 158.064 289.11 157.352 289.974 156.84C290.838 156.328 291.822 156.072 292.926 156.072C293.742 156.072 294.47 156.208 295.11 156.48C295.75 156.736 296.294 157.12 296.742 157.632C297.206 158.128 297.55 158.736 297.774 159.456C298.014 160.176 298.134 160.984 298.134 161.88C298.134 162.152 298.054 162.36 297.894 162.504C297.734 162.632 297.494 162.696 297.174 162.696H289.11V161.208H296.502L296.094 161.544C296.094 160.744 295.974 160.064 295.734 159.504C295.51 158.944 295.166 158.52 294.702 158.232C294.254 157.928 293.694 157.776 293.022 157.776C292.27 157.776 291.63 157.952 291.102 158.304C290.59 158.656 290.198 159.144 289.926 159.768C289.654 160.392 289.518 161.12 289.518 161.952V162.096C289.518 163.504 289.846 164.568 290.502 165.288C291.174 165.992 292.142 166.344 293.406 166.344C293.886 166.344 294.39 166.28 294.918 166.152C295.462 166.024 295.974 165.808 296.454 165.504C296.726 165.344 296.966 165.272 297.174 165.288C297.398 165.304 297.574 165.376 297.702 165.504C297.846 165.632 297.934 165.792 297.966 165.984C297.998 166.176 297.966 166.376 297.87 166.584C297.774 166.776 297.606 166.952 297.366 167.112C296.822 167.48 296.19 167.76 295.47 167.952C294.75 168.128 294.054 168.216 293.382 168.216ZM304.52 168.216C303.496 168.216 302.592 167.976 301.808 167.496C301.04 167 300.44 166.296 300.008 165.384C299.576 164.456 299.36 163.376 299.36 162.144C299.36 160.88 299.576 159.8 300.008 158.904C300.44 158.008 301.04 157.312 301.808 156.816C302.592 156.32 303.496 156.072 304.52 156.072C305.544 156.072 306.424 156.328 307.16 156.84C307.912 157.336 308.416 158.008 308.672 158.856H308.408V152.136C308.408 151.736 308.512 151.432 308.72 151.224C308.928 151.016 309.224 150.912 309.608 150.912C309.992 150.912 310.288 151.016 310.496 151.224C310.72 151.432 310.832 151.736 310.832 152.136V166.944C310.832 167.328 310.728 167.632 310.52 167.856C310.312 168.064 310.016 168.168 309.632 168.168C309.248 168.168 308.952 168.064 308.744 167.856C308.536 167.632 308.432 167.328 308.432 166.944V164.832L308.696 165.36C308.44 166.224 307.936 166.92 307.184 167.448C306.448 167.96 305.56 168.216 304.52 168.216ZM305.144 166.344C305.8 166.344 306.376 166.184 306.872 165.864C307.368 165.544 307.752 165.072 308.024 164.448C308.312 163.824 308.456 163.056 308.456 162.144C308.456 160.768 308.152 159.728 307.544 159.024C306.936 158.32 306.136 157.968 305.144 157.968C304.472 157.968 303.888 158.128 303.392 158.448C302.896 158.752 302.504 159.216 302.216 159.84C301.944 160.464 301.808 161.232 301.808 162.144C301.808 163.504 302.112 164.544 302.72 165.264C303.328 165.984 304.136 166.344 305.144 166.344Z" fill="#2F3C33"/>
</g>
<defs>
<filter id="filter0_d_1760_7238" x="0.833496" y="0" width="406.333" height="248" filterUnits="userSpaceOnUse" color-interpolation-filters="sRGB">
<feFlood flood-opacity="0" result="BackgroundImageFix"/>
<feColorMatrix in="SourceAlpha" type="matrix" values="0 0 0 0 0 0 0 0 0 0 0 0 0 0 0 0 0 0 127 0" result="hardAlpha"/>
<feOffset dy="8"/>
<feGaussianBlur stdDeviation="8"/>
<feComposite in2="hardAlpha" operator="out"/>
<feColorMatrix type="matrix" values="0 0 0 0 0.184314 0 0 0 0 0.235294 0 0 0 0 0.2 0 0 0 0.05 0"/>
<feBlend mode="normal" in2="BackgroundImageFix" result="effect1_dropShadow_1760_7238"/>
<feBlend mode="normal" in="SourceGraphic" in2="effect1_dropShadow_1760_7238" result="shape"/>
</filter>
</defs>
</svg>
