<svg width="407" height="248" viewBox="0 0 407 248" fill="none" xmlns="http://www.w3.org/2000/svg">
<g filter="url(#filter0_d_1760_7237)">
<rect x="16.5" y="8" width="374.333" height="216" rx="64" fill="white" shape-rendering="crispEdges"/>
<path d="M116.591 120.792C114.527 120.792 112.439 120.504 110.327 119.928C108.215 119.352 106.247 118.488 104.423 117.336C103.463 116.856 102.791 116.184 102.407 115.32C102.071 114.408 101.975 113.496 102.119 112.584C102.263 111.672 102.623 110.88 103.199 110.208C103.775 109.488 104.495 109.032 105.359 108.84C106.271 108.6 107.303 108.744 108.455 109.272C109.943 110.088 111.359 110.664 112.703 111C114.095 111.336 115.439 111.504 116.735 111.504C119.279 111.504 121.439 110.928 123.215 109.776C124.991 108.624 126.311 106.896 127.175 104.592C128.087 102.24 128.543 99.384 128.543 96.024V91.344H129.551C129.167 93.6 128.375 95.544 127.175 97.176C125.975 98.808 124.463 100.056 122.639 100.92C120.815 101.784 118.799 102.216 116.591 102.216C113.759 102.216 111.215 101.52 108.959 100.128C106.703 98.688 104.927 96.72 103.631 94.224C102.335 91.728 101.687 88.92 101.687 85.8C101.687 82.44 102.407 79.464 103.847 76.872C105.287 74.232 107.303 72.168 109.895 70.68C112.487 69.192 115.463 68.448 118.823 68.448C123.191 68.448 126.863 69.456 129.839 71.472C132.863 73.44 135.167 76.344 136.751 80.184C138.335 83.976 139.127 88.56 139.127 93.936C139.127 98.208 138.599 102 137.543 105.312C136.535 108.624 135.071 111.432 133.151 113.736C131.231 116.04 128.855 117.792 126.023 118.992C123.239 120.192 120.095 120.792 116.591 120.792ZM119.471 93.504C120.959 93.504 122.255 93.168 123.359 92.496C124.511 91.776 125.399 90.792 126.023 89.544C126.647 88.296 126.959 86.88 126.959 85.296C126.959 83.664 126.647 82.224 126.023 80.976C125.399 79.728 124.511 78.768 123.359 78.096C122.255 77.424 120.959 77.088 119.471 77.088C117.983 77.088 116.687 77.424 115.583 78.096C114.479 78.768 113.591 79.728 112.919 80.976C112.295 82.224 111.983 83.664 111.983 85.296C111.983 86.88 112.295 88.296 112.919 89.544C113.591 90.792 114.479 91.776 115.583 92.496C116.687 93.168 117.983 93.504 119.471 93.504ZM157.602 120.792C155.538 120.792 153.45 120.504 151.338 119.928C149.226 119.352 147.258 118.488 145.434 117.336C144.474 116.856 143.802 116.184 143.418 115.32C143.082 114.408 142.986 113.496 143.13 112.584C143.274 111.672 143.634 110.88 144.21 110.208C144.786 109.488 145.506 109.032 146.37 108.84C147.282 108.6 148.314 108.744 149.466 109.272C150.954 110.088 152.37 110.664 153.714 111C155.106 111.336 156.45 111.504 157.746 111.504C160.29 111.504 162.45 110.928 164.226 109.776C166.002 108.624 167.322 106.896 168.186 104.592C169.098 102.24 169.554 99.384 169.554 96.024V91.344H170.562C170.178 93.6 169.386 95.544 168.186 97.176C166.986 98.808 165.474 100.056 163.65 100.92C161.826 101.784 159.81 102.216 157.602 102.216C154.77 102.216 152.226 101.52 149.97 100.128C147.714 98.688 145.938 96.72 144.642 94.224C143.346 91.728 142.698 88.92 142.698 85.8C142.698 82.44 143.418 79.464 144.858 76.872C146.298 74.232 148.314 72.168 150.906 70.68C153.498 69.192 156.474 68.448 159.834 68.448C164.202 68.448 167.874 69.456 170.85 71.472C173.874 73.44 176.178 76.344 177.762 80.184C179.346 83.976 180.138 88.56 180.138 93.936C180.138 98.208 179.61 102 178.554 105.312C177.546 108.624 176.082 111.432 174.162 113.736C172.242 116.04 169.866 117.792 167.034 118.992C164.25 120.192 161.106 120.792 157.602 120.792ZM160.482 93.504C161.97 93.504 163.266 93.168 164.37 92.496C165.522 91.776 166.41 90.792 167.034 89.544C167.658 88.296 167.97 86.88 167.97 85.296C167.97 83.664 167.658 82.224 167.034 80.976C166.41 79.728 165.522 78.768 164.37 78.096C163.266 77.424 161.97 77.088 160.482 77.088C158.994 77.088 157.698 77.424 156.594 78.096C155.49 78.768 154.602 79.728 153.93 80.976C153.306 82.224 152.994 83.664 152.994 85.296C152.994 86.88 153.306 88.296 153.93 89.544C154.602 90.792 155.49 91.776 156.594 92.496C157.698 93.168 158.994 93.504 160.482 93.504ZM192.062 128.208C191.342 129.072 190.574 129.552 189.758 129.648C188.942 129.792 188.246 129.648 187.67 129.216C187.094 128.784 186.758 128.16 186.662 127.344C186.614 126.576 186.974 125.736 187.742 124.824C188.798 123.48 189.518 122.16 189.902 120.864C190.286 119.568 190.478 118.416 190.478 117.408L190.838 120.36C188.918 120.36 187.358 119.808 186.158 118.704C184.958 117.6 184.358 116.088 184.358 114.168C184.358 112.392 184.91 110.952 186.014 109.848C187.118 108.696 188.63 108.12 190.55 108.12C192.518 108.12 194.054 108.792 195.158 110.136C196.262 111.432 196.814 113.28 196.814 115.68C196.814 116.928 196.694 118.2 196.454 119.496C196.214 120.792 195.758 122.16 195.086 123.6C194.414 125.04 193.406 126.576 192.062 128.208ZM219.405 120.792C216.957 120.792 214.437 120.48 211.845 119.856C209.253 119.232 206.877 118.296 204.717 117.048C203.613 116.424 202.845 115.656 202.413 114.744C202.029 113.832 201.909 112.896 202.053 111.936C202.245 110.976 202.629 110.16 203.205 109.488C203.829 108.768 204.597 108.312 205.509 108.12C206.469 107.928 207.525 108.144 208.677 108.768C210.357 109.632 212.061 110.304 213.789 110.784C215.565 111.264 217.365 111.504 219.189 111.504C221.013 111.504 222.573 111.192 223.869 110.568C225.165 109.944 226.149 109.08 226.821 107.976C227.493 106.872 227.829 105.576 227.829 104.088C227.829 101.784 227.085 99.936 225.597 98.544C224.157 97.152 222.189 96.456 219.693 96.456C218.445 96.456 217.173 96.672 215.877 97.104C214.629 97.488 213.333 98.184 211.989 99.192C211.509 99.576 210.885 99.936 210.117 100.272C209.349 100.608 208.533 100.776 207.669 100.776C206.181 100.776 205.077 100.44 204.357 99.768C203.637 99.048 203.277 98.016 203.277 96.672V74.064C203.277 72.48 203.685 71.28 204.501 70.464C205.365 69.648 206.565 69.24 208.101 69.24H231.213C232.797 69.24 233.997 69.648 234.813 70.464C235.629 71.232 236.037 72.36 236.037 73.848C236.037 75.288 235.629 76.416 234.813 77.232C233.997 78 232.797 78.384 231.213 78.384H214.005V92.136H211.269C212.469 90.648 214.053 89.496 216.021 88.68C217.989 87.864 220.149 87.456 222.501 87.456C225.717 87.456 228.525 88.152 230.925 89.544C233.325 90.888 235.197 92.784 236.541 95.232C237.885 97.68 238.557 100.512 238.557 103.728C238.557 107.088 237.789 110.064 236.253 112.656C234.717 115.2 232.509 117.192 229.629 118.632C226.749 120.072 223.341 120.792 219.405 120.792Z" fill="#2F3C33"/>
<path d="M263.657 119.064C263.081 120.024 262.385 120.648 261.569 120.936C260.753 121.272 259.937 121.344 259.121 121.152C258.305 120.96 257.609 120.576 257.033 120C256.505 119.376 256.169 118.632 256.025 117.768C255.881 116.904 256.097 115.992 256.673 115.032L282.521 70.248C283.097 69.24 283.793 68.568 284.609 68.232C285.425 67.896 286.217 67.848 286.985 68.088C287.801 68.28 288.497 68.688 289.073 69.312C289.649 69.888 290.009 70.608 290.153 71.472C290.297 72.336 290.081 73.248 289.505 74.208L263.657 119.064ZM254.585 99.48C250.409 99.48 247.169 98.088 244.865 95.304C242.561 92.472 241.409 88.68 241.409 83.928C241.409 80.712 241.913 77.952 242.921 75.648C243.977 73.344 245.489 71.568 247.457 70.32C249.473 69.072 251.849 68.448 254.585 68.448C258.713 68.448 261.929 69.864 264.233 72.696C266.585 75.48 267.761 79.224 267.761 83.928C267.761 87.096 267.233 89.856 266.177 92.208C265.169 94.512 263.681 96.312 261.713 97.608C259.745 98.856 257.369 99.48 254.585 99.48ZM254.585 92.568C255.545 92.568 256.337 92.28 256.961 91.704C257.633 91.08 258.137 90.144 258.473 88.896C258.857 87.6 259.049 85.944 259.049 83.928C259.049 80.904 258.641 78.744 257.825 77.448C257.057 76.104 255.977 75.432 254.585 75.432C253.625 75.432 252.809 75.72 252.137 76.296C251.465 76.872 250.961 77.784 250.625 79.032C250.289 80.232 250.121 81.864 250.121 83.928C250.121 87 250.505 89.208 251.273 90.552C252.041 91.896 253.145 92.568 254.585 92.568ZM291.665 120.792C287.489 120.792 284.249 119.376 281.945 116.544C279.641 113.712 278.489 109.92 278.489 105.168C278.489 102 279.017 99.264 280.073 96.96C281.129 94.656 282.641 92.88 284.609 91.632C286.577 90.384 288.929 89.76 291.665 89.76C295.793 89.76 299.009 91.152 301.313 93.936C303.665 96.72 304.841 100.464 304.841 105.168C304.841 108.336 304.313 111.096 303.257 113.448C302.249 115.8 300.761 117.624 298.793 118.92C296.825 120.168 294.449 120.792 291.665 120.792ZM291.665 113.808C292.625 113.808 293.417 113.52 294.041 112.944C294.713 112.368 295.217 111.432 295.553 110.136C295.937 108.84 296.129 107.184 296.129 105.168C296.129 102.144 295.721 99.984 294.905 98.688C294.137 97.344 293.057 96.672 291.665 96.672C290.705 96.672 289.889 96.96 289.217 97.536C288.593 98.112 288.089 99.024 287.705 100.272C287.369 101.52 287.201 103.152 287.201 105.168C287.201 108.288 287.585 110.52 288.353 111.864C289.121 113.16 290.225 113.808 291.665 113.808Z" fill="#84CC16"/>
<path d="M92.0138 152.776C93.8507 151.284 96.4821 151.284 98.319 152.776C98.5201 152.939 98.7269 153.146 99.0305 153.45L99.0735 153.493C99.1191 153.539 99.1441 153.563 99.1627 153.581L99.1664 153.585L99.1701 153.581C99.1887 153.563 99.2136 153.539 99.2593 153.493L99.3023 153.45C99.6059 153.146 99.8127 152.939 100.014 152.776C101.851 151.284 104.482 151.284 106.319 152.776C106.52 152.939 106.727 153.146 107.031 153.45L107.451 153.871C108 154.42 108.375 154.794 108.639 155.181C109.423 156.329 109.677 157.721 109.403 159.028C109.327 159.01 109.248 159 109.166 159H103.735C102.734 159 102.441 158.99 102.191 158.914C101.939 158.837 101.705 158.712 101.502 158.545C101.3 158.379 101.129 158.141 100.573 157.308L99.9984 156.445C99.754 156.079 99.2984 155.915 98.8766 156.043C98.4548 156.171 98.1664 156.559 98.1664 157V159.965C98.1447 159.947 98.1228 159.928 98.1007 159.91C97.6944 159.576 97.2263 159.325 96.7232 159.173C96.1518 158.999 95.54 158.999 94.7294 159L89.1664 159C89.0849 159 89.0057 159.01 88.9299 159.028C88.6557 157.721 88.9102 156.329 89.6935 155.181C89.9581 154.794 90.3324 154.42 90.8815 153.871L91.3023 153.45C91.6059 153.146 91.8127 152.939 92.0138 152.776Z" fill="#647067"/>
<path d="M89.8257 161C90.0792 161.327 90.4181 161.666 90.8815 162.129L93.9641 165.212C94.7304 165.978 95.3485 166.596 95.89 167.056C96.4474 167.529 96.9891 167.893 97.6213 168.098C98.6255 168.425 99.7073 168.425 100.711 168.098C101.344 167.893 101.885 167.529 102.443 167.056C102.984 166.596 103.602 165.978 104.369 165.212L107.451 162.129C107.915 161.666 108.254 161.327 108.507 161L103.603 161C102.793 161.001 102.181 161.001 101.61 160.827C101.106 160.675 100.638 160.424 100.232 160.09C100.21 160.072 100.188 160.053 100.166 160.035V163C100.166 163.441 99.8779 163.829 99.4562 163.957C99.0344 164.085 98.5788 163.921 98.3343 163.555L97.7593 162.692C97.2038 161.859 97.0331 161.621 96.8307 161.455C96.6276 161.288 96.3936 161.163 96.142 161.086C95.8914 161.01 95.599 161 94.5975 161H89.8257Z" fill="#647067"/>
<path d="M122.479 168C122.047 168 121.711 167.888 121.471 167.664C121.247 167.424 121.135 167.088 121.135 166.656V152.424C121.135 151.992 121.247 151.664 121.471 151.44C121.711 151.2 122.047 151.08 122.479 151.08H127.111C129.895 151.08 132.039 151.808 133.543 153.264C135.063 154.704 135.823 156.792 135.823 159.528C135.823 160.888 135.631 162.096 135.247 163.152C134.863 164.208 134.295 165.096 133.543 165.816C132.807 166.52 131.903 167.064 130.831 167.448C129.759 167.816 128.519 168 127.111 168H122.479ZM123.631 165.912H126.967C128.023 165.912 128.935 165.784 129.703 165.528C130.487 165.256 131.143 164.856 131.671 164.328C132.199 163.8 132.591 163.136 132.847 162.336C133.103 161.536 133.231 160.6 133.231 159.528C133.231 157.4 132.703 155.808 131.647 154.752C130.607 153.696 129.047 153.168 126.967 153.168H123.631V165.912ZM139.374 168.144C138.99 168.144 138.694 168.032 138.486 167.808C138.278 167.568 138.174 167.24 138.174 166.824V157.464C138.174 157.048 138.278 156.728 138.486 156.504C138.694 156.28 138.99 156.168 139.374 156.168C139.758 156.168 140.054 156.28 140.262 156.504C140.486 156.728 140.598 157.048 140.598 157.464V166.824C140.598 167.24 140.494 167.568 140.286 167.808C140.078 168.032 139.774 168.144 139.374 168.144ZM139.374 153.672C138.894 153.672 138.518 153.552 138.246 153.312C137.99 153.072 137.862 152.736 137.862 152.304C137.862 151.856 137.99 151.52 138.246 151.296C138.518 151.056 138.894 150.936 139.374 150.936C139.854 150.936 140.222 151.056 140.478 151.296C140.75 151.52 140.886 151.856 140.886 152.304C140.886 152.736 140.75 153.072 140.478 153.312C140.222 153.552 139.854 153.672 139.374 153.672ZM147.034 168.216C146.218 168.216 145.482 168.056 144.826 167.736C144.186 167.416 143.682 166.984 143.314 166.44C142.946 165.896 142.762 165.28 142.762 164.592C142.762 163.728 142.978 163.048 143.41 162.552C143.858 162.04 144.586 161.68 145.594 161.472C146.618 161.248 147.994 161.136 149.722 161.136H150.85V162.624H149.746C148.594 162.624 147.682 162.68 147.01 162.792C146.338 162.904 145.858 163.096 145.57 163.368C145.298 163.624 145.162 163.984 145.162 164.448C145.162 165.056 145.37 165.552 145.786 165.936C146.202 166.304 146.778 166.488 147.514 166.488C148.106 166.488 148.626 166.352 149.074 166.08C149.522 165.792 149.874 165.408 150.13 164.928C150.402 164.448 150.538 163.896 150.538 163.272V160.512C150.538 159.6 150.346 158.944 149.962 158.544C149.578 158.144 148.946 157.944 148.066 157.944C147.554 157.944 147.018 158.008 146.458 158.136C145.914 158.264 145.346 158.48 144.754 158.784C144.482 158.912 144.25 158.952 144.058 158.904C143.866 158.856 143.714 158.752 143.602 158.592C143.49 158.416 143.426 158.232 143.41 158.04C143.41 157.832 143.458 157.632 143.554 157.44C143.666 157.248 143.85 157.104 144.106 157.008C144.81 156.672 145.506 156.432 146.194 156.288C146.882 156.144 147.53 156.072 148.138 156.072C149.21 156.072 150.09 156.24 150.778 156.576C151.482 156.912 152.002 157.424 152.338 158.112C152.674 158.8 152.842 159.688 152.842 160.776V166.944C152.842 167.328 152.746 167.632 152.554 167.856C152.362 168.064 152.082 168.168 151.714 168.168C151.362 168.168 151.082 168.064 150.874 167.856C150.666 167.632 150.562 167.328 150.562 166.944V165.384H150.778C150.65 165.976 150.41 166.488 150.058 166.92C149.722 167.336 149.298 167.656 148.786 167.88C148.274 168.104 147.69 168.216 147.034 168.216ZM160.765 172.536C159.901 172.536 159.061 172.448 158.245 172.272C157.445 172.096 156.717 171.808 156.061 171.408C155.821 171.28 155.661 171.12 155.581 170.928C155.501 170.752 155.477 170.568 155.509 170.376C155.557 170.184 155.645 170.016 155.773 169.872C155.901 169.728 156.053 169.632 156.229 169.584C156.421 169.536 156.621 169.568 156.829 169.68C157.533 170.064 158.197 170.32 158.821 170.448C159.461 170.592 160.053 170.664 160.597 170.664C161.717 170.664 162.557 170.376 163.117 169.8C163.677 169.24 163.957 168.408 163.957 167.304V164.856H164.173C163.933 165.736 163.429 166.432 162.661 166.944C161.893 167.456 161.005 167.712 159.997 167.712C158.941 167.712 158.021 167.472 157.237 166.992C156.453 166.496 155.845 165.816 155.413 164.952C154.981 164.072 154.765 163.048 154.765 161.88C154.765 161 154.885 160.208 155.125 159.504C155.381 158.8 155.733 158.192 156.181 157.68C156.645 157.168 157.197 156.776 157.837 156.504C158.493 156.216 159.213 156.072 159.997 156.072C161.021 156.072 161.909 156.328 162.661 156.84C163.429 157.352 163.925 158.048 164.149 158.928L163.909 159.336V157.344C163.909 156.944 164.013 156.64 164.221 156.432C164.445 156.224 164.741 156.12 165.109 156.12C165.493 156.12 165.789 156.224 165.997 156.432C166.205 156.64 166.309 156.944 166.309 157.344V167.016C166.309 168.84 165.837 170.216 164.893 171.144C163.949 172.072 162.573 172.536 160.765 172.536ZM160.573 165.816C161.277 165.816 161.877 165.656 162.373 165.336C162.869 165.016 163.253 164.56 163.525 163.968C163.797 163.376 163.933 162.68 163.933 161.88C163.933 160.68 163.629 159.728 163.021 159.024C162.429 158.32 161.613 157.968 160.573 157.968C159.885 157.968 159.293 158.128 158.797 158.448C158.301 158.768 157.909 159.224 157.621 159.816C157.349 160.392 157.213 161.08 157.213 161.88C157.213 163.096 157.517 164.056 158.125 164.76C158.733 165.464 159.549 165.816 160.573 165.816ZM170.191 168.168C169.807 168.168 169.511 168.064 169.303 167.856C169.095 167.632 168.991 167.328 168.991 166.944V157.344C168.991 156.944 169.095 156.64 169.303 156.432C169.511 156.224 169.799 156.12 170.167 156.12C170.551 156.12 170.839 156.224 171.031 156.432C171.239 156.64 171.343 156.944 171.343 157.344V159.216L171.079 158.784C171.431 157.888 171.983 157.216 172.735 156.768C173.487 156.304 174.351 156.072 175.327 156.072C176.255 156.072 177.023 156.248 177.631 156.6C178.255 156.936 178.719 157.456 179.023 158.16C179.327 158.848 179.479 159.72 179.479 160.776V166.944C179.479 167.328 179.375 167.632 179.167 167.856C178.959 168.064 178.663 168.168 178.279 168.168C177.879 168.168 177.575 168.064 177.367 167.856C177.159 167.632 177.055 167.328 177.055 166.944V160.92C177.055 159.912 176.855 159.176 176.455 158.712C176.071 158.248 175.463 158.016 174.631 158.016C173.655 158.016 172.871 158.32 172.279 158.928C171.703 159.536 171.415 160.352 171.415 161.376V166.944C171.415 167.76 171.007 168.168 170.191 168.168ZM187.187 168.216C186.003 168.216 184.979 167.968 184.115 167.472C183.267 166.976 182.603 166.272 182.123 165.36C181.643 164.448 181.403 163.376 181.403 162.144C181.403 161.2 181.539 160.36 181.811 159.624C182.083 158.888 182.467 158.256 182.963 157.728C183.475 157.184 184.083 156.776 184.787 156.504C185.507 156.216 186.307 156.072 187.187 156.072C188.355 156.072 189.363 156.32 190.211 156.816C191.075 157.312 191.747 158.016 192.227 158.928C192.707 159.824 192.947 160.896 192.947 162.144C192.947 163.072 192.811 163.912 192.539 164.664C192.267 165.416 191.875 166.056 191.363 166.584C190.867 167.112 190.259 167.52 189.539 167.808C188.835 168.08 188.051 168.216 187.187 168.216ZM187.187 166.344C187.843 166.344 188.419 166.184 188.915 165.864C189.411 165.544 189.795 165.072 190.067 164.448C190.355 163.824 190.499 163.056 190.499 162.144C190.499 160.768 190.195 159.728 189.587 159.024C188.979 158.32 188.179 157.968 187.187 157.968C186.515 157.968 185.931 158.128 185.435 158.448C184.939 158.752 184.547 159.216 184.259 159.84C183.987 160.464 183.851 161.232 183.851 162.144C183.851 163.504 184.155 164.544 184.763 165.264C185.371 165.984 186.179 166.344 187.187 166.344ZM199.053 168.216C198.349 168.216 197.621 168.136 196.869 167.976C196.133 167.816 195.453 167.544 194.829 167.16C194.621 167.016 194.477 166.856 194.397 166.68C194.317 166.504 194.285 166.328 194.301 166.152C194.333 165.96 194.405 165.8 194.517 165.672C194.645 165.528 194.797 165.44 194.973 165.408C195.165 165.376 195.365 165.416 195.573 165.528C196.197 165.88 196.797 166.128 197.373 166.272C197.949 166.4 198.517 166.464 199.077 166.464C199.925 166.464 200.565 166.312 200.997 166.008C201.429 165.704 201.645 165.296 201.645 164.784C201.645 164.368 201.501 164.048 201.213 163.824C200.925 163.584 200.493 163.4 199.917 163.272L197.637 162.816C196.645 162.608 195.893 162.24 195.381 161.712C194.869 161.184 194.613 160.512 194.613 159.696C194.613 158.96 194.813 158.32 195.213 157.776C195.613 157.232 196.173 156.816 196.893 156.528C197.613 156.224 198.445 156.072 199.389 156.072C200.093 156.072 200.757 156.16 201.381 156.336C202.005 156.512 202.581 156.776 203.109 157.128C203.317 157.24 203.453 157.392 203.517 157.584C203.581 157.76 203.589 157.936 203.541 158.112C203.509 158.288 203.429 158.448 203.301 158.592C203.173 158.72 203.013 158.8 202.821 158.832C202.645 158.848 202.445 158.8 202.221 158.688C201.741 158.384 201.261 158.168 200.781 158.04C200.317 157.912 199.853 157.848 199.389 157.848C198.541 157.848 197.901 158.008 197.469 158.328C197.053 158.632 196.845 159.048 196.845 159.576C196.845 159.976 196.973 160.304 197.229 160.56C197.485 160.816 197.885 161 198.429 161.112L200.709 161.568C201.749 161.776 202.533 162.128 203.061 162.624C203.605 163.12 203.877 163.792 203.877 164.64C203.877 165.744 203.437 166.616 202.557 167.256C201.677 167.896 200.509 168.216 199.053 168.216ZM207.054 168.144C206.67 168.144 206.374 168.032 206.166 167.808C205.958 167.568 205.854 167.24 205.854 166.824V157.464C205.854 157.048 205.958 156.728 206.166 156.504C206.374 156.28 206.67 156.168 207.054 156.168C207.438 156.168 207.734 156.28 207.942 156.504C208.166 156.728 208.278 157.048 208.278 157.464V166.824C208.278 167.24 208.174 167.568 207.966 167.808C207.758 168.032 207.454 168.144 207.054 168.144ZM207.054 153.672C206.574 153.672 206.198 153.552 205.926 153.312C205.67 153.072 205.542 152.736 205.542 152.304C205.542 151.856 205.67 151.52 205.926 151.296C206.198 151.056 206.574 150.936 207.054 150.936C207.534 150.936 207.902 151.056 208.158 151.296C208.43 151.52 208.566 151.856 208.566 152.304C208.566 152.736 208.43 153.072 208.158 153.312C207.902 153.552 207.534 153.672 207.054 153.672ZM215.074 168.216C214.37 168.216 213.642 168.136 212.89 167.976C212.154 167.816 211.474 167.544 210.85 167.16C210.642 167.016 210.498 166.856 210.418 166.68C210.338 166.504 210.306 166.328 210.322 166.152C210.354 165.96 210.426 165.8 210.538 165.672C210.666 165.528 210.818 165.44 210.994 165.408C211.186 165.376 211.386 165.416 211.594 165.528C212.218 165.88 212.818 166.128 213.394 166.272C213.97 166.4 214.538 166.464 215.098 166.464C215.946 166.464 216.586 166.312 217.018 166.008C217.45 165.704 217.666 165.296 217.666 164.784C217.666 164.368 217.522 164.048 217.234 163.824C216.946 163.584 216.514 163.4 215.938 163.272L213.658 162.816C212.666 162.608 211.914 162.24 211.402 161.712C210.89 161.184 210.634 160.512 210.634 159.696C210.634 158.96 210.834 158.32 211.234 157.776C211.634 157.232 212.194 156.816 212.914 156.528C213.634 156.224 214.466 156.072 215.41 156.072C216.114 156.072 216.778 156.16 217.402 156.336C218.026 156.512 218.602 156.776 219.13 157.128C219.338 157.24 219.474 157.392 219.538 157.584C219.602 157.76 219.61 157.936 219.562 158.112C219.53 158.288 219.45 158.448 219.322 158.592C219.194 158.72 219.034 158.8 218.842 158.832C218.666 158.848 218.466 158.8 218.242 158.688C217.762 158.384 217.282 158.168 216.802 158.04C216.338 157.912 215.874 157.848 215.41 157.848C214.562 157.848 213.922 158.008 213.49 158.328C213.074 158.632 212.866 159.048 212.866 159.576C212.866 159.976 212.994 160.304 213.25 160.56C213.506 160.816 213.906 161 214.45 161.112L216.73 161.568C217.77 161.776 218.554 162.128 219.082 162.624C219.626 163.12 219.898 163.792 219.898 164.64C219.898 165.744 219.458 166.616 218.578 167.256C217.698 167.896 216.53 168.216 215.074 168.216ZM227.651 168.168C227.331 168.168 227.075 168.096 226.883 167.952C226.691 167.808 226.579 167.616 226.547 167.376C226.515 167.136 226.563 166.864 226.691 166.56L233.195 151.968C233.355 151.584 233.555 151.312 233.795 151.152C234.051 150.992 234.331 150.912 234.635 150.912C234.923 150.912 235.187 150.992 235.427 151.152C235.683 151.312 235.891 151.584 236.051 151.968L242.555 166.56C242.699 166.864 242.755 167.144 242.723 167.4C242.691 167.64 242.587 167.832 242.411 167.976C242.235 168.104 241.987 168.168 241.667 168.168C241.315 168.168 241.035 168.08 240.827 167.904C240.619 167.728 240.435 167.456 240.275 167.088L238.595 163.2L239.723 163.872H229.499L230.603 163.2L228.947 167.088C228.787 167.472 228.611 167.752 228.419 167.928C228.227 168.088 227.971 168.168 227.651 168.168ZM234.587 153.84L230.963 162.432L230.363 161.856H238.835L238.283 162.432L234.635 153.84H234.587ZM249.478 168.216C248.278 168.216 247.238 167.968 246.358 167.472C245.494 166.96 244.822 166.248 244.342 165.336C243.862 164.408 243.622 163.32 243.622 162.072C243.622 161.144 243.758 160.312 244.03 159.576C244.302 158.824 244.686 158.192 245.182 157.68C245.694 157.168 246.31 156.776 247.03 156.504C247.766 156.216 248.582 156.072 249.478 156.072C250.038 156.072 250.622 156.16 251.23 156.336C251.854 156.496 252.43 156.768 252.958 157.152C253.166 157.28 253.294 157.44 253.342 157.632C253.406 157.808 253.414 157.992 253.366 158.184C253.334 158.376 253.246 158.544 253.102 158.688C252.974 158.816 252.814 158.896 252.622 158.928C252.43 158.944 252.222 158.888 251.998 158.76C251.614 158.488 251.222 158.296 250.822 158.184C250.422 158.056 250.038 157.992 249.67 157.992C249.094 157.992 248.582 158.088 248.134 158.28C247.702 158.456 247.334 158.72 247.03 159.072C246.726 159.408 246.494 159.832 246.334 160.344C246.19 160.856 246.118 161.44 246.118 162.096C246.118 163.408 246.422 164.44 247.03 165.192C247.654 165.928 248.534 166.296 249.67 166.296C250.038 166.296 250.422 166.24 250.822 166.128C251.222 166.016 251.614 165.824 251.998 165.552C252.222 165.424 252.43 165.376 252.622 165.408C252.814 165.44 252.966 165.528 253.078 165.672C253.206 165.8 253.286 165.96 253.318 166.152C253.366 166.328 253.358 166.512 253.294 166.704C253.23 166.896 253.094 167.056 252.886 167.184C252.374 167.552 251.814 167.816 251.206 167.976C250.614 168.136 250.038 168.216 249.478 168.216ZM259.726 168.216C258.526 168.216 257.486 167.968 256.606 167.472C255.742 166.96 255.07 166.248 254.59 165.336C254.11 164.408 253.87 163.32 253.87 162.072C253.87 161.144 254.006 160.312 254.278 159.576C254.55 158.824 254.934 158.192 255.43 157.68C255.942 157.168 256.558 156.776 257.278 156.504C258.014 156.216 258.83 156.072 259.726 156.072C260.286 156.072 260.87 156.16 261.478 156.336C262.102 156.496 262.678 156.768 263.206 157.152C263.414 157.28 263.542 157.44 263.59 157.632C263.654 157.808 263.662 157.992 263.614 158.184C263.582 158.376 263.494 158.544 263.35 158.688C263.222 158.816 263.062 158.896 262.87 158.928C262.678 158.944 262.47 158.888 262.246 158.76C261.862 158.488 261.47 158.296 261.07 158.184C260.67 158.056 260.286 157.992 259.918 157.992C259.342 157.992 258.83 158.088 258.382 158.28C257.95 158.456 257.582 158.72 257.278 159.072C256.974 159.408 256.742 159.832 256.582 160.344C256.438 160.856 256.366 161.44 256.366 162.096C256.366 163.408 256.67 164.44 257.278 165.192C257.902 165.928 258.782 166.296 259.918 166.296C260.286 166.296 260.67 166.24 261.07 166.128C261.47 166.016 261.862 165.824 262.246 165.552C262.47 165.424 262.678 165.376 262.87 165.408C263.062 165.44 263.214 165.528 263.326 165.672C263.454 165.8 263.534 165.96 263.566 166.152C263.614 166.328 263.606 166.512 263.542 166.704C263.478 166.896 263.342 167.056 263.134 167.184C262.622 167.552 262.062 167.816 261.454 167.976C260.862 168.136 260.286 168.216 259.726 168.216ZM269.226 168.216C268.282 168.216 267.49 168.04 266.85 167.688C266.226 167.336 265.754 166.816 265.434 166.128C265.13 165.424 264.978 164.544 264.978 163.488V157.344C264.978 156.928 265.082 156.624 265.29 156.432C265.498 156.224 265.794 156.12 266.178 156.12C266.562 156.12 266.858 156.224 267.066 156.432C267.29 156.624 267.402 156.928 267.402 157.344V163.512C267.402 164.456 267.594 165.152 267.978 165.6C268.362 166.048 268.97 166.272 269.802 166.272C270.714 166.272 271.45 165.968 272.01 165.36C272.586 164.736 272.874 163.92 272.874 162.912V157.344C272.874 156.928 272.978 156.624 273.186 156.432C273.394 156.224 273.698 156.12 274.098 156.12C274.482 156.12 274.778 156.224 274.986 156.432C275.194 156.624 275.298 156.928 275.298 157.344V166.944C275.298 167.76 274.906 168.168 274.122 168.168C273.754 168.168 273.466 168.064 273.258 167.856C273.05 167.632 272.946 167.328 272.946 166.944V164.904L273.258 165.432C272.938 166.328 272.426 167.016 271.722 167.496C271.018 167.976 270.186 168.216 269.226 168.216ZM279.218 168.168C278.818 168.168 278.514 168.064 278.306 167.856C278.098 167.632 277.994 167.328 277.994 166.944V157.344C277.994 156.944 278.098 156.64 278.306 156.432C278.514 156.224 278.802 156.12 279.17 156.12C279.554 156.12 279.842 156.224 280.034 156.432C280.242 156.64 280.346 156.944 280.346 157.344V159.096H280.106C280.362 158.136 280.834 157.408 281.522 156.912C282.21 156.416 283.09 156.128 284.162 156.048C284.45 156.032 284.674 156.104 284.834 156.264C285.01 156.424 285.106 156.672 285.122 157.008C285.154 157.344 285.082 157.616 284.906 157.824C284.73 158.016 284.458 158.128 284.09 158.16L283.634 158.208C282.594 158.304 281.802 158.632 281.258 159.192C280.714 159.752 280.442 160.52 280.442 161.496V166.944C280.442 167.328 280.338 167.632 280.13 167.856C279.938 168.064 279.634 168.168 279.218 168.168ZM289.854 168.216C289.038 168.216 288.302 168.056 287.646 167.736C287.006 167.416 286.502 166.984 286.134 166.44C285.766 165.896 285.582 165.28 285.582 164.592C285.582 163.728 285.798 163.048 286.23 162.552C286.678 162.04 287.406 161.68 288.414 161.472C289.438 161.248 290.814 161.136 292.542 161.136H293.67V162.624H292.566C291.414 162.624 290.502 162.68 289.83 162.792C289.158 162.904 288.678 163.096 288.39 163.368C288.118 163.624 287.982 163.984 287.982 164.448C287.982 165.056 288.19 165.552 288.606 165.936C289.022 166.304 289.598 166.488 290.334 166.488C290.926 166.488 291.446 166.352 291.894 166.08C292.342 165.792 292.694 165.408 292.95 164.928C293.222 164.448 293.358 163.896 293.358 163.272V160.512C293.358 159.6 293.166 158.944 292.782 158.544C292.398 158.144 291.766 157.944 290.886 157.944C290.374 157.944 289.838 158.008 289.278 158.136C288.734 158.264 288.166 158.48 287.574 158.784C287.302 158.912 287.07 158.952 286.878 158.904C286.686 158.856 286.534 158.752 286.422 158.592C286.31 158.416 286.246 158.232 286.23 158.04C286.23 157.832 286.278 157.632 286.374 157.44C286.486 157.248 286.67 157.104 286.926 157.008C287.63 156.672 288.326 156.432 289.014 156.288C289.702 156.144 290.35 156.072 290.958 156.072C292.03 156.072 292.91 156.24 293.598 156.576C294.302 156.912 294.822 157.424 295.158 158.112C295.494 158.8 295.662 159.688 295.662 160.776V166.944C295.662 167.328 295.566 167.632 295.374 167.856C295.182 168.064 294.902 168.168 294.534 168.168C294.182 168.168 293.902 168.064 293.694 167.856C293.486 167.632 293.382 167.328 293.382 166.944V165.384H293.598C293.47 165.976 293.23 166.488 292.878 166.92C292.542 167.336 292.118 167.656 291.606 167.88C291.094 168.104 290.51 168.216 289.854 168.216ZM303.44 168.216C302.24 168.216 301.2 167.968 300.32 167.472C299.456 166.96 298.784 166.248 298.304 165.336C297.824 164.408 297.584 163.32 297.584 162.072C297.584 161.144 297.72 160.312 297.992 159.576C298.264 158.824 298.648 158.192 299.144 157.68C299.656 157.168 300.272 156.776 300.992 156.504C301.728 156.216 302.544 156.072 303.44 156.072C304 156.072 304.584 156.16 305.192 156.336C305.816 156.496 306.392 156.768 306.92 157.152C307.128 157.28 307.256 157.44 307.304 157.632C307.368 157.808 307.376 157.992 307.328 158.184C307.296 158.376 307.208 158.544 307.064 158.688C306.936 158.816 306.776 158.896 306.584 158.928C306.392 158.944 306.184 158.888 305.96 158.76C305.576 158.488 305.184 158.296 304.784 158.184C304.384 158.056 304 157.992 303.632 157.992C303.056 157.992 302.544 158.088 302.096 158.28C301.664 158.456 301.296 158.72 300.992 159.072C300.688 159.408 300.456 159.832 300.296 160.344C300.152 160.856 300.08 161.44 300.08 162.096C300.08 163.408 300.384 164.44 300.992 165.192C301.616 165.928 302.496 166.296 303.632 166.296C304 166.296 304.384 166.24 304.784 166.128C305.184 166.016 305.576 165.824 305.96 165.552C306.184 165.424 306.392 165.376 306.584 165.408C306.776 165.44 306.928 165.528 307.04 165.672C307.168 165.8 307.248 165.96 307.28 166.152C307.328 166.328 307.32 166.512 307.256 166.704C307.192 166.896 307.056 167.056 306.848 167.184C306.336 167.552 305.776 167.816 305.168 167.976C304.576 168.136 304 168.216 303.44 168.216ZM311.664 172.488C311.376 172.488 311.136 172.408 310.944 172.248C310.768 172.104 310.664 171.904 310.632 171.648C310.616 171.408 310.664 171.144 310.776 170.856L312.408 167.184V168.216L307.92 157.776C307.808 157.488 307.768 157.216 307.8 156.96C307.832 156.704 307.952 156.504 308.16 156.36C308.368 156.2 308.648 156.12 309 156.12C309.304 156.12 309.544 156.192 309.72 156.336C309.896 156.48 310.056 156.728 310.2 157.08L313.824 166.032H313.152L316.824 157.08C316.968 156.712 317.136 156.464 317.328 156.336C317.52 156.192 317.784 156.12 318.12 156.12C318.408 156.12 318.632 156.2 318.792 156.36C318.968 156.504 319.072 156.704 319.104 156.96C319.152 157.2 319.112 157.464 318.984 157.752L312.984 171.552C312.824 171.92 312.64 172.168 312.432 172.296C312.24 172.424 311.984 172.488 311.664 172.488Z" fill="#2F3C33"/>
</g>
<defs>
<filter id="filter0_d_1760_7237" x="0.5" y="0" width="406.333" height="248" filterUnits="userSpaceOnUse" color-interpolation-filters="sRGB">
<feFlood flood-opacity="0" result="BackgroundImageFix"/>
<feColorMatrix in="SourceAlpha" type="matrix" values="0 0 0 0 0 0 0 0 0 0 0 0 0 0 0 0 0 0 127 0" result="hardAlpha"/>
<feOffset dy="8"/>
<feGaussianBlur stdDeviation="8"/>
<feComposite in2="hardAlpha" operator="out"/>
<feColorMatrix type="matrix" values="0 0 0 0 0.184314 0 0 0 0 0.235294 0 0 0 0 0.2 0 0 0 0.05 0"/>
<feBlend mode="normal" in2="BackgroundImageFix" result="effect1_dropShadow_1760_7237"/>
<feBlend mode="normal" in="SourceGraphic" in2="effect1_dropShadow_1760_7237" result="shape"/>
</filter>
</defs>
</svg>
