<svg width="952" height="176" viewBox="0 0 952 176" fill="none" xmlns="http://www.w3.org/2000/svg">
<g filter="url(#filter0_d_1704_45580)">
<rect x="16" y="8" width="920" height="144" rx="64" fill="white"/>
<path d="M52.8 85.176C51.4133 85.176 50.3467 84.6693 49.6 83.656C48.864 82.632 48.496 81.1867 48.496 79.32C48.496 78.0613 48.6613 77.0053 48.992 76.152C49.3227 75.288 49.808 74.6373 50.448 74.2C51.088 73.7627 51.872 73.544 52.8 73.544C54.1973 73.544 55.264 74.0347 56 75.016C56.736 75.9973 57.104 77.4267 57.104 79.304C57.104 80.552 56.9387 81.6133 56.608 82.488C56.2773 83.3627 55.792 84.0293 55.152 84.488C54.512 84.9467 53.728 85.176 52.8 85.176ZM52.8 82.84C53.312 82.84 53.6907 82.5627 53.936 82.008C54.192 81.4427 54.32 80.5413 54.32 79.304C54.32 78.0773 54.192 77.2027 53.936 76.68C53.6907 76.1467 53.312 75.88 52.8 75.88C52.288 75.88 51.904 76.1467 51.648 76.68C51.4027 77.2027 51.28 78.0773 51.28 79.304C51.28 80.5413 51.4027 81.4427 51.648 82.008C51.904 82.5627 52.288 82.84 52.8 82.84ZM63.6578 85.176C63.1138 85.176 62.5698 85.1227 62.0258 85.016C61.4818 84.9093 61.0124 84.76 60.6178 84.568C60.2764 84.408 60.0364 84.2107 59.8978 83.976C59.7698 83.7413 59.7164 83.5013 59.7378 83.256C59.7591 83.0107 59.8444 82.792 59.9938 82.6C60.1538 82.408 60.3564 82.28 60.6018 82.216C60.8578 82.1413 61.1458 82.1733 61.4658 82.312C61.8604 82.4827 62.2231 82.6 62.5538 82.664C62.8844 82.728 63.2151 82.76 63.5458 82.76C63.9298 82.76 64.2498 82.7173 64.5058 82.632C64.7618 82.5467 64.9538 82.4187 65.0818 82.248C65.2098 82.0667 65.2738 81.8427 65.2738 81.576C65.2738 81.2027 65.1404 80.9307 64.8738 80.76C64.6178 80.5787 64.2391 80.488 63.7378 80.488H62.8738C62.4684 80.488 62.1591 80.3867 61.9458 80.184C61.7324 79.9813 61.6258 79.6933 61.6258 79.32C61.6258 78.9467 61.7324 78.6587 61.9458 78.456C62.1591 78.2533 62.4684 78.152 62.8738 78.152H63.4498C63.7591 78.152 64.0204 78.1093 64.2338 78.024C64.4578 77.9387 64.6284 77.816 64.7458 77.656C64.8631 77.4853 64.9218 77.2773 64.9218 77.032C64.9218 76.68 64.7938 76.4133 64.5378 76.232C64.2924 76.0507 63.9244 75.96 63.4338 75.96C63.1351 75.96 62.8311 75.992 62.5218 76.056C62.2124 76.12 61.8818 76.232 61.5298 76.392C61.2524 76.5093 60.9964 76.536 60.7618 76.472C60.5378 76.408 60.3511 76.2853 60.2018 76.104C60.0631 75.912 59.9778 75.704 59.9458 75.48C59.9138 75.2453 59.9511 75.016 60.0578 74.792C60.1644 74.568 60.3671 74.3813 60.6658 74.232C61.1138 74.008 61.5991 73.8373 62.1218 73.72C62.6551 73.6027 63.1884 73.544 63.7218 73.544C64.5644 73.544 65.2844 73.6667 65.8818 73.912C66.4791 74.1573 66.9324 74.5147 67.2418 74.984C67.5618 75.4427 67.7218 75.9973 67.7218 76.648C67.7218 77.0747 67.6418 77.4693 67.4818 77.832C67.3218 78.1947 67.0871 78.4987 66.7778 78.744C66.4684 78.9787 66.1058 79.1493 65.6898 79.256V79.032C66.4364 79.1493 67.0178 79.464 67.4338 79.976C67.8604 80.4773 68.0738 81.1067 68.0738 81.864C68.0738 82.5467 67.8978 83.1387 67.5458 83.64C67.1938 84.1413 66.6871 84.5253 66.0258 84.792C65.3644 85.048 64.5751 85.176 63.6578 85.176Z" fill="#2F3C33"/>
<rect x="133" y="40" width="80" height="80" rx="30" fill="#F5F5F5"/>
<path fill-rule="evenodd" clip-rule="evenodd" d="M165.117 69.3333C161.555 69.3333 158.667 72.2213 158.667 75.7839V80.857C158.666 82.302 158.666 83.4676 158.744 84.4114C158.823 85.3832 158.991 86.2368 159.393 87.0265C160.032 88.2809 161.052 89.3008 162.307 89.94C163.096 90.3423 163.95 90.5101 164.922 90.5895C165.866 90.6666 167.031 90.6666 168.476 90.6666H176.047C177.25 90.6666 178.219 90.6666 179.009 90.6127C179.82 90.5574 180.538 90.4406 181.218 90.1591C182.851 89.4825 184.149 88.1847 184.826 86.5511C185.107 85.8715 185.224 85.1538 185.279 84.3422C185.333 83.5528 185.333 82.583 185.333 81.3806V81.2859C185.333 80.0835 185.333 79.1137 185.279 78.3243C185.224 77.5127 185.107 76.795 184.826 76.1154C184.149 74.4818 182.851 73.184 181.218 72.5074C180.538 72.2259 179.82 72.1091 179.009 72.0538C178.219 71.9999 177.25 71.9999 176.047 71.9999L173.07 71.9999C172.251 71.9999 171.972 71.9968 171.709 71.9587C171.311 71.9012 170.924 71.7841 170.562 71.6114C170.322 71.4972 170.088 71.3448 169.406 70.8905L168.695 70.4166C167.636 69.7102 166.391 69.3333 165.117 69.3333ZM172 77.3333C172.736 77.3333 173.333 77.9302 173.333 78.6666V79.9999H174.667C175.403 79.9999 176 80.5969 176 81.3333C176 82.0696 175.403 82.6666 174.667 82.6666H173.333V83.9999C173.333 84.7363 172.736 85.3333 172 85.3333C171.263 85.3333 170.667 84.7363 170.667 83.9999V82.6666H169.333C168.597 82.6666 168 82.0696 168 81.3333C168 80.5969 168.597 79.9999 169.333 79.9999H170.667V78.6666C170.667 77.9302 171.263 77.3333 172 77.3333Z" fill="#849087"/>
<path d="M240.576 70.216C239.968 70.216 239.504 70.048 239.184 69.712C238.864 69.376 238.704 68.904 238.704 68.296V54.976C238.704 54.352 238.864 53.88 239.184 53.56C239.52 53.24 239.992 53.08 240.6 53.08H246.432C248.32 53.08 249.776 53.56 250.8 54.52C251.824 55.464 252.336 56.784 252.336 58.48C252.336 60.176 251.824 61.504 250.8 62.464C249.776 63.424 248.32 63.904 246.432 63.904H242.424V68.296C242.424 68.904 242.264 69.376 241.944 69.712C241.64 70.048 241.184 70.216 240.576 70.216ZM242.424 61.024H245.808C246.768 61.024 247.496 60.808 247.992 60.376C248.504 59.944 248.76 59.312 248.76 58.48C248.76 57.648 248.504 57.024 247.992 56.608C247.496 56.192 246.768 55.984 245.808 55.984H242.424V61.024ZM257.054 70.264C256.19 70.264 255.414 70.096 254.726 69.76C254.038 69.424 253.502 68.968 253.118 68.392C252.734 67.816 252.542 67.168 252.542 66.448C252.542 65.584 252.766 64.904 253.214 64.408C253.662 63.896 254.39 63.536 255.398 63.328C256.406 63.104 257.742 62.992 259.406 62.992H260.678V64.864H259.43C258.614 64.864 257.95 64.912 257.438 65.008C256.942 65.088 256.582 65.232 256.358 65.44C256.15 65.648 256.046 65.936 256.046 66.304C256.046 66.752 256.198 67.12 256.502 67.408C256.822 67.696 257.278 67.84 257.87 67.84C258.334 67.84 258.742 67.736 259.094 67.528C259.462 67.304 259.75 67.008 259.958 66.64C260.166 66.256 260.27 65.824 260.27 65.344V62.584C260.27 61.88 260.11 61.384 259.79 61.096C259.47 60.792 258.926 60.64 258.158 60.64C257.726 60.64 257.254 60.696 256.742 60.808C256.246 60.904 255.694 61.072 255.086 61.312C254.734 61.472 254.422 61.512 254.15 61.432C253.878 61.336 253.67 61.176 253.526 60.952C253.382 60.712 253.31 60.456 253.31 60.184C253.31 59.896 253.39 59.624 253.55 59.368C253.71 59.096 253.974 58.896 254.342 58.768C255.094 58.464 255.798 58.256 256.454 58.144C257.126 58.032 257.742 57.976 258.302 57.976C259.534 57.976 260.542 58.16 261.326 58.528C262.126 58.88 262.726 59.432 263.126 60.184C263.526 60.92 263.726 61.872 263.726 63.04V68.368C263.726 68.96 263.582 69.416 263.294 69.736C263.006 70.056 262.59 70.216 262.046 70.216C261.502 70.216 261.078 70.056 260.774 69.736C260.486 69.416 260.342 68.96 260.342 68.368V67.48L260.51 67.624C260.414 68.168 260.206 68.64 259.886 69.04C259.582 69.424 259.19 69.728 258.71 69.952C258.23 70.16 257.678 70.264 257.054 70.264ZM271.494 70.264C270.39 70.264 269.462 70.08 268.71 69.712C267.974 69.344 267.422 68.808 267.054 68.104C266.702 67.4 266.526 66.512 266.526 65.44V60.928H265.518C265.07 60.928 264.718 60.808 264.462 60.568C264.222 60.328 264.102 60 264.102 59.584C264.102 59.136 264.222 58.8 264.462 58.576C264.718 58.336 265.07 58.216 265.518 58.216H266.526V56.392C266.526 55.784 266.686 55.328 267.006 55.024C267.326 54.704 267.774 54.544 268.35 54.544C268.942 54.544 269.39 54.704 269.694 55.024C269.998 55.328 270.15 55.784 270.15 56.392V58.216H272.43C272.878 58.216 273.222 58.336 273.462 58.576C273.702 58.8 273.822 59.136 273.822 59.584C273.822 60 273.702 60.328 273.462 60.568C273.222 60.808 272.878 60.928 272.43 60.928H270.15V65.296C270.15 65.968 270.302 66.472 270.606 66.808C270.926 67.144 271.43 67.312 272.118 67.312C272.358 67.312 272.582 67.288 272.79 67.24C272.998 67.192 273.19 67.16 273.366 67.144C273.59 67.128 273.774 67.2 273.918 67.36C274.062 67.504 274.134 67.832 274.134 68.344C274.134 68.728 274.07 69.064 273.942 69.352C273.814 69.64 273.59 69.848 273.27 69.976C273.062 70.056 272.774 70.12 272.406 70.168C272.054 70.232 271.75 70.264 271.494 70.264ZM276.892 70.192C276.3 70.192 275.844 70.024 275.524 69.688C275.22 69.336 275.068 68.848 275.068 68.224V60.016C275.068 59.376 275.22 58.888 275.524 58.552C275.844 58.2 276.3 58.024 276.892 58.024C277.468 58.024 277.908 58.2 278.212 58.552C278.532 58.888 278.692 59.376 278.692 60.016V68.224C278.692 68.848 278.54 69.336 278.236 69.688C277.932 70.024 277.484 70.192 276.892 70.192ZM276.892 56.056C276.22 56.056 275.7 55.904 275.332 55.6C274.98 55.28 274.804 54.832 274.804 54.256C274.804 53.664 274.98 53.216 275.332 52.912C275.7 52.592 276.22 52.432 276.892 52.432C277.564 52.432 278.076 52.592 278.428 52.912C278.78 53.216 278.956 53.664 278.956 54.256C278.956 54.832 278.78 55.28 278.428 55.6C278.076 55.904 277.564 56.056 276.892 56.056ZM286.89 70.264C285.498 70.264 284.298 70.016 283.29 69.52C282.298 69.008 281.53 68.296 280.986 67.384C280.458 66.456 280.194 65.368 280.194 64.12C280.194 62.904 280.45 61.84 280.962 60.928C281.474 60 282.186 59.28 283.098 58.768C284.026 58.24 285.074 57.976 286.242 57.976C287.09 57.976 287.858 58.12 288.546 58.408C289.234 58.68 289.826 59.08 290.322 59.608C290.818 60.12 291.194 60.752 291.45 61.504C291.706 62.24 291.834 63.064 291.834 63.976C291.834 64.28 291.738 64.512 291.546 64.672C291.354 64.816 291.074 64.888 290.706 64.888H283.17V63.016H289.218L288.834 63.352C288.834 62.696 288.738 62.152 288.546 61.72C288.354 61.272 288.074 60.936 287.706 60.712C287.354 60.488 286.914 60.376 286.386 60.376C285.794 60.376 285.29 60.512 284.874 60.784C284.458 61.056 284.138 61.448 283.914 61.96C283.69 62.472 283.578 63.088 283.578 63.808V64C283.578 65.216 283.858 66.112 284.418 66.688C284.994 67.264 285.842 67.552 286.962 67.552C287.346 67.552 287.786 67.504 288.282 67.408C288.778 67.312 289.242 67.16 289.674 66.952C290.042 66.776 290.37 66.72 290.658 66.784C290.946 66.832 291.17 66.96 291.33 67.168C291.49 67.376 291.578 67.616 291.594 67.888C291.626 68.16 291.57 68.432 291.426 68.704C291.282 68.96 291.042 69.176 290.706 69.352C290.162 69.656 289.546 69.88 288.858 70.024C288.186 70.184 287.53 70.264 286.89 70.264ZM295.046 70.216C294.454 70.216 293.998 70.056 293.678 69.736C293.374 69.416 293.222 68.96 293.222 68.368V59.848C293.222 59.256 293.374 58.808 293.678 58.504C293.998 58.184 294.438 58.024 294.998 58.024C295.574 58.024 296.014 58.184 296.318 58.504C296.622 58.808 296.774 59.256 296.774 59.848V61.216L296.51 60.424C296.878 59.64 297.422 59.04 298.142 58.624C298.878 58.192 299.71 57.976 300.638 57.976C301.582 57.976 302.358 58.16 302.966 58.528C303.574 58.88 304.03 59.424 304.334 60.16C304.638 60.88 304.79 61.8 304.79 62.92V68.368C304.79 68.96 304.63 69.416 304.31 69.736C304.006 70.056 303.558 70.216 302.966 70.216C302.39 70.216 301.942 70.056 301.622 69.736C301.318 69.416 301.166 68.96 301.166 68.368V63.088C301.166 62.272 301.014 61.688 300.71 61.336C300.422 60.968 299.974 60.784 299.366 60.784C298.598 60.784 297.982 61.024 297.518 61.504C297.07 61.984 296.846 62.624 296.846 63.424V68.368C296.846 69.6 296.246 70.216 295.046 70.216ZM312.559 70.264C311.455 70.264 310.527 70.08 309.775 69.712C309.039 69.344 308.487 68.808 308.119 68.104C307.767 67.4 307.591 66.512 307.591 65.44V60.928H306.583C306.135 60.928 305.783 60.808 305.527 60.568C305.287 60.328 305.167 60 305.167 59.584C305.167 59.136 305.287 58.8 305.527 58.576C305.783 58.336 306.135 58.216 306.583 58.216H307.591V56.392C307.591 55.784 307.751 55.328 308.071 55.024C308.391 54.704 308.839 54.544 309.415 54.544C310.007 54.544 310.455 54.704 310.759 55.024C311.063 55.328 311.215 55.784 311.215 56.392V58.216H313.495C313.943 58.216 314.287 58.336 314.527 58.576C314.767 58.8 314.887 59.136 314.887 59.584C314.887 60 314.767 60.328 314.527 60.568C314.287 60.808 313.943 60.928 313.495 60.928H311.215V65.296C311.215 65.968 311.367 66.472 311.671 66.808C311.991 67.144 312.495 67.312 313.183 67.312C313.423 67.312 313.647 67.288 313.855 67.24C314.063 67.192 314.255 67.16 314.431 67.144C314.655 67.128 314.839 67.2 314.983 67.36C315.127 67.504 315.199 67.832 315.199 68.344C315.199 68.728 315.135 69.064 315.007 69.352C314.879 69.64 314.655 69.848 314.335 69.976C314.127 70.056 313.839 70.12 313.471 70.168C313.119 70.232 312.815 70.264 312.559 70.264ZM323.925 70.216C323.317 70.216 322.853 70.048 322.533 69.712C322.213 69.376 322.053 68.904 322.053 68.296V54.976C322.053 54.352 322.213 53.88 322.533 53.56C322.869 53.24 323.341 53.08 323.949 53.08H329.781C331.669 53.08 333.125 53.536 334.149 54.448C335.173 55.36 335.685 56.632 335.685 58.264C335.685 59.32 335.453 60.232 334.989 61C334.525 61.768 333.853 62.36 332.973 62.776C332.109 63.192 331.045 63.4 329.781 63.4L329.973 62.992H330.957C331.629 62.992 332.213 63.16 332.709 63.496C333.221 63.816 333.661 64.312 334.029 64.984L335.517 67.744C335.741 68.144 335.845 68.536 335.829 68.92C335.813 69.304 335.669 69.616 335.397 69.856C335.125 70.096 334.725 70.216 334.197 70.216C333.669 70.216 333.237 70.104 332.901 69.88C332.581 69.656 332.293 69.312 332.037 68.848L329.733 64.6C329.493 64.152 329.197 63.848 328.845 63.688C328.509 63.528 328.093 63.448 327.597 63.448H325.773V68.296C325.773 68.904 325.613 69.376 325.293 69.712C324.989 70.048 324.533 70.216 323.925 70.216ZM325.773 60.76H329.109C330.101 60.76 330.845 60.56 331.341 60.16C331.853 59.76 332.109 59.16 332.109 58.36C332.109 57.576 331.853 56.984 331.341 56.584C330.845 56.184 330.101 55.984 329.109 55.984H325.773V60.76ZM343.524 70.264C342.132 70.264 340.932 70.016 339.924 69.52C338.932 69.008 338.164 68.296 337.62 67.384C337.092 66.456 336.828 65.368 336.828 64.12C336.828 62.904 337.084 61.84 337.596 60.928C338.108 60 338.82 59.28 339.732 58.768C340.66 58.24 341.708 57.976 342.876 57.976C343.724 57.976 344.492 58.12 345.18 58.408C345.868 58.68 346.46 59.08 346.956 59.608C347.452 60.12 347.828 60.752 348.084 61.504C348.34 62.24 348.468 63.064 348.468 63.976C348.468 64.28 348.372 64.512 348.18 64.672C347.988 64.816 347.708 64.888 347.34 64.888H339.804V63.016H345.852L345.468 63.352C345.468 62.696 345.372 62.152 345.18 61.72C344.988 61.272 344.708 60.936 344.34 60.712C343.988 60.488 343.548 60.376 343.02 60.376C342.428 60.376 341.924 60.512 341.508 60.784C341.092 61.056 340.772 61.448 340.548 61.96C340.324 62.472 340.212 63.088 340.212 63.808V64C340.212 65.216 340.492 66.112 341.052 66.688C341.628 67.264 342.476 67.552 343.596 67.552C343.98 67.552 344.42 67.504 344.916 67.408C345.412 67.312 345.876 67.16 346.308 66.952C346.676 66.776 347.004 66.72 347.292 66.784C347.58 66.832 347.804 66.96 347.964 67.168C348.124 67.376 348.212 67.616 348.228 67.888C348.26 68.16 348.204 68.432 348.06 68.704C347.916 68.96 347.676 69.176 347.34 69.352C346.796 69.656 346.18 69.88 345.492 70.024C344.82 70.184 344.164 70.264 343.524 70.264ZM355.592 70.264C354.312 70.264 353.192 70.016 352.232 69.52C351.288 69.008 350.56 68.288 350.048 67.36C349.536 66.432 349.28 65.336 349.28 64.072C349.28 63.128 349.424 62.28 349.712 61.528C350 60.776 350.416 60.136 350.96 59.608C351.52 59.08 352.192 58.68 352.976 58.408C353.76 58.12 354.632 57.976 355.592 57.976C356.088 57.976 356.616 58.04 357.176 58.168C357.736 58.28 358.288 58.48 358.832 58.768C359.152 58.912 359.368 59.12 359.48 59.392C359.608 59.648 359.656 59.92 359.624 60.208C359.592 60.48 359.488 60.728 359.312 60.952C359.152 61.16 358.944 61.304 358.688 61.384C358.432 61.448 358.144 61.4 357.824 61.24C357.52 61.064 357.2 60.936 356.864 60.856C356.544 60.776 356.24 60.736 355.952 60.736C355.472 60.736 355.048 60.816 354.68 60.976C354.312 61.12 354 61.336 353.744 61.624C353.504 61.896 353.312 62.24 353.168 62.656C353.04 63.072 352.976 63.552 352.976 64.096C352.976 65.152 353.232 65.984 353.744 66.592C354.272 67.184 355.008 67.48 355.952 67.48C356.24 67.48 356.544 67.448 356.864 67.384C357.184 67.304 357.504 67.176 357.824 67C358.144 66.84 358.432 66.8 358.688 66.88C358.944 66.96 359.144 67.112 359.288 67.336C359.448 67.544 359.536 67.792 359.552 68.08C359.584 68.352 359.536 68.624 359.408 68.896C359.296 69.152 359.088 69.352 358.784 69.496C358.24 69.768 357.696 69.96 357.152 70.072C356.608 70.2 356.088 70.264 355.592 70.264ZM366.027 70.264C364.763 70.264 363.659 70.016 362.715 69.52C361.787 69.024 361.067 68.312 360.555 67.384C360.043 66.456 359.787 65.36 359.787 64.096C359.787 63.152 359.931 62.304 360.219 61.552C360.507 60.8 360.923 60.16 361.467 59.632C362.027 59.088 362.691 58.68 363.459 58.408C364.227 58.12 365.083 57.976 366.027 57.976C367.291 57.976 368.387 58.224 369.315 58.72C370.259 59.216 370.987 59.92 371.499 60.832C372.027 61.744 372.291 62.832 372.291 64.096C372.291 65.056 372.139 65.912 371.835 66.664C371.547 67.416 371.131 68.064 370.587 68.608C370.043 69.152 369.379 69.568 368.595 69.856C367.827 70.128 366.971 70.264 366.027 70.264ZM366.027 67.552C366.555 67.552 367.011 67.424 367.395 67.168C367.779 66.912 368.083 66.536 368.307 66.04C368.531 65.528 368.643 64.88 368.643 64.096C368.643 62.928 368.403 62.072 367.923 61.528C367.443 60.968 366.811 60.688 366.027 60.688C365.515 60.688 365.059 60.808 364.659 61.048C364.275 61.288 363.971 61.664 363.747 62.176C363.539 62.672 363.435 63.312 363.435 64.096C363.435 65.264 363.675 66.136 364.155 66.712C364.635 67.272 365.259 67.552 366.027 67.552ZM375.647 70.216C375.039 70.216 374.575 70.056 374.255 69.736C373.935 69.416 373.775 68.96 373.775 68.368V59.848C373.775 59.256 373.927 58.808 374.231 58.504C374.551 58.184 374.991 58.024 375.551 58.024C376.127 58.024 376.567 58.184 376.871 58.504C377.175 58.808 377.327 59.256 377.327 59.848V61.096H377.087C377.279 60.136 377.703 59.392 378.359 58.864C379.015 58.336 379.863 58.04 380.903 57.976C381.303 57.944 381.607 58.048 381.815 58.288C382.039 58.512 382.159 58.888 382.175 59.416C382.207 59.912 382.103 60.304 381.863 60.592C381.639 60.88 381.255 61.056 380.711 61.12L380.159 61.168C379.247 61.248 378.567 61.512 378.119 61.96C377.687 62.408 377.471 63.056 377.471 63.904V68.368C377.471 68.96 377.311 69.416 376.991 69.736C376.687 70.056 376.239 70.216 375.647 70.216ZM387.319 70.264C386.295 70.264 385.391 70.016 384.607 69.52C383.839 69.024 383.239 68.312 382.807 67.384C382.375 66.456 382.159 65.36 382.159 64.096C382.159 62.832 382.375 61.744 382.807 60.832C383.239 59.92 383.839 59.216 384.607 58.72C385.391 58.224 386.295 57.976 387.319 57.976C388.247 57.976 389.063 58.2 389.767 58.648C390.487 59.096 390.975 59.68 391.231 60.4H390.967V54.712C390.967 54.104 391.119 53.648 391.423 53.344C391.727 53.024 392.175 52.864 392.767 52.864C393.343 52.864 393.791 53.024 394.111 53.344C394.431 53.648 394.591 54.104 394.591 54.712V68.368C394.591 68.96 394.431 69.416 394.111 69.736C393.807 70.056 393.367 70.216 392.791 70.216C392.215 70.216 391.767 70.056 391.447 69.736C391.143 69.416 390.991 68.96 390.991 68.368V66.736L391.255 67.672C391.031 68.456 390.551 69.088 389.815 69.568C389.095 70.032 388.263 70.264 387.319 70.264ZM388.399 67.552C388.927 67.552 389.383 67.424 389.767 67.168C390.151 66.912 390.455 66.536 390.679 66.04C390.903 65.528 391.015 64.88 391.015 64.096C391.015 62.928 390.775 62.072 390.295 61.528C389.815 60.968 389.183 60.688 388.399 60.688C387.887 60.688 387.431 60.808 387.031 61.048C386.647 61.288 386.343 61.664 386.119 62.176C385.911 62.672 385.807 63.312 385.807 64.096C385.807 65.264 386.047 66.136 386.527 66.712C387.007 67.272 387.631 67.552 388.399 67.552ZM401.176 70.264C400.472 70.264 399.744 70.2 398.992 70.072C398.256 69.944 397.584 69.728 396.976 69.424C396.656 69.264 396.424 69.064 396.28 68.824C396.152 68.568 396.096 68.312 396.112 68.056C396.128 67.8 396.208 67.568 396.352 67.36C396.512 67.152 396.712 67.016 396.952 66.952C397.208 66.872 397.488 66.896 397.792 67.024C398.448 67.296 399.048 67.488 399.592 67.6C400.136 67.712 400.672 67.768 401.2 67.768C401.888 67.768 402.384 67.664 402.688 67.456C403.008 67.232 403.168 66.944 403.168 66.592C403.168 66.272 403.064 66.032 402.856 65.872C402.648 65.712 402.344 65.6 401.944 65.536L399.424 65.08C398.432 64.904 397.664 64.544 397.12 64C396.592 63.44 396.328 62.728 396.328 61.864C396.328 61.064 396.552 60.376 397 59.8C397.448 59.208 398.064 58.76 398.848 58.456C399.648 58.136 400.552 57.976 401.56 57.976C402.28 57.976 402.944 58.04 403.552 58.168C404.16 58.296 404.744 58.504 405.304 58.792C405.592 58.936 405.792 59.128 405.904 59.368C406.032 59.608 406.072 59.856 406.024 60.112C405.992 60.368 405.896 60.6 405.736 60.808C405.576 61.016 405.368 61.152 405.112 61.216C404.872 61.28 404.592 61.248 404.272 61.12C403.76 60.88 403.288 60.712 402.856 60.616C402.424 60.504 402.008 60.448 401.608 60.448C400.888 60.448 400.368 60.568 400.048 60.808C399.728 61.032 399.568 61.32 399.568 61.672C399.568 61.944 399.656 62.176 399.832 62.368C400.024 62.544 400.312 62.664 400.696 62.728L403.216 63.184C404.256 63.36 405.048 63.712 405.592 64.24C406.136 64.752 406.408 65.456 406.408 66.352C406.408 67.568 405.928 68.528 404.968 69.232C404.024 69.92 402.76 70.264 401.176 70.264ZM415.779 70.216C415.235 70.216 414.819 70.064 414.531 69.76C414.243 69.456 414.099 69.032 414.099 68.488V54.592C414.099 54.048 414.251 53.624 414.555 53.32C414.875 53.016 415.307 52.864 415.851 52.864C416.331 52.864 416.707 52.96 416.979 53.152C417.267 53.328 417.531 53.64 417.771 54.088L423.315 64.216H422.499L428.043 54.088C428.283 53.64 428.539 53.328 428.811 53.152C429.099 52.96 429.475 52.864 429.939 52.864C430.483 52.864 430.899 53.016 431.187 53.32C431.491 53.624 431.643 54.048 431.643 54.592V68.488C431.643 69.032 431.499 69.456 431.211 69.76C430.923 70.064 430.507 70.216 429.963 70.216C429.419 70.216 428.995 70.064 428.691 69.76C428.403 69.456 428.259 69.032 428.259 68.488V58.768H428.787L424.323 66.76C424.131 67.064 423.923 67.296 423.699 67.456C423.491 67.6 423.211 67.672 422.859 67.672C422.507 67.672 422.219 67.592 421.995 67.432C421.771 67.272 421.571 67.048 421.395 66.76L416.883 58.744H417.459V68.488C417.459 69.032 417.315 69.456 417.027 69.76C416.755 70.064 416.339 70.216 415.779 70.216ZM438.027 70.264C437.163 70.264 436.387 70.096 435.699 69.76C435.011 69.424 434.475 68.968 434.091 68.392C433.707 67.816 433.515 67.168 433.515 66.448C433.515 65.584 433.739 64.904 434.187 64.408C434.635 63.896 435.363 63.536 436.371 63.328C437.379 63.104 438.715 62.992 440.379 62.992H441.651V64.864H440.403C439.587 64.864 438.923 64.912 438.411 65.008C437.915 65.088 437.555 65.232 437.331 65.44C437.123 65.648 437.019 65.936 437.019 66.304C437.019 66.752 437.171 67.12 437.475 67.408C437.795 67.696 438.251 67.84 438.843 67.84C439.307 67.84 439.715 67.736 440.067 67.528C440.435 67.304 440.723 67.008 440.931 66.64C441.139 66.256 441.243 65.824 441.243 65.344V62.584C441.243 61.88 441.083 61.384 440.763 61.096C440.443 60.792 439.899 60.64 439.131 60.64C438.699 60.64 438.227 60.696 437.715 60.808C437.219 60.904 436.667 61.072 436.059 61.312C435.707 61.472 435.395 61.512 435.123 61.432C434.851 61.336 434.643 61.176 434.499 60.952C434.355 60.712 434.283 60.456 434.283 60.184C434.283 59.896 434.363 59.624 434.523 59.368C434.683 59.096 434.947 58.896 435.315 58.768C436.067 58.464 436.771 58.256 437.427 58.144C438.099 58.032 438.715 57.976 439.275 57.976C440.507 57.976 441.515 58.16 442.299 58.528C443.099 58.88 443.699 59.432 444.099 60.184C444.499 60.92 444.699 61.872 444.699 63.04V68.368C444.699 68.96 444.555 69.416 444.267 69.736C443.979 70.056 443.563 70.216 443.019 70.216C442.475 70.216 442.051 70.056 441.747 69.736C441.459 69.416 441.315 68.96 441.315 68.368V67.48L441.483 67.624C441.387 68.168 441.179 68.64 440.859 69.04C440.555 69.424 440.163 69.728 439.683 69.952C439.203 70.16 438.651 70.264 438.027 70.264ZM448.506 70.216C447.914 70.216 447.458 70.056 447.138 69.736C446.834 69.416 446.682 68.96 446.682 68.368V59.848C446.682 59.256 446.834 58.808 447.138 58.504C447.458 58.184 447.898 58.024 448.458 58.024C449.034 58.024 449.474 58.184 449.778 58.504C450.082 58.808 450.234 59.256 450.234 59.848V61.216L449.97 60.424C450.338 59.64 450.882 59.04 451.602 58.624C452.338 58.192 453.17 57.976 454.098 57.976C455.042 57.976 455.818 58.16 456.426 58.528C457.034 58.88 457.49 59.424 457.794 60.16C458.098 60.88 458.25 61.8 458.25 62.92V68.368C458.25 68.96 458.09 69.416 457.77 69.736C457.466 70.056 457.018 70.216 456.426 70.216C455.85 70.216 455.402 70.056 455.082 69.736C454.778 69.416 454.626 68.96 454.626 68.368V63.088C454.626 62.272 454.474 61.688 454.17 61.336C453.882 60.968 453.434 60.784 452.826 60.784C452.058 60.784 451.442 61.024 450.978 61.504C450.53 61.984 450.306 62.624 450.306 63.424V68.368C450.306 69.6 449.706 70.216 448.506 70.216ZM464.219 70.264C463.355 70.264 462.579 70.096 461.891 69.76C461.203 69.424 460.667 68.968 460.283 68.392C459.899 67.816 459.707 67.168 459.707 66.448C459.707 65.584 459.931 64.904 460.379 64.408C460.827 63.896 461.555 63.536 462.563 63.328C463.571 63.104 464.907 62.992 466.571 62.992H467.843V64.864H466.595C465.779 64.864 465.115 64.912 464.603 65.008C464.107 65.088 463.747 65.232 463.523 65.44C463.315 65.648 463.211 65.936 463.211 66.304C463.211 66.752 463.363 67.12 463.667 67.408C463.987 67.696 464.443 67.84 465.035 67.84C465.499 67.84 465.907 67.736 466.259 67.528C466.627 67.304 466.915 67.008 467.123 66.64C467.331 66.256 467.435 65.824 467.435 65.344V62.584C467.435 61.88 467.275 61.384 466.955 61.096C466.635 60.792 466.091 60.64 465.323 60.64C464.891 60.64 464.419 60.696 463.907 60.808C463.411 60.904 462.859 61.072 462.251 61.312C461.899 61.472 461.587 61.512 461.315 61.432C461.043 61.336 460.835 61.176 460.691 60.952C460.547 60.712 460.475 60.456 460.475 60.184C460.475 59.896 460.555 59.624 460.715 59.368C460.875 59.096 461.139 58.896 461.507 58.768C462.259 58.464 462.963 58.256 463.619 58.144C464.291 58.032 464.907 57.976 465.467 57.976C466.699 57.976 467.707 58.16 468.491 58.528C469.291 58.88 469.891 59.432 470.291 60.184C470.691 60.92 470.891 61.872 470.891 63.04V68.368C470.891 68.96 470.747 69.416 470.459 69.736C470.171 70.056 469.755 70.216 469.211 70.216C468.667 70.216 468.243 70.056 467.939 69.736C467.651 69.416 467.507 68.96 467.507 68.368V67.48L467.675 67.624C467.579 68.168 467.371 68.64 467.051 69.04C466.747 69.424 466.355 69.728 465.875 69.952C465.395 70.16 464.843 70.264 464.219 70.264ZM478.539 74.584C477.675 74.584 476.843 74.512 476.043 74.368C475.259 74.224 474.563 74.008 473.955 73.72C473.587 73.56 473.323 73.352 473.163 73.096C473.019 72.84 472.955 72.568 472.971 72.28C473.003 71.992 473.099 71.736 473.259 71.512C473.435 71.288 473.651 71.128 473.907 71.032C474.163 70.952 474.435 70.976 474.723 71.104C475.427 71.424 476.075 71.632 476.667 71.728C477.275 71.824 477.795 71.872 478.227 71.872C479.251 71.872 480.019 71.64 480.531 71.176C481.043 70.712 481.299 70 481.299 69.04V67.216H481.515C481.275 67.952 480.779 68.552 480.027 69.016C479.275 69.48 478.443 69.712 477.531 69.712C476.475 69.712 475.555 69.472 474.771 68.992C473.987 68.496 473.379 67.808 472.947 66.928C472.515 66.032 472.299 65 472.299 63.832C472.299 62.952 472.419 62.152 472.659 61.432C472.915 60.712 473.267 60.096 473.715 59.584C474.179 59.072 474.731 58.68 475.371 58.408C476.027 58.12 476.747 57.976 477.531 57.976C478.475 57.976 479.307 58.208 480.027 58.672C480.763 59.12 481.251 59.712 481.491 60.448L481.251 61.216V59.848C481.251 59.256 481.403 58.808 481.707 58.504C482.027 58.184 482.475 58.024 483.051 58.024C483.627 58.024 484.067 58.184 484.371 58.504C484.675 58.808 484.827 59.256 484.827 59.848V68.632C484.827 70.6 484.283 72.08 483.195 73.072C482.123 74.08 480.571 74.584 478.539 74.584ZM478.611 67C479.155 67 479.619 66.872 480.003 66.616C480.403 66.36 480.715 66 480.939 65.536C481.163 65.056 481.275 64.488 481.275 63.832C481.275 62.84 481.027 62.072 480.531 61.528C480.051 60.968 479.411 60.688 478.611 60.688C478.067 60.688 477.595 60.816 477.195 61.072C476.795 61.312 476.483 61.672 476.259 62.152C476.051 62.616 475.947 63.176 475.947 63.832C475.947 64.824 476.187 65.6 476.667 66.16C477.147 66.72 477.795 67 478.611 67ZM493.04 70.264C491.648 70.264 490.448 70.016 489.44 69.52C488.448 69.008 487.68 68.296 487.136 67.384C486.608 66.456 486.344 65.368 486.344 64.12C486.344 62.904 486.6 61.84 487.112 60.928C487.624 60 488.336 59.28 489.248 58.768C490.176 58.24 491.224 57.976 492.392 57.976C493.24 57.976 494.008 58.12 494.696 58.408C495.384 58.68 495.976 59.08 496.472 59.608C496.968 60.12 497.344 60.752 497.6 61.504C497.856 62.24 497.984 63.064 497.984 63.976C497.984 64.28 497.888 64.512 497.696 64.672C497.504 64.816 497.224 64.888 496.856 64.888H489.32V63.016H495.368L494.984 63.352C494.984 62.696 494.888 62.152 494.696 61.72C494.504 61.272 494.224 60.936 493.856 60.712C493.504 60.488 493.064 60.376 492.536 60.376C491.944 60.376 491.44 60.512 491.024 60.784C490.608 61.056 490.288 61.448 490.064 61.96C489.84 62.472 489.728 63.088 489.728 63.808V64C489.728 65.216 490.008 66.112 490.568 66.688C491.144 67.264 491.992 67.552 493.112 67.552C493.496 67.552 493.936 67.504 494.432 67.408C494.928 67.312 495.392 67.16 495.824 66.952C496.192 66.776 496.52 66.72 496.808 66.784C497.096 66.832 497.32 66.96 497.48 67.168C497.64 67.376 497.728 67.616 497.744 67.888C497.776 68.16 497.72 68.432 497.576 68.704C497.432 68.96 497.192 69.176 496.856 69.352C496.312 69.656 495.696 69.88 495.008 70.024C494.336 70.184 493.68 70.264 493.04 70.264ZM501.244 70.216C500.652 70.216 500.196 70.056 499.876 69.736C499.572 69.416 499.42 68.96 499.42 68.368V59.848C499.42 59.256 499.572 58.808 499.876 58.504C500.196 58.184 500.636 58.024 501.196 58.024C501.772 58.024 502.212 58.184 502.516 58.504C502.82 58.808 502.972 59.256 502.972 59.848V61.384L502.708 60.424C503.028 59.688 503.524 59.096 504.196 58.648C504.868 58.2 505.66 57.976 506.572 57.976C507.484 57.976 508.244 58.192 508.852 58.624C509.46 59.056 509.892 59.72 510.148 60.616H509.812C510.164 59.8 510.7 59.16 511.42 58.696C512.156 58.216 512.996 57.976 513.94 57.976C514.852 57.976 515.596 58.16 516.172 58.528C516.764 58.88 517.204 59.424 517.492 60.16C517.78 60.88 517.924 61.8 517.924 62.92V68.368C517.924 68.96 517.764 69.416 517.444 69.736C517.14 70.056 516.7 70.216 516.124 70.216C515.532 70.216 515.076 70.056 514.756 69.736C514.452 69.416 514.3 68.96 514.3 68.368V63.04C514.3 62.256 514.172 61.688 513.916 61.336C513.676 60.968 513.26 60.784 512.668 60.784C511.98 60.784 511.444 61.024 511.06 61.504C510.676 61.984 510.484 62.664 510.484 63.544V68.368C510.484 68.96 510.324 69.416 510.004 69.736C509.7 70.056 509.26 70.216 508.684 70.216C508.108 70.216 507.66 70.056 507.34 69.736C507.02 69.416 506.86 68.96 506.86 68.368V63.04C506.86 62.256 506.732 61.688 506.476 61.336C506.236 60.968 505.82 60.784 505.228 60.784C504.54 60.784 504.004 61.024 503.62 61.504C503.236 61.984 503.044 62.664 503.044 63.544V68.368C503.044 69.6 502.444 70.216 501.244 70.216ZM526.1 70.264C524.708 70.264 523.508 70.016 522.5 69.52C521.508 69.008 520.74 68.296 520.196 67.384C519.668 66.456 519.404 65.368 519.404 64.12C519.404 62.904 519.66 61.84 520.172 60.928C520.684 60 521.396 59.28 522.308 58.768C523.236 58.24 524.284 57.976 525.452 57.976C526.3 57.976 527.068 58.12 527.756 58.408C528.444 58.68 529.036 59.08 529.532 59.608C530.028 60.12 530.404 60.752 530.66 61.504C530.916 62.24 531.044 63.064 531.044 63.976C531.044 64.28 530.948 64.512 530.756 64.672C530.564 64.816 530.284 64.888 529.916 64.888H522.38V63.016H528.428L528.044 63.352C528.044 62.696 527.948 62.152 527.756 61.72C527.564 61.272 527.284 60.936 526.916 60.712C526.564 60.488 526.124 60.376 525.596 60.376C525.004 60.376 524.5 60.512 524.084 60.784C523.668 61.056 523.348 61.448 523.124 61.96C522.9 62.472 522.788 63.088 522.788 63.808V64C522.788 65.216 523.068 66.112 523.628 66.688C524.204 67.264 525.052 67.552 526.172 67.552C526.556 67.552 526.996 67.504 527.492 67.408C527.988 67.312 528.452 67.16 528.884 66.952C529.252 66.776 529.58 66.72 529.868 66.784C530.156 66.832 530.38 66.96 530.54 67.168C530.7 67.376 530.788 67.616 530.804 67.888C530.836 68.16 530.78 68.432 530.636 68.704C530.492 68.96 530.252 69.176 529.916 69.352C529.372 69.656 528.756 69.88 528.068 70.024C527.396 70.184 526.74 70.264 526.1 70.264ZM534.256 70.216C533.664 70.216 533.208 70.056 532.888 69.736C532.584 69.416 532.432 68.96 532.432 68.368V59.848C532.432 59.256 532.584 58.808 532.888 58.504C533.208 58.184 533.648 58.024 534.208 58.024C534.784 58.024 535.224 58.184 535.528 58.504C535.832 58.808 535.984 59.256 535.984 59.848V61.216L535.72 60.424C536.088 59.64 536.632 59.04 537.352 58.624C538.088 58.192 538.92 57.976 539.848 57.976C540.792 57.976 541.568 58.16 542.176 58.528C542.784 58.88 543.24 59.424 543.544 60.16C543.848 60.88 544 61.8 544 62.92V68.368C544 68.96 543.84 69.416 543.52 69.736C543.216 70.056 542.768 70.216 542.176 70.216C541.6 70.216 541.152 70.056 540.832 69.736C540.528 69.416 540.376 68.96 540.376 68.368V63.088C540.376 62.272 540.224 61.688 539.92 61.336C539.632 60.968 539.184 60.784 538.576 60.784C537.808 60.784 537.192 61.024 536.728 61.504C536.28 61.984 536.056 62.624 536.056 63.424V68.368C536.056 69.6 535.456 70.216 534.256 70.216ZM551.77 70.264C550.666 70.264 549.738 70.08 548.986 69.712C548.25 69.344 547.698 68.808 547.33 68.104C546.978 67.4 546.802 66.512 546.802 65.44V60.928H545.794C545.346 60.928 544.994 60.808 544.738 60.568C544.498 60.328 544.378 60 544.378 59.584C544.378 59.136 544.498 58.8 544.738 58.576C544.994 58.336 545.346 58.216 545.794 58.216H546.802V56.392C546.802 55.784 546.962 55.328 547.282 55.024C547.602 54.704 548.05 54.544 548.626 54.544C549.218 54.544 549.666 54.704 549.97 55.024C550.274 55.328 550.426 55.784 550.426 56.392V58.216H552.706C553.154 58.216 553.498 58.336 553.738 58.576C553.978 58.8 554.098 59.136 554.098 59.584C554.098 60 553.978 60.328 553.738 60.568C553.498 60.808 553.154 60.928 552.706 60.928H550.426V65.296C550.426 65.968 550.578 66.472 550.882 66.808C551.202 67.144 551.706 67.312 552.394 67.312C552.634 67.312 552.858 67.288 553.066 67.24C553.274 67.192 553.466 67.16 553.642 67.144C553.866 67.128 554.05 67.2 554.194 67.36C554.338 67.504 554.41 67.832 554.41 68.344C554.41 68.728 554.346 69.064 554.218 69.352C554.09 69.64 553.866 69.848 553.546 69.976C553.338 70.056 553.05 70.12 552.682 70.168C552.33 70.232 552.026 70.264 551.77 70.264Z" fill="#2F3C33"/>
<path d="M244.66 105.18C243.353 105.18 242.213 104.887 241.24 104.3C240.28 103.7 239.533 102.86 239 101.78C238.48 100.7 238.22 99.42 238.22 97.94C238.22 96.82 238.367 95.82 238.66 94.94C238.967 94.0467 239.4 93.2933 239.96 92.68C240.52 92.0533 241.193 91.5733 241.98 91.24C242.78 90.8933 243.673 90.72 244.66 90.72C245.993 90.72 247.14 91.0133 248.1 91.6C249.073 92.1867 249.82 93.02 250.34 94.1C250.873 95.1667 251.14 96.44 251.14 97.92C251.14 99.04 250.987 100.047 250.68 100.94C250.373 101.833 249.94 102.593 249.38 103.22C248.82 103.847 248.14 104.333 247.34 104.68C246.553 105.013 245.66 105.18 244.66 105.18ZM244.66 103.72C245.673 103.72 246.527 103.493 247.22 103.04C247.927 102.587 248.467 101.927 248.84 101.06C249.213 100.193 249.4 99.1533 249.4 97.94C249.4 96.1133 248.987 94.7 248.16 93.7C247.347 92.6867 246.18 92.18 244.66 92.18C243.673 92.18 242.827 92.4067 242.12 92.86C241.427 93.3133 240.893 93.9733 240.52 94.84C240.147 95.6933 239.96 96.7267 239.96 97.94C239.96 99.7533 240.373 101.173 241.2 102.2C242.027 103.213 243.18 103.72 244.66 103.72ZM257.092 105.18C256.305 105.18 255.652 105.04 255.132 104.76C254.625 104.467 254.239 104.033 253.972 103.46C253.719 102.887 253.592 102.173 253.592 101.32V95.96C253.592 95.68 253.659 95.4733 253.792 95.34C253.939 95.2067 254.139 95.14 254.392 95.14C254.659 95.14 254.859 95.2067 254.992 95.34C255.139 95.4733 255.212 95.68 255.212 95.96V101.3C255.212 102.153 255.385 102.793 255.732 103.22C256.092 103.633 256.652 103.84 257.412 103.84C258.239 103.84 258.912 103.56 259.432 103C259.952 102.44 260.212 101.707 260.212 100.8V95.96C260.212 95.68 260.279 95.4733 260.412 95.34C260.559 95.2067 260.765 95.14 261.032 95.14C261.285 95.14 261.479 95.2067 261.612 95.34C261.759 95.4733 261.832 95.68 261.832 95.96V104.3C261.832 104.86 261.572 105.14 261.052 105.14C260.799 105.14 260.599 105.067 260.452 104.92C260.319 104.773 260.252 104.567 260.252 104.3V102.48L260.512 102.76C260.245 103.547 259.805 104.147 259.192 104.56C258.592 104.973 257.892 105.18 257.092 105.18ZM265.483 105.14C265.216 105.14 265.01 105.067 264.863 104.92C264.73 104.773 264.663 104.567 264.663 104.3V95.96C264.663 95.6933 264.73 95.4933 264.863 95.36C264.996 95.2133 265.19 95.14 265.443 95.14C265.696 95.14 265.89 95.2133 266.023 95.36C266.17 95.4933 266.243 95.6933 266.243 95.96V97.58H266.043C266.256 96.7933 266.663 96.1867 267.263 95.76C267.863 95.3333 268.603 95.1067 269.483 95.08C269.683 95.0667 269.843 95.1133 269.963 95.22C270.083 95.3133 270.15 95.48 270.163 95.72C270.176 95.9467 270.123 96.1267 270.003 96.26C269.883 96.3933 269.696 96.4733 269.443 96.5L269.123 96.54C268.216 96.62 267.516 96.9133 267.023 97.42C266.543 97.9133 266.303 98.5933 266.303 99.46V104.3C266.303 104.567 266.23 104.773 266.083 104.92C265.95 105.067 265.75 105.14 265.483 105.14ZM277.387 105.14C277.121 105.14 276.921 105.067 276.787 104.92C276.654 104.773 276.587 104.567 276.587 104.3V91.58C276.587 91.3133 276.654 91.1133 276.787 90.98C276.921 90.8333 277.121 90.76 277.387 90.76C277.641 90.76 277.841 90.8333 277.987 90.98C278.134 91.1133 278.207 91.3133 278.207 91.58V97.44H277.947C278.227 96.6667 278.681 96.0867 279.307 95.7C279.947 95.3 280.681 95.1 281.507 95.1C282.281 95.1 282.921 95.24 283.427 95.52C283.947 95.8 284.334 96.2267 284.587 96.8C284.841 97.36 284.967 98.0733 284.967 98.94V104.3C284.967 104.567 284.894 104.773 284.747 104.92C284.614 105.067 284.421 105.14 284.167 105.14C283.901 105.14 283.694 105.067 283.547 104.92C283.414 104.773 283.347 104.567 283.347 104.3V99.04C283.347 98.1333 283.167 97.4733 282.807 97.06C282.461 96.6333 281.901 96.42 281.127 96.42C280.234 96.42 279.521 96.7 278.987 97.26C278.467 97.8067 278.207 98.54 278.207 99.46V104.3C278.207 104.86 277.934 105.14 277.387 105.14ZM292.134 105.18C291.108 105.18 290.221 104.98 289.474 104.58C288.741 104.167 288.168 103.587 287.754 102.84C287.354 102.093 287.154 101.2 287.154 100.16C287.154 99.1467 287.354 98.2667 287.754 97.52C288.154 96.76 288.701 96.1667 289.394 95.74C290.101 95.3133 290.914 95.1 291.834 95.1C292.488 95.1 293.074 95.2133 293.594 95.44C294.114 95.6533 294.554 95.9667 294.914 96.38C295.288 96.7933 295.568 97.2933 295.754 97.88C295.954 98.4667 296.054 99.1267 296.054 99.86C296.054 100.073 295.994 100.233 295.874 100.34C295.754 100.433 295.581 100.48 295.354 100.48H288.394V99.42H294.974L294.654 99.68C294.654 98.96 294.548 98.3533 294.334 97.86C294.121 97.3533 293.808 96.9667 293.394 96.7C292.994 96.4333 292.488 96.3 291.874 96.3C291.194 96.3 290.614 96.46 290.134 96.78C289.668 97.0867 289.314 97.52 289.074 98.08C288.834 98.6267 288.714 99.2667 288.714 100V100.12C288.714 101.347 289.008 102.28 289.594 102.92C290.194 103.56 291.041 103.88 292.134 103.88C292.588 103.88 293.034 103.82 293.474 103.7C293.928 103.58 294.368 103.38 294.794 103.1C294.981 102.98 295.148 102.927 295.294 102.94C295.454 102.94 295.581 102.987 295.674 103.08C295.768 103.16 295.828 103.267 295.854 103.4C295.894 103.52 295.881 103.653 295.814 103.8C295.761 103.947 295.648 104.073 295.474 104.18C295.034 104.5 294.514 104.747 293.914 104.92C293.314 105.093 292.721 105.18 292.134 105.18ZM301.259 105.18C300.592 105.18 299.992 105.053 299.459 104.8C298.939 104.533 298.526 104.173 298.219 103.72C297.912 103.267 297.759 102.76 297.759 102.2C297.759 101.48 297.939 100.913 298.299 100.5C298.672 100.087 299.279 99.7933 300.119 99.62C300.972 99.4467 302.132 99.36 303.599 99.36H304.499V100.42H303.619C302.539 100.42 301.686 100.473 301.059 100.58C300.446 100.673 300.012 100.84 299.759 101.08C299.519 101.32 299.399 101.66 299.399 102.1C299.399 102.647 299.586 103.093 299.959 103.44C300.346 103.787 300.866 103.96 301.519 103.96C302.052 103.96 302.519 103.833 302.919 103.58C303.332 103.327 303.652 102.98 303.879 102.54C304.119 102.1 304.239 101.593 304.239 101.02V98.74C304.239 97.9133 304.072 97.32 303.739 96.96C303.406 96.5867 302.859 96.4 302.099 96.4C301.632 96.4 301.166 96.46 300.699 96.58C300.232 96.7 299.739 96.8933 299.219 97.16C299.032 97.2533 298.872 97.2867 298.739 97.26C298.606 97.22 298.499 97.1467 298.419 97.04C298.339 96.9333 298.292 96.8133 298.279 96.68C298.266 96.5333 298.292 96.3933 298.359 96.26C298.439 96.1267 298.559 96.02 298.719 95.94C299.306 95.6467 299.886 95.4333 300.459 95.3C301.032 95.1667 301.579 95.1 302.099 95.1C302.939 95.1 303.632 95.24 304.179 95.52C304.726 95.7867 305.132 96.2 305.399 96.76C305.666 97.3067 305.799 98.0133 305.799 98.88V104.3C305.799 104.567 305.732 104.773 305.599 104.92C305.479 105.067 305.299 105.14 305.059 105.14C304.806 105.14 304.612 105.067 304.479 104.92C304.346 104.773 304.279 104.567 304.279 104.3V102.74H304.459C304.352 103.247 304.146 103.68 303.839 104.04C303.546 104.4 303.179 104.68 302.739 104.88C302.299 105.08 301.806 105.18 301.259 105.18ZM311.564 105.18C310.604 105.18 309.871 104.887 309.364 104.3C308.858 103.713 308.604 102.873 308.604 101.78V91.58C308.604 91.3133 308.671 91.1133 308.804 90.98C308.938 90.8333 309.138 90.76 309.404 90.76C309.658 90.76 309.858 90.8333 310.004 90.98C310.151 91.1133 310.224 91.3133 310.224 91.58V101.66C310.224 102.38 310.364 102.92 310.644 103.28C310.938 103.627 311.364 103.8 311.924 103.8C312.044 103.8 312.151 103.793 312.244 103.78C312.338 103.767 312.431 103.76 312.524 103.76C312.671 103.747 312.771 103.78 312.824 103.86C312.891 103.94 312.924 104.1 312.924 104.34C312.924 104.58 312.871 104.76 312.764 104.88C312.658 105 312.484 105.08 312.244 105.12C312.138 105.133 312.024 105.147 311.904 105.16C311.784 105.173 311.671 105.18 311.564 105.18ZM318.047 105.18C317.287 105.18 316.647 105.047 316.127 104.78C315.62 104.5 315.24 104.1 314.987 103.58C314.733 103.047 314.607 102.4 314.607 101.64V96.54H313.267C313.04 96.54 312.867 96.4867 312.747 96.38C312.627 96.26 312.567 96.1 312.567 95.9C312.567 95.7 312.627 95.5467 312.747 95.44C312.867 95.3333 313.04 95.28 313.267 95.28H314.607V92.98C314.607 92.7133 314.68 92.5133 314.827 92.38C314.973 92.2333 315.173 92.16 315.427 92.16C315.68 92.16 315.873 92.2333 316.007 92.38C316.153 92.5133 316.227 92.7133 316.227 92.98V95.28H318.747C318.973 95.28 319.147 95.3333 319.267 95.44C319.387 95.5467 319.447 95.7 319.447 95.9C319.447 96.1 319.387 96.26 319.267 96.38C319.147 96.4867 318.973 96.54 318.747 96.54H316.227V101.48C316.227 102.24 316.387 102.82 316.707 103.22C317.027 103.607 317.547 103.8 318.267 103.8C318.52 103.8 318.733 103.773 318.907 103.72C319.093 103.667 319.247 103.64 319.367 103.64C319.487 103.627 319.587 103.667 319.667 103.76C319.747 103.853 319.787 104.013 319.787 104.24C319.787 104.4 319.753 104.547 319.687 104.68C319.633 104.813 319.533 104.907 319.387 104.96C319.227 105.013 319.013 105.06 318.747 105.1C318.493 105.153 318.26 105.18 318.047 105.18ZM321.856 105.14C321.589 105.14 321.389 105.067 321.256 104.92C321.123 104.773 321.056 104.567 321.056 104.3V91.58C321.056 91.3133 321.123 91.1133 321.256 90.98C321.389 90.8333 321.589 90.76 321.856 90.76C322.109 90.76 322.309 90.8333 322.456 90.98C322.603 91.1133 322.676 91.3133 322.676 91.58V97.44H322.416C322.696 96.6667 323.149 96.0867 323.776 95.7C324.416 95.3 325.149 95.1 325.976 95.1C326.749 95.1 327.389 95.24 327.896 95.52C328.416 95.8 328.803 96.2267 329.056 96.8C329.309 97.36 329.436 98.0733 329.436 98.94V104.3C329.436 104.567 329.363 104.773 329.216 104.92C329.083 105.067 328.889 105.14 328.636 105.14C328.369 105.14 328.163 105.067 328.016 104.92C327.883 104.773 327.816 104.567 327.816 104.3V99.04C327.816 98.1333 327.636 97.4733 327.276 97.06C326.929 96.6333 326.369 96.42 325.596 96.42C324.703 96.42 323.989 96.7 323.456 97.26C322.936 97.8067 322.676 98.54 322.676 99.46V104.3C322.676 104.86 322.403 105.14 321.856 105.14ZM337.999 105.14C337.733 105.14 337.526 105.067 337.379 104.92C337.246 104.773 337.179 104.567 337.179 104.3V95.96C337.179 95.6933 337.246 95.4933 337.379 95.36C337.513 95.2133 337.706 95.14 337.959 95.14C338.213 95.14 338.406 95.2133 338.539 95.36C338.686 95.4933 338.759 95.6933 338.759 95.96V97.58H338.559C338.773 96.7933 339.179 96.1867 339.779 95.76C340.379 95.3333 341.119 95.1067 341.999 95.08C342.199 95.0667 342.359 95.1133 342.479 95.22C342.599 95.3133 342.666 95.48 342.679 95.72C342.693 95.9467 342.639 96.1267 342.519 96.26C342.399 96.3933 342.213 96.4733 341.959 96.5L341.639 96.54C340.733 96.62 340.033 96.9133 339.539 97.42C339.059 97.9133 338.819 98.5933 338.819 99.46V104.3C338.819 104.567 338.746 104.773 338.599 104.92C338.466 105.067 338.266 105.14 337.999 105.14ZM348.41 105.18C347.383 105.18 346.497 104.98 345.75 104.58C345.017 104.167 344.443 103.587 344.03 102.84C343.63 102.093 343.43 101.2 343.43 100.16C343.43 99.1467 343.63 98.2667 344.03 97.52C344.43 96.76 344.977 96.1667 345.67 95.74C346.377 95.3133 347.19 95.1 348.11 95.1C348.763 95.1 349.35 95.2133 349.87 95.44C350.39 95.6533 350.83 95.9667 351.19 96.38C351.563 96.7933 351.843 97.2933 352.03 97.88C352.23 98.4667 352.33 99.1267 352.33 99.86C352.33 100.073 352.27 100.233 352.15 100.34C352.03 100.433 351.857 100.48 351.63 100.48H344.67V99.42H351.25L350.93 99.68C350.93 98.96 350.823 98.3533 350.61 97.86C350.397 97.3533 350.083 96.9667 349.67 96.7C349.27 96.4333 348.763 96.3 348.15 96.3C347.47 96.3 346.89 96.46 346.41 96.78C345.943 97.0867 345.59 97.52 345.35 98.08C345.11 98.6267 344.99 99.2667 344.99 100V100.12C344.99 101.347 345.283 102.28 345.87 102.92C346.47 103.56 347.317 103.88 348.41 103.88C348.863 103.88 349.31 103.82 349.75 103.7C350.203 103.58 350.643 103.38 351.07 103.1C351.257 102.98 351.423 102.927 351.57 102.94C351.73 102.94 351.857 102.987 351.95 103.08C352.043 103.16 352.103 103.267 352.13 103.4C352.17 103.52 352.157 103.653 352.09 103.8C352.037 103.947 351.923 104.073 351.75 104.18C351.31 104.5 350.79 104.747 350.19 104.92C349.59 105.093 348.997 105.18 348.41 105.18ZM358.595 105.18C357.621 105.18 356.781 104.967 356.075 104.54C355.368 104.113 354.821 103.52 354.435 102.76C354.061 101.987 353.875 101.093 353.875 100.08C353.875 99.3067 353.981 98.6133 354.195 98C354.408 97.3867 354.721 96.8667 355.135 96.44C355.548 96 356.041 95.6667 356.615 95.44C357.201 95.2133 357.861 95.1 358.595 95.1C359.075 95.1 359.575 95.1733 360.095 95.32C360.615 95.4667 361.088 95.72 361.515 96.08C361.648 96.1733 361.735 96.2867 361.775 96.42C361.815 96.5533 361.815 96.6867 361.775 96.82C361.735 96.94 361.668 97.0467 361.575 97.14C361.481 97.22 361.361 97.2667 361.215 97.28C361.081 97.2933 360.941 97.2467 360.795 97.14C360.448 96.8733 360.095 96.6867 359.735 96.58C359.375 96.4733 359.028 96.42 358.695 96.42C358.175 96.42 357.721 96.5067 357.335 96.68C356.948 96.84 356.621 97.0733 356.355 97.38C356.088 97.6867 355.881 98.0667 355.735 98.52C355.601 98.9733 355.535 99.5 355.535 100.1C355.535 101.26 355.808 102.18 356.355 102.86C356.901 103.527 357.681 103.86 358.695 103.86C359.028 103.86 359.368 103.807 359.715 103.7C360.075 103.593 360.435 103.407 360.795 103.14C360.941 103.033 361.081 102.987 361.215 103C361.348 103.013 361.461 103.067 361.555 103.16C361.648 103.24 361.708 103.347 361.735 103.48C361.775 103.613 361.775 103.747 361.735 103.88C361.695 104 361.608 104.107 361.475 104.2C361.048 104.547 360.581 104.8 360.075 104.96C359.568 105.107 359.075 105.18 358.595 105.18ZM367.377 105.18C366.431 105.18 365.611 104.973 364.917 104.56C364.224 104.147 363.684 103.567 363.297 102.82C362.924 102.06 362.737 101.167 362.737 100.14C362.737 99.3667 362.844 98.6733 363.057 98.06C363.271 97.4333 363.584 96.9 363.997 96.46C364.411 96.02 364.897 95.6867 365.457 95.46C366.031 95.22 366.671 95.1 367.377 95.1C368.324 95.1 369.144 95.3067 369.837 95.72C370.531 96.1333 371.064 96.72 371.437 97.48C371.824 98.2267 372.017 99.1133 372.017 100.14C372.017 100.913 371.911 101.607 371.697 102.22C371.484 102.833 371.171 103.367 370.757 103.82C370.344 104.26 369.851 104.6 369.277 104.84C368.717 105.067 368.084 105.18 367.377 105.18ZM367.377 103.88C367.977 103.88 368.504 103.733 368.957 103.44C369.411 103.147 369.757 102.72 369.997 102.16C370.251 101.6 370.377 100.927 370.377 100.14C370.377 98.9267 370.104 98 369.557 97.36C369.024 96.72 368.297 96.4 367.377 96.4C366.764 96.4 366.231 96.5467 365.777 96.84C365.337 97.12 364.991 97.54 364.737 98.1C364.497 98.6467 364.377 99.3267 364.377 100.14C364.377 101.34 364.651 102.267 365.197 102.92C365.744 103.56 366.471 103.88 367.377 103.88ZM375.07 105.14C374.804 105.14 374.597 105.067 374.45 104.92C374.317 104.773 374.25 104.567 374.25 104.3V95.96C374.25 95.6933 374.317 95.4933 374.45 95.36C374.584 95.2133 374.777 95.14 375.03 95.14C375.284 95.14 375.477 95.2133 375.61 95.36C375.757 95.4933 375.83 95.6933 375.83 95.96V97.58H375.63C375.844 96.7933 376.25 96.1867 376.85 95.76C377.45 95.3333 378.19 95.1067 379.07 95.08C379.27 95.0667 379.43 95.1133 379.55 95.22C379.67 95.3133 379.737 95.48 379.75 95.72C379.764 95.9467 379.71 96.1267 379.59 96.26C379.47 96.3933 379.284 96.4733 379.03 96.5L378.71 96.54C377.804 96.62 377.104 96.9133 376.61 97.42C376.13 97.9133 375.89 98.5933 375.89 99.46V104.3C375.89 104.567 375.817 104.773 375.67 104.92C375.537 105.067 375.337 105.14 375.07 105.14ZM384.801 105.18C383.935 105.18 383.175 104.973 382.521 104.56C381.881 104.147 381.381 103.567 381.021 102.82C380.675 102.06 380.501 101.167 380.501 100.14C380.501 99.1 380.675 98.2067 381.021 97.46C381.381 96.7 381.881 96.12 382.521 95.72C383.175 95.3067 383.935 95.1 384.801 95.1C385.681 95.1 386.435 95.32 387.061 95.76C387.688 96.2 388.108 96.7933 388.321 97.54H388.101V91.58C388.101 91.3133 388.168 91.1133 388.301 90.98C388.448 90.8333 388.655 90.76 388.921 90.76C389.175 90.76 389.368 90.8333 389.501 90.98C389.648 91.1133 389.721 91.3133 389.721 91.58V104.3C389.721 104.567 389.655 104.773 389.521 104.92C389.388 105.067 389.188 105.14 388.921 105.14C388.668 105.14 388.468 105.067 388.321 104.92C388.188 104.773 388.121 104.567 388.121 104.3V102.4L388.341 102.68C388.128 103.44 387.701 104.047 387.061 104.5C386.435 104.953 385.681 105.18 384.801 105.18ZM385.141 103.88C385.741 103.88 386.268 103.733 386.721 103.44C387.175 103.147 387.521 102.72 387.761 102.16C388.015 101.6 388.141 100.927 388.141 100.14C388.141 98.9267 387.868 98 387.321 97.36C386.788 96.72 386.061 96.4 385.141 96.4C384.528 96.4 383.995 96.5467 383.541 96.84C383.101 97.12 382.755 97.54 382.501 98.1C382.261 98.6467 382.141 99.3267 382.141 100.14C382.141 101.34 382.415 102.267 382.961 102.92C383.508 103.56 384.235 103.88 385.141 103.88ZM395.841 105.18C395.241 105.18 394.635 105.107 394.021 104.96C393.421 104.813 392.861 104.56 392.341 104.2C392.208 104.107 392.115 104 392.061 103.88C392.008 103.747 391.988 103.62 392.001 103.5C392.028 103.367 392.081 103.253 392.161 103.16C392.255 103.067 392.361 103.013 392.481 103C392.615 102.973 392.761 103 392.921 103.08C393.441 103.4 393.941 103.627 394.421 103.76C394.915 103.88 395.401 103.94 395.881 103.94C396.641 103.94 397.215 103.8 397.601 103.52C397.988 103.24 398.181 102.86 398.181 102.38C398.181 102.007 398.055 101.713 397.801 101.5C397.548 101.273 397.148 101.1 396.601 100.98L394.781 100.58C393.941 100.407 393.315 100.107 392.901 99.68C392.501 99.2533 392.301 98.7 392.301 98.02C392.301 97.42 392.455 96.9067 392.761 96.48C393.081 96.04 393.528 95.7 394.101 95.46C394.675 95.22 395.341 95.1 396.101 95.1C396.688 95.1 397.241 95.18 397.761 95.34C398.295 95.4867 398.775 95.7267 399.201 96.06C399.335 96.1533 399.421 96.2667 399.461 96.4C399.515 96.52 399.521 96.6467 399.481 96.78C399.455 96.9 399.395 97.0067 399.301 97.1C399.208 97.18 399.095 97.2267 398.961 97.24C398.828 97.2533 398.688 97.2133 398.541 97.12C398.141 96.8533 397.735 96.66 397.321 96.54C396.908 96.4067 396.501 96.34 396.101 96.34C395.355 96.34 394.788 96.4867 394.401 96.78C394.015 97.0733 393.821 97.46 393.821 97.94C393.821 98.3133 393.941 98.62 394.181 98.86C394.421 99.1 394.795 99.2733 395.301 99.38L397.121 99.76C397.988 99.9467 398.635 100.247 399.061 100.66C399.501 101.06 399.721 101.607 399.721 102.3C399.721 103.18 399.368 103.88 398.661 104.4C397.955 104.92 397.015 105.18 395.841 105.18ZM410.007 105.18C409.34 105.18 408.74 105.053 408.207 104.8C407.687 104.533 407.273 104.173 406.967 103.72C406.66 103.267 406.507 102.76 406.507 102.2C406.507 101.48 406.687 100.913 407.047 100.5C407.42 100.087 408.027 99.7933 408.867 99.62C409.72 99.4467 410.88 99.36 412.347 99.36H413.247V100.42H412.367C411.287 100.42 410.433 100.473 409.807 100.58C409.193 100.673 408.76 100.84 408.507 101.08C408.267 101.32 408.147 101.66 408.147 102.1C408.147 102.647 408.333 103.093 408.707 103.44C409.093 103.787 409.613 103.96 410.267 103.96C410.8 103.96 411.267 103.833 411.667 103.58C412.08 103.327 412.4 102.98 412.627 102.54C412.867 102.1 412.987 101.593 412.987 101.02V98.74C412.987 97.9133 412.82 97.32 412.487 96.96C412.153 96.5867 411.607 96.4 410.847 96.4C410.38 96.4 409.913 96.46 409.447 96.58C408.98 96.7 408.487 96.8933 407.967 97.16C407.78 97.2533 407.62 97.2867 407.487 97.26C407.353 97.22 407.247 97.1467 407.167 97.04C407.087 96.9333 407.04 96.8133 407.027 96.68C407.013 96.5333 407.04 96.3933 407.107 96.26C407.187 96.1267 407.307 96.02 407.467 95.94C408.053 95.6467 408.633 95.4333 409.207 95.3C409.78 95.1667 410.327 95.1 410.847 95.1C411.687 95.1 412.38 95.24 412.927 95.52C413.473 95.7867 413.88 96.2 414.147 96.76C414.413 97.3067 414.547 98.0133 414.547 98.88V104.3C414.547 104.567 414.48 104.773 414.347 104.92C414.227 105.067 414.047 105.14 413.807 105.14C413.553 105.14 413.36 105.067 413.227 104.92C413.093 104.773 413.027 104.567 413.027 104.3V102.74H413.207C413.1 103.247 412.893 103.68 412.587 104.04C412.293 104.4 411.927 104.68 411.487 104.88C411.047 105.08 410.553 105.18 410.007 105.18ZM418.172 105.14C417.905 105.14 417.699 105.067 417.552 104.92C417.419 104.773 417.352 104.567 417.352 104.3V95.96C417.352 95.6933 417.419 95.4933 417.552 95.36C417.685 95.2133 417.879 95.14 418.132 95.14C418.385 95.14 418.579 95.2133 418.712 95.36C418.859 95.4933 418.932 95.6933 418.932 95.96V97.58H418.732C418.945 96.7933 419.352 96.1867 419.952 95.76C420.552 95.3333 421.292 95.1067 422.172 95.08C422.372 95.0667 422.532 95.1133 422.652 95.22C422.772 95.3133 422.839 95.48 422.852 95.72C422.865 95.9467 422.812 96.1267 422.692 96.26C422.572 96.3933 422.385 96.4733 422.132 96.5L421.812 96.54C420.905 96.62 420.205 96.9133 419.712 97.42C419.232 97.9133 418.992 98.5933 418.992 99.46V104.3C418.992 104.567 418.919 104.773 418.772 104.92C418.639 105.067 418.439 105.14 418.172 105.14ZM428.583 105.18C427.556 105.18 426.669 104.98 425.923 104.58C425.189 104.167 424.616 103.587 424.203 102.84C423.803 102.093 423.603 101.2 423.603 100.16C423.603 99.1467 423.803 98.2667 424.203 97.52C424.603 96.76 425.149 96.1667 425.843 95.74C426.549 95.3133 427.363 95.1 428.283 95.1C428.936 95.1 429.523 95.2133 430.043 95.44C430.563 95.6533 431.003 95.9667 431.363 96.38C431.736 96.7933 432.016 97.2933 432.203 97.88C432.403 98.4667 432.503 99.1267 432.503 99.86C432.503 100.073 432.443 100.233 432.323 100.34C432.203 100.433 432.029 100.48 431.803 100.48H424.843V99.42H431.423L431.103 99.68C431.103 98.96 430.996 98.3533 430.783 97.86C430.569 97.3533 430.256 96.9667 429.843 96.7C429.443 96.4333 428.936 96.3 428.323 96.3C427.643 96.3 427.063 96.46 426.583 96.78C426.116 97.0867 425.763 97.52 425.523 98.08C425.283 98.6267 425.163 99.2667 425.163 100V100.12C425.163 101.347 425.456 102.28 426.043 102.92C426.643 103.56 427.489 103.88 428.583 103.88C429.036 103.88 429.483 103.82 429.923 103.7C430.376 103.58 430.816 103.38 431.243 103.1C431.429 102.98 431.596 102.927 431.743 102.94C431.903 102.94 432.029 102.987 432.123 103.08C432.216 103.16 432.276 103.267 432.303 103.4C432.343 103.52 432.329 103.653 432.263 103.8C432.209 103.947 432.096 104.073 431.923 104.18C431.483 104.5 430.963 104.747 430.363 104.92C429.763 105.093 429.169 105.18 428.583 105.18ZM442.884 105.18C442.284 105.18 441.677 105.107 441.064 104.96C440.464 104.813 439.904 104.56 439.384 104.2C439.25 104.107 439.157 104 439.104 103.88C439.05 103.747 439.03 103.62 439.044 103.5C439.07 103.367 439.124 103.253 439.204 103.16C439.297 103.067 439.404 103.013 439.524 103C439.657 102.973 439.804 103 439.964 103.08C440.484 103.4 440.984 103.627 441.464 103.76C441.957 103.88 442.444 103.94 442.924 103.94C443.684 103.94 444.257 103.8 444.644 103.52C445.03 103.24 445.224 102.86 445.224 102.38C445.224 102.007 445.097 101.713 444.844 101.5C444.59 101.273 444.19 101.1 443.644 100.98L441.824 100.58C440.984 100.407 440.357 100.107 439.944 99.68C439.544 99.2533 439.344 98.7 439.344 98.02C439.344 97.42 439.497 96.9067 439.804 96.48C440.124 96.04 440.57 95.7 441.144 95.46C441.717 95.22 442.384 95.1 443.144 95.1C443.73 95.1 444.284 95.18 444.804 95.34C445.337 95.4867 445.817 95.7267 446.244 96.06C446.377 96.1533 446.464 96.2667 446.504 96.4C446.557 96.52 446.564 96.6467 446.524 96.78C446.497 96.9 446.437 97.0067 446.344 97.1C446.25 97.18 446.137 97.2267 446.004 97.24C445.87 97.2533 445.73 97.2133 445.584 97.12C445.184 96.8533 444.777 96.66 444.364 96.54C443.95 96.4067 443.544 96.34 443.144 96.34C442.397 96.34 441.83 96.4867 441.444 96.78C441.057 97.0733 440.864 97.46 440.864 97.94C440.864 98.3133 440.984 98.62 441.224 98.86C441.464 99.1 441.837 99.2733 442.344 99.38L444.164 99.76C445.03 99.9467 445.677 100.247 446.104 100.66C446.544 101.06 446.764 101.607 446.764 102.3C446.764 103.18 446.41 103.88 445.704 104.4C444.997 104.92 444.057 105.18 442.884 105.18ZM453.412 105.18C452.386 105.18 451.499 104.98 450.752 104.58C450.019 104.167 449.446 103.587 449.032 102.84C448.632 102.093 448.432 101.2 448.432 100.16C448.432 99.1467 448.632 98.2667 449.032 97.52C449.432 96.76 449.979 96.1667 450.672 95.74C451.379 95.3133 452.192 95.1 453.112 95.1C453.766 95.1 454.352 95.2133 454.872 95.44C455.392 95.6533 455.832 95.9667 456.192 96.38C456.566 96.7933 456.846 97.2933 457.032 97.88C457.232 98.4667 457.332 99.1267 457.332 99.86C457.332 100.073 457.272 100.233 457.152 100.34C457.032 100.433 456.859 100.48 456.632 100.48H449.672V99.42H456.252L455.932 99.68C455.932 98.96 455.826 98.3533 455.612 97.86C455.399 97.3533 455.086 96.9667 454.672 96.7C454.272 96.4333 453.766 96.3 453.152 96.3C452.472 96.3 451.892 96.46 451.412 96.78C450.946 97.0867 450.592 97.52 450.352 98.08C450.112 98.6267 449.992 99.2667 449.992 100V100.12C449.992 101.347 450.286 102.28 450.872 102.92C451.472 103.56 452.319 103.88 453.412 103.88C453.866 103.88 454.312 103.82 454.752 103.7C455.206 103.58 455.646 103.38 456.072 103.1C456.259 102.98 456.426 102.927 456.572 102.94C456.732 102.94 456.859 102.987 456.952 103.08C457.046 103.16 457.106 103.267 457.132 103.4C457.172 103.52 457.159 103.653 457.092 103.8C457.039 103.947 456.926 104.073 456.752 104.18C456.312 104.5 455.792 104.747 455.192 104.92C454.592 105.093 453.999 105.18 453.412 105.18ZM463.597 105.18C462.624 105.18 461.784 104.967 461.077 104.54C460.37 104.113 459.824 103.52 459.437 102.76C459.064 101.987 458.877 101.093 458.877 100.08C458.877 99.3067 458.984 98.6133 459.197 98C459.41 97.3867 459.724 96.8667 460.137 96.44C460.55 96 461.044 95.6667 461.617 95.44C462.204 95.2133 462.864 95.1 463.597 95.1C464.077 95.1 464.577 95.1733 465.097 95.32C465.617 95.4667 466.09 95.72 466.517 96.08C466.65 96.1733 466.737 96.2867 466.777 96.42C466.817 96.5533 466.817 96.6867 466.777 96.82C466.737 96.94 466.67 97.0467 466.577 97.14C466.484 97.22 466.364 97.2667 466.217 97.28C466.084 97.2933 465.944 97.2467 465.797 97.14C465.45 96.8733 465.097 96.6867 464.737 96.58C464.377 96.4733 464.03 96.42 463.697 96.42C463.177 96.42 462.724 96.5067 462.337 96.68C461.95 96.84 461.624 97.0733 461.357 97.38C461.09 97.6867 460.884 98.0667 460.737 98.52C460.604 98.9733 460.537 99.5 460.537 100.1C460.537 101.26 460.81 102.18 461.357 102.86C461.904 103.527 462.684 103.86 463.697 103.86C464.03 103.86 464.37 103.807 464.717 103.7C465.077 103.593 465.437 103.407 465.797 103.14C465.944 103.033 466.084 102.987 466.217 103C466.35 103.013 466.464 103.067 466.557 103.16C466.65 103.24 466.71 103.347 466.737 103.48C466.777 103.613 466.777 103.747 466.737 103.88C466.697 104 466.61 104.107 466.477 104.2C466.05 104.547 465.584 104.8 465.077 104.96C464.57 105.107 464.077 105.18 463.597 105.18ZM471.975 105.18C471.188 105.18 470.535 105.04 470.015 104.76C469.508 104.467 469.122 104.033 468.855 103.46C468.602 102.887 468.475 102.173 468.475 101.32V95.96C468.475 95.68 468.542 95.4733 468.675 95.34C468.822 95.2067 469.022 95.14 469.275 95.14C469.542 95.14 469.742 95.2067 469.875 95.34C470.022 95.4733 470.095 95.68 470.095 95.96V101.3C470.095 102.153 470.268 102.793 470.615 103.22C470.975 103.633 471.535 103.84 472.295 103.84C473.122 103.84 473.795 103.56 474.315 103C474.835 102.44 475.095 101.707 475.095 100.8V95.96C475.095 95.68 475.162 95.4733 475.295 95.34C475.442 95.2067 475.648 95.14 475.915 95.14C476.168 95.14 476.362 95.2067 476.495 95.34C476.642 95.4733 476.715 95.68 476.715 95.96V104.3C476.715 104.86 476.455 105.14 475.935 105.14C475.682 105.14 475.482 105.067 475.335 104.92C475.202 104.773 475.135 104.567 475.135 104.3V102.48L475.395 102.76C475.128 103.547 474.688 104.147 474.075 104.56C473.475 104.973 472.775 105.18 471.975 105.18ZM480.366 105.14C480.099 105.14 479.892 105.067 479.746 104.92C479.612 104.773 479.546 104.567 479.546 104.3V95.96C479.546 95.6933 479.612 95.4933 479.746 95.36C479.879 95.2133 480.072 95.14 480.326 95.14C480.579 95.14 480.772 95.2133 480.906 95.36C481.052 95.4933 481.126 95.6933 481.126 95.96V97.58H480.926C481.139 96.7933 481.546 96.1867 482.146 95.76C482.746 95.3333 483.486 95.1067 484.366 95.08C484.566 95.0667 484.726 95.1133 484.846 95.22C484.966 95.3133 485.032 95.48 485.046 95.72C485.059 95.9467 485.006 96.1267 484.886 96.26C484.766 96.3933 484.579 96.4733 484.326 96.5L484.006 96.54C483.099 96.62 482.399 96.9133 481.906 97.42C481.426 97.9133 481.186 98.5933 481.186 99.46V104.3C481.186 104.567 481.112 104.773 480.966 104.92C480.832 105.067 480.632 105.14 480.366 105.14ZM490.777 105.18C489.75 105.18 488.863 104.98 488.117 104.58C487.383 104.167 486.81 103.587 486.397 102.84C485.997 102.093 485.797 101.2 485.797 100.16C485.797 99.1467 485.997 98.2667 486.397 97.52C486.797 96.76 487.343 96.1667 488.037 95.74C488.743 95.3133 489.557 95.1 490.477 95.1C491.13 95.1 491.717 95.2133 492.237 95.44C492.757 95.6533 493.197 95.9667 493.557 96.38C493.93 96.7933 494.21 97.2933 494.397 97.88C494.597 98.4667 494.697 99.1267 494.697 99.86C494.697 100.073 494.637 100.233 494.517 100.34C494.397 100.433 494.223 100.48 493.997 100.48H487.037V99.42H493.617L493.297 99.68C493.297 98.96 493.19 98.3533 492.977 97.86C492.763 97.3533 492.45 96.9667 492.037 96.7C491.637 96.4333 491.13 96.3 490.517 96.3C489.837 96.3 489.257 96.46 488.777 96.78C488.31 97.0867 487.957 97.52 487.717 98.08C487.477 98.6267 487.357 99.2667 487.357 100V100.12C487.357 101.347 487.65 102.28 488.237 102.92C488.837 103.56 489.683 103.88 490.777 103.88C491.23 103.88 491.677 103.82 492.117 103.7C492.57 103.58 493.01 103.38 493.437 103.1C493.623 102.98 493.79 102.927 493.937 102.94C494.097 102.94 494.223 102.987 494.317 103.08C494.41 103.16 494.47 103.267 494.497 103.4C494.537 103.52 494.523 103.653 494.457 103.8C494.403 103.947 494.29 104.073 494.117 104.18C493.677 104.5 493.157 104.747 492.557 104.92C491.957 105.093 491.363 105.18 490.777 105.18ZM499.801 105.18C498.841 105.18 498.108 104.887 497.601 104.3C497.094 103.713 496.841 102.873 496.841 101.78V91.58C496.841 91.3133 496.908 91.1133 497.041 90.98C497.174 90.8333 497.374 90.76 497.641 90.76C497.894 90.76 498.094 90.8333 498.241 90.98C498.388 91.1133 498.461 91.3133 498.461 91.58V101.66C498.461 102.38 498.601 102.92 498.881 103.28C499.174 103.627 499.601 103.8 500.161 103.8C500.281 103.8 500.388 103.793 500.481 103.78C500.574 103.767 500.668 103.76 500.761 103.76C500.908 103.747 501.008 103.78 501.061 103.86C501.128 103.94 501.161 104.1 501.161 104.34C501.161 104.58 501.108 104.76 501.001 104.88C500.894 105 500.721 105.08 500.481 105.12C500.374 105.133 500.261 105.147 500.141 105.16C500.021 105.173 499.908 105.18 499.801 105.18ZM504.504 108.74C504.304 108.74 504.144 108.687 504.024 108.58C503.904 108.473 503.831 108.327 503.804 108.14C503.791 107.967 503.824 107.787 503.904 107.6L505.284 104.5V105.2L501.444 96.28C501.364 96.08 501.338 95.8933 501.364 95.72C501.391 95.5467 501.471 95.4067 501.604 95.3C501.738 95.1933 501.924 95.14 502.164 95.14C502.378 95.14 502.544 95.1867 502.664 95.28C502.784 95.3733 502.891 95.54 502.984 95.78L506.264 103.82H505.724L509.044 95.78C509.151 95.54 509.264 95.3733 509.384 95.28C509.504 95.1867 509.678 95.14 509.904 95.14C510.118 95.14 510.278 95.1933 510.384 95.3C510.504 95.4067 510.571 95.5467 510.584 95.72C510.611 95.88 510.584 96.06 510.504 96.26L505.384 108.1C505.278 108.34 505.158 108.507 505.024 108.6C504.904 108.693 504.731 108.74 504.504 108.74ZM520.654 105.18C520.054 105.18 519.447 105.107 518.834 104.96C518.234 104.813 517.674 104.56 517.154 104.2C517.021 104.107 516.927 104 516.874 103.88C516.821 103.747 516.801 103.62 516.814 103.5C516.841 103.367 516.894 103.253 516.974 103.16C517.067 103.067 517.174 103.013 517.294 103C517.427 102.973 517.574 103 517.734 103.08C518.254 103.4 518.754 103.627 519.234 103.76C519.727 103.88 520.214 103.94 520.694 103.94C521.454 103.94 522.027 103.8 522.414 103.52C522.801 103.24 522.994 102.86 522.994 102.38C522.994 102.007 522.867 101.713 522.614 101.5C522.361 101.273 521.961 101.1 521.414 100.98L519.594 100.58C518.754 100.407 518.127 100.107 517.714 99.68C517.314 99.2533 517.114 98.7 517.114 98.02C517.114 97.42 517.267 96.9067 517.574 96.48C517.894 96.04 518.341 95.7 518.914 95.46C519.487 95.22 520.154 95.1 520.914 95.1C521.501 95.1 522.054 95.18 522.574 95.34C523.107 95.4867 523.587 95.7267 524.014 96.06C524.147 96.1533 524.234 96.2667 524.274 96.4C524.327 96.52 524.334 96.6467 524.294 96.78C524.267 96.9 524.207 97.0067 524.114 97.1C524.021 97.18 523.907 97.2267 523.774 97.24C523.641 97.2533 523.501 97.2133 523.354 97.12C522.954 96.8533 522.547 96.66 522.134 96.54C521.721 96.4067 521.314 96.34 520.914 96.34C520.167 96.34 519.601 96.4867 519.214 96.78C518.827 97.0733 518.634 97.46 518.634 97.94C518.634 98.3133 518.754 98.62 518.994 98.86C519.234 99.1 519.607 99.2733 520.114 99.38L521.934 99.76C522.801 99.9467 523.447 100.247 523.874 100.66C524.314 101.06 524.534 101.607 524.534 102.3C524.534 103.18 524.181 103.88 523.474 104.4C522.767 104.92 521.827 105.18 520.654 105.18ZM530.605 105.18C529.845 105.18 529.205 105.047 528.685 104.78C528.178 104.5 527.798 104.1 527.545 103.58C527.292 103.047 527.165 102.4 527.165 101.64V96.54H525.825C525.598 96.54 525.425 96.4867 525.305 96.38C525.185 96.26 525.125 96.1 525.125 95.9C525.125 95.7 525.185 95.5467 525.305 95.44C525.425 95.3333 525.598 95.28 525.825 95.28H527.165V92.98C527.165 92.7133 527.238 92.5133 527.385 92.38C527.532 92.2333 527.732 92.16 527.985 92.16C528.238 92.16 528.432 92.2333 528.565 92.38C528.712 92.5133 528.785 92.7133 528.785 92.98V95.28H531.305C531.532 95.28 531.705 95.3333 531.825 95.44C531.945 95.5467 532.005 95.7 532.005 95.9C532.005 96.1 531.945 96.26 531.825 96.38C531.705 96.4867 531.532 96.54 531.305 96.54H528.785V101.48C528.785 102.24 528.945 102.82 529.265 103.22C529.585 103.607 530.105 103.8 530.825 103.8C531.078 103.8 531.292 103.773 531.465 103.72C531.652 103.667 531.805 103.64 531.925 103.64C532.045 103.627 532.145 103.667 532.225 103.76C532.305 103.853 532.345 104.013 532.345 104.24C532.345 104.4 532.312 104.547 532.245 104.68C532.192 104.813 532.092 104.907 531.945 104.96C531.785 105.013 531.572 105.06 531.305 105.1C531.052 105.153 530.818 105.18 530.605 105.18ZM537.44 105.18C536.493 105.18 535.673 104.973 534.98 104.56C534.286 104.147 533.746 103.567 533.36 102.82C532.986 102.06 532.8 101.167 532.8 100.14C532.8 99.3667 532.906 98.6733 533.12 98.06C533.333 97.4333 533.646 96.9 534.06 96.46C534.473 96.02 534.96 95.6867 535.52 95.46C536.093 95.22 536.733 95.1 537.44 95.1C538.386 95.1 539.206 95.3067 539.9 95.72C540.593 96.1333 541.126 96.72 541.5 97.48C541.886 98.2267 542.08 99.1133 542.08 100.14C542.08 100.913 541.973 101.607 541.76 102.22C541.546 102.833 541.233 103.367 540.82 103.82C540.406 104.26 539.913 104.6 539.34 104.84C538.78 105.067 538.146 105.18 537.44 105.18ZM537.44 103.88C538.04 103.88 538.566 103.733 539.02 103.44C539.473 103.147 539.82 102.72 540.06 102.16C540.313 101.6 540.44 100.927 540.44 100.14C540.44 98.9267 540.166 98 539.62 97.36C539.086 96.72 538.36 96.4 537.44 96.4C536.826 96.4 536.293 96.5467 535.84 96.84C535.4 97.12 535.053 97.54 534.8 98.1C534.56 98.6467 534.44 99.3267 534.44 100.14C534.44 101.34 534.713 102.267 535.26 102.92C535.806 103.56 536.533 103.88 537.44 103.88ZM545.133 105.14C544.866 105.14 544.66 105.067 544.513 104.92C544.38 104.773 544.313 104.567 544.313 104.3V95.96C544.313 95.6933 544.38 95.4933 544.513 95.36C544.646 95.2133 544.84 95.14 545.093 95.14C545.346 95.14 545.54 95.2133 545.673 95.36C545.82 95.4933 545.893 95.6933 545.893 95.96V97.58H545.693C545.906 96.7933 546.313 96.1867 546.913 95.76C547.513 95.3333 548.253 95.1067 549.133 95.08C549.333 95.0667 549.493 95.1133 549.613 95.22C549.733 95.3133 549.8 95.48 549.813 95.72C549.826 95.9467 549.773 96.1267 549.653 96.26C549.533 96.3933 549.346 96.4733 549.093 96.5L548.773 96.54C547.866 96.62 547.166 96.9133 546.673 97.42C546.193 97.9133 545.953 98.5933 545.953 99.46V104.3C545.953 104.567 545.88 104.773 545.733 104.92C545.6 105.067 545.4 105.14 545.133 105.14ZM555.544 105.18C554.517 105.18 553.63 104.98 552.884 104.58C552.15 104.167 551.577 103.587 551.164 102.84C550.764 102.093 550.564 101.2 550.564 100.16C550.564 99.1467 550.764 98.2667 551.164 97.52C551.564 96.76 552.11 96.1667 552.804 95.74C553.51 95.3133 554.324 95.1 555.244 95.1C555.897 95.1 556.484 95.2133 557.004 95.44C557.524 95.6533 557.964 95.9667 558.324 96.38C558.697 96.7933 558.977 97.2933 559.164 97.88C559.364 98.4667 559.464 99.1267 559.464 99.86C559.464 100.073 559.404 100.233 559.284 100.34C559.164 100.433 558.99 100.48 558.764 100.48H551.804V99.42H558.384L558.064 99.68C558.064 98.96 557.957 98.3533 557.744 97.86C557.53 97.3533 557.217 96.9667 556.804 96.7C556.404 96.4333 555.897 96.3 555.284 96.3C554.604 96.3 554.024 96.46 553.544 96.78C553.077 97.0867 552.724 97.52 552.484 98.08C552.244 98.6267 552.124 99.2667 552.124 100V100.12C552.124 101.347 552.417 102.28 553.004 102.92C553.604 103.56 554.45 103.88 555.544 103.88C555.997 103.88 556.444 103.82 556.884 103.7C557.337 103.58 557.777 103.38 558.204 103.1C558.39 102.98 558.557 102.927 558.704 102.94C558.864 102.94 558.99 102.987 559.084 103.08C559.177 103.16 559.237 103.267 559.264 103.4C559.304 103.52 559.29 103.653 559.224 103.8C559.17 103.947 559.057 104.073 558.884 104.18C558.444 104.5 557.924 104.747 557.324 104.92C556.724 105.093 556.13 105.18 555.544 105.18ZM565.308 105.18C564.442 105.18 563.682 104.973 563.028 104.56C562.388 104.147 561.888 103.567 561.528 102.82C561.182 102.06 561.008 101.167 561.008 100.14C561.008 99.1 561.182 98.2067 561.528 97.46C561.888 96.7 562.388 96.12 563.028 95.72C563.682 95.3067 564.442 95.1 565.308 95.1C566.188 95.1 566.942 95.32 567.568 95.76C568.195 96.2 568.615 96.7933 568.828 97.54H568.608V91.58C568.608 91.3133 568.675 91.1133 568.808 90.98C568.955 90.8333 569.162 90.76 569.428 90.76C569.682 90.76 569.875 90.8333 570.008 90.98C570.155 91.1133 570.228 91.3133 570.228 91.58V104.3C570.228 104.567 570.162 104.773 570.028 104.92C569.895 105.067 569.695 105.14 569.428 105.14C569.175 105.14 568.975 105.067 568.828 104.92C568.695 104.773 568.628 104.567 568.628 104.3V102.4L568.848 102.68C568.635 103.44 568.208 104.047 567.568 104.5C566.942 104.953 566.188 105.18 565.308 105.18ZM565.648 103.88C566.248 103.88 566.775 103.733 567.228 103.44C567.682 103.147 568.028 102.72 568.268 102.16C568.522 101.6 568.648 100.927 568.648 100.14C568.648 98.9267 568.375 98 567.828 97.36C567.295 96.72 566.568 96.4 565.648 96.4C565.035 96.4 564.502 96.5467 564.048 96.84C563.608 97.12 563.262 97.54 563.008 98.1C562.768 98.6467 562.648 99.3267 562.648 100.14C562.648 101.34 562.922 102.267 563.468 102.92C564.015 103.56 564.742 103.88 565.648 103.88ZM581.085 105.18C580.418 105.18 579.818 105.053 579.285 104.8C578.765 104.533 578.351 104.173 578.045 103.72C577.738 103.267 577.585 102.76 577.585 102.2C577.585 101.48 577.765 100.913 578.125 100.5C578.498 100.087 579.105 99.7933 579.945 99.62C580.798 99.4467 581.958 99.36 583.425 99.36H584.325V100.42H583.445C582.365 100.42 581.511 100.473 580.885 100.58C580.271 100.673 579.838 100.84 579.585 101.08C579.345 101.32 579.225 101.66 579.225 102.1C579.225 102.647 579.411 103.093 579.785 103.44C580.171 103.787 580.691 103.96 581.345 103.96C581.878 103.96 582.345 103.833 582.745 103.58C583.158 103.327 583.478 102.98 583.705 102.54C583.945 102.1 584.065 101.593 584.065 101.02V98.74C584.065 97.9133 583.898 97.32 583.565 96.96C583.231 96.5867 582.685 96.4 581.925 96.4C581.458 96.4 580.991 96.46 580.525 96.58C580.058 96.7 579.565 96.8933 579.045 97.16C578.858 97.2533 578.698 97.2867 578.565 97.26C578.431 97.22 578.325 97.1467 578.245 97.04C578.165 96.9333 578.118 96.8133 578.105 96.68C578.091 96.5333 578.118 96.3933 578.185 96.26C578.265 96.1267 578.385 96.02 578.545 95.94C579.131 95.6467 579.711 95.4333 580.285 95.3C580.858 95.1667 581.405 95.1 581.925 95.1C582.765 95.1 583.458 95.24 584.005 95.52C584.551 95.7867 584.958 96.2 585.225 96.76C585.491 97.3067 585.625 98.0133 585.625 98.88V104.3C585.625 104.567 585.558 104.773 585.425 104.92C585.305 105.067 585.125 105.14 584.885 105.14C584.631 105.14 584.438 105.067 584.305 104.92C584.171 104.773 584.105 104.567 584.105 104.3V102.74H584.285C584.178 103.247 583.971 103.68 583.665 104.04C583.371 104.4 583.005 104.68 582.565 104.88C582.125 105.08 581.631 105.18 581.085 105.18ZM589.23 105.14C588.963 105.14 588.763 105.067 588.63 104.92C588.497 104.773 588.43 104.567 588.43 104.3V95.96C588.43 95.6933 588.497 95.4933 588.63 95.36C588.763 95.2133 588.957 95.14 589.21 95.14C589.463 95.14 589.657 95.2133 589.79 95.36C589.937 95.4933 590.01 95.6933 590.01 95.96V97.68L589.79 97.44C590.07 96.6667 590.523 96.0867 591.15 95.7C591.79 95.3 592.523 95.1 593.35 95.1C594.123 95.1 594.763 95.24 595.27 95.52C595.79 95.8 596.177 96.2267 596.43 96.8C596.683 97.36 596.81 98.0733 596.81 98.94V104.3C596.81 104.567 596.737 104.773 596.59 104.92C596.457 105.067 596.263 105.14 596.01 105.14C595.743 105.14 595.537 105.067 595.39 104.92C595.257 104.773 595.19 104.567 595.19 104.3V99.04C595.19 98.1333 595.01 97.4733 594.65 97.06C594.303 96.6333 593.743 96.42 592.97 96.42C592.077 96.42 591.363 96.7 590.83 97.26C590.31 97.8067 590.05 98.54 590.05 99.46V104.3C590.05 104.86 589.777 105.14 589.23 105.14ZM603.297 105.18C602.431 105.18 601.671 104.973 601.017 104.56C600.377 104.147 599.877 103.567 599.517 102.82C599.171 102.06 598.997 101.167 598.997 100.14C598.997 99.1 599.171 98.2067 599.517 97.46C599.877 96.7 600.377 96.12 601.017 95.72C601.671 95.3067 602.431 95.1 603.297 95.1C604.177 95.1 604.931 95.32 605.557 95.76C606.184 96.2 606.604 96.7933 606.817 97.54H606.597V91.58C606.597 91.3133 606.664 91.1133 606.797 90.98C606.944 90.8333 607.151 90.76 607.417 90.76C607.671 90.76 607.864 90.8333 607.997 90.98C608.144 91.1133 608.217 91.3133 608.217 91.58V104.3C608.217 104.567 608.151 104.773 608.017 104.92C607.884 105.067 607.684 105.14 607.417 105.14C607.164 105.14 606.964 105.067 606.817 104.92C606.684 104.773 606.617 104.567 606.617 104.3V102.4L606.837 102.68C606.624 103.44 606.197 104.047 605.557 104.5C604.931 104.953 604.177 105.18 603.297 105.18ZM603.637 103.88C604.237 103.88 604.764 103.733 605.217 103.44C605.671 103.147 606.017 102.72 606.257 102.16C606.511 101.6 606.637 100.927 606.637 100.14C606.637 98.9267 606.364 98 605.817 97.36C605.284 96.72 604.557 96.4 603.637 96.4C603.024 96.4 602.491 96.5467 602.037 96.84C601.597 97.12 601.251 97.54 600.997 98.1C600.757 98.6467 600.637 99.3267 600.637 100.14C600.637 101.34 600.911 102.267 601.457 102.92C602.004 103.56 602.731 103.88 603.637 103.88ZM620.394 105.18C619.367 105.18 618.48 104.98 617.734 104.58C617 104.167 616.427 103.587 616.014 102.84C615.614 102.093 615.414 101.2 615.414 100.16C615.414 99.1467 615.614 98.2667 616.014 97.52C616.414 96.76 616.96 96.1667 617.654 95.74C618.36 95.3133 619.174 95.1 620.094 95.1C620.747 95.1 621.334 95.2133 621.854 95.44C622.374 95.6533 622.814 95.9667 623.174 96.38C623.547 96.7933 623.827 97.2933 624.014 97.88C624.214 98.4667 624.314 99.1267 624.314 99.86C624.314 100.073 624.254 100.233 624.134 100.34C624.014 100.433 623.84 100.48 623.614 100.48H616.654V99.42H623.234L622.914 99.68C622.914 98.96 622.807 98.3533 622.594 97.86C622.38 97.3533 622.067 96.9667 621.654 96.7C621.254 96.4333 620.747 96.3 620.134 96.3C619.454 96.3 618.874 96.46 618.394 96.78C617.927 97.0867 617.574 97.52 617.334 98.08C617.094 98.6267 616.974 99.2667 616.974 100V100.12C616.974 101.347 617.267 102.28 617.854 102.92C618.454 103.56 619.3 103.88 620.394 103.88C620.847 103.88 621.294 103.82 621.734 103.7C622.187 103.58 622.627 103.38 623.054 103.1C623.24 102.98 623.407 102.927 623.554 102.94C623.714 102.94 623.84 102.987 623.934 103.08C624.027 103.16 624.087 103.267 624.114 103.4C624.154 103.52 624.14 103.653 624.074 103.8C624.02 103.947 623.907 104.073 623.734 104.18C623.294 104.5 622.774 104.747 622.174 104.92C621.574 105.093 620.98 105.18 620.394 105.18ZM629.518 105.18C628.852 105.18 628.252 105.053 627.718 104.8C627.198 104.533 626.785 104.173 626.478 103.72C626.172 103.267 626.018 102.76 626.018 102.2C626.018 101.48 626.198 100.913 626.558 100.5C626.932 100.087 627.538 99.7933 628.378 99.62C629.232 99.4467 630.392 99.36 631.858 99.36H632.758V100.42H631.878C630.798 100.42 629.945 100.473 629.318 100.58C628.705 100.673 628.272 100.84 628.018 101.08C627.778 101.32 627.658 101.66 627.658 102.1C627.658 102.647 627.845 103.093 628.218 103.44C628.605 103.787 629.125 103.96 629.778 103.96C630.312 103.96 630.778 103.833 631.178 103.58C631.592 103.327 631.912 102.98 632.138 102.54C632.378 102.1 632.498 101.593 632.498 101.02V98.74C632.498 97.9133 632.332 97.32 631.998 96.96C631.665 96.5867 631.118 96.4 630.358 96.4C629.892 96.4 629.425 96.46 628.958 96.58C628.492 96.7 627.998 96.8933 627.478 97.16C627.292 97.2533 627.132 97.2867 626.998 97.26C626.865 97.22 626.758 97.1467 626.678 97.04C626.598 96.9333 626.552 96.8133 626.538 96.68C626.525 96.5333 626.552 96.3933 626.618 96.26C626.698 96.1267 626.818 96.02 626.978 95.94C627.565 95.6467 628.145 95.4333 628.718 95.3C629.292 95.1667 629.838 95.1 630.358 95.1C631.198 95.1 631.892 95.24 632.438 95.52C632.985 95.7867 633.392 96.2 633.658 96.76C633.925 97.3067 634.058 98.0133 634.058 98.88V104.3C634.058 104.567 633.992 104.773 633.858 104.92C633.738 105.067 633.558 105.14 633.318 105.14C633.065 105.14 632.872 105.067 632.738 104.92C632.605 104.773 632.538 104.567 632.538 104.3V102.74H632.718C632.612 103.247 632.405 103.68 632.098 104.04C631.805 104.4 631.438 104.68 630.998 104.88C630.558 105.08 630.065 105.18 629.518 105.18ZM640.144 105.18C639.544 105.18 638.937 105.107 638.324 104.96C637.724 104.813 637.164 104.56 636.644 104.2C636.51 104.107 636.417 104 636.364 103.88C636.31 103.747 636.29 103.62 636.304 103.5C636.33 103.367 636.384 103.253 636.464 103.16C636.557 103.067 636.664 103.013 636.784 103C636.917 102.973 637.064 103 637.224 103.08C637.744 103.4 638.244 103.627 638.724 103.76C639.217 103.88 639.704 103.94 640.184 103.94C640.944 103.94 641.517 103.8 641.904 103.52C642.29 103.24 642.484 102.86 642.484 102.38C642.484 102.007 642.357 101.713 642.104 101.5C641.85 101.273 641.45 101.1 640.904 100.98L639.084 100.58C638.244 100.407 637.617 100.107 637.204 99.68C636.804 99.2533 636.604 98.7 636.604 98.02C636.604 97.42 636.757 96.9067 637.064 96.48C637.384 96.04 637.83 95.7 638.404 95.46C638.977 95.22 639.644 95.1 640.404 95.1C640.99 95.1 641.544 95.18 642.064 95.34C642.597 95.4867 643.077 95.7267 643.504 96.06C643.637 96.1533 643.724 96.2667 643.764 96.4C643.817 96.52 643.824 96.6467 643.784 96.78C643.757 96.9 643.697 97.0067 643.604 97.1C643.51 97.18 643.397 97.2267 643.264 97.24C643.13 97.2533 642.99 97.2133 642.844 97.12C642.444 96.8533 642.037 96.66 641.624 96.54C641.21 96.4067 640.804 96.34 640.404 96.34C639.657 96.34 639.09 96.4867 638.704 96.78C638.317 97.0733 638.124 97.46 638.124 97.94C638.124 98.3133 638.244 98.62 638.484 98.86C638.724 99.1 639.097 99.2733 639.604 99.38L641.424 99.76C642.29 99.9467 642.937 100.247 643.364 100.66C643.804 101.06 644.024 101.607 644.024 102.3C644.024 103.18 643.67 103.88 642.964 104.4C642.257 104.92 641.317 105.18 640.144 105.18ZM647.093 105.1C646.826 105.1 646.626 105.027 646.493 104.88C646.359 104.72 646.293 104.5 646.293 104.22V96.04C646.293 95.76 646.359 95.5467 646.493 95.4C646.626 95.2533 646.826 95.18 647.093 95.18C647.346 95.18 647.546 95.2533 647.693 95.4C647.839 95.5467 647.913 95.76 647.913 96.04V104.22C647.913 104.5 647.839 104.72 647.693 104.88C647.559 105.027 647.359 105.1 647.093 105.1ZM647.093 92.94C646.759 92.94 646.499 92.8533 646.313 92.68C646.126 92.4933 646.033 92.2467 646.033 91.94C646.033 91.62 646.126 91.38 646.313 91.22C646.499 91.0467 646.759 90.96 647.093 90.96C647.439 90.96 647.699 91.0467 647.873 91.22C648.059 91.38 648.153 91.62 648.153 91.94C648.153 92.2467 648.059 92.4933 647.873 92.68C647.699 92.8533 647.439 92.94 647.093 92.94ZM653.701 105.18C652.741 105.18 652.008 104.887 651.501 104.3C650.994 103.713 650.741 102.873 650.741 101.78V91.58C650.741 91.3133 650.808 91.1133 650.941 90.98C651.074 90.8333 651.274 90.76 651.541 90.76C651.794 90.76 651.994 90.8333 652.141 90.98C652.288 91.1133 652.361 91.3133 652.361 91.58V101.66C652.361 102.38 652.501 102.92 652.781 103.28C653.074 103.627 653.501 103.8 654.061 103.8C654.181 103.8 654.288 103.793 654.381 103.78C654.474 103.767 654.568 103.76 654.661 103.76C654.808 103.747 654.908 103.78 654.961 103.86C655.028 103.94 655.061 104.1 655.061 104.34C655.061 104.58 655.008 104.76 654.901 104.88C654.794 105 654.621 105.08 654.381 105.12C654.274 105.133 654.161 105.147 654.041 105.16C653.921 105.173 653.808 105.18 653.701 105.18ZM658.404 108.74C658.204 108.74 658.044 108.687 657.924 108.58C657.804 108.473 657.731 108.327 657.704 108.14C657.691 107.967 657.724 107.787 657.804 107.6L659.184 104.5V105.2L655.344 96.28C655.264 96.08 655.238 95.8933 655.264 95.72C655.291 95.5467 655.371 95.4067 655.504 95.3C655.638 95.1933 655.824 95.14 656.064 95.14C656.278 95.14 656.444 95.1867 656.564 95.28C656.684 95.3733 656.791 95.54 656.884 95.78L660.164 103.82H659.624L662.944 95.78C663.051 95.54 663.164 95.3733 663.284 95.28C663.404 95.1867 663.578 95.14 663.804 95.14C664.018 95.14 664.178 95.1933 664.284 95.3C664.404 95.4067 664.471 95.5467 664.484 95.72C664.511 95.88 664.484 96.06 664.404 96.26L659.284 108.1C659.178 108.34 659.058 108.507 658.924 108.6C658.804 108.693 658.631 108.74 658.404 108.74ZM674.334 105.18C673.667 105.18 673.067 105.053 672.534 104.8C672.014 104.533 671.601 104.173 671.294 103.72C670.987 103.267 670.834 102.76 670.834 102.2C670.834 101.48 671.014 100.913 671.374 100.5C671.747 100.087 672.354 99.7933 673.194 99.62C674.047 99.4467 675.207 99.36 676.674 99.36H677.574V100.42H676.694C675.614 100.42 674.761 100.473 674.134 100.58C673.521 100.673 673.087 100.84 672.834 101.08C672.594 101.32 672.474 101.66 672.474 102.1C672.474 102.647 672.661 103.093 673.034 103.44C673.421 103.787 673.941 103.96 674.594 103.96C675.127 103.96 675.594 103.833 675.994 103.58C676.407 103.327 676.727 102.98 676.954 102.54C677.194 102.1 677.314 101.593 677.314 101.02V98.74C677.314 97.9133 677.147 97.32 676.814 96.96C676.481 96.5867 675.934 96.4 675.174 96.4C674.707 96.4 674.241 96.46 673.774 96.58C673.307 96.7 672.814 96.8933 672.294 97.16C672.107 97.2533 671.947 97.2867 671.814 97.26C671.681 97.22 671.574 97.1467 671.494 97.04C671.414 96.9333 671.367 96.8133 671.354 96.68C671.341 96.5333 671.367 96.3933 671.434 96.26C671.514 96.1267 671.634 96.02 671.794 95.94C672.381 95.6467 672.961 95.4333 673.534 95.3C674.107 95.1667 674.654 95.1 675.174 95.1C676.014 95.1 676.707 95.24 677.254 95.52C677.801 95.7867 678.207 96.2 678.474 96.76C678.741 97.3067 678.874 98.0133 678.874 98.88V104.3C678.874 104.567 678.807 104.773 678.674 104.92C678.554 105.067 678.374 105.14 678.134 105.14C677.881 105.14 677.687 105.067 677.554 104.92C677.421 104.773 677.354 104.567 677.354 104.3V102.74H677.534C677.427 103.247 677.221 103.68 676.914 104.04C676.621 104.4 676.254 104.68 675.814 104.88C675.374 105.08 674.881 105.18 674.334 105.18ZM685.799 105.18C684.826 105.18 683.986 104.967 683.279 104.54C682.573 104.113 682.026 103.52 681.639 102.76C681.266 101.987 681.079 101.093 681.079 100.08C681.079 99.3067 681.186 98.6133 681.399 98C681.613 97.3867 681.926 96.8667 682.339 96.44C682.753 96 683.246 95.6667 683.819 95.44C684.406 95.2133 685.066 95.1 685.799 95.1C686.279 95.1 686.779 95.1733 687.299 95.32C687.819 95.4667 688.293 95.72 688.719 96.08C688.853 96.1733 688.939 96.2867 688.979 96.42C689.019 96.5533 689.019 96.6867 688.979 96.82C688.939 96.94 688.873 97.0467 688.779 97.14C688.686 97.22 688.566 97.2667 688.419 97.28C688.286 97.2933 688.146 97.2467 687.999 97.14C687.653 96.8733 687.299 96.6867 686.939 96.58C686.579 96.4733 686.233 96.42 685.899 96.42C685.379 96.42 684.926 96.5067 684.539 96.68C684.153 96.84 683.826 97.0733 683.559 97.38C683.293 97.6867 683.086 98.0667 682.939 98.52C682.806 98.9733 682.739 99.5 682.739 100.1C682.739 101.26 683.013 102.18 683.559 102.86C684.106 103.527 684.886 103.86 685.899 103.86C686.233 103.86 686.573 103.807 686.919 103.7C687.279 103.593 687.639 103.407 687.999 103.14C688.146 103.033 688.286 102.987 688.419 103C688.553 103.013 688.666 103.067 688.759 103.16C688.853 103.24 688.913 103.347 688.939 103.48C688.979 103.613 688.979 103.747 688.939 103.88C688.899 104 688.813 104.107 688.679 104.2C688.253 104.547 687.786 104.8 687.279 104.96C686.773 105.107 686.279 105.18 685.799 105.18ZM694.662 105.18C693.689 105.18 692.849 104.967 692.142 104.54C691.435 104.113 690.889 103.52 690.502 102.76C690.129 101.987 689.942 101.093 689.942 100.08C689.942 99.3067 690.049 98.6133 690.262 98C690.475 97.3867 690.789 96.8667 691.202 96.44C691.615 96 692.109 95.6667 692.682 95.44C693.269 95.2133 693.929 95.1 694.662 95.1C695.142 95.1 695.642 95.1733 696.162 95.32C696.682 95.4667 697.155 95.72 697.582 96.08C697.715 96.1733 697.802 96.2867 697.842 96.42C697.882 96.5533 697.882 96.6867 697.842 96.82C697.802 96.94 697.735 97.0467 697.642 97.14C697.549 97.22 697.429 97.2667 697.282 97.28C697.149 97.2933 697.009 97.2467 696.862 97.14C696.515 96.8733 696.162 96.6867 695.802 96.58C695.442 96.4733 695.095 96.42 694.762 96.42C694.242 96.42 693.789 96.5067 693.402 96.68C693.015 96.84 692.689 97.0733 692.422 97.38C692.155 97.6867 691.949 98.0667 691.802 98.52C691.669 98.9733 691.602 99.5 691.602 100.1C691.602 101.26 691.875 102.18 692.422 102.86C692.969 103.527 693.749 103.86 694.762 103.86C695.095 103.86 695.435 103.807 695.782 103.7C696.142 103.593 696.502 103.407 696.862 103.14C697.009 103.033 697.149 102.987 697.282 103C697.415 103.013 697.529 103.067 697.622 103.16C697.715 103.24 697.775 103.347 697.802 103.48C697.842 103.613 697.842 103.747 697.802 103.88C697.762 104 697.675 104.107 697.542 104.2C697.115 104.547 696.649 104.8 696.142 104.96C695.635 105.107 695.142 105.18 694.662 105.18ZM703.784 105.18C702.758 105.18 701.871 104.98 701.124 104.58C700.391 104.167 699.818 103.587 699.404 102.84C699.004 102.093 698.804 101.2 698.804 100.16C698.804 99.1467 699.004 98.2667 699.404 97.52C699.804 96.76 700.351 96.1667 701.044 95.74C701.751 95.3133 702.564 95.1 703.484 95.1C704.138 95.1 704.724 95.2133 705.244 95.44C705.764 95.6533 706.204 95.9667 706.564 96.38C706.938 96.7933 707.218 97.2933 707.404 97.88C707.604 98.4667 707.704 99.1267 707.704 99.86C707.704 100.073 707.644 100.233 707.524 100.34C707.404 100.433 707.231 100.48 707.004 100.48H700.044V99.42H706.624L706.304 99.68C706.304 98.96 706.198 98.3533 705.984 97.86C705.771 97.3533 705.458 96.9667 705.044 96.7C704.644 96.4333 704.138 96.3 703.524 96.3C702.844 96.3 702.264 96.46 701.784 96.78C701.318 97.0867 700.964 97.52 700.724 98.08C700.484 98.6267 700.364 99.2667 700.364 100V100.12C700.364 101.347 700.658 102.28 701.244 102.92C701.844 103.56 702.691 103.88 703.784 103.88C704.238 103.88 704.684 103.82 705.124 103.7C705.578 103.58 706.018 103.38 706.444 103.1C706.631 102.98 706.798 102.927 706.944 102.94C707.104 102.94 707.231 102.987 707.324 103.08C707.418 103.16 707.478 103.267 707.504 103.4C707.544 103.52 707.531 103.653 707.464 103.8C707.411 103.947 707.298 104.073 707.124 104.18C706.684 104.5 706.164 104.747 705.564 104.92C704.964 105.093 704.371 105.18 703.784 105.18ZM713.129 105.18C712.529 105.18 711.922 105.107 711.309 104.96C710.709 104.813 710.149 104.56 709.629 104.2C709.496 104.107 709.402 104 709.349 103.88C709.296 103.747 709.276 103.62 709.289 103.5C709.316 103.367 709.369 103.253 709.449 103.16C709.542 103.067 709.649 103.013 709.769 103C709.902 102.973 710.049 103 710.209 103.08C710.729 103.4 711.229 103.627 711.709 103.76C712.202 103.88 712.689 103.94 713.169 103.94C713.929 103.94 714.502 103.8 714.889 103.52C715.276 103.24 715.469 102.86 715.469 102.38C715.469 102.007 715.342 101.713 715.089 101.5C714.836 101.273 714.436 101.1 713.889 100.98L712.069 100.58C711.229 100.407 710.602 100.107 710.189 99.68C709.789 99.2533 709.589 98.7 709.589 98.02C709.589 97.42 709.742 96.9067 710.049 96.48C710.369 96.04 710.816 95.7 711.389 95.46C711.962 95.22 712.629 95.1 713.389 95.1C713.976 95.1 714.529 95.18 715.049 95.34C715.582 95.4867 716.062 95.7267 716.489 96.06C716.622 96.1533 716.709 96.2667 716.749 96.4C716.802 96.52 716.809 96.6467 716.769 96.78C716.742 96.9 716.682 97.0067 716.589 97.1C716.496 97.18 716.382 97.2267 716.249 97.24C716.116 97.2533 715.976 97.2133 715.829 97.12C715.429 96.8533 715.022 96.66 714.609 96.54C714.196 96.4067 713.789 96.34 713.389 96.34C712.642 96.34 712.076 96.4867 711.689 96.78C711.302 97.0733 711.109 97.46 711.109 97.94C711.109 98.3133 711.229 98.62 711.469 98.86C711.709 99.1 712.082 99.2733 712.589 99.38L714.409 99.76C715.276 99.9467 715.922 100.247 716.349 100.66C716.789 101.06 717.009 101.607 717.009 102.3C717.009 103.18 716.656 103.88 715.949 104.4C715.242 104.92 714.302 105.18 713.129 105.18ZM722.558 105.18C721.958 105.18 721.351 105.107 720.738 104.96C720.138 104.813 719.578 104.56 719.058 104.2C718.924 104.107 718.831 104 718.778 103.88C718.724 103.747 718.704 103.62 718.718 103.5C718.744 103.367 718.798 103.253 718.878 103.16C718.971 103.067 719.078 103.013 719.198 103C719.331 102.973 719.478 103 719.638 103.08C720.158 103.4 720.658 103.627 721.138 103.76C721.631 103.88 722.118 103.94 722.598 103.94C723.358 103.94 723.931 103.8 724.318 103.52C724.704 103.24 724.898 102.86 724.898 102.38C724.898 102.007 724.771 101.713 724.518 101.5C724.264 101.273 723.864 101.1 723.318 100.98L721.498 100.58C720.658 100.407 720.031 100.107 719.618 99.68C719.218 99.2533 719.018 98.7 719.018 98.02C719.018 97.42 719.171 96.9067 719.478 96.48C719.798 96.04 720.244 95.7 720.818 95.46C721.391 95.22 722.058 95.1 722.818 95.1C723.404 95.1 723.958 95.18 724.478 95.34C725.011 95.4867 725.491 95.7267 725.918 96.06C726.051 96.1533 726.138 96.2667 726.178 96.4C726.231 96.52 726.238 96.6467 726.198 96.78C726.171 96.9 726.111 97.0067 726.018 97.1C725.924 97.18 725.811 97.2267 725.678 97.24C725.544 97.2533 725.404 97.2133 725.258 97.12C724.858 96.8533 724.451 96.66 724.038 96.54C723.624 96.4067 723.218 96.34 722.818 96.34C722.071 96.34 721.504 96.4867 721.118 96.78C720.731 97.0733 720.538 97.46 720.538 97.94C720.538 98.3133 720.658 98.62 720.898 98.86C721.138 99.1 721.511 99.2733 722.018 99.38L723.838 99.76C724.704 99.9467 725.351 100.247 725.778 100.66C726.218 101.06 726.438 101.607 726.438 102.3C726.438 103.18 726.084 103.88 725.378 104.4C724.671 104.92 723.731 105.18 722.558 105.18ZM729.507 105.1C729.24 105.1 729.04 105.027 728.907 104.88C728.773 104.72 728.707 104.5 728.707 104.22V96.04C728.707 95.76 728.773 95.5467 728.907 95.4C729.04 95.2533 729.24 95.18 729.507 95.18C729.76 95.18 729.96 95.2533 730.107 95.4C730.253 95.5467 730.327 95.76 730.327 96.04V104.22C730.327 104.5 730.253 104.72 730.107 104.88C729.973 105.027 729.773 105.1 729.507 105.1ZM729.507 92.94C729.173 92.94 728.913 92.8533 728.727 92.68C728.54 92.4933 728.447 92.2467 728.447 91.94C728.447 91.62 728.54 91.38 728.727 91.22C728.913 91.0467 729.173 90.96 729.507 90.96C729.853 90.96 730.113 91.0467 730.287 91.22C730.473 91.38 730.567 91.62 730.567 91.94C730.567 92.2467 730.473 92.4933 730.287 92.68C730.113 92.8533 729.853 92.94 729.507 92.94ZM738.075 105.18C737.195 105.18 736.435 104.953 735.795 104.5C735.168 104.047 734.748 103.44 734.535 102.68L734.755 102.46V104.3C734.755 104.567 734.682 104.773 734.535 104.92C734.402 105.067 734.208 105.14 733.955 105.14C733.688 105.14 733.488 105.067 733.355 104.92C733.222 104.773 733.155 104.567 733.155 104.3V91.58C733.155 91.3133 733.222 91.1133 733.355 90.98C733.488 90.8333 733.688 90.76 733.955 90.76C734.208 90.76 734.408 90.8333 734.555 90.98C734.702 91.1133 734.775 91.3133 734.775 91.58V97.54H734.535C734.762 96.7933 735.188 96.2 735.815 95.76C736.442 95.32 737.195 95.1 738.075 95.1C738.955 95.1 739.715 95.3067 740.355 95.72C740.995 96.12 741.488 96.7 741.835 97.46C742.195 98.2067 742.375 99.1 742.375 100.14C742.375 101.167 742.195 102.06 741.835 102.82C741.488 103.567 740.988 104.147 740.335 104.56C739.695 104.973 738.942 105.18 738.075 105.18ZM737.735 103.88C738.348 103.88 738.875 103.733 739.315 103.44C739.768 103.147 740.115 102.72 740.355 102.16C740.608 101.6 740.735 100.927 740.735 100.14C740.735 98.9267 740.462 98 739.915 97.36C739.382 96.72 738.655 96.4 737.735 96.4C737.135 96.4 736.608 96.5467 736.155 96.84C735.702 97.12 735.348 97.54 735.095 98.1C734.855 98.6467 734.735 99.3267 734.735 100.14C734.735 101.34 735.008 102.267 735.555 102.92C736.102 103.56 736.828 103.88 737.735 103.88ZM747.575 105.18C746.615 105.18 745.882 104.887 745.375 104.3C744.869 103.713 744.615 102.873 744.615 101.78V91.58C744.615 91.3133 744.682 91.1133 744.815 90.98C744.949 90.8333 745.149 90.76 745.415 90.76C745.669 90.76 745.869 90.8333 746.015 90.98C746.162 91.1133 746.235 91.3133 746.235 91.58V101.66C746.235 102.38 746.375 102.92 746.655 103.28C746.949 103.627 747.375 103.8 747.935 103.8C748.055 103.8 748.162 103.793 748.255 103.78C748.349 103.767 748.442 103.76 748.535 103.76C748.682 103.747 748.782 103.78 748.835 103.86C748.902 103.94 748.935 104.1 748.935 104.34C748.935 104.58 748.882 104.76 748.775 104.88C748.669 105 748.495 105.08 748.255 105.12C748.149 105.133 748.035 105.147 747.915 105.16C747.795 105.173 747.682 105.18 747.575 105.18ZM754.616 105.18C753.589 105.18 752.702 104.98 751.956 104.58C751.222 104.167 750.649 103.587 750.236 102.84C749.836 102.093 749.636 101.2 749.636 100.16C749.636 99.1467 749.836 98.2667 750.236 97.52C750.636 96.76 751.182 96.1667 751.876 95.74C752.582 95.3133 753.396 95.1 754.316 95.1C754.969 95.1 755.556 95.2133 756.076 95.44C756.596 95.6533 757.036 95.9667 757.396 96.38C757.769 96.7933 758.049 97.2933 758.236 97.88C758.436 98.4667 758.536 99.1267 758.536 99.86C758.536 100.073 758.476 100.233 758.356 100.34C758.236 100.433 758.062 100.48 757.836 100.48H750.876V99.42H757.456L757.136 99.68C757.136 98.96 757.029 98.3533 756.816 97.86C756.602 97.3533 756.289 96.9667 755.876 96.7C755.476 96.4333 754.969 96.3 754.356 96.3C753.676 96.3 753.096 96.46 752.616 96.78C752.149 97.0867 751.796 97.52 751.556 98.08C751.316 98.6267 751.196 99.2667 751.196 100V100.12C751.196 101.347 751.489 102.28 752.076 102.92C752.676 103.56 753.522 103.88 754.616 103.88C755.069 103.88 755.516 103.82 755.956 103.7C756.409 103.58 756.849 103.38 757.276 103.1C757.462 102.98 757.629 102.927 757.776 102.94C757.936 102.94 758.062 102.987 758.156 103.08C758.249 103.16 758.309 103.267 758.336 103.4C758.376 103.52 758.362 103.653 758.296 103.8C758.242 103.947 758.129 104.073 757.956 104.18C757.516 104.5 756.996 104.747 756.396 104.92C755.796 105.093 755.202 105.18 754.616 105.18ZM761.46 105.08C761.127 105.08 760.86 104.98 760.66 104.78C760.46 104.567 760.36 104.3 760.36 103.98C760.36 103.66 760.46 103.4 760.66 103.2C760.86 102.987 761.127 102.88 761.46 102.88C761.793 102.88 762.053 102.987 762.24 103.2C762.44 103.4 762.54 103.66 762.54 103.98C762.54 104.3 762.44 104.567 762.24 104.78C762.053 104.98 761.793 105.08 761.46 105.08Z" fill="#647067"/>
<path d="M899.171 81H883C882.448 81 882 80.5523 882 80C882 79.4477 882.448 79 883 79H899.171C899.072 78.7375 898.891 78.4412 898.531 78.0179C898.131 77.5461 897.571 76.9853 896.767 76.1816L895.293 74.7071C894.902 74.3166 894.902 73.6834 895.293 73.2929C895.683 72.9024 896.317 72.9024 896.707 73.2929L898.212 74.7977C898.978 75.564 899.596 76.1821 900.056 76.7236C900.529 77.2811 900.893 77.8227 901.098 78.4549C901.425 79.4591 901.425 80.5409 901.098 81.5451C900.893 82.1773 900.529 82.7189 900.056 83.2764C899.596 83.8179 898.978 84.436 898.212 85.2023L896.707 86.7071C896.317 87.0976 895.683 87.0976 895.293 86.7071C894.902 86.3166 894.902 85.6834 895.293 85.2929L896.767 83.8184C897.571 83.0147 898.131 82.4539 898.531 81.9821C898.891 81.5588 899.072 81.2625 899.171 81Z" fill="#2F3C33"/>
</g>
<defs>
<filter id="filter0_d_1704_45580" x="0" y="0" width="952" height="176" filterUnits="userSpaceOnUse" color-interpolation-filters="sRGB">
<feFlood flood-opacity="0" result="BackgroundImageFix"/>
<feColorMatrix in="SourceAlpha" type="matrix" values="0 0 0 0 0 0 0 0 0 0 0 0 0 0 0 0 0 0 127 0" result="hardAlpha"/>
<feOffset dy="8"/>
<feGaussianBlur stdDeviation="8"/>
<feComposite in2="hardAlpha" operator="out"/>
<feColorMatrix type="matrix" values="0 0 0 0 0.184314 0 0 0 0 0.235294 0 0 0 0 0.2 0 0 0 0.05 0"/>
<feBlend mode="normal" in2="BackgroundImageFix" result="effect1_dropShadow_1704_45580"/>
<feBlend mode="normal" in="SourceGraphic" in2="effect1_dropShadow_1704_45580" result="shape"/>
</filter>
</defs>
</svg>
