<svg width="407" height="248" viewBox="0 0 407 248" fill="none" xmlns="http://www.w3.org/2000/svg">
<g filter="url(#filter0_d_1760_7239)">
<rect x="16.1665" y="8" width="374.333" height="216" rx="64" fill="white" shape-rendering="crispEdges"/>
<path d="M126.769 120C124.993 120 123.673 119.592 122.809 118.776C121.993 117.912 121.585 116.664 121.585 115.032C121.585 113.976 121.849 112.992 122.377 112.08C122.905 111.168 123.625 110.232 124.537 109.272L138.073 95.016C140.089 92.856 141.529 90.936 142.393 89.256C143.305 87.576 143.761 85.896 143.761 84.216C143.761 82.104 143.065 80.496 141.673 79.392C140.329 78.288 138.361 77.736 135.769 77.736C134.377 77.736 132.937 77.952 131.449 78.384C130.009 78.768 128.497 79.416 126.913 80.328C125.857 80.904 124.873 81.12 123.961 80.976C123.097 80.784 122.353 80.376 121.729 79.752C121.105 79.08 120.697 78.288 120.505 77.376C120.313 76.464 120.409 75.552 120.793 74.64C121.177 73.728 121.897 72.96 122.953 72.336C125.065 71.04 127.369 70.08 129.865 69.456C132.361 68.784 134.833 68.448 137.281 68.448C141.073 68.448 144.265 69.024 146.857 70.176C149.449 71.28 151.417 72.912 152.761 75.072C154.105 77.232 154.777 79.872 154.777 82.992C154.777 85.008 154.465 86.976 153.841 88.896C153.217 90.816 152.233 92.76 150.889 94.728C149.593 96.648 147.865 98.712 145.705 100.92L133.105 113.736V110.856H152.617C154.153 110.856 155.305 111.24 156.073 112.008C156.889 112.776 157.297 113.904 157.297 115.392C157.297 116.88 156.889 118.032 156.073 118.848C155.305 119.616 154.153 120 152.617 120H126.769ZM179.445 120.792C173.301 120.792 168.597 118.512 165.333 113.952C162.117 109.344 160.509 102.84 160.509 94.44C160.509 88.824 161.229 84.096 162.669 80.256C164.157 76.368 166.293 73.44 169.077 71.472C171.909 69.456 175.365 68.448 179.445 68.448C185.637 68.448 190.341 70.68 193.557 75.144C196.773 79.56 198.381 85.992 198.381 94.44C198.381 100.056 197.637 104.832 196.149 108.768C194.709 112.656 192.597 115.632 189.813 117.696C187.029 119.76 183.573 120.792 179.445 120.792ZM179.445 111.72C182.229 111.72 184.293 110.352 185.637 107.616C186.981 104.832 187.653 100.44 187.653 94.44C187.653 88.44 186.981 84.12 185.637 81.48C184.293 78.84 182.229 77.52 179.445 77.52C176.661 77.52 174.597 78.84 173.253 81.48C171.909 84.12 171.237 88.44 171.237 94.44C171.237 100.44 171.909 104.832 173.253 107.616C174.597 110.352 176.661 111.72 179.445 111.72ZM220.457 120.792C214.313 120.792 209.609 118.512 206.345 113.952C203.129 109.344 201.521 102.84 201.521 94.44C201.521 88.824 202.241 84.096 203.681 80.256C205.169 76.368 207.305 73.44 210.089 71.472C212.921 69.456 216.377 68.448 220.457 68.448C226.649 68.448 231.353 70.68 234.569 75.144C237.785 79.56 239.393 85.992 239.393 94.44C239.393 100.056 238.649 104.832 237.161 108.768C235.721 112.656 233.609 115.632 230.825 117.696C228.041 119.76 224.585 120.792 220.457 120.792ZM220.457 111.72C223.241 111.72 225.305 110.352 226.649 107.616C227.993 104.832 228.665 100.44 228.665 94.44C228.665 88.44 227.993 84.12 226.649 81.48C225.305 78.84 223.241 77.52 220.457 77.52C217.673 77.52 215.609 78.84 214.265 81.48C212.921 84.12 212.249 88.44 212.249 94.44C212.249 100.44 212.921 104.832 214.265 107.616C215.609 110.352 217.673 111.72 220.457 111.72Z" fill="#2F3C33"/>
<path d="M250.597 120.648C248.773 120.648 247.381 120.144 246.421 119.136C245.461 118.128 244.981 116.712 244.981 114.888V74.28C244.981 72.456 245.461 71.064 246.421 70.104C247.381 69.096 248.773 68.592 250.597 68.592C252.373 68.592 253.741 69.096 254.701 70.104C255.661 71.064 256.141 72.456 256.141 74.28V91.344H256.285L275.437 71.328C276.253 70.464 277.093 69.816 277.957 69.384C278.869 68.904 279.901 68.664 281.053 68.664C282.733 68.664 283.933 69.096 284.653 69.96C285.421 70.824 285.757 71.832 285.661 72.984C285.565 74.136 285.037 75.216 284.077 76.224L264.853 95.88L264.925 91.056L285.085 112.584C286.189 113.784 286.741 115.008 286.741 116.256C286.789 117.504 286.381 118.56 285.517 119.424C284.701 120.24 283.477 120.648 281.845 120.648C280.453 120.648 279.325 120.36 278.461 119.784C277.645 119.208 276.733 118.368 275.725 117.264L256.285 96.816H256.141V114.888C256.141 116.712 255.661 118.128 254.701 119.136C253.789 120.144 252.421 120.648 250.597 120.648Z" fill="#84CC16"/>
<path d="M103.166 152.114C103.687 151.929 103.96 151.358 103.776 150.837C103.592 150.317 103.021 150.044 102.5 150.228C100.948 150.776 99.8331 152.257 99.8331 154L99.833 157.138C99.8326 157.933 99.8323 158.524 99.9694 159.035C100.339 160.416 101.417 161.494 102.798 161.864C103.105 161.946 103.441 161.979 103.833 161.992V164C103.833 164.977 103.828 165.32 103.775 165.585C103.539 166.775 102.608 167.706 101.418 167.942C101.153 167.995 100.81 168 99.8331 168C98.8558 168 98.5132 167.995 98.2478 167.942C97.0577 167.706 96.1274 166.775 95.8907 165.585C95.8379 165.32 95.8331 164.977 95.8331 164V160C95.8331 159.972 95.8319 159.943 95.8296 159.916C96.8532 159.652 97.6351 158.803 97.801 157.743C97.8335 157.535 97.8333 157.306 97.8331 157.059L97.8331 157L97.8331 156.941C97.8333 156.694 97.8335 156.465 97.801 156.257C97.6216 155.111 96.7223 154.211 95.5758 154.032C95.3679 154 95.1387 154 94.8924 154L94.8331 154L94.7737 154C94.5275 154 94.2982 154 94.0904 154.032C92.9439 154.211 92.0445 155.111 91.8652 156.257C91.8326 156.465 91.8328 156.694 91.833 156.941L91.8331 157L91.833 157.059C91.8328 157.306 91.8326 157.535 91.8652 157.743C92.0311 158.803 92.8129 159.652 93.8366 159.916C93.8343 159.943 93.8331 159.972 93.8331 160L93.8331 164.116C93.8329 164.933 93.8327 165.491 93.9291 165.975C94.3237 167.959 95.8742 169.509 97.8576 169.904C98.3424 170 98.8997 170 99.7173 170H99.9488C100.766 170 101.324 170 101.809 169.904C103.792 169.509 105.342 167.959 105.737 165.975C105.833 165.491 105.833 164.933 105.833 164.116L105.833 161.992C106.225 161.979 106.561 161.946 106.868 161.864C108.249 161.494 109.327 160.416 109.697 159.035C109.834 158.524 109.834 157.933 109.833 157.138L109.833 154C109.833 152.257 108.719 150.776 107.166 150.228C106.646 150.044 106.074 150.317 105.89 150.837C105.706 151.358 105.979 151.929 106.5 152.114C107.278 152.389 107.833 153.131 107.833 154V157C107.833 157.994 107.824 158.295 107.765 158.518C107.58 159.208 107.041 159.747 106.351 159.932C106.128 159.991 105.827 160 104.833 160C103.839 160 103.538 159.991 103.315 159.932C102.625 159.747 102.086 159.208 101.901 158.518C101.842 158.295 101.833 157.994 101.833 157V154C101.833 153.131 102.388 152.389 103.166 152.114Z" fill="#647067"/>
<path d="M124.145 168C123.713 168 123.377 167.888 123.137 167.664C122.913 167.424 122.801 167.088 122.801 166.656V152.424C122.801 151.992 122.913 151.664 123.137 151.44C123.377 151.2 123.713 151.08 124.145 151.08H128.777C131.561 151.08 133.705 151.808 135.209 153.264C136.729 154.704 137.489 156.792 137.489 159.528C137.489 160.888 137.297 162.096 136.913 163.152C136.529 164.208 135.961 165.096 135.209 165.816C134.473 166.52 133.569 167.064 132.497 167.448C131.425 167.816 130.185 168 128.777 168H124.145ZM125.297 165.912H128.633C129.689 165.912 130.601 165.784 131.369 165.528C132.153 165.256 132.809 164.856 133.337 164.328C133.865 163.8 134.257 163.136 134.513 162.336C134.769 161.536 134.897 160.6 134.897 159.528C134.897 157.4 134.369 155.808 133.313 154.752C132.273 153.696 130.713 153.168 128.633 153.168H125.297V165.912ZM144.928 168.216C143.744 168.216 142.72 167.968 141.856 167.472C141.008 166.976 140.344 166.272 139.864 165.36C139.384 164.448 139.144 163.376 139.144 162.144C139.144 161.2 139.28 160.36 139.552 159.624C139.824 158.888 140.208 158.256 140.704 157.728C141.216 157.184 141.824 156.776 142.528 156.504C143.248 156.216 144.048 156.072 144.928 156.072C146.096 156.072 147.104 156.32 147.952 156.816C148.816 157.312 149.488 158.016 149.968 158.928C150.448 159.824 150.688 160.896 150.688 162.144C150.688 163.072 150.552 163.912 150.28 164.664C150.008 165.416 149.616 166.056 149.104 166.584C148.608 167.112 148 167.52 147.28 167.808C146.576 168.08 145.792 168.216 144.928 168.216ZM144.928 166.344C145.584 166.344 146.16 166.184 146.656 165.864C147.152 165.544 147.536 165.072 147.808 164.448C148.096 163.824 148.24 163.056 148.24 162.144C148.24 160.768 147.936 159.728 147.328 159.024C146.72 158.32 145.92 157.968 144.928 157.968C144.256 157.968 143.672 158.128 143.176 158.448C142.68 158.752 142.288 159.216 142 159.84C141.728 160.464 141.592 161.232 141.592 162.144C141.592 163.504 141.896 164.544 142.504 165.264C143.112 165.984 143.92 166.344 144.928 166.344ZM157.851 168.216C156.651 168.216 155.611 167.968 154.731 167.472C153.867 166.96 153.195 166.248 152.715 165.336C152.235 164.408 151.995 163.32 151.995 162.072C151.995 161.144 152.131 160.312 152.403 159.576C152.675 158.824 153.059 158.192 153.555 157.68C154.067 157.168 154.683 156.776 155.403 156.504C156.139 156.216 156.955 156.072 157.851 156.072C158.411 156.072 158.995 156.16 159.603 156.336C160.227 156.496 160.803 156.768 161.331 157.152C161.539 157.28 161.667 157.44 161.715 157.632C161.779 157.808 161.787 157.992 161.739 158.184C161.707 158.376 161.619 158.544 161.475 158.688C161.347 158.816 161.187 158.896 160.995 158.928C160.803 158.944 160.595 158.888 160.371 158.76C159.987 158.488 159.595 158.296 159.195 158.184C158.795 158.056 158.411 157.992 158.043 157.992C157.467 157.992 156.955 158.088 156.507 158.28C156.075 158.456 155.707 158.72 155.403 159.072C155.099 159.408 154.867 159.832 154.707 160.344C154.563 160.856 154.491 161.44 154.491 162.096C154.491 163.408 154.795 164.44 155.403 165.192C156.027 165.928 156.907 166.296 158.043 166.296C158.411 166.296 158.795 166.24 159.195 166.128C159.595 166.016 159.987 165.824 160.371 165.552C160.595 165.424 160.803 165.376 160.995 165.408C161.187 165.44 161.339 165.528 161.451 165.672C161.579 165.8 161.659 165.96 161.691 166.152C161.739 166.328 161.731 166.512 161.667 166.704C161.603 166.896 161.467 167.056 161.259 167.184C160.747 167.552 160.187 167.816 159.579 167.976C158.987 168.136 158.411 168.216 157.851 168.216ZM168.189 168.216C167.229 168.216 166.421 168.048 165.765 167.712C165.109 167.376 164.621 166.88 164.301 166.224C163.981 165.568 163.821 164.768 163.821 163.824V158.16H162.381C162.061 158.16 161.813 158.08 161.637 157.92C161.461 157.744 161.373 157.512 161.373 157.224C161.373 156.92 161.461 156.688 161.637 156.528C161.813 156.368 162.061 156.288 162.381 156.288H163.821V153.816C163.821 153.416 163.925 153.112 164.133 152.904C164.357 152.696 164.661 152.592 165.045 152.592C165.429 152.592 165.725 152.696 165.933 152.904C166.141 153.112 166.245 153.416 166.245 153.816V156.288H169.053C169.373 156.288 169.621 156.368 169.797 156.528C169.973 156.688 170.061 156.92 170.061 157.224C170.061 157.512 169.973 157.744 169.797 157.92C169.621 158.08 169.373 158.16 169.053 158.16H166.245V163.632C166.245 164.48 166.421 165.12 166.773 165.552C167.141 165.984 167.733 166.2 168.549 166.2C168.837 166.2 169.085 166.176 169.293 166.128C169.517 166.064 169.701 166.024 169.845 166.008C170.021 166.008 170.165 166.072 170.277 166.2C170.389 166.312 170.445 166.536 170.445 166.872C170.445 167.112 170.397 167.336 170.301 167.544C170.221 167.752 170.069 167.888 169.845 167.952C169.653 168.016 169.389 168.072 169.053 168.12C168.733 168.184 168.445 168.216 168.189 168.216ZM176.214 168.216C175.03 168.216 174.006 167.968 173.142 167.472C172.294 166.976 171.63 166.272 171.15 165.36C170.67 164.448 170.43 163.376 170.43 162.144C170.43 161.2 170.566 160.36 170.838 159.624C171.11 158.888 171.494 158.256 171.99 157.728C172.502 157.184 173.11 156.776 173.814 156.504C174.534 156.216 175.334 156.072 176.214 156.072C177.382 156.072 178.39 156.32 179.238 156.816C180.102 157.312 180.774 158.016 181.254 158.928C181.734 159.824 181.974 160.896 181.974 162.144C181.974 163.072 181.838 163.912 181.566 164.664C181.294 165.416 180.902 166.056 180.39 166.584C179.894 167.112 179.286 167.52 178.566 167.808C177.862 168.08 177.078 168.216 176.214 168.216ZM176.214 166.344C176.87 166.344 177.446 166.184 177.942 165.864C178.438 165.544 178.822 165.072 179.094 164.448C179.382 163.824 179.526 163.056 179.526 162.144C179.526 160.768 179.222 159.728 178.614 159.024C178.006 158.32 177.206 157.968 176.214 157.968C175.542 157.968 174.958 158.128 174.462 158.448C173.966 158.752 173.574 159.216 173.286 159.84C173.014 160.464 172.878 161.232 172.878 162.144C172.878 163.504 173.182 164.544 173.79 165.264C174.398 165.984 175.206 166.344 176.214 166.344ZM185.2 168.168C184.8 168.168 184.496 168.064 184.288 167.856C184.08 167.632 183.976 167.328 183.976 166.944V157.344C183.976 156.944 184.08 156.64 184.288 156.432C184.496 156.224 184.784 156.12 185.152 156.12C185.536 156.12 185.824 156.224 186.016 156.432C186.224 156.64 186.328 156.944 186.328 157.344V159.096H186.088C186.344 158.136 186.816 157.408 187.504 156.912C188.192 156.416 189.072 156.128 190.144 156.048C190.432 156.032 190.656 156.104 190.816 156.264C190.992 156.424 191.088 156.672 191.104 157.008C191.136 157.344 191.064 157.616 190.888 157.824C190.712 158.016 190.44 158.128 190.072 158.16L189.616 158.208C188.576 158.304 187.784 158.632 187.24 159.192C186.696 159.752 186.424 160.52 186.424 161.496V166.944C186.424 167.328 186.32 167.632 186.112 167.856C185.92 168.064 185.616 168.168 185.2 168.168ZM196.196 168.216C195.492 168.216 194.764 168.136 194.012 167.976C193.276 167.816 192.596 167.544 191.972 167.16C191.764 167.016 191.62 166.856 191.54 166.68C191.46 166.504 191.428 166.328 191.444 166.152C191.476 165.96 191.548 165.8 191.66 165.672C191.788 165.528 191.94 165.44 192.116 165.408C192.308 165.376 192.508 165.416 192.716 165.528C193.34 165.88 193.94 166.128 194.516 166.272C195.092 166.4 195.66 166.464 196.22 166.464C197.068 166.464 197.708 166.312 198.14 166.008C198.572 165.704 198.788 165.296 198.788 164.784C198.788 164.368 198.644 164.048 198.356 163.824C198.068 163.584 197.636 163.4 197.06 163.272L194.78 162.816C193.788 162.608 193.036 162.24 192.524 161.712C192.012 161.184 191.756 160.512 191.756 159.696C191.756 158.96 191.956 158.32 192.356 157.776C192.756 157.232 193.316 156.816 194.036 156.528C194.756 156.224 195.588 156.072 196.532 156.072C197.236 156.072 197.9 156.16 198.524 156.336C199.148 156.512 199.724 156.776 200.252 157.128C200.46 157.24 200.596 157.392 200.66 157.584C200.724 157.76 200.732 157.936 200.684 158.112C200.652 158.288 200.572 158.448 200.444 158.592C200.316 158.72 200.156 158.8 199.964 158.832C199.788 158.848 199.588 158.8 199.364 158.688C198.884 158.384 198.404 158.168 197.924 158.04C197.46 157.912 196.996 157.848 196.532 157.848C195.684 157.848 195.044 158.008 194.612 158.328C194.196 158.632 193.988 159.048 193.988 159.576C193.988 159.976 194.116 160.304 194.372 160.56C194.628 160.816 195.028 161 195.572 161.112L197.852 161.568C198.892 161.776 199.676 162.128 200.204 162.624C200.748 163.12 201.02 163.792 201.02 164.64C201.02 165.744 200.58 166.616 199.7 167.256C198.82 167.896 197.652 168.216 196.196 168.216ZM216.453 168.216C214.741 168.216 213.277 167.864 212.061 167.16C210.845 166.456 209.909 165.456 209.253 164.16C208.613 162.848 208.293 161.304 208.293 159.528C208.293 158.2 208.477 157.008 208.845 155.952C209.213 154.88 209.741 153.968 210.429 153.216C211.133 152.448 211.989 151.864 212.997 151.464C214.021 151.064 215.173 150.864 216.453 150.864C217.397 150.864 218.301 150.992 219.165 151.248C220.045 151.504 220.805 151.872 221.445 152.352C221.717 152.528 221.893 152.744 221.973 153C222.069 153.24 222.085 153.472 222.021 153.696C221.973 153.92 221.869 154.112 221.709 154.272C221.549 154.416 221.341 154.496 221.085 154.512C220.845 154.528 220.581 154.44 220.293 154.248C219.765 153.848 219.181 153.552 218.541 153.36C217.901 153.168 217.229 153.072 216.525 153.072C215.309 153.072 214.285 153.328 213.453 153.84C212.621 154.336 211.989 155.064 211.557 156.024C211.125 156.984 210.909 158.152 210.909 159.528C210.909 160.904 211.125 162.08 211.557 163.056C211.989 164.016 212.621 164.752 213.453 165.264C214.285 165.76 215.309 166.008 216.525 166.008C217.229 166.008 217.901 165.912 218.541 165.72C219.197 165.512 219.813 165.208 220.389 164.808C220.677 164.632 220.933 164.552 221.157 164.568C221.397 164.584 221.597 164.664 221.757 164.808C221.917 164.952 222.021 165.136 222.069 165.36C222.133 165.568 222.125 165.792 222.045 166.032C221.981 166.256 221.829 166.448 221.589 166.608C220.933 167.136 220.157 167.536 219.261 167.808C218.365 168.08 217.429 168.216 216.453 168.216ZM228.348 168.216C227.164 168.216 226.14 167.968 225.276 167.472C224.428 166.976 223.764 166.272 223.284 165.36C222.804 164.448 222.564 163.376 222.564 162.144C222.564 161.2 222.7 160.36 222.972 159.624C223.244 158.888 223.628 158.256 224.124 157.728C224.636 157.184 225.244 156.776 225.948 156.504C226.668 156.216 227.468 156.072 228.348 156.072C229.516 156.072 230.524 156.32 231.372 156.816C232.236 157.312 232.908 158.016 233.388 158.928C233.868 159.824 234.108 160.896 234.108 162.144C234.108 163.072 233.972 163.912 233.7 164.664C233.428 165.416 233.036 166.056 232.524 166.584C232.028 167.112 231.42 167.52 230.7 167.808C229.996 168.08 229.212 168.216 228.348 168.216ZM228.348 166.344C229.004 166.344 229.58 166.184 230.076 165.864C230.572 165.544 230.956 165.072 231.228 164.448C231.516 163.824 231.66 163.056 231.66 162.144C231.66 160.768 231.356 159.728 230.748 159.024C230.14 158.32 229.34 157.968 228.348 157.968C227.676 157.968 227.092 158.128 226.596 158.448C226.1 158.752 225.708 159.216 225.42 159.84C225.148 160.464 225.012 161.232 225.012 162.144C225.012 163.504 225.316 164.544 225.924 165.264C226.532 165.984 227.34 166.344 228.348 166.344ZM237.31 168.168C236.926 168.168 236.63 168.064 236.422 167.856C236.214 167.632 236.11 167.328 236.11 166.944V157.344C236.11 156.944 236.214 156.64 236.422 156.432C236.63 156.224 236.918 156.12 237.286 156.12C237.67 156.12 237.958 156.224 238.15 156.432C238.358 156.64 238.462 156.944 238.462 157.344V159.216L238.198 158.784C238.55 157.888 239.102 157.216 239.854 156.768C240.606 156.304 241.47 156.072 242.446 156.072C243.374 156.072 244.142 156.248 244.75 156.6C245.374 156.936 245.838 157.456 246.142 158.16C246.446 158.848 246.598 159.72 246.598 160.776V166.944C246.598 167.328 246.494 167.632 246.286 167.856C246.078 168.064 245.782 168.168 245.398 168.168C244.998 168.168 244.694 168.064 244.486 167.856C244.278 167.632 244.174 167.328 244.174 166.944V160.92C244.174 159.912 243.974 159.176 243.574 158.712C243.19 158.248 242.582 158.016 241.75 158.016C240.774 158.016 239.99 158.32 239.398 158.928C238.822 159.536 238.534 160.352 238.534 161.376V166.944C238.534 167.76 238.126 168.168 237.31 168.168ZM250.419 168.168C250.035 168.168 249.739 168.064 249.531 167.856C249.323 167.632 249.219 167.328 249.219 166.944V157.344C249.219 156.944 249.323 156.64 249.531 156.432C249.739 156.224 250.027 156.12 250.395 156.12C250.779 156.12 251.067 156.224 251.259 156.432C251.467 156.64 251.571 156.944 251.571 157.344V159.216L251.307 158.784C251.659 157.888 252.211 157.216 252.963 156.768C253.715 156.304 254.579 156.072 255.555 156.072C256.483 156.072 257.251 156.248 257.859 156.6C258.483 156.936 258.947 157.456 259.251 158.16C259.555 158.848 259.707 159.72 259.707 160.776V166.944C259.707 167.328 259.603 167.632 259.395 167.856C259.187 168.064 258.891 168.168 258.507 168.168C258.107 168.168 257.803 168.064 257.595 167.856C257.387 167.632 257.283 167.328 257.283 166.944V160.92C257.283 159.912 257.083 159.176 256.683 158.712C256.299 158.248 255.691 158.016 254.859 158.016C253.883 158.016 253.099 158.32 252.507 158.928C251.931 159.536 251.643 160.352 251.643 161.376V166.944C251.643 167.76 251.235 168.168 250.419 168.168ZM267.823 168.216C266.543 168.216 265.439 167.976 264.511 167.496C263.599 167 262.887 166.304 262.375 165.408C261.879 164.496 261.631 163.416 261.631 162.168C261.631 160.952 261.879 159.888 262.375 158.976C262.871 158.064 263.551 157.352 264.415 156.84C265.279 156.328 266.263 156.072 267.367 156.072C268.183 156.072 268.911 156.208 269.551 156.48C270.191 156.736 270.735 157.12 271.183 157.632C271.647 158.128 271.991 158.736 272.215 159.456C272.455 160.176 272.575 160.984 272.575 161.88C272.575 162.152 272.495 162.36 272.335 162.504C272.175 162.632 271.935 162.696 271.615 162.696H263.551V161.208H270.943L270.535 161.544C270.535 160.744 270.415 160.064 270.175 159.504C269.951 158.944 269.607 158.52 269.143 158.232C268.695 157.928 268.135 157.776 267.463 157.776C266.711 157.776 266.071 157.952 265.543 158.304C265.031 158.656 264.639 159.144 264.367 159.768C264.095 160.392 263.959 161.12 263.959 161.952V162.096C263.959 163.504 264.287 164.568 264.943 165.288C265.615 165.992 266.583 166.344 267.847 166.344C268.327 166.344 268.831 166.28 269.359 166.152C269.903 166.024 270.415 165.808 270.895 165.504C271.167 165.344 271.407 165.272 271.615 165.288C271.839 165.304 272.015 165.376 272.143 165.504C272.287 165.632 272.375 165.792 272.407 165.984C272.439 166.176 272.407 166.376 272.311 166.584C272.215 166.776 272.047 166.952 271.807 167.112C271.263 167.48 270.631 167.76 269.911 167.952C269.191 168.128 268.495 168.216 267.823 168.216ZM279.657 168.216C278.457 168.216 277.417 167.968 276.537 167.472C275.673 166.96 275.001 166.248 274.521 165.336C274.041 164.408 273.801 163.32 273.801 162.072C273.801 161.144 273.937 160.312 274.209 159.576C274.481 158.824 274.865 158.192 275.361 157.68C275.873 157.168 276.489 156.776 277.209 156.504C277.945 156.216 278.761 156.072 279.657 156.072C280.217 156.072 280.801 156.16 281.409 156.336C282.033 156.496 282.609 156.768 283.137 157.152C283.345 157.28 283.473 157.44 283.521 157.632C283.585 157.808 283.593 157.992 283.545 158.184C283.513 158.376 283.425 158.544 283.281 158.688C283.153 158.816 282.993 158.896 282.801 158.928C282.609 158.944 282.401 158.888 282.177 158.76C281.793 158.488 281.401 158.296 281.001 158.184C280.601 158.056 280.217 157.992 279.849 157.992C279.273 157.992 278.761 158.088 278.313 158.28C277.881 158.456 277.513 158.72 277.209 159.072C276.905 159.408 276.673 159.832 276.513 160.344C276.369 160.856 276.297 161.44 276.297 162.096C276.297 163.408 276.601 164.44 277.209 165.192C277.833 165.928 278.713 166.296 279.849 166.296C280.217 166.296 280.601 166.24 281.001 166.128C281.401 166.016 281.793 165.824 282.177 165.552C282.401 165.424 282.609 165.376 282.801 165.408C282.993 165.44 283.145 165.528 283.257 165.672C283.385 165.8 283.465 165.96 283.497 166.152C283.545 166.328 283.537 166.512 283.473 166.704C283.409 166.896 283.273 167.056 283.065 167.184C282.553 167.552 281.993 167.816 281.385 167.976C280.793 168.136 280.217 168.216 279.657 168.216ZM289.996 168.216C289.036 168.216 288.228 168.048 287.572 167.712C286.916 167.376 286.428 166.88 286.108 166.224C285.788 165.568 285.628 164.768 285.628 163.824V158.16H284.188C283.868 158.16 283.62 158.08 283.444 157.92C283.268 157.744 283.18 157.512 283.18 157.224C283.18 156.92 283.268 156.688 283.444 156.528C283.62 156.368 283.868 156.288 284.188 156.288H285.628V153.816C285.628 153.416 285.732 153.112 285.94 152.904C286.164 152.696 286.468 152.592 286.852 152.592C287.236 152.592 287.532 152.696 287.74 152.904C287.948 153.112 288.052 153.416 288.052 153.816V156.288H290.86C291.18 156.288 291.428 156.368 291.604 156.528C291.78 156.688 291.868 156.92 291.868 157.224C291.868 157.512 291.78 157.744 291.604 157.92C291.428 158.08 291.18 158.16 290.86 158.16H288.052V163.632C288.052 164.48 288.228 165.12 288.58 165.552C288.948 165.984 289.54 166.2 290.356 166.2C290.644 166.2 290.892 166.176 291.1 166.128C291.324 166.064 291.508 166.024 291.652 166.008C291.828 166.008 291.972 166.072 292.084 166.2C292.196 166.312 292.252 166.536 292.252 166.872C292.252 167.112 292.204 167.336 292.108 167.544C292.028 167.752 291.876 167.888 291.652 167.952C291.46 168.016 291.196 168.072 290.86 168.12C290.54 168.184 290.252 168.216 289.996 168.216ZM298.428 168.216C297.148 168.216 296.044 167.976 295.116 167.496C294.204 167 293.492 166.304 292.98 165.408C292.484 164.496 292.236 163.416 292.236 162.168C292.236 160.952 292.484 159.888 292.98 158.976C293.476 158.064 294.156 157.352 295.02 156.84C295.884 156.328 296.868 156.072 297.972 156.072C298.788 156.072 299.516 156.208 300.156 156.48C300.796 156.736 301.34 157.12 301.788 157.632C302.252 158.128 302.596 158.736 302.82 159.456C303.06 160.176 303.18 160.984 303.18 161.88C303.18 162.152 303.1 162.36 302.94 162.504C302.78 162.632 302.54 162.696 302.22 162.696H294.156V161.208H301.548L301.14 161.544C301.14 160.744 301.02 160.064 300.78 159.504C300.556 158.944 300.212 158.52 299.748 158.232C299.3 157.928 298.74 157.776 298.068 157.776C297.316 157.776 296.676 157.952 296.148 158.304C295.636 158.656 295.244 159.144 294.972 159.768C294.7 160.392 294.564 161.12 294.564 161.952V162.096C294.564 163.504 294.892 164.568 295.548 165.288C296.22 165.992 297.188 166.344 298.452 166.344C298.932 166.344 299.436 166.28 299.964 166.152C300.508 166.024 301.02 165.808 301.5 165.504C301.772 165.344 302.012 165.272 302.22 165.288C302.444 165.304 302.62 165.376 302.748 165.504C302.892 165.632 302.98 165.792 303.012 165.984C303.044 166.176 303.012 166.376 302.916 166.584C302.82 166.776 302.652 166.952 302.412 167.112C301.868 167.48 301.236 167.76 300.516 167.952C299.796 168.128 299.1 168.216 298.428 168.216ZM309.567 168.216C308.543 168.216 307.639 167.976 306.855 167.496C306.087 167 305.487 166.296 305.055 165.384C304.623 164.456 304.407 163.376 304.407 162.144C304.407 160.88 304.623 159.8 305.055 158.904C305.487 158.008 306.087 157.312 306.855 156.816C307.639 156.32 308.543 156.072 309.567 156.072C310.591 156.072 311.471 156.328 312.207 156.84C312.959 157.336 313.463 158.008 313.719 158.856H313.455V152.136C313.455 151.736 313.559 151.432 313.767 151.224C313.975 151.016 314.271 150.912 314.655 150.912C315.039 150.912 315.335 151.016 315.543 151.224C315.767 151.432 315.879 151.736 315.879 152.136V166.944C315.879 167.328 315.775 167.632 315.567 167.856C315.359 168.064 315.063 168.168 314.679 168.168C314.295 168.168 313.999 168.064 313.791 167.856C313.583 167.632 313.479 167.328 313.479 166.944V164.832L313.743 165.36C313.487 166.224 312.983 166.92 312.231 167.448C311.495 167.96 310.607 168.216 309.567 168.216ZM310.191 166.344C310.847 166.344 311.423 166.184 311.919 165.864C312.415 165.544 312.799 165.072 313.071 164.448C313.359 163.824 313.503 163.056 313.503 162.144C313.503 160.768 313.199 159.728 312.591 159.024C311.983 158.32 311.183 157.968 310.191 157.968C309.519 157.968 308.935 158.128 308.439 158.448C307.943 158.752 307.551 159.216 307.263 159.84C306.991 160.464 306.855 161.232 306.855 162.144C306.855 163.504 307.159 164.544 307.767 165.264C308.375 165.984 309.183 166.344 310.191 166.344Z" fill="#2F3C33"/>
</g>
<defs>
<filter id="filter0_d_1760_7239" x="0.166504" y="0" width="406.333" height="248" filterUnits="userSpaceOnUse" color-interpolation-filters="sRGB">
<feFlood flood-opacity="0" result="BackgroundImageFix"/>
<feColorMatrix in="SourceAlpha" type="matrix" values="0 0 0 0 0 0 0 0 0 0 0 0 0 0 0 0 0 0 127 0" result="hardAlpha"/>
<feOffset dy="8"/>
<feGaussianBlur stdDeviation="8"/>
<feComposite in2="hardAlpha" operator="out"/>
<feColorMatrix type="matrix" values="0 0 0 0 0.184314 0 0 0 0 0.235294 0 0 0 0 0.2 0 0 0 0.05 0"/>
<feBlend mode="normal" in2="BackgroundImageFix" result="effect1_dropShadow_1760_7239"/>
<feBlend mode="normal" in="SourceGraphic" in2="effect1_dropShadow_1760_7239" result="shape"/>
</filter>
</defs>
</svg>
