<svg width="220" height="261" viewBox="0 0 220 261" fill="none" xmlns="http://www.w3.org/2000/svg">
<g filter="url(#filter0_d_1770_25509)">
<rect x="32.5" y="16" width="155" height="197" rx="32" fill="#84CC16"/>
<path d="M49.676 47.112C49.452 47.112 49.27 47.0607 49.13 46.958C48.9993 46.8553 48.92 46.72 48.892 46.552C48.864 46.3747 48.8967 46.1787 48.99 45.964L52.686 37.774C52.8073 37.5033 52.952 37.312 53.12 37.2C53.2973 37.0787 53.498 37.018 53.722 37.018C53.9367 37.018 54.128 37.0787 54.296 37.2C54.4733 37.312 54.6227 37.5033 54.744 37.774L58.454 45.964C58.5567 46.1787 58.594 46.3747 58.566 46.552C58.538 46.7293 58.4587 46.8693 58.328 46.972C58.1973 47.0653 58.0247 47.112 57.81 47.112C57.5487 47.112 57.3433 47.0513 57.194 46.93C57.054 46.7993 56.928 46.6033 56.816 46.342L55.906 44.228L56.662 44.718H50.754L51.51 44.228L50.614 46.342C50.4927 46.6127 50.3667 46.8087 50.236 46.93C50.1053 47.0513 49.9187 47.112 49.676 47.112ZM53.694 39.076L51.734 43.738L51.37 43.29H56.046L55.696 43.738L53.722 39.076H53.694ZM60.752 47.112C60.4626 47.112 60.2386 47.0327 60.08 46.874C59.9306 46.706 59.856 46.4773 59.856 46.188V37.942C59.856 37.6433 59.9306 37.4147 60.08 37.256C60.2386 37.0973 60.4626 37.018 60.752 37.018C61.0413 37.018 61.2606 37.0973 61.41 37.256C61.5686 37.4147 61.648 37.6433 61.648 37.942V46.188C61.648 46.4773 61.5733 46.706 61.424 46.874C61.2746 47.0327 61.0506 47.112 60.752 47.112ZM70.7299 47.14C70.3193 47.14 69.9086 47.1073 69.4979 47.042C69.0873 46.986 68.6999 46.8973 68.3359 46.776C67.9719 46.6453 67.6453 46.4867 67.3559 46.3C67.1879 46.188 67.0713 46.0527 67.0059 45.894C66.9406 45.7353 66.9173 45.5813 66.9359 45.432C66.9639 45.2733 67.0246 45.138 67.1179 45.026C67.2206 44.9047 67.3466 44.83 67.4959 44.802C67.6453 44.774 67.8086 44.816 67.9859 44.928C68.3966 45.1707 68.8306 45.348 69.2879 45.46C69.7453 45.572 70.2259 45.628 70.7299 45.628C71.4673 45.628 72.0039 45.5067 72.3399 45.264C72.6759 45.012 72.8439 44.69 72.8439 44.298C72.8439 43.9713 72.7226 43.7147 72.4799 43.528C72.2466 43.3413 71.8406 43.1873 71.2619 43.066L69.7219 42.744C68.8353 42.5573 68.1726 42.2447 67.7339 41.806C67.3046 41.358 67.0899 40.77 67.0899 40.042C67.0899 39.5847 67.1833 39.1693 67.3699 38.796C67.5566 38.4227 67.8179 38.1007 68.1539 37.83C68.4993 37.5593 68.9053 37.354 69.3719 37.214C69.8479 37.0647 70.3706 36.99 70.9399 36.99C71.4999 36.99 72.0319 37.06 72.5359 37.2C73.0399 37.34 73.4926 37.5453 73.8939 37.816C74.0433 37.9187 74.1413 38.0447 74.1879 38.194C74.2439 38.3433 74.2579 38.4927 74.2299 38.642C74.2019 38.782 74.1366 38.9033 74.0339 39.006C73.9313 39.1087 73.8006 39.1693 73.6419 39.188C73.4926 39.2067 73.3199 39.16 73.1239 39.048C72.7786 38.852 72.4286 38.712 72.0739 38.628C71.7193 38.544 71.3366 38.502 70.9259 38.502C70.4966 38.502 70.1279 38.5627 69.8199 38.684C69.5119 38.8053 69.2739 38.978 69.1059 39.202C68.9473 39.4167 68.8679 39.6733 68.8679 39.972C68.8679 40.308 68.9799 40.5787 69.2039 40.784C69.4279 40.98 69.8106 41.134 70.3519 41.246L71.8779 41.568C72.8019 41.764 73.4879 42.072 73.9359 42.492C74.3933 42.912 74.6219 43.472 74.6219 44.172C74.6219 44.62 74.5286 45.026 74.3419 45.39C74.1646 45.754 73.9033 46.0667 73.5579 46.328C73.2219 46.5893 72.8159 46.79 72.3399 46.93C71.8639 47.07 71.3273 47.14 70.7299 47.14ZM78.33 47.14C77.7606 47.14 77.2893 47.0373 76.916 46.832C76.5426 46.6173 76.2626 46.3 76.076 45.88C75.8986 45.46 75.81 44.9373 75.81 44.312V40.924C75.81 40.6253 75.8846 40.406 76.034 40.266C76.1833 40.1167 76.398 40.042 76.678 40.042C76.958 40.042 77.1726 40.1167 77.322 40.266C77.4806 40.406 77.56 40.6253 77.56 40.924V44.34C77.56 44.8253 77.658 45.1847 77.854 45.418C78.05 45.6513 78.3626 45.768 78.792 45.768C79.2586 45.768 79.6413 45.6093 79.94 45.292C80.2386 44.9653 80.388 44.536 80.388 44.004V40.924C80.388 40.6253 80.4626 40.406 80.612 40.266C80.7613 40.1167 80.976 40.042 81.256 40.042C81.536 40.042 81.7506 40.1167 81.9 40.266C82.0586 40.406 82.138 40.6253 82.138 40.924V46.216C82.138 46.8133 81.8533 47.112 81.284 47.112C81.0133 47.112 80.8033 47.0373 80.654 46.888C80.5046 46.7293 80.43 46.5053 80.43 46.216V45.152L80.626 45.572C80.43 46.076 80.1313 46.4633 79.73 46.734C79.338 47.0047 78.8713 47.14 78.33 47.14ZM87.0114 49.66C86.5074 49.66 86.0174 49.6133 85.5414 49.52C85.0747 49.4267 84.65 49.282 84.2674 49.086C84.09 48.9927 83.9687 48.8807 83.9034 48.75C83.8474 48.6193 83.8287 48.484 83.8474 48.344C83.8754 48.2133 83.9314 48.0967 84.0154 47.994C84.1087 47.8913 84.2207 47.8213 84.3514 47.784C84.482 47.7467 84.6174 47.7653 84.7574 47.84C85.168 48.0453 85.5554 48.176 85.9194 48.232C86.2927 48.2973 86.61 48.33 86.8714 48.33C87.4967 48.33 87.9634 48.176 88.2714 47.868C88.5887 47.5693 88.7474 47.1213 88.7474 46.524V45.264H88.8734C88.7334 45.74 88.4394 46.1227 87.9914 46.412C87.5527 46.692 87.0534 46.832 86.4934 46.832C85.8774 46.832 85.3407 46.692 84.8834 46.412C84.426 46.1227 84.0714 45.7213 83.8194 45.208C83.5674 44.6947 83.4414 44.0973 83.4414 43.416C83.4414 42.9027 83.5114 42.4407 83.6514 42.03C83.8007 41.61 84.006 41.2507 84.2674 40.952C84.538 40.6533 84.86 40.4247 85.2334 40.266C85.616 40.098 86.036 40.014 86.4934 40.014C87.072 40.014 87.576 40.1587 88.0054 40.448C88.444 40.728 88.7287 41.1013 88.8594 41.568L88.7194 41.918V40.924C88.7194 40.6347 88.794 40.4153 88.9434 40.266C89.102 40.1167 89.3167 40.042 89.5874 40.042C89.8674 40.042 90.082 40.1167 90.2314 40.266C90.3807 40.4153 90.4554 40.6347 90.4554 40.924V46.314C90.4554 47.4247 90.1614 48.26 89.5734 48.82C88.9854 49.38 88.1314 49.66 87.0114 49.66ZM86.9694 45.502C87.3334 45.502 87.646 45.418 87.9074 45.25C88.1687 45.082 88.3694 44.844 88.5094 44.536C88.6587 44.2187 88.7334 43.8453 88.7334 43.416C88.7334 42.772 88.5747 42.268 88.2574 41.904C87.94 41.5307 87.5107 41.344 86.9694 41.344C86.6054 41.344 86.2927 41.428 86.0314 41.596C85.77 41.764 85.5647 42.002 85.4154 42.31C85.2754 42.618 85.2054 42.9867 85.2054 43.416C85.2054 44.06 85.364 44.5687 85.6814 44.942C85.9987 45.3153 86.428 45.502 86.9694 45.502ZM95.3206 49.66C94.8166 49.66 94.3266 49.6133 93.8506 49.52C93.3839 49.4267 92.9593 49.282 92.5766 49.086C92.3993 48.9927 92.2779 48.8807 92.2126 48.75C92.1566 48.6193 92.1379 48.484 92.1566 48.344C92.1846 48.2133 92.2406 48.0967 92.3246 47.994C92.4179 47.8913 92.5299 47.8213 92.6606 47.784C92.7913 47.7467 92.9266 47.7653 93.0666 47.84C93.4773 48.0453 93.8646 48.176 94.2286 48.232C94.6019 48.2973 94.9193 48.33 95.1806 48.33C95.8059 48.33 96.2726 48.176 96.5806 47.868C96.8979 47.5693 97.0566 47.1213 97.0566 46.524V45.264H97.1826C97.0426 45.74 96.7486 46.1227 96.3006 46.412C95.8619 46.692 95.3626 46.832 94.8026 46.832C94.1866 46.832 93.6499 46.692 93.1926 46.412C92.7353 46.1227 92.3806 45.7213 92.1286 45.208C91.8766 44.6947 91.7506 44.0973 91.7506 43.416C91.7506 42.9027 91.8206 42.4407 91.9606 42.03C92.1099 41.61 92.3153 41.2507 92.5766 40.952C92.8473 40.6533 93.1693 40.4247 93.5426 40.266C93.9253 40.098 94.3453 40.014 94.8026 40.014C95.3813 40.014 95.8853 40.1587 96.3146 40.448C96.7533 40.728 97.0379 41.1013 97.1686 41.568L97.0286 41.918V40.924C97.0286 40.6347 97.1033 40.4153 97.2526 40.266C97.4113 40.1167 97.6259 40.042 97.8966 40.042C98.1766 40.042 98.3913 40.1167 98.5406 40.266C98.6899 40.4153 98.7646 40.6347 98.7646 40.924V46.314C98.7646 47.4247 98.4706 48.26 97.8826 48.82C97.2946 49.38 96.4406 49.66 95.3206 49.66ZM95.2786 45.502C95.6426 45.502 95.9553 45.418 96.2166 45.25C96.4779 45.082 96.6786 44.844 96.8186 44.536C96.9679 44.2187 97.0426 43.8453 97.0426 43.416C97.0426 42.772 96.8839 42.268 96.5666 41.904C96.2493 41.5307 95.8199 41.344 95.2786 41.344C94.9146 41.344 94.6019 41.428 94.3406 41.596C94.0793 41.764 93.8739 42.002 93.7246 42.31C93.5846 42.618 93.5146 42.9867 93.5146 43.416C93.5146 44.06 93.6733 44.5687 93.9906 44.942C94.3079 45.3153 94.7373 45.502 95.2786 45.502ZM103.812 47.14C103.037 47.14 102.37 46.9953 101.81 46.706C101.25 46.4167 100.816 46.006 100.508 45.474C100.209 44.942 100.06 44.312 100.06 43.584C100.06 42.8747 100.204 42.254 100.494 41.722C100.792 41.19 101.198 40.7747 101.712 40.476C102.234 40.168 102.827 40.014 103.49 40.014C103.975 40.014 104.409 40.0933 104.792 40.252C105.184 40.4107 105.515 40.6393 105.786 40.938C106.066 41.2367 106.276 41.6007 106.416 42.03C106.565 42.45 106.64 42.926 106.64 43.458C106.64 43.626 106.579 43.7567 106.458 43.85C106.346 43.934 106.182 43.976 105.968 43.976H101.474V42.968H105.408L105.184 43.178C105.184 42.7487 105.118 42.3893 104.988 42.1C104.866 41.8107 104.684 41.5913 104.442 41.442C104.208 41.2833 103.914 41.204 103.56 41.204C103.168 41.204 102.832 41.2973 102.552 41.484C102.281 41.6613 102.071 41.918 101.922 42.254C101.782 42.5807 101.712 42.9727 101.712 43.43V43.528C101.712 44.2933 101.889 44.8673 102.244 45.25C102.608 45.6233 103.14 45.81 103.84 45.81C104.082 45.81 104.353 45.782 104.652 45.726C104.96 45.6607 105.249 45.5533 105.52 45.404C105.716 45.292 105.888 45.2453 106.038 45.264C106.187 45.2733 106.304 45.3247 106.388 45.418C106.481 45.5113 106.537 45.628 106.556 45.768C106.574 45.8987 106.546 46.034 106.472 46.174C106.406 46.314 106.29 46.4353 106.122 46.538C105.795 46.7433 105.417 46.8973 104.988 47C104.568 47.0933 104.176 47.14 103.812 47.14ZM110.392 47.14C109.99 47.14 109.566 47.098 109.118 47.014C108.67 46.93 108.268 46.7853 107.914 46.58C107.764 46.4867 107.657 46.3793 107.592 46.258C107.536 46.1273 107.512 46.0013 107.522 45.88C107.54 45.7493 107.587 45.6373 107.662 45.544C107.746 45.4507 107.848 45.39 107.97 45.362C108.1 45.334 108.24 45.3573 108.39 45.432C108.763 45.6093 109.113 45.7353 109.44 45.81C109.766 45.8753 110.088 45.908 110.406 45.908C110.854 45.908 111.185 45.8333 111.4 45.684C111.624 45.5253 111.736 45.32 111.736 45.068C111.736 44.8533 111.661 44.69 111.512 44.578C111.372 44.4567 111.157 44.368 110.868 44.312L109.468 44.046C108.889 43.934 108.446 43.724 108.138 43.416C107.839 43.0987 107.69 42.6927 107.69 42.198C107.69 41.75 107.811 41.3627 108.054 41.036C108.306 40.7093 108.651 40.4573 109.09 40.28C109.528 40.1027 110.032 40.014 110.602 40.014C111.012 40.014 111.395 40.0607 111.75 40.154C112.114 40.238 112.464 40.3733 112.8 40.56C112.94 40.6347 113.033 40.7327 113.08 40.854C113.136 40.9753 113.15 41.1013 113.122 41.232C113.094 41.3533 113.038 41.4653 112.954 41.568C112.87 41.6613 112.762 41.722 112.632 41.75C112.51 41.7687 112.37 41.7407 112.212 41.666C111.922 41.5167 111.642 41.4093 111.372 41.344C111.11 41.2787 110.858 41.246 110.616 41.246C110.158 41.246 109.818 41.3253 109.594 41.484C109.379 41.6427 109.272 41.8527 109.272 42.114C109.272 42.31 109.337 42.4733 109.468 42.604C109.598 42.7347 109.799 42.8233 110.07 42.87L111.47 43.136C112.076 43.248 112.534 43.4533 112.842 43.752C113.159 44.0507 113.318 44.452 113.318 44.956C113.318 45.6373 113.052 46.174 112.52 46.566C111.988 46.9487 111.278 47.14 110.392 47.14ZM117.649 47.14C117.043 47.14 116.534 47.0373 116.123 46.832C115.722 46.6267 115.423 46.328 115.227 45.936C115.031 45.5347 114.933 45.04 114.933 44.452V41.47H114.205C113.981 41.47 113.809 41.414 113.687 41.302C113.566 41.1807 113.505 41.0173 113.505 40.812C113.505 40.5973 113.566 40.434 113.687 40.322C113.809 40.21 113.981 40.154 114.205 40.154H114.933V38.88C114.933 38.5907 115.008 38.3713 115.157 38.222C115.316 38.0727 115.535 37.998 115.815 37.998C116.095 37.998 116.31 38.0727 116.459 38.222C116.609 38.3713 116.683 38.5907 116.683 38.88V40.154H118.167C118.391 40.154 118.564 40.21 118.685 40.322C118.807 40.434 118.867 40.5973 118.867 40.812C118.867 41.0173 118.807 41.1807 118.685 41.302C118.564 41.414 118.391 41.47 118.167 41.47H116.683V44.354C116.683 44.802 116.781 45.138 116.977 45.362C117.173 45.586 117.491 45.698 117.929 45.698C118.088 45.698 118.228 45.684 118.349 45.656C118.471 45.628 118.578 45.6093 118.671 45.6C118.783 45.5907 118.877 45.628 118.951 45.712C119.026 45.7867 119.063 45.9453 119.063 46.188C119.063 46.3747 119.031 46.5427 118.965 46.692C118.909 46.832 118.802 46.93 118.643 46.986C118.522 47.0233 118.363 47.056 118.167 47.084C117.971 47.1213 117.799 47.14 117.649 47.14ZM120.792 47.098C120.512 47.098 120.297 47.014 120.148 46.846C119.999 46.678 119.924 46.4447 119.924 46.146V41.008C119.924 40.7 119.999 40.4667 120.148 40.308C120.297 40.14 120.512 40.056 120.792 40.056C121.072 40.056 121.287 40.14 121.436 40.308C121.595 40.4667 121.674 40.7 121.674 41.008V46.146C121.674 46.4447 121.599 46.678 121.45 46.846C121.301 47.014 121.081 47.098 120.792 47.098ZM120.792 38.754C120.465 38.754 120.209 38.6747 120.022 38.516C119.845 38.348 119.756 38.1193 119.756 37.83C119.756 37.5313 119.845 37.3027 120.022 37.144C120.209 36.9853 120.465 36.906 120.792 36.906C121.128 36.906 121.385 36.9853 121.562 37.144C121.739 37.3027 121.828 37.5313 121.828 37.83C121.828 38.1193 121.739 38.348 121.562 38.516C121.385 38.6747 121.128 38.754 120.792 38.754ZM126.474 47.14C125.765 47.14 125.149 46.9953 124.626 46.706C124.104 46.4167 123.698 46.006 123.408 45.474C123.119 44.9327 122.974 44.298 122.974 43.57C122.974 43.0193 123.054 42.5293 123.212 42.1C123.38 41.6613 123.618 41.288 123.926 40.98C124.234 40.6627 124.603 40.4247 125.032 40.266C125.462 40.098 125.942 40.014 126.474 40.014C127.184 40.014 127.8 40.1587 128.322 40.448C128.845 40.7373 129.251 41.148 129.54 41.68C129.83 42.212 129.974 42.842 129.974 43.57C129.974 44.1207 129.89 44.6153 129.722 45.054C129.564 45.4927 129.33 45.8707 129.022 46.188C128.714 46.496 128.346 46.734 127.916 46.902C127.487 47.0607 127.006 47.14 126.474 47.14ZM126.474 45.81C126.82 45.81 127.123 45.726 127.384 45.558C127.646 45.39 127.846 45.1427 127.986 44.816C128.136 44.48 128.21 44.0647 128.21 43.57C128.21 42.8233 128.052 42.268 127.734 41.904C127.417 41.5307 126.997 41.344 126.474 41.344C126.129 41.344 125.826 41.428 125.564 41.596C125.303 41.7547 125.098 42.002 124.948 42.338C124.808 42.6647 124.738 43.0753 124.738 43.57C124.738 44.3073 124.897 44.8673 125.214 45.25C125.532 45.6233 125.952 45.81 126.474 45.81ZM132.147 47.112C131.867 47.112 131.652 47.0373 131.503 46.888C131.353 46.7293 131.279 46.5053 131.279 46.216V40.924C131.279 40.6347 131.353 40.4153 131.503 40.266C131.652 40.1167 131.862 40.042 132.133 40.042C132.403 40.042 132.613 40.1167 132.763 40.266C132.912 40.4153 132.987 40.6347 132.987 40.924V41.876L132.833 41.526C133.038 41.0313 133.355 40.658 133.785 40.406C134.223 40.1447 134.718 40.014 135.269 40.014C135.819 40.014 136.272 40.1167 136.627 40.322C136.981 40.5273 137.247 40.84 137.425 41.26C137.602 41.6707 137.691 42.1933 137.691 42.828V46.216C137.691 46.5053 137.616 46.7293 137.467 46.888C137.317 47.0373 137.103 47.112 136.823 47.112C136.543 47.112 136.323 47.0373 136.165 46.888C136.015 46.7293 135.941 46.5053 135.941 46.216V42.912C135.941 42.38 135.838 41.9927 135.633 41.75C135.437 41.5073 135.129 41.386 134.709 41.386C134.195 41.386 133.785 41.5493 133.477 41.876C133.178 42.1933 133.029 42.618 133.029 43.15V46.216C133.029 46.8133 132.735 47.112 132.147 47.112Z" fill="white"/>
<path d="M160.794 35.9803C159.263 34.7368 157.07 34.7368 155.54 35.9803C155.372 36.1165 155.2 36.2888 154.947 36.5419L154.596 36.8925C154.138 37.3499 153.827 37.6617 153.606 37.9847C152.639 39.4014 152.639 41.2659 153.606 42.6826C153.827 43.0056 154.138 43.3174 154.596 43.7748L157.165 46.3436C157.804 46.9822 158.319 47.4973 158.77 47.8803C159.234 48.2747 159.686 48.5778 160.213 48.749C161.049 49.0209 161.951 49.0209 162.788 48.749C163.315 48.5778 163.766 48.2747 164.23 47.8803C164.682 47.4973 165.197 46.9822 165.835 46.3435L168.404 43.7748C168.862 43.3174 169.174 43.0056 169.394 42.6826C170.361 41.2659 170.361 39.4014 169.394 37.9847C169.174 37.6617 168.862 37.3499 168.404 36.8925L168.054 36.5419C167.801 36.2888 167.628 36.1165 167.461 35.9803C165.93 34.7368 163.737 34.7368 162.206 35.9803C162.039 36.1165 161.866 36.2888 161.613 36.5419L161.578 36.5777C161.54 36.6158 161.519 36.6365 161.503 36.6515L161.5 36.6544L161.497 36.6515C161.482 36.6365 161.461 36.6158 161.423 36.5777L161.387 36.5419C161.134 36.2888 160.962 36.1165 160.794 35.9803Z" fill="#A3E635"/>
<path d="M54.308 80.264C53.62 80.264 52.924 80.168 52.22 79.976C51.516 79.784 50.86 79.496 50.252 79.112C49.932 78.952 49.708 78.728 49.58 78.44C49.468 78.136 49.436 77.832 49.484 77.528C49.532 77.224 49.652 76.96 49.844 76.736C50.036 76.496 50.276 76.344 50.564 76.28C50.868 76.2 51.212 76.248 51.596 76.424C52.092 76.696 52.564 76.888 53.012 77C53.476 77.112 53.924 77.168 54.356 77.168C55.204 77.168 55.924 76.976 56.516 76.592C57.108 76.208 57.548 75.632 57.836 74.864C58.14 74.08 58.292 73.128 58.292 72.008V70.448H58.628C58.5 71.2 58.236 71.848 57.836 72.392C57.436 72.936 56.932 73.352 56.324 73.64C55.716 73.928 55.044 74.072 54.308 74.072C53.364 74.072 52.516 73.84 51.764 73.376C51.012 72.896 50.42 72.24 49.988 71.408C49.556 70.576 49.34 69.64 49.34 68.6C49.34 67.48 49.58 66.488 50.06 65.624C50.54 64.744 51.212 64.056 52.076 63.56C52.94 63.064 53.932 62.816 55.052 62.816C56.508 62.816 57.732 63.152 58.724 63.824C59.732 64.48 60.5 65.448 61.028 66.728C61.556 67.992 61.82 69.52 61.82 71.312C61.82 72.736 61.644 74 61.292 75.104C60.956 76.208 60.468 77.144 59.828 77.912C59.188 78.68 58.396 79.264 57.452 79.664C56.524 80.064 55.476 80.264 54.308 80.264ZM55.268 71.168C55.764 71.168 56.196 71.056 56.564 70.832C56.948 70.592 57.244 70.264 57.452 69.848C57.66 69.432 57.764 68.96 57.764 68.432C57.764 67.888 57.66 67.408 57.452 66.992C57.244 66.576 56.948 66.256 56.564 66.032C56.196 65.808 55.764 65.696 55.268 65.696C54.772 65.696 54.34 65.808 53.972 66.032C53.604 66.256 53.308 66.576 53.084 66.992C52.876 67.408 52.772 67.888 52.772 68.432C52.772 68.96 52.876 69.432 53.084 69.848C53.308 70.264 53.604 70.592 53.972 70.832C54.34 71.056 54.772 71.168 55.268 71.168ZM66.6106 80.216C66.1466 80.216 65.7706 80.112 65.4826 79.904C65.1946 79.68 65.0266 79.392 64.9786 79.04C64.9306 78.688 65.0266 78.296 65.2666 77.864L72.2026 65V66.152H64.9546C64.4266 66.152 64.0266 66.024 63.7546 65.768C63.4826 65.496 63.3466 65.112 63.3466 64.616C63.3466 64.12 63.4826 63.744 63.7546 63.488C64.0266 63.216 64.4266 63.08 64.9546 63.08H74.0986C74.6106 63.08 75.0266 63.216 75.3466 63.488C75.6826 63.76 75.8506 64.144 75.8506 64.64C75.8506 65.072 75.7866 65.448 75.6586 65.768C75.5466 66.088 75.3946 66.432 75.2026 66.8L68.7226 79.016C68.4986 79.432 68.2186 79.736 67.8826 79.928C67.5466 80.12 67.1226 80.216 66.6106 80.216Z" fill="white"/>
<path d="M86.162 79.126C85.5647 79.126 85.0467 78.9767 84.608 78.678C84.1693 78.37 83.8753 77.964 83.726 77.46L83.88 77.208V78.384C83.88 78.608 83.8193 78.7853 83.698 78.916C83.5767 79.0373 83.4087 79.098 83.194 79.098C82.97 79.098 82.7973 79.0373 82.676 78.916C82.5547 78.7853 82.494 78.608 82.494 78.384V69.746C82.494 69.5127 82.5547 69.3353 82.676 69.214C82.7973 69.0927 82.97 69.032 83.194 69.032C83.418 69.032 83.5907 69.0927 83.712 69.214C83.8427 69.3353 83.908 69.5127 83.908 69.746V73.666H83.74C83.8893 73.1713 84.1833 72.7793 84.622 72.49C85.0607 72.1913 85.574 72.042 86.162 72.042C86.778 72.042 87.31 72.1867 87.758 72.476C88.206 72.7653 88.5513 73.1713 88.794 73.694C89.046 74.2167 89.172 74.8467 89.172 75.584C89.172 76.3027 89.046 76.9327 88.794 77.474C88.5513 78.006 88.2013 78.4167 87.744 78.706C87.296 78.986 86.7687 79.126 86.162 79.126ZM85.812 78.034C86.204 78.034 86.5447 77.9407 86.834 77.754C87.1233 77.5673 87.3473 77.292 87.506 76.928C87.6647 76.564 87.744 76.116 87.744 75.584C87.744 74.7813 87.5667 74.1747 87.212 73.764C86.8667 73.3533 86.4 73.148 85.812 73.148C85.4293 73.148 85.0887 73.2413 84.79 73.428C84.5007 73.6053 84.2767 73.876 84.118 74.24C83.9593 74.604 83.88 75.052 83.88 75.584C83.88 76.3773 84.0573 76.984 84.412 77.404C84.7667 77.824 85.2333 78.034 85.812 78.034ZM91.3255 81.618C91.1015 81.618 90.9288 81.5573 90.8075 81.436C90.6862 81.3147 90.6255 81.1373 90.6255 80.904V72.784C90.6255 72.5507 90.6862 72.3733 90.8075 72.252C90.9288 72.1307 91.0968 72.07 91.3115 72.07C91.5355 72.07 91.7082 72.1307 91.8295 72.252C91.9508 72.3733 92.0115 72.5507 92.0115 72.784V74.002L91.8575 73.708C92.0068 73.204 92.3008 72.8027 92.7395 72.504C93.1782 72.196 93.6962 72.042 94.2935 72.042C94.9002 72.042 95.4275 72.1867 95.8755 72.476C96.3328 72.7653 96.6828 73.1713 96.9255 73.694C97.1775 74.2167 97.3035 74.8467 97.3035 75.584C97.3035 76.3027 97.1775 76.9327 96.9255 77.474C96.6828 78.006 96.3375 78.4167 95.8895 78.706C95.4415 78.986 94.9095 79.126 94.2935 79.126C93.7055 79.126 93.1922 78.9767 92.7535 78.678C92.3148 78.3793 92.0208 77.9827 91.8715 77.488H92.0395V80.904C92.0395 81.1373 91.9742 81.3147 91.8435 81.436C91.7222 81.5573 91.5495 81.618 91.3255 81.618ZM93.9435 78.034C94.3355 78.034 94.6762 77.9407 94.9655 77.754C95.2548 77.5673 95.4788 77.292 95.6375 76.928C95.7962 76.564 95.8755 76.116 95.8755 75.584C95.8755 74.7813 95.6982 74.1747 95.3435 73.764C94.9982 73.3533 94.5315 73.148 93.9435 73.148C93.5608 73.148 93.2202 73.2413 92.9215 73.428C92.6322 73.6053 92.4082 73.876 92.2495 74.24C92.0908 74.604 92.0115 75.052 92.0115 75.584C92.0115 76.3773 92.1888 76.984 92.5435 77.404C92.8982 77.824 93.3648 78.034 93.9435 78.034ZM99.485 79.098C99.261 79.098 99.0883 79.0373 98.967 78.916C98.8456 78.7853 98.785 78.608 98.785 78.384V72.784C98.785 72.5507 98.8456 72.3733 98.967 72.252C99.0883 72.1307 99.2563 72.07 99.471 72.07C99.695 72.07 99.863 72.1307 99.975 72.252C100.096 72.3733 100.157 72.5507 100.157 72.784V73.932L100.003 73.624C100.19 73.1293 100.479 72.742 100.871 72.462C101.263 72.182 101.734 72.042 102.285 72.042C102.854 72.042 103.316 72.1773 103.671 72.448C104.026 72.7187 104.268 73.134 104.399 73.694H104.203C104.38 73.1807 104.684 72.7793 105.113 72.49C105.542 72.1913 106.042 72.042 106.611 72.042C107.134 72.042 107.563 72.1447 107.899 72.35C108.235 72.546 108.487 72.8493 108.655 73.26C108.823 73.6613 108.907 74.17 108.907 74.786V78.384C108.907 78.608 108.842 78.7853 108.711 78.916C108.59 79.0373 108.417 79.098 108.193 79.098C107.969 79.098 107.796 79.0373 107.675 78.916C107.554 78.7853 107.493 78.608 107.493 78.384V74.856C107.493 74.2773 107.39 73.8527 107.185 73.582C106.989 73.3113 106.662 73.176 106.205 73.176C105.692 73.176 105.286 73.3533 104.987 73.708C104.688 74.0627 104.539 74.5527 104.539 75.178V78.384C104.539 78.608 104.478 78.7853 104.357 78.916C104.236 79.0373 104.063 79.098 103.839 79.098C103.615 79.098 103.438 79.0373 103.307 78.916C103.186 78.7853 103.125 78.608 103.125 78.384V74.856C103.125 74.2773 103.027 73.8527 102.831 73.582C102.635 73.3113 102.308 73.176 101.851 73.176C101.338 73.176 100.932 73.3533 100.633 73.708C100.344 74.0627 100.199 74.5527 100.199 75.178V78.384C100.199 78.86 99.961 79.098 99.485 79.098Z" fill="#BEF264"/>
<path d="M47.5 197C59.5976 197 63.0854 139.786 78.4273 139.786C94.119 139.786 90.3633 182.214 106.476 182.214C124.118 182.214 121.323 107 138.232 107C155.141 107 156.094 148.786 171.5 148.786" stroke="#A3E635" stroke-width="4" stroke-linecap="round"/>
<path d="M47.5 197C52.5 177.769 61.5 164.308 76.8014 164.308C95.1183 164.308 91.9935 114.308 102.994 114.308C113.994 114.308 112.418 147.641 122.007 147.641C131.596 147.641 133.884 97 145.788 97C157.692 97 162.903 148.751 171.5 148.751" stroke="#ECFCCB" stroke-width="4" stroke-linecap="round"/>
</g>
<defs>
<filter id="filter0_d_1770_25509" x="0.5" y="0" width="219" height="261" filterUnits="userSpaceOnUse" color-interpolation-filters="sRGB">
<feFlood flood-opacity="0" result="BackgroundImageFix"/>
<feColorMatrix in="SourceAlpha" type="matrix" values="0 0 0 0 0 0 0 0 0 0 0 0 0 0 0 0 0 0 127 0" result="hardAlpha"/>
<feOffset dy="16"/>
<feGaussianBlur stdDeviation="16"/>
<feComposite in2="hardAlpha" operator="out"/>
<feColorMatrix type="matrix" values="0 0 0 0 0.517647 0 0 0 0 0.8 0 0 0 0 0.0862745 0 0 0 0.25 0"/>
<feBlend mode="normal" in2="BackgroundImageFix" result="effect1_dropShadow_1770_25509"/>
<feBlend mode="normal" in="SourceGraphic" in2="effect1_dropShadow_1770_25509" result="shape"/>
</filter>
</defs>
</svg>
