<svg width="158" height="197" viewBox="0 0 158 197" fill="none" xmlns="http://www.w3.org/2000/svg">
<rect width="158" height="197" rx="32" fill="white"/>
<path d="M17.176 30.612C16.952 30.612 16.77 30.5607 16.63 30.458C16.4993 30.3553 16.42 30.22 16.392 30.052C16.364 29.8747 16.3967 29.6787 16.49 29.464L20.186 21.274C20.3073 21.0033 20.452 20.812 20.62 20.7C20.7973 20.5787 20.998 20.518 21.222 20.518C21.4367 20.518 21.628 20.5787 21.796 20.7C21.9733 20.812 22.1227 21.0033 22.244 21.274L25.954 29.464C26.0567 29.6787 26.094 29.8747 26.066 30.052C26.038 30.2293 25.9587 30.3693 25.828 30.472C25.6973 30.5653 25.5247 30.612 25.31 30.612C25.0487 30.612 24.8433 30.5513 24.694 30.43C24.554 30.2993 24.428 30.1033 24.316 29.842L23.406 27.728L24.162 28.218H18.254L19.01 27.728L18.114 29.842C17.9927 30.1127 17.8667 30.3087 17.736 30.43C17.6053 30.5513 17.4187 30.612 17.176 30.612ZM21.194 22.576L19.234 27.238L18.87 26.79H23.546L23.196 27.238L21.222 22.576H21.194ZM28.252 30.612C27.9626 30.612 27.7386 30.5327 27.58 30.374C27.4306 30.206 27.356 29.9773 27.356 29.688V21.442C27.356 21.1433 27.4306 20.9147 27.58 20.756C27.7386 20.5973 27.9626 20.518 28.252 20.518C28.5413 20.518 28.7606 20.5973 28.91 20.756C29.0686 20.9147 29.148 21.1433 29.148 21.442V29.688C29.148 29.9773 29.0733 30.206 28.924 30.374C28.7746 30.5327 28.5506 30.612 28.252 30.612ZM35.6679 30.612C35.3973 30.612 35.1873 30.5373 35.0379 30.388C34.8979 30.2387 34.8279 30.024 34.8279 29.744V21.414C34.8279 21.1247 34.8979 20.9053 35.0379 20.756C35.1873 20.5973 35.3786 20.518 35.6119 20.518C35.8266 20.518 35.9853 20.56 36.0879 20.644C36.1999 20.7187 36.3306 20.8493 36.4799 21.036L41.8419 27.994H41.4779V21.372C41.4779 21.1013 41.5479 20.8913 41.6879 20.742C41.8373 20.5927 42.0473 20.518 42.3179 20.518C42.5886 20.518 42.7939 20.5927 42.9339 20.742C43.0739 20.8913 43.1439 21.1013 43.1439 21.372V29.772C43.1439 30.0333 43.0786 30.2387 42.9479 30.388C42.8173 30.5373 42.6399 30.612 42.4159 30.612C42.2013 30.612 42.0286 30.57 41.8979 30.486C41.7766 30.402 41.6413 30.2667 41.4919 30.08L36.1439 23.122H36.4939V29.744C36.4939 30.024 36.4239 30.2387 36.2839 30.388C36.1439 30.5373 35.9386 30.612 35.6679 30.612ZM47.4706 30.64C46.9012 30.64 46.4299 30.5373 46.0566 30.332C45.6832 30.1173 45.4032 29.8 45.2166 29.38C45.0392 28.96 44.9506 28.4373 44.9506 27.812V24.424C44.9506 24.1253 45.0252 23.906 45.1746 23.766C45.3239 23.6167 45.5386 23.542 45.8186 23.542C46.0986 23.542 46.3132 23.6167 46.4626 23.766C46.6212 23.906 46.7006 24.1253 46.7006 24.424V27.84C46.7006 28.3253 46.7986 28.6847 46.9946 28.918C47.1906 29.1513 47.5032 29.268 47.9326 29.268C48.3992 29.268 48.7819 29.1093 49.0806 28.792C49.3792 28.4653 49.5286 28.036 49.5286 27.504V24.424C49.5286 24.1253 49.6032 23.906 49.7526 23.766C49.9019 23.6167 50.1166 23.542 50.3966 23.542C50.6766 23.542 50.8912 23.6167 51.0406 23.766C51.1992 23.906 51.2786 24.1253 51.2786 24.424V29.716C51.2786 30.3133 50.9939 30.612 50.4246 30.612C50.1539 30.612 49.9439 30.5373 49.7946 30.388C49.6452 30.2293 49.5706 30.0053 49.5706 29.716V28.652L49.7666 29.072C49.5706 29.576 49.2719 29.9633 48.8706 30.234C48.4786 30.5047 48.0119 30.64 47.4706 30.64ZM56.096 30.64C55.4893 30.64 54.9807 30.5373 54.57 30.332C54.1687 30.1267 53.87 29.828 53.674 29.436C53.478 29.0347 53.38 28.54 53.38 27.952V24.97H52.652C52.428 24.97 52.2553 24.914 52.134 24.802C52.0127 24.6807 51.952 24.5173 51.952 24.312C51.952 24.0973 52.0127 23.934 52.134 23.822C52.2553 23.71 52.428 23.654 52.652 23.654H53.38V22.38C53.38 22.0907 53.4547 21.8713 53.604 21.722C53.7627 21.5727 53.982 21.498 54.262 21.498C54.542 21.498 54.7567 21.5727 54.906 21.722C55.0553 21.8713 55.13 22.0907 55.13 22.38V23.654H56.614C56.838 23.654 57.0107 23.71 57.132 23.822C57.2533 23.934 57.314 24.0973 57.314 24.312C57.314 24.5173 57.2533 24.6807 57.132 24.802C57.0107 24.914 56.838 24.97 56.614 24.97H55.13V27.854C55.13 28.302 55.228 28.638 55.424 28.862C55.62 29.086 55.9373 29.198 56.376 29.198C56.5347 29.198 56.6747 29.184 56.796 29.156C56.9173 29.128 57.0247 29.1093 57.118 29.1C57.23 29.0907 57.3233 29.128 57.398 29.212C57.4727 29.2867 57.51 29.4453 57.51 29.688C57.51 29.8747 57.4773 30.0427 57.412 30.192C57.356 30.332 57.2487 30.43 57.09 30.486C56.9687 30.5233 56.81 30.556 56.614 30.584C56.418 30.6213 56.2453 30.64 56.096 30.64ZM59.089 30.612C58.7997 30.612 58.5757 30.5373 58.417 30.388C58.2677 30.2293 58.193 30.0053 58.193 29.716V24.424C58.193 24.1347 58.2677 23.9153 58.417 23.766C58.5664 23.6167 58.7764 23.542 59.047 23.542C59.3177 23.542 59.5277 23.6167 59.677 23.766C59.8264 23.9153 59.901 24.1347 59.901 24.424V25.306H59.761C59.8917 24.746 60.1484 24.3213 60.531 24.032C60.9137 23.7427 61.4224 23.57 62.057 23.514C62.253 23.4953 62.407 23.5467 62.519 23.668C62.6404 23.78 62.7104 23.9573 62.729 24.2C62.7477 24.4333 62.6917 24.6247 62.561 24.774C62.4397 24.914 62.253 24.998 62.001 25.026L61.693 25.054C61.1237 25.11 60.6944 25.2873 60.405 25.586C60.1157 25.8753 59.971 26.286 59.971 26.818V29.716C59.971 30.0053 59.8964 30.2293 59.747 30.388C59.5977 30.5373 59.3784 30.612 59.089 30.612ZM64.4035 30.598C64.1235 30.598 63.9088 30.514 63.7595 30.346C63.6101 30.178 63.5355 29.9447 63.5355 29.646V24.508C63.5355 24.2 63.6101 23.9667 63.7595 23.808C63.9088 23.64 64.1235 23.556 64.4035 23.556C64.6835 23.556 64.8981 23.64 65.0475 23.808C65.2061 23.9667 65.2855 24.2 65.2855 24.508V29.646C65.2855 29.9447 65.2108 30.178 65.0615 30.346C64.9121 30.514 64.6928 30.598 64.4035 30.598ZM64.4035 22.254C64.0768 22.254 63.8201 22.1747 63.6335 22.016C63.4561 21.848 63.3675 21.6193 63.3675 21.33C63.3675 21.0313 63.4561 20.8027 63.6335 20.644C63.8201 20.4853 64.0768 20.406 64.4035 20.406C64.7395 20.406 64.9961 20.4853 65.1735 20.644C65.3508 20.8027 65.4395 21.0313 65.4395 21.33C65.4395 21.6193 65.3508 21.848 65.1735 22.016C64.9961 22.1747 64.7395 22.254 64.4035 22.254ZM70.0998 30.64C69.4932 30.64 68.9845 30.5373 68.5738 30.332C68.1725 30.1267 67.8738 29.828 67.6778 29.436C67.4818 29.0347 67.3838 28.54 67.3838 27.952V24.97H66.6558C66.4318 24.97 66.2592 24.914 66.1378 24.802C66.0165 24.6807 65.9558 24.5173 65.9558 24.312C65.9558 24.0973 66.0165 23.934 66.1378 23.822C66.2592 23.71 66.4318 23.654 66.6558 23.654H67.3838V22.38C67.3838 22.0907 67.4585 21.8713 67.6078 21.722C67.7665 21.5727 67.9858 21.498 68.2658 21.498C68.5458 21.498 68.7605 21.5727 68.9098 21.722C69.0592 21.8713 69.1338 22.0907 69.1338 22.38V23.654H70.6178C70.8418 23.654 71.0145 23.71 71.1358 23.822C71.2572 23.934 71.3178 24.0973 71.3178 24.312C71.3178 24.5173 71.2572 24.6807 71.1358 24.802C71.0145 24.914 70.8418 24.97 70.6178 24.97H69.1338V27.854C69.1338 28.302 69.2318 28.638 69.4278 28.862C69.6238 29.086 69.9412 29.198 70.3798 29.198C70.5385 29.198 70.6785 29.184 70.7998 29.156C70.9212 29.128 71.0285 29.1093 71.1218 29.1C71.2338 29.0907 71.3272 29.128 71.4018 29.212C71.4765 29.2867 71.5138 29.4453 71.5138 29.688C71.5138 29.8747 71.4812 30.0427 71.4158 30.192C71.3598 30.332 71.2525 30.43 71.0938 30.486C70.9725 30.5233 70.8138 30.556 70.6178 30.584C70.4218 30.6213 70.2492 30.64 70.0998 30.64ZM73.2426 30.598C72.9626 30.598 72.7479 30.514 72.5986 30.346C72.4493 30.178 72.3746 29.9447 72.3746 29.646V24.508C72.3746 24.2 72.4493 23.9667 72.5986 23.808C72.7479 23.64 72.9626 23.556 73.2426 23.556C73.5226 23.556 73.7373 23.64 73.8866 23.808C74.0453 23.9667 74.1246 24.2 74.1246 24.508V29.646C74.1246 29.9447 74.0499 30.178 73.9006 30.346C73.7513 30.514 73.5319 30.598 73.2426 30.598ZM73.2426 22.254C72.9159 22.254 72.6593 22.1747 72.4726 22.016C72.2953 21.848 72.2066 21.6193 72.2066 21.33C72.2066 21.0313 72.2953 20.8027 72.4726 20.644C72.6593 20.4853 72.9159 20.406 73.2426 20.406C73.5786 20.406 73.8353 20.4853 74.0126 20.644C74.1899 20.8027 74.2786 21.0313 74.2786 21.33C74.2786 21.6193 74.1899 21.848 74.0126 22.016C73.8353 22.1747 73.5786 22.254 73.2426 22.254ZM78.925 30.64C78.2156 30.64 77.5996 30.4953 77.077 30.206C76.5543 29.9167 76.1483 29.506 75.859 28.974C75.5696 28.4327 75.425 27.798 75.425 27.07C75.425 26.5193 75.5043 26.0293 75.663 25.6C75.831 25.1613 76.069 24.788 76.377 24.48C76.685 24.1627 77.0536 23.9247 77.483 23.766C77.9123 23.598 78.393 23.514 78.925 23.514C79.6343 23.514 80.2503 23.6587 80.773 23.948C81.2956 24.2373 81.7016 24.648 81.991 25.18C82.2803 25.712 82.425 26.342 82.425 27.07C82.425 27.6207 82.341 28.1153 82.173 28.554C82.0143 28.9927 81.781 29.3707 81.473 29.688C81.165 29.996 80.7963 30.234 80.367 30.402C79.9376 30.5607 79.457 30.64 78.925 30.64ZM78.925 29.31C79.2703 29.31 79.5736 29.226 79.835 29.058C80.0963 28.89 80.297 28.6427 80.437 28.316C80.5863 27.98 80.661 27.5647 80.661 27.07C80.661 26.3233 80.5023 25.768 80.185 25.404C79.8676 25.0307 79.4476 24.844 78.925 24.844C78.5796 24.844 78.2763 24.928 78.015 25.096C77.7536 25.2547 77.5483 25.502 77.399 25.838C77.259 26.1647 77.189 26.5753 77.189 27.07C77.189 27.8073 77.3476 28.3673 77.665 28.75C77.9823 29.1233 78.4023 29.31 78.925 29.31ZM84.5974 30.612C84.3174 30.612 84.1027 30.5373 83.9534 30.388C83.804 30.2293 83.7294 30.0053 83.7294 29.716V24.424C83.7294 24.1347 83.804 23.9153 83.9534 23.766C84.1027 23.6167 84.3127 23.542 84.5834 23.542C84.854 23.542 85.064 23.6167 85.2134 23.766C85.3627 23.9153 85.4374 24.1347 85.4374 24.424V25.376L85.2834 25.026C85.4887 24.5313 85.806 24.158 86.2354 23.906C86.674 23.6447 87.1687 23.514 87.7194 23.514C88.27 23.514 88.7227 23.6167 89.0774 23.822C89.432 24.0273 89.698 24.34 89.8754 24.76C90.0527 25.1707 90.1414 25.6933 90.1414 26.328V29.716C90.1414 30.0053 90.0667 30.2293 89.9174 30.388C89.768 30.5373 89.5534 30.612 89.2734 30.612C88.9934 30.612 88.774 30.5373 88.6154 30.388C88.466 30.2293 88.3914 30.0053 88.3914 29.716V26.412C88.3914 25.88 88.2887 25.4927 88.0834 25.25C87.8874 25.0073 87.5794 24.886 87.1594 24.886C86.646 24.886 86.2354 25.0493 85.9274 25.376C85.6287 25.6933 85.4794 26.118 85.4794 26.65V29.716C85.4794 30.3133 85.1854 30.612 84.5974 30.612Z" fill="#2F3C33"/>
<path fill-rule="evenodd" clip-rule="evenodd" d="M132.834 20.9993C132.834 20.0789 133.58 19.3327 134.501 19.3327C134.961 19.3327 135.334 18.9596 135.334 18.4993C135.334 18.0391 134.961 17.666 134.501 17.666C132.66 17.666 131.167 19.1584 131.167 20.9993V21.4422C131.081 21.3857 130.999 21.3195 130.923 21.2437C129.677 19.9978 127.657 19.9978 126.412 21.2437L125.583 22.0725L125.572 22.0832L125.572 22.0832L125.572 22.0832C125.493 22.162 125.439 22.2161 125.39 22.2691C124.309 23.4271 123.979 25.0976 124.537 26.5798C124.562 26.6476 124.592 26.7182 124.635 26.821L124.635 26.8211L124.635 26.8211L124.641 26.8351L126.812 32.0473C127.558 33.8371 129.882 34.2969 131.253 32.9258C131.666 32.5129 132.336 32.5129 132.748 32.9258C134.12 34.2969 136.443 33.8371 137.189 32.0473L139.361 26.8351L139.367 26.8212C139.41 26.7183 139.439 26.6476 139.465 26.5798C140.023 25.0976 139.692 23.4271 138.612 22.2691C138.562 22.2161 138.508 22.1619 138.429 22.0831L138.429 22.0831L138.419 22.0725L137.59 21.2437C136.344 19.9978 134.324 19.9978 133.078 21.2437C133.002 21.3196 132.92 21.3858 132.834 21.4423V20.9993ZM134.5 26.833C134.5 27.2932 134.127 27.6663 133.667 27.6663C133.207 27.6663 132.834 27.2932 132.834 26.833C132.834 26.3728 133.207 25.9997 133.667 25.9997C134.127 25.9997 134.5 26.3728 134.5 26.833ZM130.334 27.6663C130.794 27.6663 131.167 27.2932 131.167 26.833C131.167 26.3728 130.794 25.9997 130.334 25.9997C129.873 25.9997 129.5 26.3728 129.5 26.833C129.5 27.2932 129.873 27.6663 130.334 27.6663Z" fill="#C5C8C6"/>
<path d="M19.768 64C19.256 64 18.864 63.864 18.592 63.592C18.32 63.32 18.184 62.944 18.184 62.464C18.184 61.968 18.32 61.592 18.592 61.336C18.864 61.08 19.256 60.952 19.768 60.952H22.192V50.128H23.944L20.44 52.264C20.072 52.488 19.728 52.576 19.408 52.528C19.104 52.48 18.84 52.344 18.616 52.12C18.392 51.896 18.24 51.632 18.16 51.328C18.096 51.008 18.128 50.696 18.256 50.392C18.384 50.072 18.624 49.8 18.976 49.576L22.312 47.56C22.648 47.352 22.984 47.184 23.32 47.056C23.672 46.928 24.016 46.864 24.352 46.864C24.832 46.864 25.208 46.992 25.48 47.248C25.768 47.488 25.912 47.864 25.912 48.376V60.952H28.096C28.592 60.952 28.976 61.08 29.248 61.336C29.52 61.592 29.656 61.968 29.656 62.464C29.656 62.96 29.52 63.344 29.248 63.616C28.976 63.872 28.592 64 28.096 64H19.768ZM33.5346 66.736C33.2946 67.024 33.0386 67.184 32.7666 67.216C32.4946 67.264 32.2626 67.216 32.0706 67.072C31.8786 66.928 31.7666 66.72 31.7346 66.448C31.7186 66.192 31.8386 65.912 32.0946 65.608C32.4466 65.16 32.6866 64.72 32.8146 64.288C32.9426 63.856 33.0066 63.472 33.0066 63.136L33.1266 64.12C32.4866 64.12 31.9666 63.936 31.5666 63.568C31.1666 63.2 30.9666 62.696 30.9666 62.056C30.9666 61.464 31.1506 60.984 31.5186 60.616C31.8866 60.232 32.3906 60.04 33.0306 60.04C33.6866 60.04 34.1986 60.264 34.5666 60.712C34.9346 61.144 35.1186 61.76 35.1186 62.56C35.1186 62.976 35.0786 63.4 34.9986 63.832C34.9186 64.264 34.7666 64.72 34.5426 65.2C34.3186 65.68 33.9826 66.192 33.5346 66.736ZM42.889 64.264C42.073 64.264 41.233 64.16 40.369 63.952C39.505 63.744 38.713 63.432 37.993 63.016C37.625 62.808 37.369 62.552 37.225 62.248C37.097 61.944 37.057 61.632 37.105 61.312C37.169 60.992 37.297 60.72 37.489 60.496C37.697 60.256 37.953 60.104 38.257 60.04C38.577 59.976 38.929 60.048 39.313 60.256C39.873 60.544 40.441 60.768 41.017 60.928C41.609 61.088 42.209 61.168 42.817 61.168C43.425 61.168 43.945 61.064 44.377 60.856C44.809 60.648 45.137 60.36 45.361 59.992C45.585 59.624 45.697 59.192 45.697 58.696C45.697 57.928 45.449 57.312 44.953 56.848C44.473 56.384 43.817 56.152 42.985 56.152C42.569 56.152 42.145 56.224 41.713 56.368C41.297 56.496 40.865 56.728 40.417 57.064C40.257 57.192 40.049 57.312 39.793 57.424C39.537 57.536 39.265 57.592 38.977 57.592C38.481 57.592 38.113 57.48 37.873 57.256C37.633 57.016 37.513 56.672 37.513 56.224V48.688C37.513 48.16 37.649 47.76 37.921 47.488C38.209 47.216 38.609 47.08 39.121 47.08H46.825C47.353 47.08 47.753 47.216 48.025 47.488C48.297 47.744 48.433 48.12 48.433 48.616C48.433 49.096 48.297 49.472 48.025 49.744C47.753 50 47.353 50.128 46.825 50.128H41.089V54.712H40.177C40.577 54.216 41.105 53.832 41.761 53.56C42.417 53.288 43.137 53.152 43.921 53.152C44.993 53.152 45.929 53.384 46.729 53.848C47.529 54.296 48.153 54.928 48.601 55.744C49.049 56.56 49.273 57.504 49.273 58.576C49.273 59.696 49.017 60.688 48.505 61.552C47.993 62.4 47.257 63.064 46.297 63.544C45.337 64.024 44.201 64.264 42.889 64.264ZM53.7756 64.216C53.3116 64.216 52.9356 64.112 52.6476 63.904C52.3596 63.68 52.1916 63.392 52.1436 63.04C52.0956 62.688 52.1916 62.296 52.4316 61.864L59.3676 49V50.152H52.1196C51.5916 50.152 51.1916 50.024 50.9196 49.768C50.6476 49.496 50.5116 49.112 50.5116 48.616C50.5116 48.12 50.6476 47.744 50.9196 47.488C51.1916 47.216 51.5916 47.08 52.1196 47.08H61.2636C61.7756 47.08 62.1916 47.216 62.5116 47.488C62.8476 47.76 63.0156 48.144 63.0156 48.64C63.0156 49.072 62.9516 49.448 62.8236 49.768C62.7116 50.088 62.5596 50.432 62.3676 50.8L55.8876 63.016C55.6636 63.432 55.3836 63.736 55.0476 63.928C54.7116 64.12 54.2876 64.216 53.7756 64.216ZM70.7103 64.264C69.8943 64.264 69.0543 64.16 68.1903 63.952C67.3263 63.744 66.5343 63.432 65.8143 63.016C65.4463 62.808 65.1903 62.552 65.0463 62.248C64.9183 61.944 64.8783 61.632 64.9263 61.312C64.9903 60.992 65.1183 60.72 65.3103 60.496C65.5183 60.256 65.7743 60.104 66.0783 60.04C66.3983 59.976 66.7503 60.048 67.1343 60.256C67.6943 60.544 68.2623 60.768 68.8383 60.928C69.4303 61.088 70.0303 61.168 70.6383 61.168C71.2463 61.168 71.7663 61.064 72.1983 60.856C72.6303 60.648 72.9583 60.36 73.1823 59.992C73.4063 59.624 73.5183 59.192 73.5183 58.696C73.5183 57.928 73.2703 57.312 72.7743 56.848C72.2943 56.384 71.6383 56.152 70.8063 56.152C70.3903 56.152 69.9663 56.224 69.5343 56.368C69.1183 56.496 68.6863 56.728 68.2383 57.064C68.0783 57.192 67.8703 57.312 67.6143 57.424C67.3583 57.536 67.0863 57.592 66.7983 57.592C66.3023 57.592 65.9343 57.48 65.6943 57.256C65.4543 57.016 65.3343 56.672 65.3343 56.224V48.688C65.3343 48.16 65.4703 47.76 65.7423 47.488C66.0303 47.216 66.4303 47.08 66.9423 47.08H74.6463C75.1743 47.08 75.5743 47.216 75.8463 47.488C76.1183 47.744 76.2543 48.12 76.2543 48.616C76.2543 49.096 76.1183 49.472 75.8463 49.744C75.5743 50 75.1743 50.128 74.6463 50.128H68.9103V54.712H67.9983C68.3983 54.216 68.9263 53.832 69.5823 53.56C70.2383 53.288 70.9583 53.152 71.7423 53.152C72.8143 53.152 73.7503 53.384 74.5503 53.848C75.3503 54.296 75.9743 54.928 76.4223 55.744C76.8703 56.56 77.0943 57.504 77.0943 58.576C77.0943 59.696 76.8383 60.688 76.3263 61.552C75.8143 62.4 75.0783 63.064 74.1183 63.544C73.1583 64.024 72.0223 64.264 70.7103 64.264Z" fill="#2F3C33"/>
<path d="M83.722 63.098C83.498 63.098 83.3253 63.0373 83.204 62.916C83.0827 62.7853 83.022 62.608 83.022 62.384V56.784C83.022 56.5507 83.0827 56.3733 83.204 56.252C83.3253 56.1307 83.4933 56.07 83.708 56.07C83.932 56.07 84.1 56.1307 84.212 56.252C84.3333 56.3733 84.394 56.5507 84.394 56.784V57.932L84.24 57.624C84.4267 57.1293 84.716 56.742 85.108 56.462C85.5 56.182 85.9713 56.042 86.522 56.042C87.0913 56.042 87.5533 56.1773 87.908 56.448C88.2627 56.7187 88.5053 57.134 88.636 57.694H88.44C88.6173 57.1807 88.9207 56.7793 89.35 56.49C89.7793 56.1913 90.2787 56.042 90.848 56.042C91.3707 56.042 91.8 56.1447 92.136 56.35C92.472 56.546 92.724 56.8493 92.892 57.26C93.06 57.6613 93.144 58.17 93.144 58.786V62.384C93.144 62.608 93.0787 62.7853 92.948 62.916C92.8267 63.0373 92.654 63.098 92.43 63.098C92.206 63.098 92.0333 63.0373 91.912 62.916C91.7907 62.7853 91.73 62.608 91.73 62.384V58.856C91.73 58.2773 91.6273 57.8527 91.422 57.582C91.226 57.3113 90.8993 57.176 90.442 57.176C89.9287 57.176 89.5227 57.3533 89.224 57.708C88.9253 58.0627 88.776 58.5527 88.776 59.178V62.384C88.776 62.608 88.7153 62.7853 88.594 62.916C88.4727 63.0373 88.3 63.098 88.076 63.098C87.852 63.098 87.6747 63.0373 87.544 62.916C87.4227 62.7853 87.362 62.608 87.362 62.384V58.856C87.362 58.2773 87.264 57.8527 87.068 57.582C86.872 57.3113 86.5453 57.176 86.088 57.176C85.5747 57.176 85.1687 57.3533 84.87 57.708C84.5807 58.0627 84.436 58.5527 84.436 59.178V62.384C84.436 62.86 84.198 63.098 83.722 63.098ZM97.991 63.126C97.291 63.126 96.6843 62.9813 96.171 62.692C95.667 62.3933 95.275 61.978 94.995 61.446C94.715 60.9047 94.575 60.27 94.575 59.542C94.575 59.0007 94.6543 58.5153 94.813 58.086C94.9716 57.6473 95.1956 57.2787 95.485 56.98C95.7836 56.6813 96.143 56.4527 96.563 56.294C96.9923 56.126 97.4683 56.042 97.991 56.042C98.3176 56.042 98.6583 56.0933 99.013 56.196C99.377 56.2893 99.713 56.448 100.021 56.672C100.142 56.7467 100.217 56.84 100.245 56.952C100.282 57.0547 100.287 57.162 100.259 57.274C100.24 57.386 100.189 57.484 100.105 57.568C100.03 57.6427 99.937 57.6893 99.825 57.708C99.713 57.7173 99.5916 57.6847 99.461 57.61C99.237 57.4513 99.0083 57.3393 98.775 57.274C98.5416 57.1993 98.3176 57.162 98.103 57.162C97.767 57.162 97.4683 57.218 97.207 57.33C96.955 57.4327 96.7403 57.5867 96.563 57.792C96.3856 57.988 96.2503 58.2353 96.157 58.534C96.073 58.8327 96.031 59.1733 96.031 59.556C96.031 60.3213 96.2083 60.9233 96.563 61.362C96.927 61.7913 97.4403 62.006 98.103 62.006C98.3176 62.006 98.5416 61.9733 98.775 61.908C99.0083 61.8427 99.237 61.7307 99.461 61.572C99.5916 61.4973 99.713 61.4693 99.825 61.488C99.937 61.5067 100.026 61.558 100.091 61.642C100.166 61.7167 100.212 61.81 100.231 61.922C100.259 62.0247 100.254 62.132 100.217 62.244C100.18 62.356 100.1 62.4493 99.979 62.524C99.6803 62.7387 99.3536 62.8927 98.999 62.986C98.6536 63.0793 98.3176 63.126 97.991 63.126ZM104.333 65.646C103.829 65.646 103.339 65.5947 102.863 65.492C102.397 65.3893 101.972 65.2213 101.589 64.988C101.449 64.9133 101.356 64.82 101.309 64.708C101.263 64.6053 101.249 64.498 101.267 64.386C101.295 64.274 101.347 64.176 101.421 64.092C101.496 64.008 101.585 63.952 101.687 63.924C101.799 63.896 101.916 63.9147 102.037 63.98C102.448 64.204 102.835 64.3533 103.199 64.428C103.573 64.512 103.918 64.554 104.235 64.554C104.889 64.554 105.379 64.386 105.705 64.05C106.032 63.7233 106.195 63.238 106.195 62.594V61.166H106.321C106.181 61.6793 105.887 62.0853 105.439 62.384C104.991 62.6827 104.473 62.832 103.885 62.832C103.269 62.832 102.733 62.692 102.275 62.412C101.818 62.1227 101.463 61.726 101.211 61.222C100.959 60.7087 100.833 60.1113 100.833 59.43C100.833 58.9167 100.903 58.4547 101.043 58.044C101.193 57.6333 101.398 57.2787 101.659 56.98C101.93 56.6813 102.252 56.4527 102.625 56.294C103.008 56.126 103.428 56.042 103.885 56.042C104.483 56.042 105.001 56.1913 105.439 56.49C105.887 56.7887 106.177 57.1947 106.307 57.708L106.167 57.946V56.784C106.167 56.5507 106.228 56.3733 106.349 56.252C106.48 56.1307 106.653 56.07 106.867 56.07C107.091 56.07 107.264 56.1307 107.385 56.252C107.507 56.3733 107.567 56.5507 107.567 56.784V62.426C107.567 63.49 107.292 64.2927 106.741 64.834C106.191 65.3753 105.388 65.646 104.333 65.646ZM104.221 61.726C104.632 61.726 104.982 61.6327 105.271 61.446C105.561 61.2593 105.785 60.9933 105.943 60.648C106.102 60.3027 106.181 59.8967 106.181 59.43C106.181 58.73 106.004 58.1747 105.649 57.764C105.304 57.3533 104.828 57.148 104.221 57.148C103.82 57.148 103.475 57.2413 103.185 57.428C102.896 57.6147 102.667 57.8807 102.499 58.226C102.341 58.562 102.261 58.9633 102.261 59.43C102.261 60.1393 102.439 60.6993 102.793 61.11C103.148 61.5207 103.624 61.726 104.221 61.726Z" fill="#647067"/>
<rect x="14" y="87" width="16" height="20" rx="4" fill="#E3E4E3"/>
<rect x="33" y="87" width="16" height="20" rx="4" fill="#E3E4E3"/>
<rect x="52" y="87" width="16" height="20" rx="4" fill="#E3E4E3"/>
<rect x="71" y="87" width="16" height="20" rx="4" fill="#E3E4E3"/>
<rect x="90" y="87" width="16" height="20" rx="4" fill="#E3E4E3"/>
<rect x="109" y="87" width="16" height="20" rx="4" fill="#E3E4E3"/>
<rect x="128" y="87" width="16" height="20" rx="4" fill="#E3E4E3"/>
<rect x="14" y="110" width="16" height="20" rx="4" fill="#E3E4E3"/>
<rect x="33" y="110" width="16" height="20" rx="4" fill="#E3E4E3"/>
<rect x="52" y="110" width="16" height="20" rx="4" fill="#D9F99D"/>
<rect x="71" y="110" width="16" height="20" rx="4" fill="#D9F99D"/>
<rect x="90" y="110" width="16" height="20" rx="4" fill="#84CC16"/>
<rect x="109" y="110" width="16" height="20" rx="4" fill="#84CC16"/>
<rect x="128" y="110" width="16" height="20" rx="4" fill="#84CC16"/>
<rect x="14" y="133" width="16" height="20" rx="4" fill="#BEF264"/>
<rect x="33" y="133" width="16" height="20" rx="4" fill="#BEF264"/>
<rect x="52" y="133" width="16" height="20" rx="4" fill="#84CC16"/>
<rect x="71" y="133" width="16" height="20" rx="4" fill="#84CC16"/>
<rect x="90" y="133" width="16" height="20" rx="4" fill="#84CC16"/>
<rect x="109" y="133" width="16" height="20" rx="4" fill="#BEF264"/>
<rect x="128" y="133" width="16" height="20" rx="4" fill="#BEF264"/>
<rect x="14" y="156" width="16" height="20" rx="4" fill="#D9F99D"/>
<rect x="33" y="156" width="16" height="20" rx="4" fill="#D9F99D"/>
<rect x="52" y="156" width="16" height="20" rx="4" fill="#E3E4E3"/>
<rect x="71" y="156" width="16" height="20" rx="4" fill="#E3E4E3"/>
<rect x="90" y="156" width="16" height="20" rx="4" fill="#E3E4E3"/>
<rect x="109" y="156" width="16" height="20" rx="4" fill="#E3E4E3"/>
<rect x="128" y="156" width="16" height="20" rx="4" fill="#E3E4E3"/>
</svg>
