<svg width="188" height="62" viewBox="0 0 188 62" fill="none" xmlns="http://www.w3.org/2000/svg">
<rect x="22.75" y="22.75" width="15" height="21" rx="6.75" transform="rotate(90 22.75 22.75)" fill="white"/>
<rect x="52.75" y="22.75" width="15" height="21" rx="6.75" transform="rotate(90 52.75 22.75)" fill="white"/>
<rect x="19.75" y="34.75" width="15" height="21" rx="6.75" fill="white"/>
<rect x="19.75" y="4.75" width="15" height="21" rx="6.75" fill="white"/>
<path d="M81.4974 48C78.4072 48 75.7237 47.3997 73.4468 46.1992C71.1698 44.9986 69.4011 43.2946 68.1407 41.0871C66.8802 38.8409 66.25 36.2075 66.25 33.1867C66.25 30.9018 66.5956 28.8686 67.2868 27.0871C68.0187 25.2669 69.0555 23.7178 70.3973 22.4398C71.739 21.1231 73.3451 20.1355 75.2154 19.4772C77.0858 18.7801 79.1798 18.4315 81.4974 18.4315C84.5875 18.4315 87.271 19.0318 89.548 20.2324C91.8249 21.4329 93.5936 23.1369 94.854 25.3444C96.1145 27.5519 96.7447 30.166 96.7447 33.1867C96.7447 35.4716 96.3788 37.5242 95.6469 39.3444C94.9557 41.1646 93.9392 42.7331 92.5974 44.0498C91.2557 45.3278 89.6496 46.3153 87.7793 47.0124C85.9089 47.6708 83.815 48 81.4974 48ZM81.4974 42.4813C83.0018 42.4813 84.3232 42.1328 85.4617 41.4357C86.6001 40.7386 87.4743 39.7123 88.0842 38.3568C88.7348 36.9627 89.06 35.2393 89.06 33.1867C89.06 30.0885 88.3688 27.7842 86.9864 26.2739C85.604 24.7248 83.7743 23.9502 81.4974 23.9502C79.993 23.9502 78.6715 24.2988 77.533 24.9959C76.3946 25.6542 75.5001 26.6805 74.8495 28.0747C74.2396 29.4302 73.9347 31.1342 73.9347 33.1867C73.9347 36.2462 74.6259 38.5699 76.0083 40.1577C77.3907 41.7068 79.2204 42.4813 81.4974 42.4813Z" fill="white"/>
<path d="M109.685 48C107.937 48 106.087 47.8257 104.135 47.4772C102.183 47.1286 100.435 46.5284 98.8898 45.6763C98.2393 45.2891 97.7717 44.8437 97.4871 44.3402C97.2431 43.7981 97.1415 43.2752 97.1821 42.7718C97.2634 42.2296 97.4667 41.7649 97.792 41.3776C98.158 40.9903 98.6052 40.7386 99.1338 40.6224C99.703 40.5062 100.313 40.603 100.963 40.9129C102.59 41.6487 104.115 42.1715 105.538 42.4813C106.961 42.7524 108.364 42.888 109.746 42.888C111.698 42.888 113.141 42.5781 114.076 41.9585C115.052 41.3001 115.54 40.4481 115.54 39.4025C115.54 38.5118 115.215 37.834 114.564 37.3693C113.954 36.8658 113.019 36.4979 111.759 36.2656L105.66 35.1618C103.139 34.6971 101.207 33.8257 99.8657 32.5477C98.5646 31.231 97.914 29.5463 97.914 27.4938C97.914 25.6349 98.4426 24.0277 99.4997 22.6722C100.598 21.3167 102.102 20.2711 104.013 19.5353C105.924 18.7994 108.12 18.4315 110.6 18.4315C112.389 18.4315 114.056 18.6252 115.601 19.0124C117.187 19.361 118.711 19.9225 120.175 20.6971C120.785 21.0069 121.192 21.4136 121.395 21.917C121.639 22.4205 121.7 22.9433 121.578 23.4855C121.456 23.9889 121.212 24.4537 120.846 24.8797C120.48 25.2669 120.013 25.5187 119.443 25.6349C118.915 25.7123 118.305 25.5961 117.614 25.2863C116.353 24.6667 115.133 24.2213 113.954 23.9502C112.816 23.6791 111.718 23.5436 110.661 23.5436C108.668 23.5436 107.184 23.8728 106.209 24.5311C105.273 25.1895 104.806 26.0609 104.806 27.1452C104.806 27.9585 105.09 28.6362 105.66 29.1784C106.229 29.7206 107.103 30.0885 108.282 30.2822L114.381 31.3859C117.024 31.8506 119.016 32.7026 120.358 33.9419C121.741 35.1812 122.432 36.8465 122.432 38.9378C122.432 41.7649 121.273 43.9917 118.955 45.6183C116.638 47.2061 113.548 48 109.685 48Z" fill="white"/>
<path d="M134.464 48C131.089 48 128.548 47.0899 126.84 45.2697C125.132 43.4108 124.279 40.6999 124.279 37.1369V9.65975C124.279 8.4592 124.604 7.5491 125.254 6.92946C125.905 6.30982 126.84 6 128.06 6C129.28 6 130.215 6.30982 130.865 6.92946C131.557 7.5491 131.902 8.4592 131.902 9.65975V36.7884C131.902 38.5698 132.289 39.8866 133.061 40.7386C133.874 41.5906 135.013 42.0166 136.476 42.0166C136.802 42.0166 137.107 42.0166 137.391 42.0166C137.676 41.9779 137.961 41.9391 138.245 41.9004C138.814 41.823 139.201 41.9779 139.404 42.3651C139.607 42.7137 139.709 43.4495 139.709 44.5726C139.709 45.5408 139.506 46.296 139.099 46.8382C138.692 47.3804 138.022 47.7095 137.086 47.8257C136.68 47.8645 136.253 47.9032 135.806 47.9419C135.358 47.9806 134.911 48 134.464 48Z" fill="white"/>
<path d="M153.886 48C150.511 48 147.604 47.3997 145.165 46.1992C142.725 44.9986 140.834 43.2946 139.493 41.0871C138.191 38.8797 137.541 36.2656 137.541 33.2448C137.541 30.3015 138.171 27.7261 139.432 25.5187C140.733 23.3112 142.501 21.5878 144.738 20.3485C147.015 19.0705 149.597 18.4315 152.483 18.4315C154.598 18.4315 156.488 18.7607 158.155 19.4191C159.863 20.0775 161.306 21.0263 162.486 22.2656C163.705 23.5048 164.62 25.0152 165.23 26.7967C165.881 28.5394 166.206 30.5145 166.206 32.722C166.206 33.4191 165.942 33.9613 165.413 34.3485C164.925 34.6971 164.214 34.8714 163.278 34.8714H143.701V30.6888H160.839L159.863 31.5602C159.863 29.7787 159.578 28.2877 159.009 27.0871C158.481 25.8866 157.688 24.9765 156.631 24.3568C155.614 23.6985 154.333 23.3693 152.788 23.3693C151.081 23.3693 149.617 23.7566 148.397 24.5311C147.218 25.2669 146.303 26.332 145.653 27.7261C145.043 29.0816 144.738 30.7082 144.738 32.6058V33.0124C144.738 36.1881 145.51 38.5699 147.055 40.1577C148.641 41.7068 150.959 42.4813 154.008 42.4813C155.065 42.4813 156.244 42.3651 157.545 42.1328C158.887 41.8617 160.148 41.4163 161.327 40.7967C162.181 40.3319 162.933 40.1383 163.583 40.2158C164.234 40.2545 164.742 40.4675 165.108 40.8548C165.515 41.242 165.759 41.7261 165.84 42.3071C165.921 42.8492 165.799 43.4108 165.474 43.9917C165.189 44.5726 164.681 45.0761 163.949 45.5021C162.526 46.3541 160.88 46.9931 159.009 47.4191C157.18 47.8064 155.472 48 153.886 48Z" fill="white"/>
<path d="M171.878 47.8838C170.617 47.8838 169.641 47.574 168.95 46.9544C168.299 46.296 167.974 45.3665 167.974 44.166V22.2075C167.974 21.0069 168.299 20.0968 168.95 19.4772C169.601 18.8575 170.515 18.5477 171.695 18.5477C172.874 18.5477 173.788 18.8575 174.439 19.4772C175.09 20.0968 175.415 21.0069 175.415 22.2075V25.8672H174.805C175.374 23.5436 176.492 21.7815 178.159 20.5809C179.826 19.3804 182.042 18.6639 184.807 18.4315C185.661 18.3541 186.332 18.5671 186.82 19.0705C187.348 19.5353 187.653 20.2711 187.735 21.278C187.816 22.2462 187.572 23.0401 187.003 23.6598C186.474 24.2407 185.661 24.5892 184.563 24.7054L183.222 24.8216C180.741 25.0539 178.871 25.7898 177.611 27.029C176.35 28.2296 175.72 29.9336 175.72 32.1411V44.166C175.72 45.3665 175.395 46.296 174.744 46.9544C174.093 47.574 173.138 47.8838 171.878 47.8838Z" fill="white"/>
</svg>
