<svg width="196" height="136" viewBox="0 0 196 136" fill="none" xmlns="http://www.w3.org/2000/svg">
<path d="M28.7538 72.7819C28.7538 74.5092 29.1329 75.8354 29.6285 76.6376C30.2782 77.6885 31.2472 78.1337 32.2351 78.1337C33.5094 78.1337 34.6751 77.8175 36.9215 74.7106C38.7211 72.2203 40.8417 68.7248 42.2686 66.5334L44.6849 62.8209C46.3634 60.2425 48.3062 57.3763 50.5338 55.4335C52.3523 53.8477 54.314 52.9668 56.2883 52.9668C59.6028 52.9668 62.7601 54.8876 65.1764 58.49C67.8209 62.4355 69.1045 67.405 69.1045 72.5334C69.1045 75.5821 68.5036 77.8222 67.4811 79.592C66.4931 81.3035 64.5676 83.0135 61.3286 83.0135V78.1337C64.102 78.1337 64.7942 75.5852 64.7942 72.6686C64.7942 68.5124 63.8251 63.9 61.6904 60.6043C60.1755 58.2667 58.2122 56.8383 56.0523 56.8383C53.7162 56.8383 51.8363 58.6002 49.7236 61.7417C48.6004 63.4108 47.4473 65.4448 46.1526 67.74L44.7274 70.2649C41.8643 75.3414 41.139 76.4976 39.7075 78.4058C37.1984 81.7472 35.0558 83.0135 32.2351 83.0135C28.8891 83.0135 26.7732 81.5647 25.4628 79.3812C24.3931 77.602 23.8677 75.2675 23.8677 72.6073L28.7538 72.7819Z" fill="#647067"/>
<path d="M27.7202 58.8346C29.9603 55.3815 33.1931 52.9668 36.901 52.9668C39.0483 52.9668 41.183 53.6023 43.4122 55.4224C45.8505 57.4125 48.4493 60.6893 51.6915 66.0898L52.8541 68.0279C55.6605 72.7033 57.2573 75.1086 58.1917 76.2428C59.3936 77.6995 60.2352 78.1337 61.3285 78.1337C64.1019 78.1337 64.7941 75.5852 64.7941 72.6686L69.1045 72.5334C69.1045 75.5821 68.5035 77.8222 67.481 79.592C66.4931 81.3035 64.5676 83.0135 61.3285 83.0135C59.3149 83.0135 57.531 82.5762 55.5583 80.7152C54.0418 79.2868 52.2689 76.7493 50.905 74.4683L46.8479 67.6913C44.8122 64.2902 42.9449 61.7543 41.8642 60.6059C40.7017 59.371 39.2072 57.8797 36.8223 57.8797C34.8921 57.8797 33.2529 59.2341 31.8811 61.3059L27.7202 58.8346Z" fill="#647067"/>
<path d="M36.8224 57.8797C34.8922 57.8797 33.253 59.2341 31.8812 61.3059C29.9415 64.2335 28.7538 68.5942 28.7538 72.7819C28.7538 74.5092 29.1329 75.8354 29.6285 76.6376L25.4628 79.3812C24.3931 77.602 23.8677 75.2675 23.8677 72.6073C23.8677 67.7699 25.1954 62.7281 27.7203 58.8346C29.9604 55.3815 33.1932 52.9668 36.901 52.9668L36.8224 57.8797Z" fill="#647067"/>
<path d="M78.603 53.916H84.2553L93.8655 71.3022L103.477 53.916H109.007V82.484H104.396V60.5892L95.9672 75.751H91.6411L83.2139 60.5892V82.484H78.603V53.916ZM123.454 64.5677C120.148 64.5677 118.156 67.0563 117.68 70.1381H128.902C128.671 66.9635 126.84 64.5677 123.454 64.5677ZM113.108 71.8937C113.108 65.4093 117.299 60.6899 123.535 60.6899C129.668 60.6899 133.331 65.3495 133.331 72.2398V73.5062H117.68C118.235 76.8585 120.459 79.1175 124.046 79.1175C126.907 79.1175 128.696 78.2444 130.392 76.6477L132.841 79.6477C130.534 81.7698 127.598 82.9937 123.882 82.9937C117.132 82.9937 113.108 78.0714 113.108 71.8937ZM138.921 64.9767H134.677V61.2012H138.921V54.9574H143.37V61.2012H149.819V64.9767H143.37V74.546C143.37 77.8134 144.415 78.9744 146.982 78.9744C148.154 78.9744 148.826 78.8737 149.819 78.7085V82.4431C148.582 82.7923 147.402 82.9528 146.125 82.9528C141.322 82.9528 138.921 80.3288 138.921 75.0762V64.9767ZM168.551 68.6484C167.658 66.3925 165.665 64.7313 162.735 64.7313C158.929 64.7313 156.492 67.4323 156.492 71.8324C156.492 76.1223 158.735 78.9539 162.553 78.9539C165.555 78.9539 167.697 77.2077 168.551 75.0353V68.6484ZM173 82.484H168.633V79.5045C167.412 81.2585 165.191 82.9937 161.593 82.9937C155.807 82.9937 151.941 78.15 151.941 71.8324C151.941 65.4549 155.9 60.6899 161.839 60.6899C164.774 60.6899 167.077 61.8635 168.633 63.9353V61.2012H173V82.484Z" fill="#647067"/>
</svg>
