<svg width="196" height="136" viewBox="0 0 196 136" fill="none" xmlns="http://www.w3.org/2000/svg">
<path d="M76.5756 70.3229L75.6879 72.8382H75.6139C75.4659 72.271 75.1947 71.4079 74.7508 70.3722L69.9913 58.412H65.3306V77.4743H68.4131V65.7114C68.4131 64.9716 68.4131 64.1332 68.3884 63.0974C68.3638 62.5796 68.3145 62.185 68.2898 61.8891H68.3638C68.5117 62.6289 68.6844 63.1714 68.8077 63.5167L74.5288 77.425H76.6989L82.3708 63.3933C82.4941 63.0728 82.6174 62.4316 82.7407 61.8891H82.8147C82.7407 63.2947 82.6914 64.5524 82.6667 65.3168V77.4004H85.9465V58.3627H81.4584L76.5756 70.3229ZM89.0537 63.7386H92.2595V77.4004H89.0537V63.7386ZM90.6813 57.9681C90.1387 57.9681 89.6949 58.1654 89.325 58.5106C88.9551 58.8559 88.7578 59.2998 88.7578 59.8423C88.7578 60.3601 88.9551 60.804 89.325 61.1493C89.6949 61.4945 90.1387 61.6671 90.6813 61.6671C91.2238 61.6671 91.6923 61.4699 92.0376 61.1493C92.4075 60.804 92.6048 60.3601 92.6048 59.8423C92.6048 59.3244 92.4075 58.8805 92.0376 58.5106C91.717 58.1654 91.2485 57.9681 90.6813 57.9681ZM103.628 63.6153C103.036 63.492 102.42 63.418 101.828 63.418C100.373 63.418 99.0411 63.7386 97.9314 64.3798C96.8217 65.0209 95.9339 65.9087 95.3667 67.0184C94.7749 68.1528 94.4789 69.4598 94.4789 70.964C94.4789 72.271 94.7749 73.4301 95.3421 74.4904C95.9092 75.5262 96.6984 76.3646 97.7588 76.9318C98.7698 77.499 99.9535 77.7949 101.285 77.7949C102.814 77.7949 104.121 77.4743 105.157 76.8825L105.181 76.8578V73.8986L105.058 73.9972C104.59 74.3425 104.047 74.6384 103.505 74.811C102.937 75.0083 102.42 75.107 101.976 75.107C100.693 75.107 99.6823 74.7371 98.9671 73.9233C98.2273 73.1341 97.8574 72.0491 97.8574 70.6928C97.8574 69.2871 98.2273 68.1774 98.9918 67.3636C99.7562 66.5499 100.767 66.1306 102 66.1306C103.036 66.1306 104.096 66.4759 105.058 67.1664L105.181 67.265V64.1332L105.157 64.1085C104.738 63.9359 104.269 63.7386 103.628 63.6153ZM114.207 63.5167C113.418 63.5167 112.678 63.7633 112.037 64.2811C111.495 64.725 111.125 65.3662 110.804 66.1306H110.779V63.7386H107.574V77.4004H110.779V70.4215C110.779 69.2378 111.026 68.2514 111.568 67.5363C112.111 66.7965 112.801 66.4266 113.64 66.4266C113.936 66.4266 114.232 66.5005 114.602 66.5499C114.947 66.6485 115.194 66.7471 115.366 66.8704L115.489 66.9691V63.7633L115.415 63.7386C115.194 63.5906 114.75 63.5167 114.207 63.5167ZM122.937 63.4427C120.693 63.4427 118.893 64.1085 117.635 65.4155C116.353 66.7225 115.736 68.5227 115.736 70.7914C115.736 72.9122 116.377 74.6384 117.61 75.8961C118.843 77.1291 120.52 77.7703 122.616 77.7703C124.811 77.7703 126.562 77.1044 127.82 75.7728C129.102 74.4411 129.718 72.6656 129.718 70.4708C129.718 68.3007 129.127 66.5745 127.918 65.3168C126.759 64.0592 125.058 63.4427 122.937 63.4427ZM125.502 73.9479C124.91 74.7124 123.973 75.0823 122.814 75.0823C121.655 75.0823 120.717 74.7124 120.052 73.8986C119.386 73.1341 119.065 72.0244 119.065 70.6188C119.065 69.1638 119.41 68.0541 120.052 67.265C120.717 66.4759 121.63 66.0813 122.789 66.0813C123.923 66.0813 124.811 66.4512 125.452 67.2157C126.093 67.9802 126.439 69.0899 126.439 70.5448C126.389 72.0244 126.118 73.1835 125.502 73.9479ZM136.87 69.4104C135.859 68.9912 135.218 68.6706 134.922 68.3994C134.675 68.1528 134.552 67.8075 134.552 67.3636C134.552 66.9937 134.7 66.6238 135.07 66.3772C135.44 66.1306 135.859 66.0073 136.475 66.0073C137.018 66.0073 137.585 66.106 138.128 66.2539C138.67 66.4019 139.163 66.6238 139.558 66.9198L139.681 67.0184V64.0099L139.607 63.9852C139.237 63.8372 138.744 63.6893 138.152 63.566C137.56 63.4673 137.018 63.418 136.574 63.418C135.045 63.418 133.787 63.7879 132.801 64.6017C131.815 65.3662 131.346 66.4019 131.346 67.6102C131.346 68.2514 131.445 68.8186 131.667 69.2871C131.889 69.7557 132.209 70.1996 132.653 70.5695C133.097 70.9147 133.738 71.3093 134.626 71.6792C135.366 71.9998 135.933 72.2464 136.278 72.4437C136.623 72.6409 136.845 72.8629 137.018 73.0355C137.141 73.2328 137.215 73.4794 137.215 73.8C137.215 74.7124 136.525 75.1563 135.119 75.1563C134.576 75.1563 134.009 75.0576 133.343 74.8357C132.678 74.6138 132.061 74.2932 131.543 73.9233L131.42 73.8246V76.9565L131.494 76.9811C131.962 77.2031 132.53 77.351 133.22 77.5237C133.911 77.647 134.527 77.7456 135.07 77.7456C136.722 77.7456 138.078 77.3757 139.04 76.5619C140.026 75.7728 140.544 74.7617 140.544 73.4547C140.544 72.5423 140.298 71.7285 139.755 71.112C139.04 70.5202 138.152 69.9036 136.87 69.4104ZM149.003 63.4427C146.759 63.4427 144.958 64.1085 143.701 65.4155C142.443 66.7225 141.802 68.5227 141.802 70.7914C141.802 72.9122 142.443 74.6384 143.676 75.8961C144.909 77.1291 146.586 77.7703 148.682 77.7703C150.877 77.7703 152.628 77.1044 153.885 75.7728C155.168 74.4411 155.784 72.6656 155.784 70.4708C155.784 68.3007 155.192 66.5745 153.984 65.3168C152.825 64.0592 151.123 63.4427 149.003 63.4427ZM151.543 73.9479C150.951 74.7124 150.014 75.0823 148.855 75.0823C147.671 75.0823 146.759 74.7124 146.093 73.8986C145.427 73.1341 145.106 72.0244 145.106 70.6188C145.106 69.1638 145.452 68.0541 146.093 67.265C146.759 66.4759 147.671 66.0813 148.83 66.0813C149.94 66.0813 150.852 66.4512 151.493 67.2157C152.135 67.9802 152.48 69.0899 152.48 70.5448C152.48 72.0244 152.159 73.1835 151.543 73.9479ZM172.923 66.3772V63.7386H169.693V59.6943L169.594 59.719L166.536 60.6314L166.462 60.6561V63.7386H161.629V62.0124C161.629 61.2232 161.826 60.6067 162.171 60.2122C162.517 59.8176 163.034 59.6203 163.676 59.6203C164.119 59.6203 164.588 59.719 165.106 59.9409L165.229 60.0149V57.2283L165.155 57.2036C164.711 57.0557 164.119 56.957 163.355 56.957C162.393 56.957 161.555 57.179 160.79 57.5489C160.026 57.9681 159.459 58.5353 159.039 59.2998C158.62 60.0396 158.398 60.878 158.398 61.8398V63.7386H156.154V66.3526H158.398V77.4004H161.629V66.3772H166.462V73.4054C166.462 76.2906 167.818 77.7456 170.531 77.7456C170.975 77.7456 171.444 77.6716 171.887 77.5976C172.356 77.499 172.701 77.3757 172.898 77.2771L172.923 77.2524V74.6138L172.8 74.7124C172.603 74.8357 172.43 74.9343 172.134 75.0083C171.887 75.0823 171.665 75.107 171.493 75.107C170.852 75.107 170.408 74.959 170.087 74.5891C169.791 74.2438 169.643 73.6767 169.643 72.8382V66.3772H172.923Z" fill="#647067"/>
<path d="M24 52H39.1167V67.1167H24V52Z" fill="#647067"/>
<path d="M40.6948 52H55.8115V67.1167H40.6948V52Z" fill="#647067"/>
<path d="M24 68.6953H39.1167V83.812H24V68.6953Z" fill="#647067"/>
<path d="M40.6948 68.6953H55.8115V83.812H40.6948V68.6953Z" fill="#647067"/>
</svg>
