<svg width="196" height="136" viewBox="0 0 196 136" fill="none" xmlns="http://www.w3.org/2000/svg">
<path fill-rule="evenodd" clip-rule="evenodd" d="M67.1232 54.0232C69.1032 54.5563 70.6644 56.1175 71.1975 58.0976C72.1875 61.715 72.1495 69.2544 72.1495 69.2544C72.1495 69.2544 72.1495 76.7558 71.1975 80.3732C70.6644 82.3532 69.1032 83.9144 67.1232 84.4475C63.5058 85.3994 49.0362 85.3994 49.0362 85.3994C49.0362 85.3994 34.6046 85.3994 30.9491 84.4094C28.9691 83.8763 27.4079 82.3151 26.8748 80.3351C25.9229 76.7558 25.9229 69.2163 25.9229 69.2163C25.9229 69.2163 25.9229 61.715 26.8748 58.0976C27.4079 56.1175 29.0072 54.5182 30.9491 53.9852C34.5665 53.0332 49.0362 53.0332 49.0362 53.0332C49.0362 53.0332 63.5058 53.0332 67.1232 54.0232ZM56.4613 69.2173L44.4287 76.1475V62.2871L56.4613 69.2173Z" fill="#647067"/>
<path d="M93.0542 82.5048C92.1403 81.8956 91.493 80.9436 91.1122 79.6109C90.7314 78.3162 90.541 76.5647 90.541 74.4323V71.5003C90.541 69.3298 90.7695 67.5783 91.1883 66.2455C91.6453 64.9128 92.3307 63.9609 93.2446 63.3516C94.1965 62.7424 95.415 62.4377 96.9381 62.4377C98.4231 62.4377 99.6416 62.7424 100.556 63.3516C101.469 63.9609 102.117 64.9509 102.536 66.2455C102.954 67.5402 103.183 69.2918 103.183 71.5003V74.4323C103.183 76.6027 102.993 78.3162 102.574 79.649C102.155 80.9436 101.507 81.9336 100.594 82.5429C99.6797 83.1521 98.4231 83.4568 96.862 83.4568C95.2627 83.4187 93.968 83.1141 93.0542 82.5048ZM98.1947 79.3063C98.4612 78.6589 98.5755 77.5547 98.5755 76.0696V69.7487C98.5755 68.3017 98.4612 67.2356 98.1947 66.5502C97.9281 65.8648 97.5093 65.5601 96.862 65.5601C96.2527 65.5601 95.7958 65.9028 95.5673 66.5502C95.3008 67.2356 95.1865 68.3017 95.1865 69.7487V76.0696C95.1865 77.5547 95.3008 78.6589 95.5673 79.3063C95.7958 79.9536 96.2527 80.2963 96.9 80.2963C97.5093 80.2963 97.9281 79.9917 98.1947 79.3063Z" fill="#647067"/>
<path d="M163.346 74.4704V75.4985C163.346 76.7931 163.384 77.7831 163.46 78.4305C163.537 79.0778 163.689 79.5728 163.955 79.8393C164.184 80.144 164.565 80.2963 165.098 80.2963C165.783 80.2963 166.24 80.0297 166.507 79.4966C166.773 78.9635 166.887 78.0878 166.926 76.8312L170.848 77.0597C170.886 77.25 170.886 77.4785 170.886 77.7831C170.886 79.649 170.391 81.0578 169.363 81.9717C168.334 82.8856 166.887 83.3425 165.022 83.3425C162.775 83.3425 161.214 82.619 160.3 81.2101C159.386 79.8013 158.929 77.6308 158.929 74.6607V71.1195C158.929 68.0733 159.386 65.8647 160.338 64.4559C161.29 63.047 162.889 62.3616 165.136 62.3616C166.697 62.3616 167.916 62.6662 168.753 63.2374C169.591 63.8085 170.162 64.7224 170.505 65.9028C170.848 67.1213 171 68.7967 171 70.9291V74.3942H163.346V74.4704ZM163.917 65.9409C163.689 66.2455 163.537 66.7025 163.46 67.3498C163.384 67.9971 163.346 68.9871 163.346 70.3199V71.7668H166.697V70.3199C166.697 69.0252 166.659 68.0352 166.583 67.3498C166.507 66.6644 166.316 66.2074 166.088 65.9409C165.859 65.6744 165.479 65.522 165.022 65.522C164.489 65.484 164.146 65.6363 163.917 65.9409Z" fill="#647067"/>
<path d="M81.9354 74.0888L76.7568 55.3164H81.2881L83.1158 63.8078C83.5728 65.9021 83.9155 67.6917 84.144 69.1768H84.2582C84.4105 68.1106 84.7532 66.359 85.2863 63.8459L87.1902 55.3164H91.7215L86.4667 74.0888V83.0752H81.9735V74.0888H81.9354Z" fill="#647067"/>
<path d="M117.919 62.8186V83.1141H114.34L113.959 80.6391H113.845C112.893 82.5049 111.408 83.4568 109.466 83.4568C108.133 83.4568 107.143 82.9999 106.496 82.1241C105.849 81.2483 105.544 79.8775 105.544 77.9736V62.8186H110.113V77.7071C110.113 78.6209 110.228 79.2683 110.418 79.649C110.608 80.0298 110.951 80.2202 111.408 80.2202C111.789 80.2202 112.17 80.106 112.55 79.8394C112.931 79.611 113.198 79.3063 113.35 78.9256V62.8186H117.919Z" fill="#647067"/>
<path d="M141.337 62.8186V83.1141H137.757L137.377 80.6391H137.262C136.31 82.5049 134.825 83.4568 132.883 83.4568C131.551 83.4568 130.561 82.9999 129.913 82.1241C129.266 81.2483 128.961 79.8775 128.961 77.9736V62.8186H133.531V77.7071C133.531 78.6209 133.645 79.2683 133.835 79.649C134.026 80.0298 134.368 80.2202 134.825 80.2202C135.206 80.2202 135.587 80.106 135.968 79.8394C136.349 79.611 136.615 79.3063 136.767 78.9256V62.8186H141.337Z" fill="#647067"/>
<path d="M130.333 59.01H125.801V83.0752H121.346V59.01H116.815V55.3164H130.333V59.01Z" fill="#647067"/>
<path d="M156.454 66.0551C156.187 64.7605 155.73 63.8466 155.121 63.2755C154.512 62.7043 153.636 62.3997 152.57 62.3997C151.732 62.3997 150.933 62.6281 150.209 63.1231C149.486 63.5801 148.915 64.2274 148.534 64.989H148.496V54.2891H144.079V83.076H147.848L148.305 81.1721H148.42C148.762 81.8575 149.295 82.3906 150.019 82.8094C150.742 83.1902 151.504 83.4187 152.38 83.4187C153.941 83.4187 155.045 82.6952 155.769 81.2863C156.492 79.8774 156.873 77.6308 156.873 74.6227V71.4241C156.835 69.1014 156.72 67.3117 156.454 66.0551ZM152.265 74.3181C152.265 75.8031 152.189 76.9454 152.075 77.7831C151.961 78.6209 151.732 79.2301 151.466 79.5728C151.161 79.9155 150.78 80.1059 150.323 80.1059C149.943 80.1059 149.6 80.0297 149.295 79.8394C148.991 79.649 148.724 79.3824 148.534 79.0397V67.5402C148.686 67.0071 148.953 66.5502 149.333 66.1694C149.714 65.8267 150.133 65.6363 150.552 65.6363C151.009 65.6363 151.39 65.8267 151.618 66.1694C151.885 66.5502 152.037 67.1594 152.151 67.9971C152.265 68.8729 152.303 70.0914 152.303 71.6526V74.3181H152.265Z" fill="#647067"/>
</svg>
